<svg width="88" height="23" viewBox="0 0 88 23" fill="none" xmlns="http://www.w3.org/2000/svg">
<path d="M87.2645 0.194092H0.88501V22.4391H87.2645V0.194092Z" fill="black"/>
<path d="M86.8346 0.624756H1.3147V22.0086H86.8346V0.624756Z" fill="white"/>
<path d="M18.2181 14.5457C18.9344 13.8281 19.2209 13.1106 19.5074 12.2495L20.2236 9.37918C20.3669 8.51809 20.6534 7.94399 21.0831 7.51345H21.5129L19.6506 14.5457C19.3641 14.5457 19.2209 14.5457 18.9344 14.5457C18.6479 14.5457 18.5046 14.5457 18.2181 14.5457ZM12.9179 16.842L13.0612 16.9855C15.0666 15.6939 16.3559 14.9763 16.7856 14.2587C17.5019 13.5411 17.9316 12.68 18.2181 11.6754L18.7911 9.37918C19.0776 8.23105 19.6506 7.65695 20.6534 7.36992C20.2236 7.80047 20.0804 8.37456 19.7939 9.23566L19.0776 12.2495C18.7911 13.5411 17.9316 14.4022 16.4991 15.4068C15.4964 16.1244 14.0639 16.6985 12.7747 17.5596L12.9179 17.8466C14.7801 16.842 16.4991 16.4115 17.9316 16.4115C19.2209 16.4115 20.6534 16.6985 21.9426 17.2726C23.0886 16.4115 24.0914 15.6939 25.2374 15.4068C25.3806 14.8328 25.5239 14.2587 25.6671 13.8281C26.5266 10.6708 26.6698 8.37457 26.0968 7.22644C25.5238 6.07831 24.5211 5.79128 22.8021 5.79128C20.5101 5.79128 18.7911 6.07829 17.9316 6.07829C17.0721 6.07829 16.4991 5.64776 16.4991 4.93018H16.3559C16.3559 5.07369 16.2126 5.21719 16.2126 5.36071C15.7829 6.79587 16.4991 7.8005 17.9316 7.8005C18.2181 7.8005 18.9344 7.80049 20.3669 7.65697C18.5046 8.66158 17.3586 9.95321 16.7856 11.6754C16.6424 11.6754 16.4991 11.6754 16.2126 11.6754C15.0666 11.6754 14.2071 12.2495 13.7774 13.3976C14.2071 12.9671 14.6369 12.8236 15.0666 12.8236C15.7829 12.8236 16.0694 13.3976 15.7829 14.2587C15.0666 15.1198 14.2071 15.8374 12.9179 16.842ZM24.2346 10.2402C23.6616 10.6708 23.2318 10.9578 22.5156 10.9578C21.9426 10.9578 21.5129 10.6708 21.2264 10.2402L21.9426 7.51345H22.0859C23.9481 7.51345 24.5211 8.37453 24.2346 10.2402ZM20.5101 12.9671L21.0831 10.8143C21.3696 11.1014 21.7994 11.2449 22.5156 11.2449C23.0886 11.2449 23.6616 11.1014 24.2346 10.6708C24.0914 11.2449 24.0914 11.9624 23.8049 12.5365C23.8049 12.68 23.8049 12.8236 23.6616 12.9671C23.2319 12.6801 22.8021 12.5365 22.2291 12.5365C21.7994 12.5365 21.0831 12.6801 20.5101 12.9671ZM20.0804 14.5457L20.3669 13.5411C20.9399 13.1106 21.5129 12.8236 22.2291 12.8236C22.8021 12.8236 23.3751 13.1106 23.6616 13.5411C23.6616 13.6847 23.6616 13.8282 23.5184 13.9717C23.3751 14.4022 23.2318 14.6893 23.2318 15.1198C22.0859 14.8328 21.0831 14.6892 20.0804 14.5457Z" fill="#D70000"/>
<path d="M28.6754 14.8328C28.6754 15.1198 28.3889 15.4069 28.1024 15.4069C27.8159 15.4069 27.6726 15.2633 27.8159 14.8328L27.9591 13.9717C27.9591 13.6847 28.1024 13.5412 28.3889 13.3976L28.9619 12.9671L28.6754 14.8328ZM31.1106 11.6754C31.3971 10.2403 30.9674 9.52271 29.2484 9.52271C27.9591 9.52271 26.9564 10.2403 26.8131 11.2449L26.6699 11.819H28.3889L28.5321 11.2449C28.5321 10.9579 28.8186 10.8144 29.1051 10.8144C29.3916 10.8144 29.5349 10.9579 29.3916 11.3884C29.2484 12.106 28.5321 12.2495 27.8159 12.5365C27.0996 12.8236 26.2401 13.2541 26.0969 14.5458C25.9536 15.6939 25.8104 16.6985 27.2429 16.6985C27.8159 16.6985 28.2456 16.4115 28.6754 15.9809L28.5321 16.555H30.2511L31.1106 11.6754Z" fill="black"/>
<path d="M31.9701 10.9578H31.5404L31.8269 9.66612H32.2566L32.5431 8.23096H34.4054L34.1189 9.66612H34.5486L34.2621 10.9578H33.8324L33.1161 14.6892C33.1161 14.8327 32.9729 15.2632 33.2594 15.2632H33.5459L33.2594 16.6984H32.3999C31.6836 16.6984 30.9674 16.5549 31.2539 15.4068L31.9701 10.9578Z" fill="black"/>
<path d="M36.554 14.8328C36.554 15.1198 36.2675 15.4069 35.981 15.4069C35.6945 15.4069 35.5513 15.2633 35.6945 14.8328L35.8378 13.9717C35.8378 13.6847 35.981 13.5412 36.2675 13.3976L36.8405 12.9671L36.554 14.8328ZM38.9893 11.6754C39.2758 10.2403 38.846 9.52271 37.127 9.52271C35.8378 9.52271 34.835 10.2403 34.6918 11.2449L34.5486 11.819H36.2675L36.4108 11.2449C36.4108 10.9579 36.6973 10.8144 36.9838 10.8144C37.2703 10.8144 37.4135 10.9579 37.2703 11.3884C37.127 12.106 36.4108 12.2495 35.6945 12.5365C34.9783 12.8236 34.1188 13.2541 33.9755 14.5458C33.8323 15.6939 33.689 16.6985 35.1215 16.6985C35.6945 16.6985 36.1243 16.4115 36.554 15.9809L36.4108 16.555H38.1298L38.9893 11.6754Z" fill="black"/>
<path d="M42.7138 13.5411L42.5705 14.1152C42.4273 14.5457 42.5705 14.9763 43.0003 14.9763C43.43 14.9763 43.7165 14.6892 43.8598 14.2587C44.003 13.5411 43.2868 12.967 42.5705 12.393C41.8543 11.6754 41.1381 11.2449 41.4246 9.95322C41.7111 8.23103 42.8571 7.51343 44.2896 7.51343C46.0085 7.51343 46.5815 8.37452 46.295 9.66617L46.1518 10.3837H44.2896L44.4328 9.95322C44.576 9.52267 44.576 8.94859 44.003 8.94859C43.5733 8.94859 43.2868 9.23562 43.2868 9.66617C43.1435 10.2402 43.8598 10.8143 44.576 11.3884C45.149 12.106 46.0085 12.393 45.722 14.2587C45.5788 15.1198 44.7193 16.4114 42.7138 16.4114C40.7083 16.4114 40.4218 15.1198 40.5651 14.2587L40.7083 13.3976H42.7138V13.5411Z" fill="black"/>
<path d="M47.1545 10.9578H46.7247L47.0112 9.66612H47.441L47.7275 8.23096H49.5897L49.3032 9.66612H49.7329L49.4464 10.9578H49.0167L48.3004 14.6892C48.3004 14.8327 48.1572 15.2632 48.4437 15.2632H48.7302L48.4437 16.6984H47.5842C46.868 16.6984 46.1517 16.5549 46.4382 15.4068L47.1545 10.9578Z" fill="black"/>
<path d="M51.8819 14.8328C51.8819 15.1198 51.5954 15.4069 51.3089 15.4069C51.0224 15.4069 50.8791 15.2633 51.0224 14.8328L51.1656 13.9717C51.1656 13.6847 51.3089 13.5412 51.5954 13.3976L52.1684 12.9671L51.8819 14.8328ZM54.1739 11.6754C54.4604 10.2403 54.0306 9.52271 52.3116 9.52271C51.0224 9.52271 50.0196 10.2403 49.8764 11.2449L49.7331 11.819H51.4521L51.5954 11.2449C51.5954 10.9579 51.8819 10.8144 52.1684 10.8144C52.4549 10.8144 52.5981 10.9579 52.4549 11.3884C52.3116 12.106 51.5954 12.2495 50.8791 12.5365C50.1629 12.8236 49.3034 13.2541 49.1601 14.5458C49.0169 15.6939 48.8736 16.6985 50.3061 16.6985C50.8791 16.6985 51.3089 16.4115 51.7386 15.9809L51.5954 16.555H53.3144L54.1739 11.6754Z" fill="black"/>
<path d="M57.0386 14.1153C56.8954 14.5458 56.8954 15.2634 56.3224 15.2634C56.1791 15.2634 56.0359 15.1199 56.0359 14.8329L56.6089 11.3885C56.6089 11.1014 56.8954 10.9579 57.0386 10.9579C57.4684 10.9579 57.4684 11.3885 57.3251 11.819L57.0386 14.1153ZM59.9036 7.94409H58.0414L57.6116 10.2403C57.4684 9.66626 57.0386 9.52274 56.4656 9.52274C55.6061 9.52274 55.0331 10.2403 54.8899 11.245L54.3169 14.5458C54.0304 15.8375 54.4602 16.5551 55.3196 16.5551C55.8926 16.5551 56.4656 16.268 56.7521 15.694L56.6089 16.4116H58.4711L59.9036 7.94409Z" fill="black"/>
<path d="M60.4767 9.66626H62.339L61.0497 16.5551H59.1875L60.4767 9.66626ZM60.7632 7.94409H62.6255L62.339 9.23573H60.4767L60.7632 7.94409Z" fill="black"/>
<path d="M66.2067 16.555H64.4877L64.631 15.8375C64.2013 16.4115 63.7715 16.6985 63.0552 16.6985C62.1958 16.6985 61.9093 16.1245 62.0525 15.2634L63.0552 9.66626H64.9175L64.058 14.4023C64.058 14.6893 63.9148 15.1199 64.3445 15.1199C64.7743 15.1199 64.9175 14.6893 64.9175 14.4023L65.777 9.66626H67.6392L66.2067 16.555Z" fill="black"/>
<path d="M68.2121 9.66623H69.9311L69.7878 10.5273C70.2176 9.95327 70.6474 9.52271 71.3636 9.52271C71.9366 9.52271 72.3664 9.80975 72.5096 10.5273C72.9394 9.95327 73.3691 9.52271 74.0853 9.52271C74.9448 9.52271 75.3746 10.0968 75.2313 10.9579L74.2286 16.555H72.3663L73.2259 11.9625C73.2259 11.6755 73.3691 11.2449 72.9394 11.2449C72.5096 11.2449 72.3663 11.819 72.3663 11.9625L71.5069 16.555H69.6446L70.5041 11.9625C70.5041 11.6755 70.6473 11.2449 70.2176 11.2449C69.7878 11.2449 69.6446 11.819 69.6446 11.9625L68.7851 16.555H66.9229L68.2121 9.66623Z" fill="black"/>
</svg>
