<svg width="131" height="34" viewBox="0 0 131 34" fill="none" xmlns="http://www.w3.org/2000/svg">
<path d="M130.323 0.0351562H0.825684V33.4744H130.323V0.0351562Z" fill="black"/>
<path d="M129.607 0.752686H1.39868V32.9003H129.607V0.752686Z" fill="#F9FAFA"/>
<path d="M40.649 7.21094C43.8005 7.21094 46.0925 8.50258 47.2385 10.9424C47.525 11.5164 47.6683 11.947 47.8115 12.521C47.9548 13.0951 47.9548 13.9562 47.9548 14.9608V18.5487C47.9548 19.4098 47.9548 20.1274 47.8115 20.7014C47.6683 21.2755 47.525 21.8496 47.2385 22.4236C46.2358 24.8634 44.2303 26.155 41.3653 26.155H35.2056C34.7758 26.155 34.4893 26.155 34.3461 26.0115C34.0596 25.868 34.0596 25.581 34.0596 25.1504V8.21555C34.0596 7.785 34.2028 7.49797 34.3461 7.35445C34.4893 7.21094 34.7758 7.21094 35.2056 7.21094H40.649ZM38.3571 22.4236H40.5058C41.6518 22.4236 42.368 22.1366 42.7978 21.5625C43.2275 20.9885 43.3708 19.9839 43.3708 18.5487V14.6738C43.3708 13.3821 43.0843 12.3775 42.6545 11.8034C42.2248 11.2294 41.5085 10.9424 40.5058 10.9424H38.3571V22.4236Z" fill="#001723"/>
<path d="M87.3484 15.1043V25.1504C87.3484 25.581 87.2051 25.868 87.0619 26.0115C86.9186 26.155 86.6321 26.155 86.2024 26.155H84.3401C83.9104 26.155 83.6239 26.155 83.4806 26.0115C83.3374 25.868 83.3374 25.581 83.3374 25.1504V8.21555C83.3374 7.785 83.4806 7.49797 83.6239 7.35445C83.7671 7.21094 84.0536 7.21094 84.4834 7.21094H86.0591C86.6321 7.21094 86.9186 7.21094 87.2051 7.35445C87.3484 7.49797 87.6349 7.785 87.7781 8.21555L93.0784 18.2617V8.21555C93.0784 7.785 93.2216 7.49797 93.3648 7.35445C93.5081 7.21094 93.7946 7.21094 94.2244 7.21094H95.9433C96.3731 7.21094 96.6596 7.21094 96.8028 7.35445C96.9461 7.49797 97.0893 7.785 97.0893 8.21555V25.1504C97.0893 25.581 96.9461 25.868 96.8028 26.0115C96.6596 26.155 96.3731 26.155 95.9433 26.155H94.3676C93.7946 26.155 93.5081 26.155 93.2216 26.0115C93.0784 25.868 92.7919 25.581 92.6486 25.1504L87.3484 15.1043Z" fill="#001723"/>
<path d="M65.2878 25.007C65.2878 25.1505 65.4311 25.1505 65.4311 25.294C65.4311 25.294 65.4311 25.4375 65.4311 25.581C65.4311 26.0116 65.1446 26.1551 64.7148 26.1551H62.2796C61.8498 26.1551 61.5634 26.1551 61.4201 26.0116C61.2769 25.8681 61.1336 25.581 60.9904 25.1505L60.1309 22.2802H53.8279L52.9684 25.294C52.8251 25.7245 52.6819 26.0116 52.5386 26.1551C52.3954 26.2986 52.1089 26.2986 51.6791 26.2986H49.3871C48.9574 26.2986 48.6709 26.1551 48.6709 25.7245C48.6709 25.4375 48.6709 25.294 48.8142 25.1505L54.4009 8.21559C54.5441 7.92855 54.6874 7.64152 54.8306 7.49801C54.9739 7.35449 55.2604 7.35449 55.5469 7.35449H58.6984C58.9849 7.35449 59.2714 7.35449 59.4146 7.49801C59.5579 7.64152 59.7011 7.78504 59.8444 8.21559L65.2878 25.007ZM54.6874 18.8358H58.9849L56.8361 11.66L54.6874 18.8358Z" fill="#001723"/>
<path d="M80.7589 10.3683C80.7589 10.5118 80.7589 10.6554 80.7589 10.7989C80.7589 10.9424 80.6157 11.0859 80.4724 11.2294L72.5937 22.2802H79.8994C80.3292 22.2802 80.6156 22.4237 80.7589 22.5672C80.9021 22.7107 80.9021 22.9977 80.9021 23.5718V25.1505C80.9021 25.581 80.9021 26.0116 80.7589 26.1551C80.6156 26.2986 80.3292 26.4421 79.8994 26.4421H68.4395C68.0097 26.4421 67.7232 26.4421 67.58 26.2986C67.4367 26.1551 67.2935 25.8681 67.2935 25.4375V23.2848C67.2935 22.9977 67.4367 22.8542 67.58 22.5672L75.3154 11.5165H68.726C68.2962 11.5165 68.0097 11.3729 68.0097 11.2294C67.8665 11.0859 67.8665 10.7989 67.8665 10.2248V8.64614C67.8665 8.21559 67.8665 7.78504 68.0097 7.64152C68.153 7.498 68.4395 7.35449 68.726 7.35449H79.7562C80.1859 7.35449 80.4724 7.35449 80.6157 7.49801C80.7589 7.64152 80.9021 7.92855 80.9021 8.3591V10.3683H80.7589Z" fill="#001723"/>
</svg>
