<svg width="87" height="23" viewBox="0 0 87 23" fill="none" xmlns="http://www.w3.org/2000/svg">
<path d="M86.822 0.194092H0.442627V22.4391H86.822V0.194092Z" fill="black"/>
<path d="M86.3922 0.624756H0.872314V22.0086H86.3922V0.624756Z" fill="white"/>
<path d="M68.9158 11.5319C68.9158 10.6707 69.632 10.0967 70.3483 10.0967C71.2078 10.0967 71.924 10.8143 71.924 11.5319C71.924 12.2494 71.2078 13.1105 70.3483 13.1105C69.632 12.967 68.9158 12.393 68.9158 11.5319Z" fill="#93BD3B"/>
<path d="M23.7923 7.36999C23.7923 9.09219 23.3625 10.3839 22.3598 11.3885C21.357 12.3931 20.0678 12.8236 18.492 12.8236H15.1973V2.34692H18.7785C20.3543 2.34692 21.6435 2.77751 22.503 3.63861C23.3625 4.4997 23.7923 5.79131 23.7923 7.36999ZM20.9273 7.51352C20.9273 6.50891 20.784 5.79132 20.3543 5.36077C19.9245 4.93023 19.4948 4.64319 18.6353 4.64319H17.7758V10.5274H18.3488C19.2083 10.5274 19.7813 10.2403 20.211 9.80979C20.784 9.23572 20.9273 8.51813 20.9273 7.51352Z" fill="black"/>
<path d="M35.3954 2.34692H32.8169V12.8236H35.3954V2.34692Z" fill="black"/>
<path d="M44.1337 8.94859C44.1337 10.2402 43.8472 11.2449 43.131 11.9624C42.4147 12.68 41.5552 12.9671 40.266 12.9671C39.12 12.9671 38.2605 12.5365 37.5443 11.8189C36.828 11.1013 36.5415 10.0967 36.5415 8.80506C36.5415 7.51341 36.828 6.50883 37.5443 5.79125C38.2605 5.07367 39.12 4.78662 40.4092 4.78662C41.1255 4.78662 41.8417 4.93012 42.4147 5.21715C42.9877 5.50419 43.4175 6.07825 43.704 6.65232C43.9905 7.3699 44.1337 8.08749 44.1337 8.94859ZM39.12 8.94859C39.12 9.66617 39.2632 10.0967 39.4065 10.5273C39.5497 10.8143 39.8362 11.1013 40.266 11.1013C40.6957 11.1013 40.9822 10.9578 41.1255 10.5273C41.2687 10.2402 41.412 9.66617 41.412 8.94859C41.412 8.23101 41.2687 7.80046 41.1255 7.51342C40.9822 7.22639 40.6957 6.93937 40.266 6.93937C39.8362 6.93937 39.5497 7.08287 39.4065 7.51342C39.2632 7.80046 39.12 8.23101 39.12 8.94859Z" fill="black"/>
<path d="M47.715 5.07373H45.1365V12.8236H47.715V5.07373Z" fill="black"/>
<path d="M47.715 2.34692H45.1365V4.06912H47.715V2.34692Z" fill="black"/>
<path d="M53.0151 10.8145C53.3016 10.8145 53.7313 10.671 54.3043 10.5275V12.5367C54.0178 12.6802 53.5881 12.8237 53.3016 12.8237C53.0151 12.8237 52.5853 12.9673 52.1556 12.9673C51.2961 12.9673 50.5798 12.6802 50.2933 12.2497C49.8636 11.8191 49.7203 11.1015 49.7203 10.2404V7.08306H48.8608V5.07383H49.7203V3.06457L52.2988 2.63403V5.07383H54.0178V7.08306H52.2988V10.0969C52.2988 10.671 52.5853 10.8145 53.0151 10.8145Z" fill="black"/>
<path d="M59.0317 10.8145C59.3182 10.8145 59.7479 10.671 60.3209 10.5275V12.5367C60.0344 12.6802 59.6047 12.8237 59.3182 12.8237C59.0317 12.8237 58.6019 12.9673 58.1722 12.9673C57.3127 12.9673 56.5964 12.6802 56.3099 12.2497C55.8802 11.8191 55.7369 11.1015 55.7369 10.2404V7.08306H54.8774V5.07383H55.7369V3.06457L58.3154 2.63403V5.07383H60.0344V7.08306H58.3154V10.0969C58.3154 10.671 58.6019 10.8145 59.0317 10.8145Z" fill="black"/>
<path d="M67.3401 5.79128C66.7671 5.21722 65.9076 4.93018 64.7616 4.93018C63.6156 4.93018 62.6129 5.21718 62.0399 5.93476C61.3236 6.65235 61.0371 7.65697 61.0371 8.94862C61.0371 10.2403 61.3236 11.2449 62.0399 11.8189C62.7561 12.5365 63.7588 12.8236 64.9048 12.8236C65.4778 12.8236 66.0508 12.8236 66.4806 12.6801C66.9103 12.5365 67.3401 12.393 67.7698 12.2495L67.3401 10.5273C67.0536 10.6708 66.7671 10.8144 66.4806 10.8144C66.0508 10.9579 65.6211 10.9578 65.1913 10.9578C64.6183 10.9578 64.3318 10.8143 64.0453 10.5273C63.7589 10.2403 63.6156 9.95322 63.6156 9.52267H68.3428V8.37456C68.1996 7.36995 67.9131 6.50886 67.3401 5.79128ZM63.6156 7.94403C63.6156 7.51348 63.7589 7.22643 64.0453 6.9394C64.1886 6.79588 64.4751 6.65235 64.7616 6.65235C65.0481 6.65235 65.3346 6.79588 65.6211 6.9394C65.7643 7.22643 65.9076 7.51347 65.9076 7.8005H63.6156V7.94403Z" fill="black"/>
<path d="M30.9548 5.79128C30.3818 5.21722 29.5223 4.93018 28.3763 4.93018C27.2303 4.93018 26.2276 5.21718 25.6546 5.93476C24.9383 6.65235 24.6519 7.65697 24.6519 8.94862C24.6519 10.2403 24.9383 11.2449 25.6546 11.8189C26.3708 12.5365 27.3736 12.8236 28.6628 12.8236C29.2358 12.8236 29.8088 12.8236 30.2386 12.6801C30.6683 12.5365 31.0981 12.393 31.5278 12.2495L31.0981 10.5273C30.8116 10.6708 30.5251 10.8144 30.2386 10.8144C29.8088 10.9579 29.3791 10.9578 28.9493 10.9578C28.3763 10.9578 28.0898 10.8143 27.8033 10.5273C27.5168 10.2403 27.3736 9.95322 27.3736 9.52267H32.1008V8.37456C31.8143 7.36995 31.5278 6.50886 30.9548 5.79128ZM27.2303 7.94403C27.2303 7.51348 27.3736 7.22643 27.6601 6.9394C27.8033 6.79588 28.0898 6.65235 28.3763 6.65235C28.6628 6.65235 28.9493 6.79588 29.2358 6.9394C29.3791 7.22643 29.5223 7.51347 29.5223 7.8005H27.2303V7.94403Z" fill="black"/>
<path d="M45.2797 17.416H41.5552V18.1336H45.2797V17.416Z" fill="black"/>
<path d="M20.9272 20.1427H24.0787C24.795 20.1427 25.0815 19.8557 25.0815 19.1381V15.9807H20.9272V20.1427ZM21.7868 16.6983H24.222V18.9946C24.222 19.2816 24.0787 19.2816 23.9355 19.2816H21.93V16.6983H21.7868Z" fill="black"/>
<path d="M51.1528 15.9807H50.4365V17.8465H51.1528V15.9807Z" fill="black"/>
<path d="M52.5854 15.9807H51.8691V17.8465H52.5854V15.9807Z" fill="black"/>
<path d="M18.7784 15.8374H15.627V16.555H18.7784V15.8374Z" fill="black"/>
<path d="M19.4947 15.5503H19.0649V16.6984H19.4947V15.5503Z" fill="black"/>
<path d="M20.4976 15.5503H19.9246V16.6984H20.4976V15.5503Z" fill="black"/>
<path d="M17.2028 18.1335C17.0595 19.1381 16.6298 19.5687 15.627 19.5687V20.1428C16.6298 20.1428 17.919 19.7122 18.0623 17.99H19.638V17.2725H15.1973V17.99H17.2028V18.1335Z" fill="black"/>
<path d="M53.4448 15.9807V16.6983C53.4448 18.4205 52.7285 19.2816 51.0095 19.4251V20.1427C53.1583 20.1427 54.3043 18.9946 54.3043 16.8418V15.9807H53.4448Z" fill="black"/>
<path d="M30.2386 15.6938H29.2358C28.9493 16.6985 28.0898 17.416 26.3709 17.416H25.7979V18.1336H26.5141C26.9438 18.1336 27.3736 18.1336 27.8033 17.9901V20.1429H28.6628V17.7031C29.5223 17.416 29.9521 16.6985 30.2386 15.6938Z" fill="black"/>
<path d="M47.5717 18.7076L46.9987 17.4159H46.1392L47.5717 20.2862H48.4312L48.0014 19.2816C49.2906 18.564 49.8636 17.5594 49.8636 16.2678V15.9807H45.5662V16.6983H49.0042C48.8609 17.5594 48.2879 18.277 47.5717 18.7076Z" fill="black"/>
<path d="M37.8306 20.2863V17.9901C37.9739 18.1336 38.2604 18.2771 38.6901 18.2771H40.8389V17.5595H38.5469C37.9739 17.5595 37.6874 17.2725 37.6874 16.6984V15.6938H36.8279V20.2863H37.8306V20.2863Z" fill="black"/>
<path d="M31.671 20.2863V17.9901C31.8142 18.1336 32.1007 18.2771 32.5305 18.2771H34.6792V17.5595H32.3872C31.8142 17.5595 31.5277 17.2725 31.5277 16.6984V15.6938H30.6682V20.2863H31.671V20.2863Z" fill="black"/>
</svg>
