<svg width="87" height="23" viewBox="0 0 87 23" fill="none" xmlns="http://www.w3.org/2000/svg">
<path d="M86.8084 0H0.428955V22.245H86.8084V0Z" fill="black"/>
<path d="M86.2352 0.430664H0.715332V21.8145H86.2352V0.430664Z" fill="white"/>
<path d="M29.9382 13.3471C29.9382 16.5045 32.2302 18.9442 35.6682 18.9442H38.963V16.0739H35.9547C34.0925 16.0739 32.9465 14.9258 32.9465 13.4906C32.9465 12.0555 33.9492 10.9074 35.9547 10.9074H38.963V8.03703H35.6682C32.087 7.89351 29.9382 10.3333 29.9382 13.3471Z" fill="#CC0033"/>
<path d="M65.7505 7.75C64.6045 7.75 63.4585 8.03701 62.026 8.89811C60.5935 7.8935 59.4475 7.75 58.3015 7.75C55.5798 7.75 53.7175 9.61569 53.7175 12.199V18.9442H56.869V12.3425C56.869 11.1944 57.5853 10.6203 58.7313 10.6203C59.8773 10.6203 60.4503 11.1944 60.4503 12.199V18.9442H63.6017V12.199C63.6017 11.1944 64.1747 10.6203 65.3207 10.6203C66.4667 10.6203 67.183 11.1944 67.183 12.3425V18.9442H70.3345V12.199C70.1912 9.47218 68.329 7.75 65.7505 7.75Z" fill="#CC0033"/>
<path d="M77.6403 7.75C73.9158 7.75 71.7671 10.6203 71.7671 13.4906C71.7671 16.2174 73.9158 19.2313 77.6403 19.2313C81.3648 19.2313 83.3703 16.361 83.3703 13.4906C83.5136 10.6203 81.3648 7.75 77.6403 7.75ZM77.6403 16.0739C75.9213 16.0739 74.9186 14.7823 74.9186 13.3471C74.9186 11.912 75.9213 10.6203 77.6403 10.6203C79.3593 10.6203 80.3621 11.912 80.3621 13.3471C80.3621 14.7823 79.5026 16.0739 77.6403 16.0739Z" fill="#CC0033"/>
<path d="M12.032 2.87036V8.4675C11.3158 8.03695 10.313 7.74992 9.3103 7.74992C5.58581 7.74992 3.58032 10.6202 3.58032 13.4906C3.58032 16.2174 5.58581 19.2312 9.3103 19.2312C12.1753 19.2312 13.178 17.9395 15.1835 16.9349C15.1835 16.3609 15.1835 16.3609 15.1835 3.01389H12.032V2.87036ZM6.58856 13.347C6.58856 11.9119 7.5913 10.6202 9.3103 10.6202C11.0293 10.6202 11.8888 11.9119 12.032 13.347V13.4906C12.032 14.9257 11.0293 16.2174 9.3103 16.2174C7.5913 16.0738 6.58856 14.7822 6.58856 13.347Z" fill="#CC0033"/>
<path d="M24.3514 2.87036V3.58794H23.2054V6.31476H22.3459V3.58794H21.2V2.87036C21.3432 2.87036 24.3514 2.87036 24.3514 2.87036Z" fill="#CC0033"/>
<path d="M27.9328 2.87036V3.58794H26.7868V6.31476H25.9273V3.58794H24.9246V2.87036H27.9328Z" fill="#CC0033"/>
<path d="M18.3351 2.87036L19.9108 5.16663V2.87036H20.6271V6.31476H19.7676L18.1918 4.01849V6.31476H17.4756V2.87036H18.3351Z" fill="#CC0033"/>
<path d="M22.6325 7.75C18.908 7.75 16.7593 10.6203 16.7593 13.4906C16.7593 16.2174 18.908 19.2313 22.6325 19.2313C26.357 19.2313 28.3625 16.361 28.3625 13.4906C28.5057 10.6203 26.357 7.75 22.6325 7.75ZM22.6325 16.0739C20.9135 16.0739 19.9108 14.7823 19.9108 13.3471C19.9108 11.912 20.9135 10.6203 22.6325 10.6203C24.3515 10.6203 25.3542 11.912 25.3542 13.3471C25.3542 14.7823 24.3515 16.0739 22.6325 16.0739Z" fill="#CC0033"/>
<path d="M46.1254 7.75C42.4009 7.75 40.2522 10.6203 40.2522 13.4906C40.2522 16.2174 42.4009 19.2313 46.1254 19.2313C49.8499 19.2313 51.8554 16.361 51.8554 13.4906C51.9987 10.6203 49.8499 7.75 46.1254 7.75ZM46.1254 16.0739C44.4064 16.0739 43.4037 14.7823 43.4037 13.3471C43.4037 11.912 44.4064 10.6203 46.1254 10.6203C47.8444 10.6203 48.8472 11.912 48.8472 13.3471C48.8472 14.7823 47.9877 16.0739 46.1254 16.0739Z" fill="#CC0033"/>
</svg>
