<svg width="52" height="58" viewBox="0 0 52 58" fill="none" xmlns="http://www.w3.org/2000/svg">
<path fill-rule="evenodd" clip-rule="evenodd" d="M38.1803 2.85596L46.3003 2.85596C47.7951 2.85596 49.0069 3.71988 49.0069 4.77891L49.0069 53.2206C49.0069 54.2827 47.7761 55.1436 46.3003 55.1436H38.1803V55.1436V47.3973L13.8204 47.3973L13.8204 55.1436H5.70032C4.20554 55.1436 2.99377 54.2797 2.99377 53.2206L2.99377 4.77891C2.99377 3.71689 4.22451 2.85596 5.70032 2.85596L13.8204 2.85596L13.8204 10.6023L38.1803 10.6023V2.85596V2.85596Z" stroke="#6B5B52" stroke-width="4.66667" stroke-linecap="round" stroke-linejoin="round"/>
<path d="M34.9938 28.9995H48.3271" stroke="#6B5B52" stroke-width="4.66667" stroke-linecap="round" stroke-linejoin="round"/>
<path d="M5.66077 28.9999H18.9941" stroke="#6B5B52" stroke-width="4.66667" stroke-linecap="round" stroke-linejoin="round"/>
<path d="M7.59546 2.85588L44.406 2.85588" stroke="#6B5B52" stroke-width="4.66667" stroke-linecap="round" stroke-linejoin="round"/>
<path d="M7.59546 55.1435L44.406 55.1435" stroke="#6B5B52" stroke-width="4.66667" stroke-linecap="round" stroke-linejoin="round"/>
<ellipse rx="6.83393" ry="6.83393" transform="matrix(0 1 1 0 25.9993 28.9999)" stroke="#6B5B52" stroke-width="4.66667" stroke-linecap="round" stroke-linejoin="round"/>
</svg>
