<svg width="22" height="16" viewBox="0 0 22 16" fill="none" xmlns="http://www.w3.org/2000/svg">
<path d="M0.333374 1.33333C0.333374 0.596954 0.930328 0 1.66671 0H20.3334C21.0698 0 21.6667 0.596954 21.6667 1.33333C21.6667 2.06971 21.0698 2.66667 20.3334 2.66667H1.66671C0.930328 2.66667 0.333374 2.06971 0.333374 1.33333ZM0.333374 8C0.333374 7.26362 0.930328 6.66667 1.66671 6.66667H20.3334C21.0698 6.66667 21.6667 7.26362 21.6667 8C21.6667 8.73638 21.0698 9.33333 20.3334 9.33333H1.66671C0.930328 9.33333 0.333374 8.73638 0.333374 8ZM0.333374 14.6667C0.333374 13.9303 0.930328 13.3333 1.66671 13.3333H20.3334C21.0698 13.3333 21.6667 13.9303 21.6667 14.6667C21.6667 15.403 21.0698 16 20.3334 16H1.66671C0.930328 16 0.333374 15.403 0.333374 14.6667Z" fill="white"/>
</svg>
