<svg width="87" height="23" viewBox="0 0 87 23" fill="none" xmlns="http://www.w3.org/2000/svg">
<path d="M86.4805 0.355469H0.101074V22.6004H86.4805V0.355469Z" fill="black"/>
<path d="M86.0507 0.785889H0.530762V22.1698H86.0507V0.785889Z" fill="white"/>
<path d="M15.2853 6.5267C12.9933 6.5267 10.9878 4.661 10.8445 2.36475H9.8418C9.98505 5.23506 12.4203 7.53133 15.2853 7.53133C18.1503 7.53133 20.5855 5.23506 20.7288 2.36475H19.726C19.5828 4.661 17.7205 6.5267 15.2853 6.5267Z" fill="#9A000D"/>
<path d="M15.2854 4.51748C13.9962 4.51748 12.9934 3.51287 12.8502 2.36475H11.8474C11.9907 4.08693 13.4232 5.52208 15.2854 5.52208C17.1476 5.52208 18.5801 4.08693 18.7234 2.36475H17.7206C17.5774 3.51287 16.5746 4.51748 15.2854 4.51748Z" fill="#9A000D"/>
<path d="M15.2853 3.51288C16.0015 3.51288 16.5745 2.93881 16.7178 2.36475H13.8528C13.996 3.08233 14.569 3.51288 15.2853 3.51288Z" fill="#9A000D"/>
<path d="M15.2854 10.4016C12.1339 10.4016 9.26892 8.53593 7.83643 5.95264V17.1469H22.5911V5.95264C21.3019 8.53593 18.5801 10.4016 15.2854 10.4016Z" fill="#9A000D"/>
<path d="M21.7316 2.36475C21.5884 5.80913 18.7234 8.53594 15.2854 8.53594C11.8474 8.53594 8.98242 5.80913 8.83917 2.36475H7.83643C7.97968 6.38319 11.2744 9.54054 15.2854 9.54054C19.2964 9.54054 22.4479 6.38319 22.5911 2.36475H21.7316Z" fill="#9A000D"/>
<path d="M16.8611 2.36475C16.7179 3.08232 16.1449 3.51287 15.4286 3.51287C14.7124 3.51287 14.1394 2.93881 13.9962 2.36475H12.9934C13.1367 3.65638 14.1394 4.51747 15.4286 4.51747C16.7179 4.51747 17.7206 3.51287 17.8639 2.36475H16.8611Z" fill="white"/>
<path d="M11.8475 2.36475C11.9907 4.08694 13.4232 5.52209 15.2855 5.52209C17.1477 5.52209 18.5802 4.08694 18.7234 2.36475H19.7262C19.5829 4.661 17.7207 6.5267 15.2855 6.5267C12.9935 6.5267 10.988 4.661 10.8447 2.36475H11.8475Z" fill="white"/>
<path d="M7.97974 2.36475C8.12299 6.38319 11.4177 9.54054 15.4287 9.54054C19.4397 9.54054 22.5912 6.38319 22.7344 2.36475V5.95264C21.3019 8.67944 18.5802 10.4016 15.4287 10.4016C12.2772 10.4016 9.41223 8.53593 7.97974 5.95264V2.36475Z" fill="white"/>
<path d="M21.7318 2.36475C21.5885 5.80913 18.7236 8.53593 15.2856 8.53593C11.8476 8.53593 8.9826 5.80913 8.83936 2.36475H9.8421C9.98535 5.23506 12.4206 7.53133 15.2856 7.53133C18.1506 7.53133 20.5858 5.23506 20.729 2.36475H21.7318Z" fill="white"/>
<path d="M11.7042 14.2764H8.55273V14.5634H11.7042V14.2764Z" fill="white"/>
<path d="M12.2771 15.1375V14.8505H12.9933V15.1375H12.2771ZM11.7041 13.2719V13.5589H11.9906V15.1375H11.7041V15.4246H13.5663V15.1375H13.2798V13.5589H13.5663V13.2719H13.2798V12.8413H12.9933V13.2719H12.2771V12.8413H11.9906V13.2719H11.7041ZM12.2771 14.5635V14.2765H12.9933V14.5635H12.2771ZM12.2771 13.8459V13.5589H12.9933V13.8459H12.2771ZM12.2771 15.4246C12.1339 15.7116 11.9906 15.8551 11.7041 15.9986L11.9906 16.2857C12.2771 16.1422 12.4203 15.8551 12.5636 15.5681L12.2771 15.4246ZM12.9933 15.4246L12.7068 15.5681C12.8501 15.7116 12.9933 15.8551 12.9933 15.9986L13.2798 15.8551C13.2798 15.8551 13.2798 15.7116 12.9933 15.4246ZM13.8528 12.9848H13.7096V14.8505C13.7096 15.1375 13.7096 15.2811 13.5663 15.5681C13.4231 15.8551 13.4231 15.9987 13.2798 16.1422L13.5663 16.2857C13.7096 16.1422 13.8528 15.8551 13.8528 15.5681C13.8528 15.4246 13.9961 15.1376 13.9961 14.994H14.7123V15.7116C14.7123 15.8551 14.7123 15.8551 14.5691 15.8551C14.4258 15.8551 14.4258 15.8551 14.1393 15.8551V16.1422C14.2826 16.1422 14.4258 16.1422 14.5691 16.1422C14.8556 16.1422 14.9988 15.9987 14.9988 15.7116V12.8413H13.8528V12.9848ZM14.1393 14.8505V14.2765H14.8556V14.8505H14.1393ZM14.1393 13.8459V13.2719H14.8556V13.8459H14.1393Z" fill="white"/>
<path d="M18.4369 14.2764H15.2854V14.5634H18.4369V14.2764Z" fill="white"/>
<path d="M20.7289 12.9849C20.5857 12.9849 20.5857 12.9849 20.7289 12.9849C20.8722 13.2719 21.1587 13.5589 21.4452 13.7024C21.7317 13.846 22.0182 13.9895 22.3047 14.133L22.1614 14.42C21.8749 14.2765 21.5884 14.133 21.3019 13.9895C21.0154 13.846 20.7289 13.5589 20.5857 13.4154C20.4424 13.5589 20.2992 13.7025 20.0127 13.846C19.7262 14.133 19.2964 14.2765 19.0099 14.5635L18.8667 14.2765C19.5829 13.846 20.1559 13.4154 20.5857 12.9849H20.7289ZM21.3019 14.133V14.42H19.4397V14.133H21.3019ZM22.0182 14.8506V15.1376H20.2992C20.2992 15.2811 20.1559 15.4246 20.0127 15.5682C19.8694 15.7117 19.8694 15.8552 19.7262 15.8552C20.2992 15.8552 20.7289 15.8552 21.1587 15.7117C21.0154 15.5682 21.0154 15.4247 20.8722 15.4247L21.1587 15.2811C21.4452 15.5682 21.7317 15.8552 22.0182 16.1422L21.7317 16.4293C21.5884 16.2857 21.5884 16.1422 21.4452 16.1422C20.7289 16.1422 19.8694 16.2857 18.8667 16.2857V15.9987C19.0099 15.9987 19.1532 15.9987 19.4397 15.9987C19.5829 15.8552 19.5829 15.7117 19.7262 15.5682C19.8694 15.4246 19.8694 15.2811 19.8694 15.1376H18.8667V14.8506H22.0182Z" fill="white"/>
<path d="M8.1228 18.0081H8.55256V20.8784H8.1228V18.0081Z" fill="black" stroke="#251E1C" stroke-width="0.075767"/>
<path d="M11.4175 18.2951C11.5607 18.4386 11.704 18.7257 11.704 19.0127H11.2742C11.2742 18.8692 11.131 18.7257 10.9877 18.5821C10.8445 18.4386 10.7012 18.4386 10.4147 18.4386C10.1282 18.4386 9.84174 18.5821 9.69849 18.7256C9.55524 18.8692 9.41199 19.2997 9.41199 19.7303C9.41199 20.0173 9.55524 20.3043 9.69849 20.5914C9.84174 20.7349 10.1282 20.8784 10.4147 20.8784C10.7012 20.8784 10.9877 20.7349 11.131 20.5914C11.2742 20.4478 11.2742 20.3043 11.2742 20.1608H11.704C11.704 20.4478 11.5607 20.7349 11.4175 20.8784C11.131 21.1654 10.8445 21.3089 10.4147 21.3089C10.1282 21.3089 9.69849 21.1654 9.55524 21.0219C9.26874 20.7349 9.12549 20.3043 9.12549 19.7303C9.12549 19.2997 9.26874 19.0127 9.41199 18.7256C9.69849 18.4386 9.98499 18.2951 10.4147 18.2951C10.8445 18.0081 11.2742 18.1516 11.4175 18.2951Z" fill="black" stroke="#251E1C" stroke-width="0.075767"/>
<path d="M12.2771 18.0081H12.7068V19.1562H14.2826V18.0081H14.7123V20.8784H14.2826V19.4432H12.7068V20.8784H12.2771V18.0081Z" fill="black" stroke="#251E1C" stroke-width="0.075767"/>
<path d="M15.5718 18.0081H16.0015V20.8784H15.5718V18.0081Z" fill="black" stroke="#251E1C" stroke-width="0.075767"/>
<path d="M18.5799 18.1516C18.8664 18.2951 19.0096 18.5821 19.1529 19.0127H18.7231C18.7231 18.8692 18.5799 18.5821 18.4366 18.5821C18.2934 18.4386 18.1502 18.4386 17.8637 18.4386C17.5772 18.4386 17.2907 18.5821 17.1474 18.7256C17.0042 18.8692 16.8609 19.2997 16.8609 19.5867C16.8609 19.8738 17.0042 20.1608 17.1474 20.4479C17.2907 20.7349 17.5772 20.7349 17.8637 20.7349C18.1502 20.7349 18.2934 20.5914 18.5799 20.4479C18.7232 20.3043 18.8664 20.0173 18.8664 19.7303H17.8637V19.4432H19.1529V21.0219H18.8664V20.5914C18.7231 20.7349 18.5799 20.8784 18.4366 20.8784C18.2934 21.0219 18.0069 21.0219 17.7204 21.0219C17.4339 21.0219 17.0041 20.8784 16.8609 20.7349C16.5744 20.4478 16.4312 20.0173 16.4312 19.5867C16.4312 19.1562 16.5744 18.7256 16.8609 18.4386C17.1474 18.1516 17.4339 18.0081 17.8637 18.0081C18.1502 18.0081 18.4367 18.0081 18.5799 18.1516Z" fill="black" stroke="#251E1C" stroke-width="0.075767"/>
<path d="M21.3016 20.7349C20.8719 20.7349 20.5854 20.5914 20.4421 20.4479C20.2989 20.1608 20.1556 20.0173 20.1556 19.5867C20.1556 19.1562 20.2989 18.8692 20.4421 18.7256C20.5854 18.5821 20.8719 18.4386 21.1584 18.4386C21.4449 18.4386 21.7314 18.5821 21.8746 18.7256C22.0179 18.8692 22.1611 19.1562 22.1611 19.5867C22.1611 19.8738 22.0179 20.1608 21.8746 20.4479C21.8746 20.5914 21.5881 20.7349 21.3016 20.7349ZM21.3016 18.0081C20.7286 18.0081 20.4421 18.1516 20.1556 18.5821C20.0124 18.8692 19.8691 19.1562 19.8691 19.5867C19.8691 20.0173 20.0124 20.4478 20.2989 20.7349C20.5854 21.0219 20.8719 21.1654 21.4449 21.1654C22.0179 21.1654 22.3044 21.0219 22.5909 20.5914C22.8774 20.3043 22.8774 19.8738 22.8774 19.4432C22.8774 19.0127 22.7341 18.7256 22.5909 18.4386C22.1611 18.1516 21.7314 18.0081 21.3016 18.0081Z" fill="black" stroke="#251E1C" stroke-width="0.075767"/>
<path d="M28.321 17.1469V3.22583H30.1833V17.1469H28.321Z" fill="black"/>
<path d="M30.3265 17.2903H28.1777V3.08228H30.3265V17.2903ZM28.4642 17.0033H30.04V3.3693H28.4642V17.0033Z" fill="black"/>
<path d="M39.7809 13.5591L41.4999 13.8461C41.3567 14.9942 40.7837 15.8553 40.0674 16.5729C39.3512 17.2905 38.3485 17.5775 37.3457 17.5775C35.9132 17.5775 34.9105 17.147 34.051 16.2859C33.1915 15.4248 32.7617 14.1331 32.7617 12.4109C32.7617 11.2628 32.905 10.4017 33.3347 9.5406C33.7645 8.6795 34.1942 8.10543 34.9105 7.67489C35.6267 7.24434 36.4862 7.10083 37.3457 7.10083C38.4917 7.10083 39.3512 7.38785 40.0674 7.96191C40.7837 8.53598 41.2134 9.25357 41.3567 10.2582L39.6377 10.5452C39.4944 9.82763 39.2079 9.39709 38.7782 8.96654C38.3485 8.67951 37.9187 8.39247 37.3457 8.39247C36.4862 8.39247 35.77 8.67951 35.197 9.25357C34.624 9.82764 34.3375 10.8323 34.3375 12.1239C34.3375 13.4155 34.624 14.4201 35.0537 15.1377C35.6267 15.7118 36.1997 15.9988 37.0592 15.9988C37.7754 15.9988 38.3485 15.8553 38.7782 15.4248C39.3512 14.9942 39.6377 14.4202 39.7809 13.5591Z" fill="black"/>
<path d="M37.2023 17.5774C35.7698 17.5774 34.6238 17.1469 33.7643 16.1423C32.9048 15.2812 32.4751 13.846 32.4751 12.1238C32.4751 10.9757 32.6183 9.97107 33.0481 9.25349C33.4778 8.39239 34.0508 7.81832 34.7671 7.38778C35.4833 6.95723 36.3428 6.81372 37.2023 6.81372C38.3483 6.81372 39.2078 7.10074 39.9241 7.6748C40.6403 8.24887 41.0701 9.10996 41.3566 10.1146V10.2581L39.4943 10.5451V10.4016C39.3511 9.82756 39.0646 9.25349 38.6348 8.96646C38.2051 8.67943 37.7753 8.53591 37.2023 8.53591C36.3428 8.53591 35.7698 8.82293 35.1968 9.39699C34.6238 9.97106 34.4806 10.9757 34.4806 12.2673C34.4806 13.559 34.7671 14.5636 35.1968 15.1376C35.6266 15.7117 36.3428 15.9987 37.0591 15.9987C37.6321 15.9987 38.2051 15.8552 38.6348 15.4247C39.0646 14.9941 39.3511 14.4201 39.4943 13.559V13.4154L41.4998 13.7025V13.846C41.3566 14.9941 40.7836 15.9987 40.0673 16.7163C39.3511 17.1469 38.3483 17.5774 37.2023 17.5774ZM37.2023 6.95722C36.3428 6.95722 35.6266 7.10075 34.9103 7.5313C34.1941 7.96185 33.6211 8.53591 33.3346 9.25349C33.0481 10.1146 32.7616 10.9757 32.7616 12.1238C32.7616 13.7025 33.1913 14.9941 34.0508 15.8552C34.9103 16.7163 35.9131 17.1469 37.2023 17.1469C38.2051 17.1469 39.2078 16.8598 39.9241 16.1423C40.6403 15.5682 41.0701 14.7071 41.2133 13.7025L39.7808 13.559C39.6376 14.4201 39.3511 14.9941 38.9213 15.4247C38.4916 15.8552 37.9186 16.1423 37.2023 16.1423C36.3428 16.1423 35.6266 15.8552 35.0536 15.1376C34.4806 14.5636 34.1941 13.4155 34.1941 12.1238C34.1941 10.6886 34.4806 9.68403 35.0536 9.10996C35.6266 8.39238 36.3428 8.10536 37.2023 8.10536C37.7753 8.10536 38.3483 8.24886 38.7781 8.67941C39.2078 8.96644 39.4943 9.54051 39.6376 10.1146L41.0701 9.97107C40.9268 9.10997 40.4971 8.39239 39.7808 7.81833C39.2078 7.24426 38.3483 6.95722 37.2023 6.95722Z" fill="black"/>
<path d="M42.9324 17.1469V3.22583H44.6514V8.24889C45.5109 7.38779 46.5136 6.81373 47.6596 6.81373C48.3759 6.81373 49.0921 6.95723 49.6651 7.24426C50.2381 7.53129 50.6679 7.96185 50.8111 8.53592C51.0976 9.10998 51.0976 9.82755 51.0976 10.8322V17.2904H49.3786V10.8322C49.3786 9.97106 49.2354 9.39702 48.8056 8.96647C48.3759 8.53592 47.9461 8.39239 47.2299 8.39239C46.6569 8.39239 46.2271 8.53591 45.7974 8.82294C45.3676 9.10997 45.0811 9.397 44.7946 9.82755C44.6514 10.2581 44.5081 10.8322 44.5081 11.6933V17.1469H42.9324Z" fill="black"/>
<path d="M51.2408 17.2903H49.2353V10.6886C49.2353 9.82753 49.092 9.25347 48.6623 8.96644C48.3758 8.53589 47.8028 8.39236 47.2298 8.39236C46.8001 8.39236 46.2271 8.53588 45.9406 8.82291C45.5108 9.10994 45.2243 9.39697 45.0811 9.82752C44.9378 10.2581 44.7946 10.8321 44.7946 11.6932V17.2903H42.7891V3.08228H44.7946V7.81831C45.5108 7.10073 46.5135 6.67017 47.6595 6.67017C48.3758 6.67017 49.092 6.81369 49.665 7.10073C50.238 7.38776 50.6678 7.8183 50.9543 8.39236C51.2408 8.96642 51.384 9.68401 51.384 10.6886V17.2903H51.2408ZM49.5218 17.0033H50.9543V10.6886C50.9543 9.68401 50.811 8.96643 50.6678 8.53589C50.3813 8.10534 50.0948 7.67479 49.5218 7.38775C48.9488 7.10072 48.3758 6.9572 47.6595 6.9572C46.5135 6.9572 45.5108 7.38776 44.7946 8.24886L44.5081 8.53589V3.3693H43.0756V17.0033H44.5081V11.6932C44.5081 10.8321 44.6513 10.2581 44.7946 9.82752C44.9378 9.39697 45.3676 8.96642 45.7973 8.67939C46.2271 8.39236 46.8001 8.24886 47.2298 8.24886C47.946 8.24886 48.519 8.39236 48.9488 8.82291C49.3785 9.25346 49.5218 9.82752 49.5218 10.8321V17.0033Z" fill="black"/>
<path d="M53.6763 5.23505V3.22583H55.3952V5.23505H53.6763ZM53.6763 17.1469V7.10076H55.3952V17.1469H53.6763Z" fill="black"/>
<path d="M55.5385 17.2903H53.533V6.9572H55.5385V17.2903ZM53.8195 17.0033H55.252V7.24423H53.8195V17.0033ZM55.5385 5.37854H53.533V3.08228H55.5385V5.37854ZM53.8195 5.09149H55.252V3.3693H53.8195V5.09149Z" fill="black"/>
<path d="M57.6872 18.0078L59.4062 18.2948C59.4062 18.8689 59.6927 19.1559 59.9792 19.4429C60.4089 19.73 60.9819 19.8735 61.6982 19.8735C62.5577 19.8735 63.1307 19.73 63.5604 19.4429C63.9902 19.1559 64.2767 18.7254 64.4199 18.1513C64.5632 17.8643 64.5632 17.0032 64.5632 15.9985C63.8469 16.8596 62.8442 17.2902 61.8414 17.2902C60.4089 17.2902 59.4062 16.8596 58.6899 15.855C57.9737 14.8504 57.5439 13.7023 57.5439 12.2671C57.5439 11.2625 57.6872 10.4014 58.1169 9.54032C58.4034 8.67923 58.9764 8.10516 59.6927 7.67461C60.4089 7.24406 61.1252 6.95703 61.9847 6.95703C63.1307 6.95703 64.1334 7.38758 64.9929 8.39219V7.24406H66.5687V15.9985C66.5687 17.5772 66.4254 18.7254 66.1389 19.2994C65.8524 20.017 65.2794 20.4475 64.5632 20.8781C63.8469 21.3086 62.9874 21.4522 61.9847 21.4522C60.8387 21.4522 59.8359 21.1651 59.1197 20.5911C57.9737 19.8735 57.6872 19.1559 57.6872 18.0078ZM59.1197 11.9801C59.1197 13.2717 59.4062 14.2764 59.8359 14.8504C60.4089 15.4245 60.9819 15.7115 61.8414 15.7115C62.5577 15.7115 63.2739 15.4245 63.8469 14.8504C64.4199 14.2764 64.7064 13.2717 64.7064 11.9801C64.7064 10.6884 64.4199 9.82736 63.8469 9.2533C63.2739 8.67923 62.7009 8.24869 61.8414 8.24869C61.1252 8.24869 60.4089 8.53571 59.8359 9.10977C59.4062 9.82735 59.1197 10.6884 59.1197 11.9801Z" fill="black"/>
<path d="M61.6981 21.4523C60.4088 21.4523 59.4061 21.1652 58.6898 20.5912C57.9736 20.0171 57.5438 19.156 57.5438 18.0079V17.8644L59.4061 18.1514V18.2949C59.4061 18.7255 59.6926 19.156 59.9791 19.2995C60.4088 19.5866 60.9818 19.7301 61.6981 19.7301C62.4143 19.7301 62.9873 19.5866 63.417 19.2995C63.8468 19.0125 64.1333 18.582 64.2765 18.0079C64.4198 17.7209 64.4198 17.1468 64.4198 16.1422C63.7036 16.8598 62.8441 17.2903 61.8413 17.2903C60.4088 17.2903 59.2628 16.7163 58.5466 15.7116C57.8303 14.707 57.4006 13.4154 57.4006 11.9802C57.4006 10.9756 57.5438 10.1145 57.9736 9.25343C58.2601 8.39233 58.8331 7.81826 59.5493 7.24419C60.2656 6.81364 60.9818 6.52661 61.9846 6.52661C63.1305 6.52661 63.99 6.95716 64.8495 7.67474V6.67014H66.7118V15.5681C66.7118 17.1468 66.5685 18.2949 66.282 19.0125C65.9955 19.7301 65.4225 20.3041 64.7063 20.5912C63.5603 21.1652 62.7008 21.4523 61.6981 21.4523ZM57.8303 18.1514C57.8303 19.156 58.1168 19.8736 58.8331 20.3042C59.5493 20.8782 60.5521 21.0217 61.6981 21.0217C62.7008 21.0217 63.5603 20.8782 64.1333 20.4477C64.8495 20.0171 65.2793 19.5866 65.5658 19.0125C65.8523 18.4385 65.9955 17.2903 65.9955 15.7116V7.10069H64.7063V8.53585L64.4198 8.24882C63.7036 7.38772 62.7008 6.81366 61.5548 6.81366C60.6953 6.81366 59.9791 7.10068 59.2628 7.38772C58.6898 7.81826 58.1168 8.39233 57.8303 9.25343C57.5438 10.1145 57.2573 10.9756 57.2573 11.8367C57.2573 13.1284 57.6871 14.42 58.4033 15.4246C59.1196 16.4292 60.1223 16.8598 61.5548 16.8598C62.5576 16.8598 63.5603 16.4292 64.2765 15.5681L64.563 15.2811V15.7116C64.563 16.8598 64.5631 17.5773 64.4198 18.0079C64.2766 18.582 63.99 19.0125 63.5603 19.443C63.1305 19.7301 62.4143 20.0171 61.6981 20.0171C60.9818 20.0171 60.2656 19.8736 59.8358 19.443C59.5493 19.156 59.2628 18.869 59.2628 18.2949L57.8303 18.1514ZM61.8413 15.8551C60.9818 15.8551 60.2656 15.5681 59.6926 14.8505C59.1196 14.2765 58.8331 13.2719 58.8331 11.8367C58.8331 10.5451 59.1196 9.68398 59.6926 8.9664C60.2656 8.24882 60.9818 7.96177 61.6981 7.96177C62.5576 7.96177 63.2738 8.24882 63.8468 8.9664C64.4198 9.68398 64.7063 10.5451 64.7063 11.8367C64.7063 13.1284 64.4198 14.133 63.8468 14.707C63.4171 15.5681 62.7008 15.8551 61.8413 15.8551ZM61.8413 8.39232C61.1251 8.39232 60.5521 8.67936 59.9791 9.25343C59.4061 9.82749 59.2628 10.6886 59.2628 11.9802C59.2628 13.2719 59.5493 14.2765 59.9791 14.8505C60.5521 15.4246 61.1251 15.7116 61.8413 15.7116C62.5576 15.7116 63.1306 15.4246 63.7036 14.8505C64.2766 14.2765 64.4198 13.4154 64.4198 12.1237C64.4198 10.9756 64.1333 9.97099 63.7036 9.39693C63.1306 8.67935 62.5576 8.39232 61.8413 8.39232Z" fill="black"/>
<path d="M68.1443 12.1238C68.1443 10.2581 68.7173 8.82292 69.72 7.96183C70.5795 7.24425 71.5823 6.81372 72.8715 6.81372C74.304 6.81372 75.45 7.24427 76.3095 8.24888C77.169 9.10997 77.5987 10.4016 77.5987 11.9803C77.5987 13.2719 77.4555 14.2765 77.0258 14.9941C76.596 15.7117 76.023 16.2858 75.3067 16.7163C74.5905 17.1469 73.731 17.2904 72.8715 17.2904C71.439 17.2904 70.293 16.8598 69.4335 15.9987C68.574 15.1376 68.1443 13.846 68.1443 12.1238ZM69.8633 12.1238C69.8633 13.4154 70.1498 14.4201 70.7228 14.9941C71.2958 15.5682 72.012 15.9987 72.8715 15.9987C73.731 15.9987 74.4473 15.7117 75.0202 14.9941C75.5932 14.2765 75.8798 13.4154 75.8798 11.9803C75.8798 10.6886 75.5932 9.82754 75.0202 9.10996C74.4473 8.5359 73.731 8.10535 72.8715 8.10535C72.012 8.10535 71.2958 8.39238 70.7228 9.10996C70.1498 9.82754 69.8633 10.8322 69.8633 12.1238Z" fill="black"/>
<path d="M72.8715 17.5774C71.439 17.5774 70.293 17.1469 69.2902 16.1422C68.4307 15.2811 68.001 13.846 68.001 12.1238C68.001 10.2581 68.574 8.82291 69.5767 7.8183C70.4362 7.10072 71.5822 6.67017 72.8715 6.67017C74.3039 6.67017 75.45 7.10071 76.3095 8.10533C77.169 8.96643 77.5987 10.4016 77.5987 11.9803C77.5987 13.2719 77.4555 14.42 77.0257 15.1376C76.596 15.8552 76.0229 16.5728 75.3067 16.8598C74.5904 17.2904 73.731 17.5774 72.8715 17.5774ZM72.8715 6.95719C71.7255 6.95719 70.5795 7.38775 69.8632 8.10533C68.8605 8.96643 68.2875 10.4016 68.2875 12.1238C68.2875 13.846 68.7172 15.1376 69.5767 15.9987C70.4362 16.8598 71.5822 17.2904 72.8715 17.2904C73.731 17.2904 74.4472 17.1468 75.3067 16.7163C76.0229 16.2858 76.5959 15.7117 76.8824 14.9941C77.3122 14.2765 77.4554 13.2719 77.4554 11.9803C77.4554 10.4016 77.0257 9.25347 76.1662 8.24885C75.3067 7.38776 74.1607 6.95719 72.8715 6.95719ZM72.8715 16.1422C72.012 16.1422 71.2957 15.8552 70.5795 15.1376C70.0065 14.42 69.72 13.4154 69.72 12.1238C69.72 10.8321 70.0065 9.82752 70.5795 9.10994C71.1525 8.39236 71.8687 8.10533 72.8715 8.10533C73.731 8.10533 74.4472 8.39236 75.0202 9.10994C75.5932 9.82752 75.8797 10.8321 75.8797 11.9803C75.8797 13.2719 75.5932 14.42 75.0202 14.9941C74.5904 15.8552 73.731 16.1422 72.8715 16.1422ZM72.8715 8.39236C72.012 8.39236 71.439 8.6794 70.866 9.25346C70.293 9.82753 70.0065 10.8321 70.0065 12.1238C70.0065 13.4154 70.293 14.2765 70.866 14.9941C71.439 15.5682 72.012 15.8552 72.8715 15.8552C73.731 15.8552 74.304 15.5682 74.877 14.9941C75.45 14.42 75.7364 13.4154 75.7364 12.1238C75.7364 10.9757 75.45 9.97103 74.877 9.39697C74.304 8.67938 73.731 8.39236 72.8715 8.39236Z" fill="black"/>
</svg>
