<svg width="96" height="96" viewBox="0 0 96 96" fill="none" xmlns="http://www.w3.org/2000/svg">
<circle cx="48" cy="48" r="48" fill="#646A78"/>
<path fill-rule="evenodd" clip-rule="evenodd" d="M48.0004 24C41.4828 24 40.665 24.0281 38.1056 24.1452C35.551 24.2612 33.8057 24.6676 32.28 25.2608C30.7007 25.8735 29.363 26.6937 28.0289 28.0289C26.6937 29.363 25.8735 30.7019 25.2608 32.28C24.6676 33.8069 24.2612 35.551 24.1452 38.1056C24.0281 40.665 24 41.4828 24 48.0004C24 54.5192 24.0281 55.3357 24.1452 57.8964C24.2612 60.4509 24.6676 62.195 25.2608 63.7219C25.8735 65.3 26.6937 66.639 28.0289 67.973C29.363 69.307 30.7007 70.1272 32.28 70.7411C33.8057 71.3343 35.551 71.7407 38.1056 71.8567C40.665 71.9739 41.4828 72.0007 48.0004 72.0007C54.5192 72.0007 55.3357 71.9739 57.8964 71.8567C60.4509 71.7407 62.1951 71.3343 63.7219 70.7411C65.3001 70.1272 66.6378 69.307 67.973 67.973C69.307 66.639 70.1272 65.3 70.7412 63.7219C71.3343 62.195 71.7395 60.4509 71.8567 57.8964C71.9727 55.3357 72.0007 54.5192 72.0007 48.0004C72.0007 41.4828 71.9727 40.665 71.8567 38.1056C71.7395 35.551 71.3343 33.8069 70.7412 32.28C70.1272 30.7019 69.307 29.363 67.973 28.0289C66.6378 26.6937 65.3001 25.8735 63.7219 25.2608C62.1951 24.6676 60.4509 24.2612 57.8964 24.1452C55.3357 24.0281 54.5192 24 48.0004 24ZM48.0003 28.3242C54.4093 28.3242 55.1685 28.3486 57.6986 28.4646C60.0384 28.5708 61.3089 28.9626 62.156 29.2909C63.2752 29.7266 64.0746 30.2466 64.9144 31.0863C65.7553 31.926 66.274 32.7254 66.7097 33.8459C67.0393 34.6917 67.4299 35.9623 67.536 38.3032C67.652 40.8334 67.6764 41.5925 67.6764 48.0003C67.6764 54.4092 67.652 55.1684 67.536 57.6985C67.4299 60.0395 67.0393 61.3101 66.7097 62.1547C66.274 63.2763 65.7553 64.0746 64.9144 64.9143C64.0746 65.754 63.2752 66.2752 62.156 66.7097C61.3089 67.0392 60.0384 67.4298 57.6986 67.5372C55.1685 67.6519 54.4093 67.6763 48.0003 67.6763C41.5914 67.6763 40.8334 67.6519 38.3021 67.5372C35.9623 67.4298 34.6918 67.0392 33.8459 66.7097C32.7255 66.2752 31.9261 65.754 31.0863 64.9143C30.2466 64.0746 29.7267 63.2763 29.2909 62.1547C28.9626 61.3101 28.5708 60.0395 28.4647 57.6985C28.3487 55.1684 28.3255 54.4092 28.3255 48.0003C28.3255 41.5925 28.3487 40.8334 28.4647 38.3032C28.5708 35.9623 28.9626 34.6917 29.2909 33.8459C29.7267 32.7254 30.2466 31.926 31.0863 31.0863C31.9261 30.2466 32.7255 29.7266 33.8459 29.2909C34.6918 28.9626 35.9623 28.5708 38.3021 28.4646C40.8334 28.3486 41.5926 28.3242 48.0003 28.3242ZM48.0003 56.0009C43.582 56.0009 40.001 52.4187 40.001 48.0004C40.001 43.5821 43.582 40.0011 48.0003 40.0011C52.4186 40.0011 56.0008 43.5821 56.0008 48.0004C56.0008 52.4187 52.4186 56.0009 48.0003 56.0009ZM48.0004 35.6768C41.1947 35.6768 35.6755 41.1936 35.6755 48.0004C35.6755 54.8073 41.1947 60.3253 48.0004 60.3253C54.8072 60.3253 60.3252 54.8073 60.3252 48.0004C60.3252 41.1936 54.8072 35.6768 48.0004 35.6768ZM60.8122 38.069C62.4025 38.069 63.6926 36.7801 63.6926 35.1885C63.6926 33.5982 62.4025 32.3093 60.8122 32.3093C59.2206 32.3093 57.9318 33.5982 57.9318 35.1885C57.9318 36.7801 59.2206 38.069 60.8122 38.069Z" fill="white"/>
</svg>
