<svg width="227" height="59" viewBox="0 0 227 59" fill="none" xmlns="http://www.w3.org/2000/svg">
<path d="M226.04 0H0V58.18H226.04V0Z" fill="black"/>
<path d="M224.919 1.12012H1.11914V57.0801H224.919V1.12012Z" fill="white"/>
<path d="M133.821 14.2598H92.6406V43.9198H133.821V14.2598Z" fill="#DAEBF0"/>
<path d="M123.141 36.9398L123.501 34.8997H121.841L121.941 34.2597H123.981L124.341 32.2197H120.281L118.961 39.6198H123.041L123.401 37.5797H121.361L121.481 36.9398H123.141Z" fill="black"/>
<path d="M129.681 34.5797C129.901 33.2797 129.041 32.2197 127.741 32.2197H125.101L123.801 39.6397H125.841L126.321 36.9597H126.681L126.921 39.6397H128.961L128.661 36.2997C129.201 35.8597 129.581 35.2597 129.701 34.5797H129.681ZM126.781 34.2597H127.381C127.561 34.2597 127.681 34.3997 127.641 34.5797C127.601 34.7597 127.441 34.8997 127.261 34.8997H126.661L126.781 34.2597V34.2597Z" fill="black"/>
<path d="M106.001 32.2197L104.701 39.6198H106.741L108.041 32.2197H106.001Z" fill="black"/>
<path d="M111.742 32.2197L111.262 34.8997L110.722 32.2197H108.802L107.482 39.6198H109.522L110.002 36.9398L110.542 39.6198H112.482L113.782 32.2197H111.742Z" fill="black"/>
<path d="M117.481 32.2197L117.001 34.8997L116.461 32.2197H114.521L113.221 39.6198H115.261L115.741 36.9398L116.281 39.6198H118.221L119.521 32.2197H117.481Z" fill="black"/>
<path d="M103.602 32.2197L102.302 35.8997V32.2197H100.442L99.1416 35.9197V32.2197H97.1016V39.6198H99.7015L100.442 36.9398V39.6198H103.022L105.642 32.2197H103.602Z" fill="black"/>
<path d="M107.561 40.7988L107.281 42.3588H108.141L108.221 41.9188H107.801L107.821 41.7988H108.161L108.241 41.3588H107.901L107.921 41.2188H108.341L108.421 40.7988H107.561Z" fill="black"/>
<path d="M103.301 40.7793C102.981 40.7793 102.681 41.0393 102.641 41.3393L102.561 41.7993C102.501 42.1193 102.721 42.3593 103.021 42.3593C103.321 42.3593 103.641 42.0993 103.681 41.7993L103.761 41.3393C103.821 41.0193 103.601 40.7793 103.301 40.7793ZM103.341 41.3393L103.261 41.7993C103.261 41.7993 103.181 41.9393 103.101 41.9393C103.021 41.9393 102.981 41.8793 102.981 41.7993L103.061 41.3393C103.061 41.3393 103.141 41.1993 103.221 41.1993C103.301 41.1993 103.341 41.2593 103.341 41.3393Z" fill="black"/>
<path d="M106.521 40.7793C106.201 40.7793 105.901 41.0393 105.861 41.3393L105.781 41.7993C105.721 42.1193 105.941 42.3593 106.241 42.3593C106.541 42.3593 106.861 42.0993 106.901 41.7993H106.481C106.481 41.7993 106.401 41.9393 106.321 41.9393C106.241 41.9393 106.201 41.8793 106.201 41.7993L106.281 41.3393C106.281 41.3393 106.361 41.1993 106.441 41.1993C106.521 41.1993 106.561 41.2593 106.561 41.3393H106.981C107.041 41.0193 106.821 40.7793 106.521 40.7793Z" fill="black"/>
<path d="M104.922 40.7793C104.602 40.7793 104.302 41.0393 104.262 41.3393L104.182 41.7993C104.122 42.1193 104.342 42.3593 104.642 42.3593C104.942 42.3593 105.262 42.0993 105.302 41.7993H104.882C104.882 41.7993 104.802 41.9393 104.722 41.9393C104.642 41.9393 104.602 41.8793 104.602 41.7993L104.682 41.3393C104.682 41.3393 104.762 41.1993 104.842 41.1993C104.922 41.1993 104.962 41.2593 104.962 41.3393H105.382C105.442 41.0193 105.222 40.7793 104.922 40.7793Z" fill="black"/>
<path d="M101.701 41.2197C101.701 41.2197 101.861 41.2197 102.001 41.2797L102.221 40.8797C102.101 40.8397 101.801 40.7197 101.521 40.8797C101.221 41.0397 101.181 41.2797 101.181 41.3797C101.181 41.4397 101.181 41.5797 101.281 41.6797C101.381 41.7797 101.481 41.8196 101.561 41.8196C101.641 41.8196 101.661 41.8197 101.661 41.8797C101.661 41.9197 101.661 41.9796 101.481 41.9596C101.321 41.9596 101.181 41.8597 101.181 41.8597L100.961 42.2596C100.961 42.2596 101.161 42.3797 101.501 42.3797C101.821 42.3797 102.061 42.0996 102.081 41.8996C102.101 41.6996 102.081 41.5596 101.941 41.4596C101.821 41.3796 101.721 41.3797 101.661 41.3797C101.621 41.3797 101.601 41.3596 101.601 41.3196C101.601 41.2796 101.641 41.2397 101.701 41.2397V41.2197Z" fill="black"/>
<path d="M109.941 41.2988C109.981 41.0188 109.801 40.7988 109.541 40.7988H108.981L108.701 42.3588H109.121L109.221 41.7988H109.301L109.361 42.3588H109.781L109.721 41.6588C109.841 41.5588 109.921 41.4388 109.941 41.2988V41.2988ZM109.341 41.1588H109.461C109.461 41.1588 109.561 41.1988 109.541 41.2588C109.541 41.3188 109.481 41.3588 109.421 41.3588H109.301L109.341 41.1588Z" fill="black"/>
<path d="M110.46 41.3594L110.4 41.7994H110.82L110.9 41.3594H110.46Z" fill="black"/>
<path d="M112.102 40.7998H111.622L111.342 42.3598H111.822C112.102 42.3598 112.362 42.1398 112.402 41.8598C112.402 41.7598 112.402 41.6598 112.362 41.5798C112.422 41.4998 112.482 41.3998 112.502 41.2998C112.542 41.0198 112.362 40.7998 112.102 40.7998ZM112.042 41.8598C112.042 41.8598 111.982 41.9598 111.922 41.9598H111.802L111.842 41.7598H111.962C111.962 41.7598 112.062 41.7998 112.042 41.8598ZM112.142 41.2998C112.142 41.2998 112.082 41.3998 112.022 41.3998H111.902L111.942 41.1998H112.062C112.062 41.1998 112.162 41.2398 112.142 41.2998Z" fill="black"/>
<path d="M118.842 41.2198H119.142L118.942 42.3598H119.362L119.562 41.2198H119.862L119.942 40.7998H118.922L118.842 41.2198Z" fill="black"/>
<path d="M116.741 40.7998L116.401 41.3998L116.501 40.7998H116.061L115.801 42.3598H116.221L116.321 41.7598L116.461 42.3598H116.881L116.721 41.5798L117.161 40.7998H116.741Z" fill="black"/>
<path d="M113.302 40.7998L112.662 42.3598H113.102L113.182 42.1398H113.522V42.3598H113.982L113.902 40.7998H113.282H113.302ZM113.302 41.8198L113.502 41.3198V41.8198H113.302Z" fill="black"/>
<path d="M122.081 40.7998L121.461 42.3598H121.901L121.981 42.1398H122.321V42.3598H122.781L122.701 40.7998H122.081V40.7998ZM122.081 41.8198L122.281 41.3198V41.8198H122.081Z" fill="black"/>
<path d="M125.041 41.9198L125.241 40.7998H124.801L124.541 42.3598H125.401L125.461 41.9198H125.041Z" fill="black"/>
<path d="M123.921 40.7998H123.481L123.201 42.3598H124.061L124.141 41.9198H123.721L123.921 40.7998Z" fill="black"/>
<path d="M117.322 42.3598H118.182L118.242 41.9198H117.822L117.842 41.7998H118.202L118.262 41.3598H117.922L117.942 41.2198H118.382L118.442 40.7998H117.602L117.322 42.3598Z" fill="black"/>
<path d="M115.082 41.2197C115.082 41.2197 115.242 41.2197 115.382 41.2797L115.602 40.8797C115.482 40.8397 115.182 40.7197 114.902 40.8797C114.602 41.0397 114.562 41.2797 114.562 41.3797C114.562 41.4397 114.562 41.5797 114.662 41.6797C114.762 41.7797 114.862 41.8196 114.942 41.8196C115.022 41.8196 115.042 41.8197 115.042 41.8797C115.042 41.9197 115.042 41.9796 114.862 41.9596C114.702 41.9396 114.562 41.8597 114.562 41.8597L114.342 42.2596C114.342 42.2596 114.542 42.3797 114.882 42.3797C115.202 42.3797 115.442 42.0996 115.462 41.8996C115.482 41.6996 115.462 41.5596 115.322 41.4596C115.202 41.3796 115.102 41.3797 115.042 41.3797C115.002 41.3797 114.982 41.3596 114.982 41.3196C114.982 41.2796 115.022 41.2397 115.082 41.2397V41.2197Z" fill="black"/>
<path d="M120.881 40.7998H120.401L120.121 42.3598H120.601C120.881 42.3598 121.141 42.1398 121.181 41.8598C121.181 41.7598 121.181 41.6598 121.141 41.5798C121.201 41.4998 121.261 41.3998 121.281 41.2998C121.321 41.0198 121.141 40.7998 120.881 40.7998ZM120.821 41.8598C120.821 41.8598 120.761 41.9598 120.701 41.9598H120.581L120.621 41.7598H120.741C120.741 41.7598 120.841 41.7998 120.821 41.8598ZM120.921 41.2998C120.921 41.2998 120.861 41.3998 120.801 41.3998H120.681L120.721 41.1998H120.841C120.841 41.1998 120.941 41.2398 120.921 41.2998Z" fill="black"/>
<path d="M113.221 15.4395L111.401 21.3795H105.441L110.261 25.0594L108.422 30.9995L113.221 27.3194L118.042 30.9995L116.201 25.0594L121.021 21.3795H115.061L113.221 15.4395Z" fill="white"/>
<path d="M113.221 15.4395L111.401 21.3795H105.441L110.261 25.0594L108.422 30.9995L113.221 27.3194L118.042 30.9995L116.201 25.0594L121.021 21.3795H115.061L113.221 15.4395Z" fill="white"/>
<mask id="mask0_1903_36446" style="mask-type:alpha" maskUnits="userSpaceOnUse" x="105" y="15" width="16" height="16">
<path d="M113.22 18.8799L114.3 22.3999H117.98L115 24.6799L116.1 28.2599L113.2 26.0399L110.3 28.2599L111.4 24.6799L108.42 22.3999H112.1L113.18 18.8799M113.18 15.4199L111.34 21.3599H105.4L110.22 25.0399L108.38 30.9799L113.2 27.2999L118.02 30.9799L116.18 25.0399L121 21.3599H115.06L113.22 15.4199H113.18Z" fill="white"/>
</mask>
<g mask="url(#mask0_1903_36446)">
<path d="M121 15.4395H105.439V30.9995H121V15.4395Z" fill="url(#paint0_linear_1903_36446)"/>
</g>
<path d="M34.4192 27.3596V24.7595H28.8992V23.0195H25.6392V24.7595H20.1191V27.3596H25.6392V37.3596H28.8992V27.3596H34.4192Z" fill="black"/>
<path d="M19.3198 23.8398H5.11987V26.3599H13.4398L3.91992 37.3198H7.63989L11.8398 32.4598L14.6998 37.3198H18.1998L13.9199 30.0599L19.3198 23.8398Z" fill="black"/>
<path d="M64.9392 24.7197L57.7992 37.3197H54.2793L61.3993 24.7197H64.9392Z" fill="black"/>
<path d="M19.6406 37.3597H22.7606L23.8606 29.6797H20.7606L19.6406 37.3597Z" fill="black"/>
<path d="M30.6992 29.6797L31.8192 37.3597H34.9193L33.7992 29.6797H30.6992Z" fill="black"/>
<path d="M47.2992 29.2598H36.7793V32.2798H47.2992V29.2598Z" fill="black"/>
<path d="M51.9005 23.8193H48.9805V30.3594H51.9005V23.8193Z" fill="black"/>
<path d="M56.4395 23.8193H53.5195V30.3594H56.4395V23.8193Z" fill="black"/>
<path d="M85.2207 27.0396H87.0007V23.0195H85.2207V27.0396ZM87.8607 23.0195V27.0396H89.6608V23.0195H87.8607Z" fill="black"/>
<path d="M68.5391 30.0396L75.319 23.0195H70.839L63.959 30.1595L71.639 37.3596H76.359L68.5391 30.0396Z" fill="black"/>
<path d="M35.46 19.3594C33.54 19.3594 32 20.9193 32 22.8193C32 24.7193 33.56 26.2794 35.46 26.2794C37.36 26.2794 38.92 24.7193 38.92 22.8193C38.92 20.9193 37.38 19.3594 35.46 19.3594ZM35.46 24.2994C34.64 24.2994 33.98 23.6394 33.98 22.8394C33.98 22.0394 34.64 21.3594 35.46 21.3594C36.28 21.3594 36.9399 22.0194 36.9399 22.8394C36.9399 23.6594 36.28 24.2994 35.46 24.2994Z" fill="black"/>
<path d="M85.9998 31.6995V34.0995H80.4198V23.0195H77.1797V37.3596H89.2598V31.6995H85.9998Z" fill="black"/>
<path d="M222.12 14.2598H180.939V43.9198H222.12V14.2598Z" fill="#E51711"/>
<path d="M217.32 30.8992V29.0192H215.14L216.94 25.8792L215.52 25.1992H214.4C213.82 25.0192 213.28 24.8592 212.8 24.7992C212.24 24.6992 211.64 24.6592 211.02 24.6592H209.8C207.84 24.6592 206.2 25.0992 204.96 25.9592C204.8 26.0592 204.68 26.1592 204.54 26.2792V24.8192H198.32V25.3792C197.98 25.1992 197.58 25.0592 197.16 24.9792C196.66 24.8792 196.06 24.8392 195.36 24.8392H186.4V26.6992C186.4 26.6992 186.84 26.8192 186.86 26.8192V33.1792L186.4 33.2792V35.1392H195.36C196.08 35.1392 196.66 35.0792 197.16 34.9992C197.58 34.9192 197.98 34.7792 198.32 34.5792V35.1392H204.54V33.6792C204.74 33.8592 204.96 34.0192 205.2 34.1792C206.36 34.9192 207.86 35.2992 209.64 35.2992H210.88C212.8 35.2992 214.78 34.8192 216.78 33.8392L217.32 33.5792V32.0992L216.86 31.9792V31.0192L217.32 30.9192V30.8992ZM208.72 28.7192V31.2392C208.34 30.8992 208.16 30.4992 208.16 29.9992C208.16 29.4992 208.34 29.0592 208.72 28.7192ZM208.82 28.6192C208.82 28.6192 208.9 28.5592 208.96 28.5192C209.34 28.2392 209.82 28.0592 210.38 27.9992C210.66 28.0192 210.9 28.0592 211.16 28.1392C211.64 28.2392 211.92 28.3592 212.08 28.4392C212.08 28.4592 212.08 28.6392 212.08 28.6392H208.8L208.82 28.6192ZM194.72 31.7792V31.8592C194.72 31.8592 194.46 31.9992 193.68 31.9992H192.16V31.5392H193.68C194.46 31.5392 194.68 31.6592 194.72 31.6592C194.72 31.6592 194.72 31.7192 194.72 31.7792ZM194.72 28.2192C194.72 28.2192 194.72 28.2192 194.7 28.2392C194.68 28.2392 194.44 28.3392 193.66 28.3392H192.14V27.8992H193.66C194.44 27.8992 194.68 28.0192 194.7 28.0392C194.7 28.0392 194.7 28.0792 194.7 28.1392C194.7 28.1792 194.7 28.1992 194.7 28.2192H194.72Z" fill="black"/>
<path d="M198.92 25.3789V26.1989L199.2 26.2589C199.34 26.2989 199.38 26.3389 199.4 26.3389V33.5189C199.4 33.5189 199.4 33.5589 199.4 33.5789C199.4 33.5789 199.34 33.6189 199.22 33.6589L198.94 33.6989V34.5189H202.76V33.6989L202.48 33.6389C202.34 33.6189 202.32 33.5989 202.32 33.5789C202.32 33.5789 202.32 33.5589 202.32 33.5189V26.3789V26.3389C202.32 26.3389 202.36 26.2989 202.48 26.2589L202.76 26.1989V25.3789H198.94H198.92Z" fill="white"/>
<path d="M215.042 30.5787C215.042 30.5787 215.081 30.5188 215.221 30.4988L215.501 30.4388V29.5988H210.422H210.301C210.301 29.5988 210.281 29.5587 210.241 29.4587L210.161 29.1987H209.301V31.8788H210.141L210.221 31.6387C210.261 31.5187 210.281 31.4788 210.301 31.4788C210.301 31.4788 210.322 31.4587 210.422 31.4587H212.542V32.0388C212.222 32.1788 211.861 32.2988 211.441 32.3788C210.941 32.4788 210.401 32.5187 209.881 32.5187C208.841 32.5187 207.981 32.2987 207.361 31.8387C206.701 31.3587 206.361 30.7387 206.361 29.9587C206.361 29.1387 206.701 28.5187 207.381 28.0187C208.001 27.5587 208.801 27.3387 209.761 27.3387C210.241 27.3387 210.761 27.3988 211.321 27.5388C211.861 27.6588 212.261 27.7988 212.521 27.9788C212.621 28.0588 212.661 28.0788 212.661 28.0988C212.661 28.0988 212.661 28.1388 212.661 28.2188V28.4388L213.381 28.7787L214.901 26.1188L214.181 25.7787L214.001 25.8987C213.881 25.9787 213.841 25.9788 213.841 25.9788C213.801 25.9788 213.661 25.9787 213.261 25.8387C212.601 25.6187 212.001 25.4588 211.481 25.3588C210.961 25.2588 210.401 25.2188 209.821 25.2188C207.961 25.2188 206.441 25.6388 205.301 26.4188C204.061 27.2788 203.441 28.4788 203.441 29.9388C203.441 31.5188 204.141 32.7587 205.521 33.6387C206.581 34.3187 207.981 34.6788 209.641 34.6788C211.481 34.6788 213.361 34.1987 215.301 33.2587L215.501 33.1588V32.4988L215.221 32.4388C215.081 32.4188 215.042 32.3987 215.042 32.3987C215.042 32.3787 215.042 32.3387 215.042 32.3387V30.5988V30.5588V30.5787Z" fill="white"/>
<path d="M196.98 29.9589C197.98 29.4389 198.22 28.6589 198.22 28.0589C198.22 27.1789 197.84 26.5189 197.08 26.0189C196.72 25.7789 196.28 25.6189 195.82 25.5189C195.36 25.4189 194.8 25.3789 194.12 25.3789H186.98V26.1989L187.24 26.2589C187.38 26.2989 187.421 26.3389 187.421 26.3389V26.3789V33.5189C187.421 33.5189 187.421 33.5589 187.421 33.5789C187.421 33.5789 187.38 33.6189 187.24 33.6589L186.98 33.7189V34.5389H194.12C194.78 34.5389 195.36 34.4989 195.82 34.3989C196.28 34.2789 196.72 34.1389 197.08 33.9189C197.84 33.4389 198.22 32.7389 198.22 31.8989C198.22 31.2789 197.98 30.4989 196.98 29.9589ZM194.98 32.3989C194.8 32.4789 194.441 32.5989 193.661 32.5989H190.32V30.9789H193.661C194.441 30.9789 194.8 31.0989 194.98 31.1789C195.2 31.3189 195.32 31.4989 195.32 31.7989C195.32 32.0989 195.2 32.2789 194.98 32.4189V32.3989ZM194.98 28.7389C194.8 28.8389 194.441 28.9389 193.661 28.9389H190.32V27.3389H193.661C194.441 27.3389 194.8 27.4389 194.98 27.5389C195.2 27.6589 195.32 27.8589 195.32 28.1589C195.32 28.4389 195.2 28.6389 194.98 28.7589V28.7389Z" fill="white"/>
<path d="M204.461 18.2595C204.461 18.2595 204.461 18.1995 204.461 18.1595C204.461 18.1395 204.401 18.1395 204.361 18.1595L201.601 20.5795C201.601 20.5795 201.481 20.5796 201.481 20.4996L201.561 19.5995C201.561 19.4995 201.621 19.2195 201.521 19.1995C201.421 19.1795 201.321 19.4395 201.261 19.5195L200.881 20.3395C200.881 20.3395 200.761 20.4195 200.741 20.3395L200.361 19.5195C200.361 19.5195 200.221 19.1595 200.121 19.1995C200.021 19.2395 200.061 19.4995 200.061 19.5995L200.121 20.4996C200.121 20.4996 200.061 20.6195 199.981 20.5795L199.241 20.0596C199.241 20.0596 198.961 19.8395 198.881 19.8995C198.821 19.9595 198.981 20.1795 199.021 20.2795L199.541 21.0195C199.541 21.0195 199.541 21.1595 199.461 21.1595L198.561 21.0795C198.561 21.0795 198.201 21.0196 198.181 21.1196C198.141 21.2196 198.401 21.3396 198.481 21.3796L199.301 21.7595C199.301 21.7595 199.381 21.8795 199.301 21.8995L198.481 22.2795C198.481 22.2795 198.141 22.4195 198.161 22.5195C198.161 22.5995 198.461 22.5795 198.541 22.5795L199.441 22.4996C199.441 22.4996 199.561 22.5595 199.521 22.6395L199.001 23.3796C199.001 23.3796 198.761 23.6595 198.841 23.7195C198.901 23.7995 199.141 23.6395 199.201 23.5795L199.941 23.0795C199.941 23.0795 200.061 23.0795 200.061 23.1595L199.961 24.0596C199.961 24.1596 199.921 24.4196 200.021 24.4396C200.121 24.4596 200.221 24.1995 200.261 24.1395L200.661 23.3195C200.661 23.3195 200.761 23.2395 200.821 23.3195L201.201 24.1595C201.201 24.1595 201.321 24.4795 201.441 24.4595C201.541 24.4395 201.501 24.1795 201.501 24.0795L201.421 23.1796C201.421 23.1796 201.481 23.0595 201.561 23.0995L202.301 23.6196C202.301 23.6196 202.581 23.8395 202.661 23.7795C202.741 23.6995 202.561 23.4995 202.521 23.4195L202.001 22.6595C202.001 22.6595 202.001 22.5195 202.081 22.5195L202.981 22.5995C202.981 22.5995 203.341 22.6396 203.361 22.5596C203.401 22.4596 203.141 22.3395 203.041 22.2995L202.241 21.9195C202.241 21.9195 202.181 21.7995 202.241 21.7595L203.061 21.3995C203.061 21.3995 203.401 21.2395 203.381 21.1595C203.361 21.0595 203.081 21.1195 203.001 21.0995L202.101 21.1796C202.101 21.1796 201.981 21.1196 202.021 21.0596L204.421 18.2995L204.461 18.2595Z" fill="white"/>
<path d="M177.959 14.2598H136.779V43.9198H177.959V14.2598Z" fill="#FFD800"/>
<path fill-rule="evenodd" clip-rule="evenodd" d="M141.7 34.0791V34.0991H141.68L141.64 34.1391L141.56 34.2191L141.52 34.2791L141.5 34.2991V34.3191V34.4991V34.8591V35.0591H141.66V34.6991H142.8V34.5991H141.66V34.3391L141.8 34.1991H142.8V34.0791H141.7Z" fill="black"/>
<path fill-rule="evenodd" clip-rule="evenodd" d="M144.299 34.7991L144.159 34.9391H143.379L143.239 34.7991V34.3191L143.379 34.1791H144.159L144.299 34.3191V34.7991ZM144.459 34.7991V34.2791V34.2391L144.419 34.1991L144.339 34.1191L144.299 34.0791H143.279L143.239 34.1191L143.159 34.1991L143.119 34.2391V34.2791V34.7991V34.8391L143.159 34.8991L143.239 34.9791L143.279 35.0191H144.319L144.359 34.9791L144.439 34.8991L144.479 34.8591V34.8191L144.459 34.7991Z" fill="black"/>
<path fill-rule="evenodd" clip-rule="evenodd" d="M145.84 34.5997H144.9V34.1996H145.7L145.84 34.3397V34.6197V34.5997ZM146.16 35.0597V34.8397V34.7997L146.12 34.7596L146.04 34.6996L146 34.6597V34.3397V34.2997L145.96 34.2596L145.88 34.1797L145.84 34.1396H144.76V34.1797V35.0997H144.92V34.7596H145.88L146.02 34.8997V35.0997H146.18L146.16 35.0597Z" fill="black"/>
<path fill-rule="evenodd" clip-rule="evenodd" d="M148.159 34.7996L148.039 34.9396H147.239L147.099 34.7996V34.6196H148.159V34.7996ZM148.319 34.8196V34.2996V34.2596L148.279 34.2196L148.199 34.1396L148.159 34.0996H146.999V34.1996H148.039L148.179 34.3396V34.5196H146.959V34.5796V34.8396V34.8796L146.999 34.9396L147.079 35.0196L147.119 35.0596H148.159L148.199 35.0196L148.279 34.9396L148.319 34.8996V34.8596V34.8196Z" fill="black"/>
<path fill-rule="evenodd" clip-rule="evenodd" d="M148.8 35.0591L148.78 35.0391L148.74 34.9991L148.66 34.9191L148.62 34.8792L148.6 34.8591V34.8391V34.8191V34.6391V34.2791V34.0791H148.76V34.7991L148.9 34.9391H149.74V35.0591H148.8Z" fill="black"/>
<path fill-rule="evenodd" clip-rule="evenodd" d="M150.099 35.0591H150.079V35.0391L150.039 34.9991L149.939 34.9191L149.899 34.8792V34.8591V34.8391L149.879 34.8191V34.6391V34.2791V34.0791H150.059V34.7991L150.179 34.9391H151.039V35.0591H150.099Z" fill="black"/>
<path fill-rule="evenodd" clip-rule="evenodd" d="M153.139 34.8792L153.079 34.9191L153.019 34.9991L152.979 35.0391H152.959L152.939 35.0591H152.839H152.559H152.239H151.979H151.859V34.9391H152.839L152.979 34.7991V34.6191H152.859H152.579H152.239H151.959H151.859H151.819V34.5991L151.799 34.5591V34.4991V34.3792V34.3191L151.819 34.2991V34.2791L151.859 34.2191L151.939 34.1391L151.979 34.0991H151.999L152.019 34.0791H152.119H152.399H152.719H152.979H153.099V34.1991H152.119L151.979 34.3391V34.5191H152.099H152.359H152.699H152.979H153.099H153.119L153.139 34.5391V34.5591V34.6391V34.7591V34.8191V34.8391V34.8591V34.8792Z" fill="black"/>
<path fill-rule="evenodd" clip-rule="evenodd" d="M154.62 34.7191H153.599V34.1791H154.479L154.62 34.3191V34.7191V34.7191ZM154.78 34.7791V34.3191V34.2791L154.74 34.2391L154.66 34.1591L154.62 34.1191H153.439V34.1591V35.0791H153.599V34.8591H154.78V34.7991V34.7791Z" fill="black"/>
<path fill-rule="evenodd" clip-rule="evenodd" d="M156.28 34.7991L156.14 34.9391H155.34L155.2 34.7991V34.3191L155.34 34.1791H156.14L156.28 34.3191V34.7991ZM156.44 34.7991V34.2791V34.2391L156.4 34.1991L156.32 34.1191L156.28 34.0791H155.24L155.2 34.1191L155.12 34.1991L155.08 34.2391V34.2791V34.7991V34.8391L155.12 34.8991L155.2 34.9791L155.24 35.0191H156.28L156.32 34.9791L156.4 34.8991L156.44 34.8591V34.8191V34.7991Z" fill="black"/>
<path fill-rule="evenodd" clip-rule="evenodd" d="M157.82 34.5997H156.88V34.1996H157.68L157.82 34.3397V34.6197V34.5997ZM158.14 35.0597V34.8397V34.7997L158.1 34.7596L158.02 34.6996L157.98 34.6597V34.3397V34.2997L157.94 34.2596L157.86 34.1797L157.82 34.1396H156.74V34.1797V35.0997H156.9V34.7596H157.86L158 34.8997V35.0997H158.16L158.14 35.0597Z" fill="black"/>
<path fill-rule="evenodd" clip-rule="evenodd" d="M159.699 34.8792L159.659 34.9191L159.579 34.9991L159.519 35.0391V35.0591H159.499H159.359H159.039H158.719H158.579H158.559V35.0391L158.519 34.9991L158.419 34.9191L158.379 34.8792V34.8591V34.8391V34.6391V34.2791V34.0791H158.539V34.2991H159.659V34.4191H158.539V34.7991L158.679 34.9391H159.419L159.539 34.7991V34.6791H159.719V34.7191V34.7791V34.8191L159.699 34.8391V34.8591V34.8792Z" fill="black"/>
<path fill-rule="evenodd" clip-rule="evenodd" d="M161.26 34.8792L161.219 34.9191L161.14 34.9991L161.099 35.0391L161.079 35.0591H160.959H160.699H160.38H160.099H160V34.9391H160.979L161.12 34.7991V34.6191H161H160.719H160.38H160.099H159.979H159.959L159.939 34.5991V34.5591V34.4991V34.3792V34.3191V34.2991L159.959 34.2791L160 34.2191L160.079 34.1391L160.12 34.0991H160.14V34.0791H160.26H160.54H160.859H161.12H161.24V34.1991H160.24L160.099 34.3391V34.5191H160.219H160.5H160.839H161.12H161.24H161.26L161.28 34.5391V34.5591V34.6391V34.7591V34.8191V34.8391V34.8591L161.26 34.8792Z" fill="black"/>
<path fill-rule="evenodd" clip-rule="evenodd" d="M163.28 34.7991L163.14 34.9391H162.36L162.22 34.7991V34.3191L162.36 34.1791H163.14L163.28 34.3191V34.7991ZM163.44 34.7991V34.2791V34.2391L163.4 34.1991L163.32 34.1191L163.28 34.0791H162.26L162.22 34.1191L162.14 34.1991L162.1 34.2391V34.2791V34.7991V34.8391L162.14 34.8991L162.22 34.9791L162.26 35.0191H163.3L163.34 34.9791L163.42 34.8991L163.46 34.8591V34.8191L163.44 34.7991Z" fill="black"/>
<path fill-rule="evenodd" clip-rule="evenodd" d="M163.919 34.0791V34.0991H163.899L163.859 34.1391L163.779 34.2191L163.739 34.2791L163.719 34.2991V34.3191V34.4991V34.8591V35.0591H163.879V34.6991H164.999V34.5991H163.879V34.3391L164.019 34.1991H164.999V34.0791H163.919Z" fill="black"/>
<path fill-rule="evenodd" clip-rule="evenodd" d="M167.019 34.8792L166.979 34.9191L166.899 34.9991L166.859 35.0391H166.839V35.0591H166.699H166.399H166.119H165.999H165.979V35.0391H165.959L165.919 34.9991L165.839 34.9191L165.799 34.8792L165.779 34.8591V34.8391V34.8191V34.7791V34.7191V34.6791H165.959V34.7991L166.079 34.9391H166.739L166.879 34.7991V34.0791H167.039V34.2791V34.6391V34.8191V34.8391V34.8591L167.019 34.8792Z" fill="black"/>
<path fill-rule="evenodd" clip-rule="evenodd" d="M168.54 34.7996L168.42 34.9396H167.62L167.48 34.7996V34.6196H168.54V34.7996ZM168.7 34.8196V34.2996V34.2596L168.66 34.2196L168.58 34.1396L168.54 34.0996H167.38V34.1996H168.42L168.56 34.3396V34.5196H167.34V34.5796V34.8396V34.8796L167.38 34.9396L167.46 35.0196L167.5 35.0596H168.52L168.56 35.0196L168.64 34.9396L168.68 34.8996V34.8596L168.7 34.8196Z" fill="black"/>
<path fill-rule="evenodd" clip-rule="evenodd" d="M170.16 34.7191H169.14V34.1791H170.02L170.16 34.3191V34.7191V34.7191ZM170.32 34.7791V34.3191V34.2791L170.28 34.2391L170.2 34.1591L170.16 34.1191H169V34.1591V35.0791H169.16V34.8591H170.34V34.7991L170.32 34.7791Z" fill="black"/>
<path fill-rule="evenodd" clip-rule="evenodd" d="M171.839 34.7996L171.719 34.9396H170.919L170.779 34.7996V34.6196H171.839V34.7996ZM171.999 34.8196V34.2996V34.2596L171.959 34.2196L171.879 34.1396L171.839 34.0996H170.679V34.1996H171.719L171.859 34.3396V34.5196H170.639V34.5796V34.8396V34.8796L170.679 34.9396L170.759 35.0196L170.799 35.0596H171.819L171.859 35.0196L171.939 34.9396L171.979 34.8996V34.8596L171.999 34.8196Z" fill="black"/>
<path fill-rule="evenodd" clip-rule="evenodd" d="M173.439 35.0591V34.3191L173.319 34.1991H172.439V35.0591H172.279V34.9191V34.5991V34.2791V34.1391V34.1191L172.299 34.0991L172.319 34.0791H172.439H172.699H173.019H173.299H173.399L173.419 34.0991L173.479 34.1391L173.559 34.2191L173.599 34.2791V34.2991V34.3191V34.4991V34.8591V35.0591H173.439Z" fill="black"/>
<path d="M156.778 27.1391C156.778 27.0191 156.738 26.8791 156.678 26.7591C156.618 26.6191 156.558 26.4991 156.458 26.3791C156.358 26.2591 156.278 26.1791 156.178 26.0991L155.618 25.7391C155.258 25.5191 154.898 25.2991 154.538 25.1191L153.958 24.8191C153.838 24.7791 153.718 24.7391 153.578 24.7191C153.438 24.6991 153.278 24.6991 153.138 24.7191C152.998 24.7391 152.858 24.7791 152.758 24.8191L152.178 25.1191C151.818 25.3191 151.438 25.5191 151.098 25.7391L150.538 26.0991C150.438 26.1591 150.338 26.2591 150.258 26.3791C150.178 26.4991 150.098 26.6191 150.038 26.7591C149.978 26.8991 149.958 27.0191 149.938 27.1391L149.898 27.7991C149.898 27.9991 149.898 28.2191 149.898 28.4191C149.898 28.6191 149.898 28.8391 149.898 29.0391L149.938 29.6991C149.938 29.8191 149.978 29.9391 150.038 30.0791C150.098 30.2191 150.178 30.3391 150.258 30.4591C150.358 30.5791 150.438 30.6591 150.538 30.7391L151.078 31.0991C151.438 31.3391 151.818 31.5391 152.158 31.7391L152.738 32.0191C152.858 32.0791 152.978 32.0991 153.118 32.1391C153.258 32.1391 153.418 32.1391 153.558 32.1391C153.698 32.1191 153.838 32.0791 153.938 32.0391L154.518 31.7391C154.878 31.5391 155.258 31.3391 155.598 31.1191L156.158 30.7591C156.158 30.7591 156.358 30.5991 156.438 30.4791C156.518 30.3591 156.598 30.2391 156.658 30.0991C156.718 29.9591 156.738 29.8391 156.758 29.7191L156.798 29.0591C156.798 28.8591 156.798 28.6391 156.798 28.4391C156.798 28.2391 156.798 28.0191 156.798 27.8191L156.758 27.1591L156.778 27.1391ZM153.338 30.5191C152.178 30.5191 151.238 29.5791 151.238 28.4191C151.238 27.2591 152.178 26.3191 153.338 26.3191C154.498 26.3191 155.438 27.2591 155.438 28.4191C155.438 29.5791 154.498 30.5191 153.338 30.5191Z" fill="white"/>
<path d="M153.339 27.0996C152.619 27.0996 152.039 27.6796 152.039 28.3996C152.039 29.1196 152.619 29.6996 153.339 29.6996C154.059 29.6996 154.639 29.1196 154.639 28.3996C154.639 27.6796 154.059 27.0996 153.339 27.0996Z" fill="white"/>
<path d="M148.319 27.1391C148.319 27.0191 148.279 26.8791 148.219 26.7591C148.159 26.6191 148.099 26.4991 147.999 26.3791C147.899 26.2591 147.819 26.1791 147.719 26.0991L147.159 25.7391C146.799 25.5191 146.419 25.2991 146.079 25.1191L145.499 24.8191C145.379 24.7791 145.259 24.7391 145.119 24.7191C144.979 24.6991 144.819 24.6991 144.679 24.7191C144.539 24.7391 144.399 24.7791 144.299 24.8191L143.719 25.1191C143.339 25.3191 142.979 25.5191 142.639 25.7391L142.099 26.0991C141.999 26.1591 141.899 26.2591 141.819 26.3791C141.719 26.4991 141.659 26.6191 141.599 26.7591C141.539 26.8991 141.519 27.0191 141.499 27.1391L141.459 27.7991C141.459 27.9991 141.459 28.2191 141.459 28.4191C141.459 28.6191 141.459 28.8391 141.459 29.0391L141.499 29.6991C141.499 29.8191 141.539 29.9391 141.599 30.0791C141.659 30.2191 141.739 30.3391 141.819 30.4591C141.899 30.5791 141.999 30.6591 142.099 30.7391L142.659 31.0991C143.019 31.3391 143.379 31.5391 143.739 31.7391L144.319 32.0191C144.419 32.0791 144.559 32.0991 144.699 32.1391C144.839 32.1391 144.999 32.1391 145.139 32.1391C145.279 32.1191 145.419 32.0791 145.519 32.0391L146.099 31.7391C146.459 31.5391 146.819 31.3391 147.179 31.1191L147.739 30.7591C147.739 30.7591 147.939 30.5991 148.019 30.4791C148.119 30.3591 148.179 30.2391 148.239 30.0991C148.299 29.9591 148.339 29.8391 148.339 29.7191L148.379 29.0591C148.379 28.8591 148.379 28.6391 148.379 28.4391C148.379 28.2391 148.379 28.0191 148.379 27.8191L148.339 27.1591L148.319 27.1391ZM145.719 30.5991C145.719 30.5991 145.659 30.7391 145.579 30.7391C144.699 30.7391 143.979 30.0191 143.979 29.1391V26.2191C143.979 26.2191 144.039 26.0791 144.119 26.0791H144.699C144.699 26.0791 144.839 26.1391 144.839 26.2191V26.8791H145.559C145.559 26.8791 145.699 26.9391 145.699 27.0191V27.6191C145.699 27.6191 145.639 27.7591 145.559 27.7591H144.839V29.1391C144.839 29.5391 145.159 29.8591 145.559 29.8591C145.639 29.8591 145.699 29.9191 145.699 29.9991V30.5791L145.719 30.5991Z" fill="white"/>
<path d="M165.239 27.1391C165.239 27.0191 165.199 26.8791 165.139 26.7591C165.079 26.6191 165.019 26.4991 164.919 26.3791C164.819 26.2591 164.739 26.1791 164.639 26.0991L164.079 25.7391C163.719 25.5191 163.359 25.2991 162.999 25.1191L162.419 24.8191C162.299 24.7791 162.179 24.7391 162.039 24.7191C161.899 24.6991 161.739 24.6991 161.599 24.7191C161.459 24.7391 161.319 24.7791 161.219 24.8191L160.639 25.1191C160.259 25.3191 159.899 25.5191 159.559 25.7391L159.019 26.0991C158.919 26.1591 158.819 26.2591 158.739 26.3791C158.639 26.4991 158.579 26.6191 158.519 26.7591C158.459 26.8991 158.419 27.0191 158.419 27.1391L158.379 27.7991C158.379 27.9991 158.379 28.2191 158.379 28.4191C158.379 28.6191 158.379 28.8391 158.379 29.0391L158.419 29.6991C158.419 29.8191 158.459 29.9391 158.519 30.0791C158.579 30.2191 158.639 30.3391 158.739 30.4591C158.839 30.5791 158.919 30.6591 159.019 30.7391L159.579 31.0991C159.939 31.3391 160.319 31.5391 160.659 31.7391L161.239 32.0191C161.359 32.0791 161.479 32.0991 161.619 32.1391C161.759 32.1391 161.919 32.1391 162.059 32.1391C162.199 32.1191 162.319 32.0791 162.439 32.0391L163.019 31.7391C163.379 31.5391 163.739 31.3391 164.099 31.1191L164.659 30.7591C164.659 30.7591 164.859 30.5991 164.939 30.4791C165.039 30.3591 165.099 30.2391 165.159 30.0991C165.219 29.9591 165.239 29.8391 165.259 29.7191L165.299 29.0591C165.299 28.8591 165.299 28.6391 165.299 28.4391C165.299 28.2391 165.299 28.0191 165.299 27.8191L165.259 27.1591L165.239 27.1391ZM162.639 30.5991C162.639 30.5991 162.579 30.7391 162.499 30.7391C161.619 30.7391 160.899 30.0191 160.899 29.1391V26.2191C160.899 26.2191 160.959 26.0791 161.039 26.0791H161.619C161.619 26.0791 161.759 26.1391 161.759 26.2191V26.8791H162.479C162.479 26.8791 162.619 26.9391 162.619 27.0191V27.6191C162.619 27.6191 162.559 27.7591 162.479 27.7591H161.759V29.1391C161.759 29.5391 162.079 29.8591 162.479 29.8591C162.559 29.8591 162.619 29.9191 162.619 29.9991V30.5791L162.639 30.5991Z" fill="white"/>
<path d="M170.02 26.2988C168.86 26.2988 167.92 27.2388 167.92 28.3988C167.92 29.5588 168.86 30.4988 170.02 30.4988C171.18 30.4988 172.12 29.5588 172.12 28.3988C172.12 27.2388 171.18 26.2988 170.02 26.2988ZM170.02 29.6988C169.3 29.6988 168.72 29.1188 168.72 28.3988C168.72 27.6788 169.3 27.0988 170.02 27.0988C170.74 27.0988 171.32 27.6788 171.32 28.3988C171.32 29.1188 170.74 29.6988 170.02 29.6988Z" fill="white"/>
<path d="M173.219 32.12C173.039 32.12 172.979 31.9799 172.979 31.8199C172.979 31.6399 173.079 31.54 173.219 31.54C173.279 31.54 173.399 31.56 173.419 31.7H173.519C173.519 31.58 173.399 31.46 173.219 31.46C172.999 31.46 172.879 31.62 172.879 31.84C172.879 32.12 173.039 32.22 173.199 32.22C173.259 32.22 173.479 32.22 173.519 31.94H173.419C173.379 32.1 173.279 32.14 173.219 32.14V32.12Z" fill="black"/>
<path d="M173.22 31.2197C172.88 31.2197 172.6 31.4997 172.6 31.8397C172.6 32.1797 172.88 32.4597 173.22 32.4597C173.56 32.4597 173.84 32.1797 173.84 31.8397C173.84 31.4997 173.56 31.2197 173.22 31.2197ZM173.22 32.3798C172.92 32.3798 172.68 32.1397 172.68 31.8397C172.68 31.5397 172.92 31.2997 173.22 31.2997C173.52 31.2997 173.76 31.5397 173.76 31.8397C173.76 32.1397 173.52 32.3798 173.22 32.3798Z" fill="black"/>
<path d="M157.379 27.7594L157.339 27.0795C157.339 26.8995 157.279 26.6995 157.199 26.5195C157.119 26.3395 157.019 26.1595 156.899 25.9995C156.779 25.8395 156.639 25.6995 156.499 25.5995L155.919 25.2195C155.539 24.9795 155.159 24.7595 154.799 24.5795L154.199 24.2795C154.039 24.1995 153.859 24.1595 153.639 24.1195C153.439 24.0995 153.239 24.0995 153.039 24.1195C152.839 24.1395 152.659 24.1995 152.479 24.2795L151.859 24.5795C151.479 24.7795 151.099 24.9995 150.739 25.2195L150.179 25.5995C150.019 25.6995 149.899 25.8395 149.759 25.9995C149.639 26.1595 149.539 26.3395 149.459 26.5195C149.379 26.6995 149.339 26.8995 149.319 27.0795L149.279 27.7594C149.279 28.1794 149.279 28.6195 149.279 29.0595L149.319 29.7395C149.319 29.9195 149.379 30.0995 149.459 30.2995C149.539 30.4795 149.639 30.6594 149.759 30.8194C149.879 30.9794 150.019 31.1195 150.159 31.2195L150.739 31.5995C151.119 31.8395 151.499 32.0595 151.859 32.2395L152.459 32.5595C152.639 32.6395 152.819 32.6795 153.019 32.7195C153.219 32.7395 153.419 32.7395 153.619 32.7195C153.819 32.6995 153.999 32.6395 154.179 32.5595L154.799 32.2395C155.179 32.0395 155.559 31.8195 155.919 31.5995L156.499 31.2195C156.659 31.1195 156.779 30.9794 156.919 30.8194C157.039 30.6594 157.139 30.4795 157.219 30.2995C157.299 30.0995 157.339 29.9195 157.359 29.7395L157.399 29.0595C157.399 28.6195 157.399 28.1994 157.399 27.7594H157.379ZM156.799 29.0195L156.759 29.6795C156.759 29.7995 156.719 29.9195 156.659 30.0595C156.599 30.1995 156.539 30.3195 156.439 30.4395C156.339 30.5595 156.259 30.6395 156.159 30.7195L155.599 31.0795C155.259 31.2995 154.879 31.5194 154.519 31.6994C154.519 31.6994 153.939 31.9795 153.939 31.9995C153.819 32.0395 153.699 32.0795 153.559 32.0995C153.419 32.0995 153.259 32.0995 153.119 32.0995C152.979 32.0795 152.839 32.0395 152.739 31.9795L152.159 31.6994C151.799 31.4994 151.439 31.2995 151.079 31.0595L150.539 30.6994C150.539 30.6994 150.339 30.5395 150.259 30.4195C150.179 30.2995 150.099 30.1795 150.039 30.0395C149.979 29.8995 149.959 29.7795 149.939 29.6595L149.899 28.9995C149.899 28.7995 149.899 28.5795 149.899 28.3795C149.899 28.1795 149.899 27.9594 149.899 27.7594L149.939 27.0995C149.939 26.9795 149.979 26.8595 150.039 26.7195C150.099 26.5795 150.179 26.4595 150.259 26.3395C150.359 26.2195 150.439 26.1395 150.539 26.0595L151.099 25.6994C151.439 25.4794 151.819 25.2595 152.179 25.0795L152.759 24.7795C152.859 24.7395 152.999 24.6995 153.139 24.6795C153.279 24.6595 153.439 24.6595 153.579 24.6795C153.719 24.6995 153.859 24.7395 153.959 24.7795L154.539 25.0795C154.899 25.2595 155.259 25.4794 155.619 25.6994L156.179 26.0595C156.179 26.0595 156.379 26.2195 156.459 26.3395C156.539 26.4595 156.619 26.5795 156.679 26.7195C156.739 26.8595 156.759 26.9795 156.779 27.0995L156.819 27.7594C156.819 27.9594 156.819 28.1795 156.819 28.3795C156.819 28.5795 156.819 28.7995 156.819 28.9995L156.799 29.0195Z" fill="black"/>
<path d="M153.338 26.2998C152.178 26.2998 151.238 27.2398 151.238 28.3998C151.238 29.5598 152.178 30.4998 153.338 30.4998C154.498 30.4998 155.438 29.5598 155.438 28.3998C155.438 27.2398 154.498 26.2998 153.338 26.2998ZM153.338 29.6998C152.618 29.6998 152.038 29.1198 152.038 28.3998C152.038 27.6798 152.618 27.0998 153.338 27.0998C154.058 27.0998 154.638 27.6798 154.638 28.3998C154.638 29.1198 154.058 29.6998 153.338 29.6998Z" fill="black"/>
<path d="M148.939 27.7594L148.899 27.0795C148.899 26.8995 148.839 26.6995 148.759 26.5195C148.679 26.3395 148.579 26.1595 148.459 25.9995C148.339 25.8395 148.199 25.6995 148.039 25.5995L147.459 25.2195C147.079 24.9795 146.699 24.7595 146.339 24.5795L145.739 24.2795C145.579 24.1995 145.399 24.1595 145.179 24.1195C144.979 24.0995 144.779 24.0995 144.579 24.1195C144.379 24.1395 144.199 24.1995 144.039 24.2795L143.439 24.5795C143.059 24.7795 142.679 24.9995 142.319 25.2195L141.759 25.5995C141.599 25.6995 141.479 25.8395 141.339 25.9995C141.219 26.1595 141.119 26.3395 141.039 26.5195C140.959 26.6995 140.919 26.8995 140.899 27.0795L140.859 27.7594C140.859 28.1794 140.859 28.6195 140.859 29.0595L140.899 29.7395C140.899 29.9195 140.959 30.0995 141.039 30.2995C141.119 30.4795 141.219 30.6594 141.339 30.8194C141.459 30.9794 141.599 31.1195 141.759 31.2195L142.339 31.5995C142.719 31.8395 143.099 32.0595 143.459 32.2395L144.059 32.5595C144.219 32.6395 144.399 32.6795 144.619 32.7195C144.819 32.7395 145.019 32.7395 145.219 32.7195C145.419 32.6995 145.599 32.6395 145.779 32.5595L146.379 32.2395C146.759 32.0395 147.139 31.8195 147.499 31.5995L148.079 31.2195C148.239 31.1195 148.359 30.9794 148.499 30.8194C148.619 30.6594 148.719 30.4795 148.799 30.2995C148.879 30.0995 148.919 29.9195 148.939 29.7395L148.979 29.0595C148.979 28.6195 148.979 28.1994 148.979 27.7594H148.939ZM148.359 29.0195L148.319 29.6795C148.319 29.7995 148.279 29.9195 148.219 30.0595C148.159 30.1995 148.099 30.3195 147.999 30.4395C147.899 30.5595 147.819 30.6395 147.719 30.7195L147.159 31.0795C146.799 31.2995 146.439 31.5194 146.079 31.6994C146.079 31.6994 145.519 31.9795 145.499 31.9995C145.379 32.0395 145.259 32.0795 145.119 32.0995C144.979 32.0995 144.819 32.0995 144.679 32.0995C144.539 32.0795 144.399 32.0395 144.299 31.9795L143.719 31.6994C143.359 31.4994 142.999 31.2995 142.639 31.0595L142.079 30.6994C142.079 30.6994 141.899 30.5395 141.799 30.4195C141.699 30.2995 141.639 30.1795 141.579 30.0395C141.519 29.8995 141.499 29.7795 141.479 29.6595L141.439 28.9995C141.439 28.7995 141.439 28.5795 141.439 28.3795C141.439 28.1795 141.439 27.9594 141.439 27.7594L141.479 27.0995C141.479 26.9795 141.519 26.8595 141.579 26.7195C141.639 26.5795 141.719 26.4595 141.799 26.3395C141.879 26.2195 141.979 26.1395 142.079 26.0595L142.619 25.6994C142.959 25.4794 143.339 25.2595 143.699 25.0795L144.279 24.7795C144.379 24.7395 144.519 24.6995 144.659 24.6795C144.799 24.6595 144.959 24.6595 145.099 24.6795C145.239 24.6995 145.379 24.7395 145.479 24.7795L146.059 25.0795C146.399 25.2595 146.779 25.4794 147.139 25.6994L147.699 26.0595C147.699 26.0595 147.899 26.2195 147.979 26.3395C148.079 26.4595 148.139 26.5795 148.199 26.7195C148.259 26.8595 148.299 26.9795 148.299 27.0995L148.339 27.7594C148.339 27.9594 148.339 28.1795 148.339 28.3795C148.339 28.5795 148.339 28.7995 148.339 28.9995L148.359 29.0195Z" fill="black"/>
<path d="M145.58 29.8591C145.18 29.8591 144.86 29.5391 144.86 29.1391V27.7591H145.58C145.58 27.7591 145.72 27.6991 145.72 27.6191V27.0191C145.72 27.0191 145.66 26.8792 145.58 26.8792H144.86V26.2191C144.86 26.2191 144.8 26.0791 144.72 26.0791H144.14C144.14 26.0791 144 26.1391 144 26.2191V29.1391C144 30.0191 144.72 30.7391 145.6 30.7391C145.68 30.7391 145.74 30.6791 145.74 30.5991V30.0191C145.74 30.0191 145.68 29.8792 145.6 29.8792L145.58 29.8591Z" fill="black"/>
<path d="M165.839 27.7594L165.799 27.0795C165.799 26.8995 165.739 26.6995 165.659 26.5195C165.579 26.3395 165.479 26.1595 165.359 25.9995C165.239 25.8395 165.099 25.6995 164.939 25.5995L164.359 25.2195C163.979 24.9795 163.599 24.7595 163.239 24.5795L162.639 24.2795C162.479 24.1995 162.299 24.1595 162.079 24.1195C161.879 24.0995 161.679 24.0995 161.479 24.1195C161.279 24.1395 161.099 24.1995 160.939 24.2795L160.319 24.5795C159.939 24.7795 159.559 24.9995 159.199 25.2195L158.619 25.5995C158.459 25.6995 158.339 25.8395 158.199 25.9995C158.079 26.1595 157.979 26.3395 157.899 26.5195C157.819 26.6995 157.779 26.8995 157.759 27.0795L157.719 27.7594C157.719 28.1794 157.719 28.6195 157.719 29.0595L157.759 29.7395C157.759 29.9195 157.819 30.0995 157.899 30.2995C157.979 30.4795 158.079 30.6594 158.199 30.8194C158.339 30.9794 158.459 31.1195 158.599 31.2195L159.179 31.5995C159.559 31.8395 159.939 32.0595 160.299 32.2395L160.899 32.5595C161.059 32.6395 161.239 32.6795 161.459 32.7195C161.659 32.7395 161.859 32.7395 162.059 32.7195C162.259 32.6995 162.439 32.6395 162.599 32.5595L163.219 32.2395C163.599 32.0395 163.979 31.8195 164.339 31.5995L164.899 31.2195C165.059 31.1195 165.179 30.9794 165.319 30.8194C165.439 30.6594 165.539 30.4795 165.619 30.2995C165.699 30.0995 165.739 29.9195 165.759 29.7395L165.799 29.0595C165.799 28.6195 165.799 28.1994 165.799 27.7594H165.839ZM165.259 29.0195L165.219 29.6795C165.219 29.7995 165.179 29.9195 165.119 30.0595C165.059 30.1995 164.999 30.3195 164.899 30.4395C164.799 30.5595 164.719 30.6395 164.619 30.7195L164.059 31.0795C163.719 31.2995 163.339 31.5194 162.979 31.6994L162.399 31.9995C162.279 32.0395 162.159 32.0795 162.019 32.0995C161.859 32.0995 161.719 32.0995 161.579 32.0995C161.439 32.0795 161.299 32.0395 161.199 31.9795L160.619 31.6994C160.259 31.4994 159.899 31.2995 159.539 31.0595L158.979 30.6994C158.979 30.6994 158.799 30.5395 158.699 30.4195C158.599 30.2995 158.539 30.1795 158.479 30.0395C158.419 29.8995 158.379 29.7795 158.379 29.6595L158.339 28.9995C158.339 28.7995 158.339 28.5795 158.339 28.3795C158.339 28.1795 158.339 27.9594 158.339 27.7594L158.379 27.0995C158.379 26.9795 158.419 26.8595 158.479 26.7195C158.539 26.5795 158.599 26.4595 158.699 26.3395C158.799 26.2195 158.879 26.1395 158.979 26.0595L159.519 25.6994C159.859 25.4794 160.239 25.2595 160.599 25.0795L161.179 24.7795C161.299 24.7395 161.419 24.6995 161.559 24.6795C161.699 24.6595 161.859 24.6595 161.999 24.6795C162.139 24.6995 162.279 24.7395 162.379 24.7795L162.959 25.0795C163.319 25.2595 163.679 25.4794 164.039 25.6994L164.599 26.0595C164.599 26.0595 164.799 26.2195 164.879 26.3395C164.979 26.4595 165.039 26.5795 165.099 26.7195C165.159 26.8595 165.179 26.9795 165.199 27.0995L165.239 27.7594C165.239 27.9594 165.239 28.1795 165.239 28.3795C165.239 28.5795 165.239 28.7995 165.239 28.9995L165.259 29.0195Z" fill="black"/>
<path d="M162.498 29.8591C162.098 29.8591 161.778 29.5391 161.778 29.1391V27.7591H162.498C162.498 27.7591 162.638 27.6991 162.638 27.6191V27.0191C162.638 27.0191 162.578 26.8792 162.498 26.8792H161.778V26.2191C161.778 26.2191 161.718 26.0791 161.638 26.0791H161.058C161.058 26.0791 160.918 26.1391 160.918 26.2191V29.1391C160.918 30.0191 161.638 30.7391 162.518 30.7391C162.598 30.7391 162.658 30.6791 162.658 30.5991V30.0191C162.658 30.0191 162.598 29.8792 162.518 29.8792L162.498 29.8591Z" fill="black"/>
<path d="M170.021 27.0996C169.301 27.0996 168.721 27.6796 168.721 28.3996C168.721 29.1196 169.301 29.6996 170.021 29.6996C170.741 29.6996 171.321 29.1196 171.321 28.3996C171.321 27.6796 170.741 27.0996 170.021 27.0996Z" fill="black"/>
<path d="M174.28 28.0793C174.24 27.8593 174.16 27.6593 174.06 27.4793C173.9 27.2393 173.76 26.9993 173.6 26.7793C173.32 26.3393 173 25.9193 172.66 25.4993C172.5 25.2993 172.32 25.0993 172.14 24.8793C172 24.7193 171.84 24.5993 171.62 24.4993C171.42 24.3993 171.22 24.3393 171 24.2993C170.78 24.2793 170.56 24.2993 170.36 24.3193C170.1 24.3793 169.82 24.4593 169.56 24.5393C169.06 24.6793 168.56 24.8593 168.08 25.0393C167.82 25.1393 167.58 25.2393 167.34 25.3393C167.16 25.4193 166.98 25.5393 166.84 25.6993C166.68 25.8593 166.56 26.0193 166.46 26.2193C166.36 26.4193 166.3 26.6193 166.28 26.8193C166.26 27.0793 166.24 27.3593 166.22 27.6393C166.2 28.1393 166.2 28.6793 166.22 29.1793C166.22 29.4593 166.26 29.7193 166.28 29.9793C166.3 30.1793 166.36 30.3793 166.46 30.5793C166.56 30.7793 166.68 30.9593 166.82 31.0993C166.98 31.2593 167.14 31.3793 167.32 31.4593C167.58 31.5593 167.82 31.6793 168.06 31.7593C168.54 31.9393 169.04 32.1193 169.54 32.2593C169.8 32.3393 170.06 32.4193 170.34 32.4793C170.54 32.5193 170.76 32.5393 170.98 32.4993C171.2 32.4793 171.42 32.3993 171.6 32.2993C171.8 32.1993 171.96 32.0793 172.1 31.9193C172.28 31.7193 172.46 31.5193 172.64 31.2793C172.96 30.8793 173.28 30.4593 173.58 29.9993C173.74 29.7793 173.88 29.5393 174.04 29.2993C174.14 29.1193 174.22 28.9193 174.26 28.6993C174.3 28.4793 174.3 28.2593 174.26 28.0393L174.28 28.0793ZM170.02 30.4993C168.86 30.4993 167.92 29.5593 167.92 28.3993C167.92 27.2393 168.86 26.2993 170.02 26.2993C171.18 26.2993 172.12 27.2393 172.12 28.3993C172.12 29.5593 171.18 30.4993 170.02 30.4993Z" fill="black"/>
<defs>
<linearGradient id="paint0_linear_1903_36446" x1="113.219" y1="15.4395" x2="113.219" y2="30.9995" gradientUnits="userSpaceOnUse">
<stop offset="0.15" stop-color="#E5002D"/>
<stop offset="0.5" stop-color="#913D91"/>
<stop offset="0.85" stop-color="#00469B"/>
</linearGradient>
</defs>
</svg>
