<svg width="90" height="21" viewBox="0 0 90 21" fill="none" xmlns="http://www.w3.org/2000/svg">
<path d="M4.41352 1.01405H3.69199V4.14706C3.69199 4.76456 3.52301 5.25205 3.17851 5.60305C2.84051 5.95405 2.36602 6.12955 1.76802 6.12955C0.85802 6.12955 0.2665 5.76556 0 5.04406L0.79302 4.45904C0.91002 4.95954 1.23501 5.20656 1.76151 5.20656C2.04101 5.20656 2.26202 5.10905 2.41802 4.90755C2.56102 4.72555 2.63253 4.49804 2.63253 4.21204V1.00755H1.911V0.0910645H4.41352V1.00755V1.01405Z" fill="black"/>
<path d="M6.12298 5.9085H5.06348V4.84253H6.12298V5.9085Z" fill="black"/>
<path d="M12.1485 5.90853H7.33203V4.99205H8.06003V1.00755H7.33203V0.0910645H9.85403V1.00755H9.12604V4.99205H11.1605V3.94556H12.155V5.91504L12.1485 5.90853Z" fill="black"/>
<path d="M17.9401 5.90853H12.8311V4.99205H13.5591V1.00755H12.8311V0.0910645H17.8621V1.76804H16.8806V1.00755H14.6251V2.44406H16.4321V3.31504H14.6251V4.99205H16.9586V4.08203H17.9401V5.90853V5.90853Z" fill="black"/>
<path d="M24.8108 5.90853H22.4838V4.99856H23.0753L21.7688 1.02707L20.4753 4.99856H21.0083V5.90853H18.6553V4.99856H19.3703L20.7223 1.00755H19.9618V0.0910645H23.5108V1.00755H22.8543L24.2518 4.99856H24.8173V5.90853H24.8108Z" fill="black"/>
<path d="M31.3434 2.88597C31.3434 3.64647 31.1614 4.29644 30.7909 4.84894C30.2774 5.62244 29.4779 6.00596 28.3859 6.00596C27.3459 6.00596 26.5399 5.66796 25.9614 4.99196C25.4739 4.43296 25.2334 3.77644 25.2334 3.02244C25.2334 2.09944 25.5324 1.35845 26.1369 0.799454C26.7024 0.272954 27.4239 0.0129395 28.3014 0.0129395C29.1204 0.0129395 29.7509 0.220947 30.1929 0.630447V0.0974426H31.1029V2.09945H30.1929C30.1929 2.09945 30.1929 2.05395 30.1799 2.01495C30.1279 1.76795 29.9654 1.54045 29.6924 1.31945C29.3284 1.03995 28.8864 0.896963 28.3534 0.890463H28.2884C27.7749 0.890463 27.3264 1.07244 26.9364 1.43644C26.5269 1.83944 26.3189 2.34646 26.3189 2.96396C26.3189 3.58146 26.5269 4.14047 26.9494 4.54997C27.3394 4.93347 27.8334 5.12848 28.4119 5.12848C28.9579 5.12848 29.4259 4.95298 29.7964 4.60198C30.1214 4.30948 30.2969 3.99744 30.3229 3.67244H28.5224V2.78195H31.3434C31.3434 2.78195 31.3499 2.84695 31.3499 2.87295L31.3434 2.88597Z" fill="black"/>
<path d="M37.9277 0.981476H37.2452V3.45797C37.2452 4.27047 37.0177 4.90095 36.5692 5.34295C36.1467 5.76545 35.5747 5.97347 34.8662 5.97347C34.4567 5.97347 34.0732 5.88897 33.7287 5.72647C33.3842 5.56397 33.1177 5.34948 32.9292 5.08948C32.6497 4.68648 32.5067 4.11446 32.5067 3.36046V0.974969H31.8047V0.0844727H34.2227V0.974969H33.5467V3.33447C33.5467 4.47847 34.0082 5.05044 34.9247 5.05044C35.4707 5.05044 35.8412 4.86846 36.0492 4.49796C36.1922 4.24446 36.2637 3.88045 36.2637 3.39295V0.981476H35.5162V0.090979H37.9342V0.981476H37.9277Z" fill="black"/>
<path d="M43.621 5.90853H38.5186V4.99205H39.2466V1.00755H38.5186V0.0910645H43.5495V1.76804H42.568V1.00755H40.3126V2.44406H42.1196V3.31504H40.3126V4.99205H42.6461V4.08203H43.6275V5.90853H43.621Z" fill="black"/>
<path d="M53.0725 2.99649C53.0725 3.89999 52.7735 4.62151 52.1755 5.16751C51.5775 5.72001 50.8301 5.99298 49.9201 5.99298C49.0101 5.99298 48.269 5.72001 47.671 5.16751C47.073 4.62151 46.7676 3.89349 46.7676 2.99649C46.7676 2.09949 47.0665 1.37147 47.671 0.825473C48.269 0.272973 49.0231 0 49.9201 0C50.8171 0 51.5775 0.272973 52.1755 0.825473C52.7735 1.37797 53.0725 2.09949 53.0725 2.99649ZM52.013 2.99649C52.013 2.39849 51.8115 1.89799 51.4085 1.49499C51.0055 1.09199 50.5051 0.890497 49.9201 0.890497C49.3351 0.890497 48.8475 1.09199 48.4445 1.49499C48.0415 1.89799 47.84 2.39849 47.84 2.99649C47.84 3.59449 48.0415 4.09499 48.4445 4.49799C48.8475 4.90099 49.3416 5.10248 49.9201 5.10248C50.4986 5.10248 51.0055 4.90099 51.4085 4.49799C51.8115 4.09499 52.013 3.59449 52.013 2.99649Z" fill="black"/>
<path d="M58.5783 1.84604H57.5838V1.01406H55.3998V2.64556H57.3563V3.51654H55.3998V4.99856H56.2253V5.91504H53.6123V4.99856H54.3403V1.01406H53.6123V0.0975342H58.5783V1.85254V1.84604Z" fill="black"/>
<path d="M64.1096 1.84604H63.115V1.01406H60.9311V2.64556H62.8876V3.51654H60.9311V4.99856H61.7566V5.91504H59.1436V4.99856H59.8716V1.01406H59.1436V0.0975342H64.1096V1.85254V1.84604Z" fill="black"/>
<path d="M67.2688 5.90853H64.7598V4.99205H65.4878V1.00104H64.7598V0.0910645H67.2688V1.00104H66.5473V4.99205H67.2688V5.90853Z" fill="black"/>
<path d="M73.7161 4.08198C73.2416 5.35598 72.2991 5.99298 70.8886 5.99298C69.9526 5.99298 69.1986 5.70049 68.6201 5.10899C68.0741 4.54999 67.8076 3.84798 67.8076 2.98998C67.8076 2.13198 68.0806 1.43648 68.6201 0.870978C69.1856 0.285978 69.9331 0 70.8626 0C71.6036 0 72.2471 0.207981 72.7931 0.630481V0.0845032H73.6901V2.2295H72.7801C72.6371 1.8135 72.4031 1.48849 72.0781 1.24799C71.7531 1.00749 71.3631 0.890497 70.9146 0.890497C70.3101 0.890497 69.816 1.09199 69.4455 1.49499C69.0751 1.89799 68.8801 2.39848 68.8801 2.98998C68.8801 3.58148 69.0751 4.07551 69.4586 4.47851C69.8486 4.88801 70.3296 5.08951 70.9146 5.08951C71.3761 5.08951 71.7791 4.95949 72.1301 4.70599C72.4811 4.45249 72.7281 4.10151 72.8776 3.66601L73.7226 4.06901L73.7161 4.08198Z" fill="black"/>
<path d="M76.8752 5.90853H74.3662V4.99205H75.0942V1.00104H74.3662V0.0910645H76.8752V1.00104H76.1537V4.99205H76.8752V5.90853Z" fill="black"/>
<path d="M83.9544 5.90853H81.6274V4.99856H82.2188L81.8808 4.01705H79.7554L79.4174 4.99856H79.9633V5.90853H77.6104V4.99856H78.3253L79.7683 1.00755H79.0079V0.0910645H82.5568V1.00755H81.9003L83.3889 4.99856H83.9544V5.90853ZM81.5688 3.14603L80.8084 0.994534L80.0739 3.14603H81.5753H81.5688Z" fill="black"/>
<path d="M89.4728 5.90853H84.6562V4.99205H85.3842V1.00755H84.6562V0.0910645H87.1783V1.00755H86.4503V4.99205H88.4848V3.94556H89.4793V5.91504L89.4728 5.90853Z" fill="black"/>
<path d="M25.3498 9.3665H24.3163V8.19651H23.1918V12.181H24.1018V13.0975H21.2288V12.181H22.1388V8.19651H21.0208V9.3665H19.9873V7.28003H25.3498V9.3665V9.3665Z" fill="black"/>
<path d="M28.5217 13.0911H26.0127V12.1745H26.7407V8.18354H26.0127V7.27356H28.5217V8.18354H27.8002V12.1745H28.5217V13.0911Z" fill="black"/>
<path d="M34.9759 11.2645C34.5014 12.5385 33.5589 13.1755 32.1484 13.1755C31.2124 13.1755 30.4584 12.883 29.8799 12.2915C29.3339 11.7325 29.0674 11.0305 29.0674 10.1725C29.0674 9.31448 29.3404 8.61901 29.8799 8.05351C30.4454 7.46851 31.1929 7.1825 32.1224 7.1825C32.8634 7.1825 33.5069 7.39048 34.0529 7.81298V7.267H34.9499V9.41199H34.0399C33.8969 8.99599 33.6629 8.67098 33.3379 8.43048C33.0129 8.18998 32.6294 8.07299 32.1744 8.07299C31.5699 8.07299 31.0759 8.27449 30.7054 8.67749C30.3349 9.08049 30.1399 9.58098 30.1399 10.1725C30.1399 10.764 30.3349 11.258 30.7184 11.661C31.1084 12.0705 31.5894 12.272 32.1744 12.272C32.6359 12.272 33.0389 12.142 33.3899 11.8885C33.7344 11.635 33.9879 11.284 34.1374 10.8485L34.9824 11.2515L34.9759 11.2645Z" fill="black"/>
<path d="M41.4119 13.0911H38.7209V12.1745H39.3384L37.3819 10.1596V12.1745H38.0449V13.0911H35.5879V12.1745H36.3159V8.19004H35.5879V7.27356H38.0449V8.19004H37.3819V10.0555L39.3514 8.19004H38.7209V7.27356H41.3274V8.19004H40.7229L38.7144 10.0686L40.8139 12.1745H41.4054V13.0911H41.4119Z" fill="black"/>
<path d="M47.19 13.0911H42.0811V12.1745H42.8091V8.19004H42.0811V7.27356H47.112V8.95053H46.1305V8.19004H43.8751V9.62656H45.6821V10.4975H43.8751V12.1745H46.2085V11.2646H47.19V13.0911V13.0911Z" fill="black"/>
<path d="M53.1701 9.3665H52.1431V8.19651H51.0186V12.181H51.9286V13.0975H49.0491V12.181H49.9591V8.19651H48.8411V9.3665H47.8076V7.28003H53.1636V9.3665H53.1701Z" fill="black"/>
<path d="M56.342 13.0911H53.833V12.1745H54.5675V8.18354H53.833V7.27356H56.342V8.18354H55.6205V12.1745H56.342V13.0911Z" fill="black"/>
<path d="M63.16 8.19651H62.4645V13.0975H61.2685L58.701 9.08701V12.181H59.3965V13.0975H56.9785V12.181H57.6935V8.19651H56.9785V7.28003H58.792L61.457 11.427V8.19651H60.742V7.28003H63.16V8.19651Z" fill="black"/>
<path d="M69.6871 10.0684C69.6871 10.8289 69.5051 11.4789 69.1346 12.0314C68.6211 12.8049 67.8216 13.1884 66.7296 13.1884C65.6896 13.1884 64.8836 12.8504 64.3051 12.1744C63.8176 11.6154 63.5771 10.9589 63.5771 10.2049C63.5771 9.28194 63.8762 8.54091 64.4742 7.98191C65.0397 7.45541 65.7611 7.19543 66.6386 7.19543C67.4576 7.19543 68.0881 7.4034 68.5301 7.8129V7.27994H69.4402V9.28191H68.5301C68.5301 9.28191 68.5301 9.23641 68.5171 9.19741C68.4651 8.95041 68.3026 8.72294 68.0296 8.50194C67.6656 8.22244 67.2236 8.07942 66.6906 8.07292H66.6256C66.1121 8.07292 65.6636 8.25494 65.2736 8.61894C64.8641 9.02194 64.6561 9.52892 64.6561 10.1464C64.6561 10.7639 64.8641 11.3229 65.2801 11.7324C65.6766 12.1159 66.1641 12.3109 66.7426 12.3109C67.2886 12.3109 67.7566 12.1354 68.1271 11.7844C68.4521 11.4919 68.6276 11.1799 68.6536 10.8549H66.8531V9.96444H69.6741C69.6741 9.96444 69.6871 10.0294 69.6871 10.0554V10.0684Z" fill="black"/>
<path d="M28.6592 16.1525C28.6592 17.407 27.9052 18.0376 26.4037 18.0376H24.9607V19.357H25.7212V20.2736H23.1992V19.357H23.9012V15.3725H23.1992V14.4561H26.3647C27.0342 14.4561 27.5412 14.5536 27.8922 14.7486C28.4057 15.0346 28.6592 15.5025 28.6592 16.1525V16.1525ZM27.5542 16.237C27.5542 15.9705 27.4632 15.7561 27.2747 15.6066C27.0862 15.4571 26.8327 15.379 26.5077 15.379H24.9607V17.1536H26.4037C27.1707 17.1536 27.5542 16.8481 27.5542 16.2436V16.237Z" fill="black"/>
<path d="M35.0223 20.2736H32.6954V19.3635H33.2869L32.9488 18.382H30.8169L30.4789 19.3635H31.0249V20.2736H28.6719V19.3635H29.3804L30.8234 15.3725H30.0628V14.4561H33.6119V15.3725H32.9554L34.4438 19.3635H35.0094V20.2736H35.0223ZM32.6369 17.5111L31.8764 15.3596L31.1419 17.5111H32.6434H32.6369Z" fill="black"/>
<path d="M41.6 20.2735H39.9425V19.0254C39.9425 18.5964 39.897 18.304 39.8125 18.161C39.6695 17.9205 39.364 17.8035 38.896 17.8035H37.4985V19.3504H38.259V20.267H35.75V19.3504H36.4455V15.366H35.75V14.4495H38.87C40.3585 14.4495 41.0995 14.9695 41.0995 16.016C41.0995 16.757 40.7225 17.2055 39.975 17.355C40.157 17.355 40.3325 17.407 40.508 17.5045C40.8395 17.6995 41.002 18.0635 41.002 18.6095V19.3504H41.6V20.267V20.2735ZM40.0075 16.133C40.0075 15.626 39.624 15.3725 38.8505 15.3725H37.4985V16.9195H38.8895C39.637 16.9195 40.0075 16.653 40.0075 16.133Z" fill="black"/>
<path d="M47.3918 16.549H46.3583V15.379H45.2338V19.3635H46.1438V20.28H43.2708V19.3635H44.1808V15.379H43.0628V16.549H42.0293V14.4625H47.3853V16.549H47.3918Z" fill="black"/>
<path d="M54.119 15.379H53.4235V20.28H52.2275L49.66 16.2695V19.3635H50.3555V20.28H47.9375V19.3635H48.6525V15.379H47.9375V14.4625H49.751L52.416 18.6095V15.379H51.701V14.4625H54.119V15.379Z" fill="black"/>
<path d="M59.8131 20.2736H54.7041V19.357H55.4321V15.3725H54.7041V14.4561H59.7351V16.1331H58.7536V15.3725H56.4981V16.8091H58.3051V17.6801H56.4981V19.357H58.8316V18.4471H59.8196V20.2736H59.8131Z" fill="black"/>
<path d="M66.4369 20.2735H64.7795V19.0254C64.7795 18.5964 64.7339 18.304 64.6494 18.161C64.5064 17.9205 64.201 17.8035 63.733 17.8035H62.3355V19.3504H63.096V20.267H60.5869V19.3504H61.2825V15.366H60.5869V14.4495H63.7069C65.1954 14.4495 65.9365 14.9695 65.9365 16.016C65.9365 16.757 65.5594 17.2055 64.8119 17.355C64.9939 17.355 65.1695 17.407 65.345 17.5045C65.6765 17.6995 65.839 18.0635 65.839 18.6095V19.3504H66.4369V20.267V20.2735ZM64.8444 16.133C64.8444 15.626 64.4609 15.3725 63.6874 15.3725H62.3355V16.9195H63.7265C64.474 16.9195 64.8444 16.653 64.8444 16.133V16.133Z" fill="black"/>
</svg>
