<svg width="128" height="9" viewBox="0 0 128 9" fill="none" xmlns="http://www.w3.org/2000/svg">
<path d="M74.3179 6.50325C73.7449 7.07732 73.1719 7.36435 72.3124 7.36435C71.5962 7.36435 70.8799 7.07732 70.3069 6.50325C69.7339 5.92919 69.4474 5.35513 69.4474 4.49403C69.4474 3.77645 69.7339 3.05887 70.3069 2.48481C70.8799 1.91075 71.4529 1.62371 72.3124 1.62371C73.0287 1.62371 73.7449 1.91075 74.3179 2.48481C74.8909 3.05887 75.1774 3.63293 75.1774 4.49403C75.1774 5.35513 74.8909 5.92919 74.3179 6.50325ZM75.3207 1.62371C74.4612 0.906133 73.6017 0.475586 72.3124 0.475586C71.1664 0.475586 70.1637 0.906133 69.3042 1.62371C68.4447 2.34129 68.1582 3.3459 68.1582 4.49403C68.1582 5.64216 68.588 6.64677 69.3042 7.36435C70.0204 8.08193 71.0232 8.51247 72.3124 8.51247C73.4584 8.51247 74.4612 8.08193 75.3207 7.36435C76.0369 6.64677 76.4667 5.64216 76.4667 4.49403C76.4667 3.3459 76.1802 2.34129 75.3207 1.62371Z" fill="black"/>
<path d="M83.9157 0.619141V2.9154H82.6264V1.76727H79.7615V4.06353H82.3399V5.21166H79.7615V7.22088H80.9075V8.36901H77.4695V7.22088H78.4722V1.91079H77.4695V0.619141H83.9157Z" fill="black"/>
<path d="M91.651 0.619141V2.9154H90.3617V1.76727H87.4968V4.06353H90.0752V5.21166H87.4968V7.22088H88.6428V8.36901H85.0615V7.22088H86.0643V1.91079H85.0615V0.619141H91.651Z" fill="black"/>
<path d="M96.0918 7.22091V8.36904H92.7971V7.22091H93.7999V1.91082H92.7971V0.762695H96.0918V1.91082H95.0891V7.22091H96.0918Z" fill="black"/>
<path d="M103.971 5.35513L105.117 5.92919C104.544 7.65138 103.254 8.51247 101.392 8.51247C100.103 8.51247 99.1 8.08193 98.3838 7.36435C97.6675 6.64677 97.2378 5.64216 97.2378 4.49403C97.2378 3.3459 97.6675 2.48481 98.3838 1.62371C99.1 0.906133 100.103 0.475586 101.392 0.475586C102.395 0.475586 103.254 0.762616 103.971 1.33668V0.6191H105.117V3.48942H103.971C103.827 2.91535 103.541 2.48481 103.111 2.19778C102.681 1.91075 102.108 1.76723 101.535 1.76723C100.676 1.76723 100.103 2.05426 99.5298 2.62832C99.1 3.20239 98.8135 3.77645 98.8135 4.63755C98.8135 5.35513 99.1 6.0727 99.5298 6.64677C100.103 7.22083 100.676 7.50787 101.392 7.50787C101.965 7.50787 102.538 7.36435 102.968 6.9338C103.398 6.50325 103.827 5.92919 103.971 5.35513Z" fill="black"/>
<path d="M109.557 7.22091V8.36904H106.262V7.22091H107.265V1.91082H106.262V0.762695H109.557V1.91082H108.554V7.22091H109.557Z" fill="black"/>
<path d="M115.144 1.91079L116.147 4.78111H114.141L115.144 1.91079ZM118.582 7.22088L116.576 1.91079H117.436V0.619141H112.709V1.91079H113.711L111.849 7.22088H110.846V8.36901H113.998V7.22088H113.282L113.711 5.92924H116.576L117.006 7.22088H116.147V8.36901H119.155V7.22088H118.582Z" fill="black"/>
<path d="M127.034 5.78572V8.36901H120.731V7.22088H121.733V1.91079H120.731V0.619141H124.025V1.91079H123.023V7.22088H125.744V5.78572H127.034Z" fill="black"/>
<path d="M1.11755 6.93384L0.258057 7.93846C1.69055 9.66065 4.55553 8.65604 4.55553 6.21626V1.91079H5.55827V0.619141H1.97704V1.91079H2.97978V6.07275C2.97978 7.36439 1.8338 7.79494 1.11755 6.93384Z" fill="black"/>
<path d="M6.56097 7.07739H5.27173V8.36904H6.56097V7.07739Z" fill="black"/>
<path d="M17.5913 4.92462V7.07736H20.4563V5.78572H21.7455V8.36901H15.2993V7.07736H16.3021V1.91079H15.2993V0.619141H21.7455V2.9154H20.4563V1.91079H17.5913V3.63298H19.74V4.92462H17.5913Z" fill="black"/>
<path d="M37.5028 2.91536C36.9298 2.34129 36.3568 1.91075 35.4973 1.91075C33.9216 1.91075 32.7756 3.05887 32.7756 4.49403C32.7756 6.07271 33.9216 7.07732 35.4973 7.07732C36.6433 7.07732 37.5028 6.35974 37.7893 5.49865H35.3541V4.207H39.3651C39.3651 4.35052 39.3651 4.35052 39.3651 4.49403C39.3651 7.07732 37.5028 8.656 35.4973 8.656C33.0621 8.656 31.4863 6.79029 31.4863 4.49403C31.4863 2.34129 33.3486 0.475586 35.4973 0.475586C36.3568 0.475586 36.9298 0.619104 37.5028 1.04965V0.6191H38.7921V3.34591H37.5028V2.91536Z" fill="black"/>
<path d="M29.1944 0.619141V1.91079H28.3349L30.3404 7.07736H31.1999V8.36901H28.0484V7.07736H28.9079L27.0457 2.19782L25.3267 7.07736H26.0429V8.36901H23.0347V7.07736H23.7509L25.8997 1.91079H25.0402V0.619141H29.1944Z" fill="black"/>
<path d="M44.2355 8.51252C42.6598 8.51252 41.0841 7.36439 41.0841 5.21165V1.91079H40.0813V0.619141H43.5193V1.91079H42.5165V5.21165C42.5165 6.35978 43.2328 7.22088 44.3788 7.22088C45.3815 7.22088 46.241 6.35978 46.241 5.21165V1.91079H45.2383V0.619141H48.533V1.91079H47.5303V5.21165C47.387 7.36439 45.8113 8.51252 44.2355 8.51252Z" fill="black"/>
<path d="M51.9711 4.92462V7.07736H54.6929V5.78572H56.1254V8.36901H49.5359V7.07736H50.5386V1.91079H49.5359V0.619141H56.1254V2.9154H54.6929V1.91079H51.9711V3.63298H54.1199V4.92462H51.9711Z" fill="black"/>
<path d="M11.2881 0.619141H7.99341V1.91079H8.99616V7.07736H7.99341V8.36901H14.1531V5.78572H12.7206V7.07736H10.2854V1.91079H11.2881V0.619141Z" fill="black"/>
<path d="M62.2851 3.63305L62.7148 2.34141L62.8581 1.91086C62.8581 1.91086 62.8581 2.1979 62.8581 2.48493V3.77657H63.5743V0.90625H62.7148C62.7148 0.90625 61.9986 2.77196 61.9986 2.91547C61.9986 2.77196 61.2823 0.90625 61.2823 0.90625H60.4229V3.77657H61.1391V2.48493C61.1391 2.1979 61.1391 1.91086 61.1391 1.91086L61.2823 2.34141L61.7121 3.63305H62.2851Z" fill="black"/>
<path d="M59.7065 0.619141V1.33672H58.847V3.63298H58.1307V1.33672H57.2712V0.619141H59.7065Z" fill="black"/>
</svg>
