<svg width="90" height="21" viewBox="0 0 90 21" fill="none" xmlns="http://www.w3.org/2000/svg">
<path d="M4.41352 1.00746H3.69203V4.14047C3.69203 4.75797 3.52301 5.24546 3.18501 5.59646C2.84051 5.94746 2.37249 6.12296 1.77449 6.12296C0.864487 6.12296 0.273 5.75897 0 5.03747L0.792981 4.45245C0.909981 4.95295 1.23497 5.19997 1.76147 5.19997C2.04097 5.19997 2.26198 5.10245 2.41798 4.90095C2.56098 4.71895 2.63253 4.49145 2.63253 4.20545V1.00096H1.91104V0.0844727H4.41352V1.00096V1.00746Z" fill="black"/>
<path d="M6.12298 5.9085H5.06348V4.84253H6.12298V5.9085Z" fill="black"/>
<path d="M12.1486 5.90853H7.33203V4.99205H8.06003V1.00755H7.33203V0.0910645H9.85403V1.00755H9.12604V4.99205H11.1605V3.94556H12.1551V5.91504L12.1486 5.90853Z" fill="black"/>
<path d="M17.9404 5.90853H12.8379V4.99205H13.5659V1.00755H12.8379V0.0910645H17.8689V1.76804H16.8874V1.00755H14.6319V2.44406H16.4389V3.31504H14.6319V4.99205H16.9654V4.08203H17.9469V5.90853H17.9404Z" fill="black"/>
<path d="M24.8102 5.90853H22.4896V4.99856H23.0812L21.7747 1.02707L20.4812 4.99856H21.0141V5.90853H18.6611V4.99856H19.3697L20.7217 1.00755H19.9611V0.0910645H23.5102V1.00755H22.8537L24.2512 4.99856H24.8102V5.90853Z" fill="black"/>
<path d="M31.3433 2.87946C31.3433 3.63996 31.1613 4.28997 30.7908 4.84247C30.2773 5.61597 29.4779 5.99945 28.3859 5.99945C27.3459 5.99945 26.5399 5.66145 25.9614 4.98545C25.4739 4.42645 25.2334 3.76997 25.2334 3.01597C25.2334 2.09297 25.5324 1.35194 26.1304 0.792944C26.6959 0.266444 27.4174 0.00646973 28.2949 0.00646973C29.1139 0.00646973 29.7444 0.214438 30.1864 0.623938V0.0909729H31.0963V2.09294H30.1864C30.1864 2.09294 30.1864 2.04744 30.1799 2.00844C30.1279 1.76144 29.9654 1.53394 29.6924 1.31294C29.3284 1.03344 28.8863 0.890454 28.3533 0.883954H28.2884C27.7749 0.883954 27.3264 1.06597 26.9429 1.42997C26.5334 1.83297 26.3254 2.33996 26.3254 2.95746C26.3254 3.57496 26.5333 4.13396 26.9493 4.54346C27.3458 4.92696 27.8333 5.12197 28.4118 5.12197C28.9643 5.12197 29.4258 4.94647 29.7963 4.59547C30.1213 4.30297 30.2969 3.99097 30.3229 3.66597H28.5224V2.77544H31.3433C31.3433 2.77544 31.3563 2.84045 31.3563 2.86645L31.3433 2.87946Z" fill="black"/>
<path d="M37.9267 0.981476H37.2442V3.45797C37.2442 4.27047 37.0167 4.90095 36.5682 5.34295C36.1457 5.76545 35.5737 5.97347 34.8652 5.97347C34.4557 5.97347 34.0722 5.88897 33.7277 5.72647C33.3832 5.56397 33.1167 5.34948 32.9282 5.08948C32.6487 4.68648 32.5057 4.11446 32.5057 3.36046V0.974969H31.8037V0.0844727H34.2217V0.974969H33.5457V3.33447C33.5457 4.47847 34.0072 5.05044 34.9237 5.05044C35.4697 5.05044 35.8401 4.86846 36.0481 4.49796C36.1911 4.24446 36.2627 3.88045 36.2627 3.39295V0.981476H35.5152V0.090979H37.9332V0.981476H37.9267Z" fill="black"/>
<path d="M43.6217 5.90853H38.5127V4.99205H39.2407V1.00755H38.5127V0.0910645H43.5437V1.76804H42.5622V1.00755H40.3067V2.44406H42.1137V3.31504H40.3067V4.99205H42.6402V4.08203H43.6217V5.90853V5.90853Z" fill="black"/>
<path d="M53.073 2.99649C53.073 3.89999 52.7739 4.62151 52.1759 5.16751C51.578 5.72001 50.8305 5.99298 49.9205 5.99298C49.0105 5.99298 48.2694 5.72001 47.6714 5.16751C47.0734 4.62151 46.7744 3.89349 46.7744 2.99649C46.7744 2.09949 47.0734 1.37147 47.6714 0.825473C48.2694 0.272973 49.0235 0 49.9205 0C50.8175 0 51.578 0.272973 52.1759 0.825473C52.7739 1.37797 53.073 2.09949 53.073 2.99649ZM52.0135 2.99649C52.0135 2.39849 51.8119 1.89799 51.4089 1.49499C51.0059 1.09199 50.512 0.890497 49.9205 0.890497C49.329 0.890497 48.848 1.09199 48.445 1.49499C48.042 1.89799 47.8404 2.39849 47.8404 2.99649C47.8404 3.59449 48.042 4.09499 48.445 4.49799C48.848 4.90099 49.342 5.10248 49.9205 5.10248C50.499 5.10248 51.0059 4.90099 51.4089 4.49799C51.8119 4.09499 52.0135 3.59449 52.0135 2.99649Z" fill="black"/>
<path d="M58.5715 1.84604H57.577V1.01406H55.393V2.64556H57.3495V3.51654H55.393V4.99856H56.2185V5.91504H53.6055V4.99856H54.3335V1.01406H53.6055V0.0975342H58.5715V1.85254V1.84604Z" fill="black"/>
<path d="M64.1096 1.84604H63.115V1.01406H60.9311V2.64556H62.8876V3.51654H60.9311V4.99856H61.7566V5.91504H59.1436V4.99856H59.8716V1.01406H59.1436V0.0975342H64.1096V1.85254V1.84604Z" fill="black"/>
<path d="M67.2619 5.90853H64.7529V4.99205H65.4809V1.00104H64.7529V0.0910645H67.2619V1.00104H66.5404V4.99205H67.2619V5.90853Z" fill="black"/>
<path d="M73.7161 4.08198C73.2416 5.35598 72.2991 5.99298 70.8886 5.99298C69.9526 5.99298 69.1986 5.70049 68.6201 5.10899C68.0741 4.54999 67.8076 3.84798 67.8076 2.98998C67.8076 2.13198 68.0806 1.43648 68.6201 0.870978C69.1856 0.285978 69.9331 0 70.8626 0C71.6036 0 72.2471 0.207981 72.7931 0.630481V0.0845032H73.6901V2.2295H72.7801C72.6371 1.8135 72.4031 1.48849 72.0781 1.24799C71.7531 1.00749 71.3631 0.890497 70.9146 0.890497C70.3101 0.890497 69.816 1.09199 69.4455 1.49499C69.0751 1.89799 68.8801 2.39848 68.8801 2.98998C68.8801 3.58148 69.0751 4.07551 69.4586 4.47851C69.8486 4.88801 70.3296 5.08951 70.9146 5.08951C71.3761 5.08951 71.7791 4.95949 72.1301 4.70599C72.4811 4.45249 72.7281 4.10151 72.8776 3.66601L73.7226 4.06901L73.7161 4.08198Z" fill="black"/>
<path d="M76.8752 5.90853H74.3662V4.99205H75.0942V1.00104H74.3662V0.0910645H76.8752V1.00104H76.1537V4.99205H76.8752V5.90853Z" fill="black"/>
<path d="M83.9544 5.90853H81.6273V4.99856H82.2188L81.8808 4.01705H79.7554L79.4174 4.99856H79.9633V5.90853H77.6104V4.99856H78.3253L79.7683 1.00755H79.0079V0.0910645H82.5568V1.00755H81.9003L83.3889 4.99856H83.9544V5.90853ZM81.5688 3.14603L80.8084 0.994534L80.0739 3.14603H81.5753H81.5688Z" fill="black"/>
<path d="M89.4728 5.90853H84.6562V4.99205H85.3842V1.00755H84.6562V0.0910645H87.1783V1.00755H86.4503V4.99205H88.4848V3.94556H89.4793V5.91504L89.4728 5.90853Z" fill="black"/>
<path d="M22.581 13.0911H17.4785V12.1745H18.2065V8.19004H17.4785V7.27356H22.5095V8.95053H21.528V8.19004H19.2725V9.62656H21.0795V10.4975H19.2725V12.1745H21.606V11.2646H22.5875V13.0911H22.581Z" fill="black"/>
<path d="M29.6075 10.1985C29.6075 10.8745 29.4059 11.479 28.9964 12.0185C28.5154 12.6685 27.8394 13.0455 26.9749 13.1495C27.6119 13.247 28.002 13.299 28.1385 13.299C28.5545 13.299 28.886 13.247 29.133 13.143L29.029 14.157C28.769 14.2155 28.4894 14.2415 28.1969 14.2415C27.8849 14.2415 27.5405 14.1895 27.1635 14.0855C26.7865 13.975 26.5069 13.923 26.3249 13.923C26.1624 13.923 26.013 13.936 25.8765 13.949C25.532 13.988 25.259 14.0465 25.051 14.1375L24.7064 13.442C25.0444 13.286 25.4345 13.1885 25.8765 13.1495C25.012 13.0325 24.3489 12.662 23.8874 12.0315C23.5039 11.505 23.3154 10.894 23.3154 10.1985C23.3154 9.30802 23.621 8.58003 24.232 8.01453C24.8235 7.46853 25.5709 7.20203 26.4614 7.20203C27.3519 7.20203 28.1255 7.475 28.717 8.0275C29.3085 8.5735 29.6075 9.30152 29.6075 10.1985V10.1985ZM28.548 10.14C28.548 9.5225 28.327 9.01549 27.8915 8.62549C27.4885 8.26799 27.0139 8.09252 26.4614 8.09252C25.9089 8.09252 25.4344 8.26799 25.0314 8.62549C24.5894 9.01549 24.3749 9.516 24.3749 10.14C24.3749 10.803 24.5829 11.336 24.9989 11.7325C25.3889 12.1095 25.8764 12.298 26.4679 12.298C27.0594 12.298 27.5469 12.1095 27.9369 11.7325C28.3529 11.3295 28.561 10.803 28.561 10.14H28.548Z" fill="black"/>
<path d="M36.1464 8.16397H35.4639V10.6405C35.4639 11.453 35.2364 12.0834 34.7879 12.5254C34.3654 12.9479 33.7934 13.156 33.0849 13.156C32.6754 13.156 32.2919 13.0715 31.9474 12.909C31.6029 12.7465 31.3364 12.532 31.1479 12.272C30.8684 11.869 30.7254 11.297 30.7254 10.543V8.15746H30.0234V7.26697H32.4414V8.15746H31.7654V10.517C31.7654 11.661 32.2269 12.233 33.1434 12.233C33.6894 12.233 34.0599 12.051 34.2679 11.6805C34.4109 11.427 34.4824 11.0629 34.4824 10.5754V8.16397H33.7349V7.27347H36.1529V8.16397H36.1464Z" fill="black"/>
<path d="M39.2658 13.0911H36.7568V12.1745H37.4913V8.18354H36.7568V7.27356H39.2658V8.18354H38.5443V12.1745H39.2658V13.0911Z" fill="black"/>
<path d="M45.4346 8.97005C45.4346 10.2245 44.6806 10.8551 43.1791 10.8551H41.7361V12.1745H42.4966V13.0911H39.9746V12.1745H40.6766V8.19004H39.9746V7.27356H43.1401C43.8096 7.27356 44.3166 7.37107 44.6676 7.56607C45.1811 7.85207 45.4346 8.32005 45.4346 8.97005V8.97005ZM44.3297 9.05455C44.3297 8.78805 44.2386 8.57353 44.0501 8.42403C43.8616 8.27453 43.6081 8.19655 43.2831 8.19655H41.7361V9.97104H43.1791C43.9461 9.97104 44.3297 9.66556 44.3297 9.06106V9.05455Z" fill="black"/>
<path d="M53.7029 13.0911H51.3239V12.1745H51.9675V8.19004L50.2515 12.545H49.4909L47.7684 8.19004V12.1745H48.386V13.0911H46.0654V12.1745H46.761V8.19004H46.0654V7.27356H48.5744L49.92 10.7251L51.22 7.27356H53.7029V8.19004H53.0269V12.1745H53.7029V13.0911V13.0911Z" fill="black"/>
<path d="M59.5397 13.0911H54.4307V12.1745H55.1587V8.19004H54.4307V7.27356H59.4617V8.95053H58.4802V8.19004H56.2247V9.62656H58.0317V10.4975H56.2247V12.1745H58.5581V11.2646H59.5397V13.0911V13.0911Z" fill="black"/>
<path d="M66.3778 8.19004H65.6823V13.0911H64.4863L61.9188 9.08054V12.1745H62.6143V13.0911H60.1963V12.1745H60.9113V8.19004H60.1963V7.27356H62.0098L64.6748 11.4206V8.19004H63.9598V7.27356H66.3778V8.19004Z" fill="black"/>
<path d="M72.2932 9.36003H71.2597V8.19004H70.1352V12.1745H71.0452V13.0911H68.1657V12.1745H69.0757V8.19004H67.9577V9.36003H66.9307V7.27356H72.2867V9.36003H72.2932Z" fill="black"/>
<path d="M28.6582 16.1525C28.6582 17.407 27.9042 18.0376 26.4027 18.0376H24.9597V19.357H25.7202V20.2736H23.1982V19.357H23.9002V15.3725H23.1982V14.4561H26.3637C27.0332 14.4561 27.5402 14.5536 27.8912 14.7486C28.4047 15.0346 28.6582 15.5025 28.6582 16.1525V16.1525ZM27.5532 16.237C27.5532 15.9705 27.4622 15.7561 27.2737 15.6066C27.0852 15.4571 26.8317 15.379 26.5067 15.379H24.9597V17.1536H26.4027C27.1697 17.1536 27.5532 16.8481 27.5532 16.2436V16.237Z" fill="black"/>
<path d="M35.0224 20.2736H32.6954V19.3635H33.2869L32.9489 18.382H30.8169L30.4789 19.3635H31.0249V20.2736H28.6719V19.3635H29.3869L30.8299 15.3725H30.0694V14.4561H33.6184V15.3725H32.9619L34.4504 19.3635H35.0159V20.2736H35.0224ZM32.6369 17.5111L31.8764 15.3596L31.1419 17.5111H32.6434H32.6369Z" fill="black"/>
<path d="M41.6 20.2735H39.9425V19.0254C39.9425 18.5964 39.897 18.304 39.8125 18.161C39.6695 17.9205 39.364 17.8035 38.896 17.8035H37.4985V19.3504H38.259V20.267H35.75V19.3504H36.4455V15.366H35.75V14.4495H38.87C40.3585 14.4495 41.0995 14.9695 41.0995 16.016C41.0995 16.757 40.7225 17.2055 39.975 17.355C40.157 17.355 40.3325 17.407 40.508 17.5045C40.8395 17.6995 41.002 18.0635 41.002 18.6095V19.3504H41.6V20.267V20.2735ZM40.0075 16.133C40.0075 15.626 39.624 15.3725 38.8505 15.3725H37.4985V16.9195H38.8895C39.637 16.9195 40.0075 16.653 40.0075 16.133V16.133Z" fill="black"/>
<path d="M47.3918 16.5426H46.3647V15.3725H45.2403V19.357H46.1503V20.2736H43.2708V19.357H44.1808V15.3725H43.0628V16.5426H42.0293V14.4561H47.3853V16.5426H47.3918Z" fill="black"/>
<path d="M54.119 15.3725H53.4235V20.2736H52.2275L49.66 16.263V19.357H50.3555V20.2736H47.9375V19.357H48.6525V15.3725H47.9375V14.4561H49.751L52.416 18.6031V15.3725H51.7075V14.4561H54.1255V15.3725H54.119Z" fill="black"/>
<path d="M59.8131 20.2736H54.7041V19.357H55.4321V15.3725H54.7041V14.4561H59.7351V16.1331H58.7536V15.3725H56.4916V16.8091H58.2986V17.6801H56.4916V19.357H58.8251V18.4471H59.8131V20.2736V20.2736Z" fill="black"/>
<path d="M66.4369 20.2735H64.7795V19.0254C64.7795 18.5964 64.7339 18.304 64.6494 18.161C64.5064 17.9205 64.201 17.8035 63.733 17.8035H62.3355V19.3504H63.096V20.267H60.5869V19.3504H61.2825V15.366H60.5869V14.4495H63.7069C65.1954 14.4495 65.9365 14.9695 65.9365 16.016C65.9365 16.757 65.5594 17.2055 64.8119 17.355C64.9939 17.355 65.1695 17.407 65.345 17.5045C65.6765 17.6995 65.839 18.0635 65.839 18.6095V19.3504H66.4369V20.267V20.2735ZM64.8444 16.133C64.8444 15.626 64.4609 15.3725 63.6874 15.3725H62.3355V16.9195H63.7265C64.474 16.9195 64.8444 16.653 64.8444 16.133V16.133Z" fill="black"/>
</svg>
