<svg width="90" height="20" viewBox="0 0 90 20" fill="none" xmlns="http://www.w3.org/2000/svg">
<path d="M1.0188 4.59258L0.445801 5.31016C1.44855 6.45828 3.45404 5.88419 3.45404 4.162V1.14821H4.17029V0.287109H1.73505V1.14821H2.45129V4.162C2.45129 5.0231 1.5918 5.16664 1.0188 4.59258Z" fill="black"/>
<path d="M5.02985 4.73608H4.0271V5.59711H5.02985V4.73608Z" fill="black"/>
<path d="M12.6219 3.15741V4.73608H14.6274V3.73146H15.6301V5.59714H11.0461V4.73608H11.7624V1.14821H11.0461V0.287109H15.6301V1.86578H14.6274V1.14821H12.6219V2.29631H14.1976V3.15741H12.6219Z" fill="black"/>
<path d="M26.5173 1.86576C26.0875 1.43521 25.6578 1.14818 25.0848 1.14818C24.082 1.14818 23.2225 1.86574 23.2225 3.01387C23.2225 4.162 24.082 4.87956 25.0848 4.87956C25.9443 4.87956 26.5173 4.44903 26.8038 3.73145H25.0848V2.72682H27.8065C27.8065 2.87034 27.8065 2.87035 27.8065 2.87035C27.8065 4.59254 26.5173 5.74066 25.0848 5.74066C23.3658 5.74066 22.363 4.44902 22.363 2.87035C22.363 1.29167 23.6523 0.143555 25.0848 0.143555C25.6578 0.143555 26.0875 0.287053 26.5173 0.574085V0.287079H27.52V2.15277H26.5173V1.86576Z" fill="black"/>
<path d="M20.7872 0.287109V1.14821H20.2142L21.6467 4.73608H22.2197V5.59714H19.9277V4.73608H20.644L19.3547 1.43521L18.0655 4.73608H18.6385V5.59714H16.4897V4.73608H17.0627L18.4952 1.14821H17.779V0.287109H20.7872Z" fill="black"/>
<path d="M31.3877 5.74069C30.2417 5.74069 29.239 4.87959 29.239 3.44443V1.14821H28.5227V0.287109H30.8147V1.14821H30.0984V3.44443C30.0984 4.16201 30.6714 4.87959 31.3877 4.87959C32.1039 4.87959 32.6769 4.30553 32.6769 3.44443V1.14821H31.9607V0.287109H34.2527V1.14821H33.5364V3.44443C33.5364 5.0231 32.3904 5.74069 31.3877 5.74069Z" fill="black"/>
<path d="M36.6878 3.15741V4.73608H38.6933V3.73146H39.5528V5.59714H35.1121V4.73608H35.8283V1.14821H35.1121V0.287109H39.5528V1.86578H38.6933V1.14821H36.6878V2.29631H38.2635V3.15741H36.6878Z" fill="black"/>
<path d="M8.3244 0.287109H5.88916V1.14821H6.60541V4.73608H5.88916V5.59714H10.1866V3.73146H9.32715V4.73608H7.60815V1.14821H8.3244V0.287109Z" fill="black"/>
<path d="M43.8503 2.2963L44.1368 1.29167L44.2801 1.00466C44.2801 1.00466 44.2801 1.14815 44.2801 1.29167V2.15277H44.7098V0.143555H44.1368C44.1368 0.143555 43.7071 1.4352 43.7071 1.57871C43.7071 1.4352 43.2773 0.143555 43.2773 0.143555H42.7043V2.15277H43.1341V1.29167C43.1341 1.14815 43.1341 1.00466 43.1341 1.00466L43.2773 1.29167L43.5638 2.2963H43.8503Z" fill="black"/>
<path d="M42.1313 0.287109V0.71764H41.5583V2.29633H41.1286V0.71764H40.4124V0.287109H42.1313Z" fill="black"/>
<path d="M52.4453 4.30553C52.0156 4.73608 51.5858 4.87959 51.0128 4.87959C50.4398 4.87959 50.0101 4.73608 49.5803 4.30553C49.1506 3.87499 49.0073 3.44444 49.0073 2.87038C49.0073 2.29631 49.1506 1.86577 49.5803 1.43522C50.0101 1.00467 50.4398 0.861164 51.0128 0.861164C51.5858 0.861164 52.0156 1.00467 52.4453 1.43522C52.8751 1.86577 53.0183 2.29631 53.0183 2.87038C52.8751 3.44444 52.7318 4.0185 52.4453 4.30553ZM53.0183 1.00469C52.4453 0.430625 51.7291 0.287109 50.8696 0.287109C50.0101 0.287109 49.2938 0.574141 48.7208 1.00469C48.1478 1.57875 47.8613 2.15281 47.8613 3.0139C47.8613 3.875 48.1478 4.44905 48.7208 5.02311C49.2938 5.59718 50.0101 5.74069 50.8696 5.74069C51.7291 5.74069 52.4453 5.45366 53.0183 5.02311C53.5913 4.44905 53.8778 3.875 53.8778 3.0139C53.8778 2.15281 53.5913 1.43524 53.0183 1.00469Z" fill="black"/>
<path d="M59.0347 0.287109V1.86579H58.1752V1.14821H56.1697V2.72685H58.0319V3.58795H56.1697V5.02311H56.8859V5.88422H54.4507V5.02311H55.1669V1.29169H54.4507V0.430634H59.0347V0.287109Z" fill="black"/>
<path d="M64.4783 0.287109V1.86579H63.6188V1.14821H61.6133V2.72685H63.4755V3.58795H61.6133V5.02311H62.3295V5.88422H59.8943V5.02311H60.6105V1.29169H59.8943V0.430634H64.4783V0.287109Z" fill="black"/>
<path d="M67.6296 4.87959V5.74069H65.3376V4.87959H66.0539V1.14821H65.3376V0.287109H67.6296V1.14821H66.9134V4.87959H67.6296Z" fill="black"/>
<path d="M73.0732 3.58789L73.7894 4.01847C73.3597 5.16659 72.5002 5.74063 71.2109 5.74063C70.3514 5.74063 69.6352 5.45359 69.0622 4.87953C68.4892 4.30546 68.3459 3.73141 68.3459 2.87032C68.3459 2.15274 68.6324 1.43517 69.0622 0.861103C69.6352 0.28704 70.2082 0 71.0677 0C71.7839 0 72.3569 0.143507 72.7867 0.574054V0H73.6462V2.00921H72.7867C72.6434 1.57866 72.5002 1.29167 72.0704 1.14815C71.7839 0.861121 71.3542 0.861103 71.0677 0.861103C70.4947 0.861103 70.0649 1.00461 69.6352 1.43516C69.3487 1.86571 69.0622 2.29625 69.0622 2.87032C69.0622 3.44438 69.2054 3.87493 69.6352 4.30547C69.9217 4.73602 70.4947 4.87953 70.9244 4.87953C71.3542 4.87953 71.7839 4.73604 72.0704 4.59252C72.7867 4.30549 73.0732 4.01844 73.0732 3.58789Z" fill="black"/>
<path d="M77.0842 4.87959V5.74069H74.7922V4.87959H75.5085V1.14821H74.7922V0.287109H77.0842V1.14821H76.368V4.87959H77.0842Z" fill="black"/>
<path d="M80.9518 1.14821L81.6681 3.15743H80.2356L80.9518 1.14821ZM83.3871 4.87959L81.9546 1.14821H82.5276V0.287109H79.2328V1.14821H79.9491L78.6598 4.87959H77.9436V5.74069H80.0923V4.87959H79.6626L79.9491 4.01853H81.9546L82.2411 4.87959H81.6681V5.74069H83.8168V4.87959H83.3871Z" fill="black"/>
<path d="M89.2603 3.875V5.74069H84.8196V4.87959H85.5358V1.14821H84.8196V0.287109H87.1116V1.14821H86.3953V4.87959H88.2576V3.875H89.2603Z" fill="black"/>
<path d="M18.2087 12.6294H13.6248V11.7683H14.341V8.03689H13.6248V7.17578H18.2087V8.75447H17.3492V8.03689H15.2005V9.32853H16.9195V10.1896H15.2005V11.7683H17.3492V10.9072H18.2087V12.6294Z" fill="black"/>
<path d="M24.5118 10.9071C24.0821 12.0552 23.2226 12.6293 21.9333 12.6293C21.0739 12.6293 20.3576 12.3423 19.7846 11.7682C19.3549 11.1941 19.0684 10.6201 19.0684 9.75899C19.0684 9.04141 19.3549 8.32379 19.7846 7.74973C20.3576 7.17567 20.9306 6.88867 21.7901 6.88867C22.5063 6.88867 23.0793 7.03218 23.5091 7.46273V7.03215H24.3686V9.04141H23.6523C23.5091 8.61086 23.3658 8.32382 22.9361 8.18031C22.6496 7.89327 22.2198 7.89326 21.9333 7.89326C21.3603 7.89326 20.9306 8.03676 20.6441 8.46731C20.3576 8.89786 20.0711 9.32841 20.0711 9.90247C20.0711 10.4765 20.2144 10.9071 20.6441 11.3376C20.9306 11.7682 21.5036 11.9117 21.9333 11.9117C22.3631 11.9117 22.7928 11.7682 23.0793 11.6247C23.3658 11.3376 23.6523 11.0506 23.7956 10.62L24.5118 10.9071Z" fill="black"/>
<path d="M32.8201 8.75447C32.8201 9.9026 32.1039 10.4767 30.6714 10.4767H29.3821V11.6248H30.0984V12.4859H27.8064V11.6248H28.5226V8.03689H27.8064V7.17578H30.6714C31.2444 7.17578 31.8174 7.31932 32.1039 7.46283C32.5336 7.74986 32.8201 8.1804 32.8201 8.75447ZM31.8174 8.89799C31.8174 8.61096 31.6741 8.46745 31.5309 8.32394C31.3876 8.18042 31.1011 8.18041 30.8146 8.18041H29.3821V9.7591H30.6714C31.3876 9.61558 31.8174 9.32854 31.8174 8.89799Z" fill="black"/>
<path d="M37.9771 12.6294H33.5364V11.7683H34.2526V8.03689H33.5364V7.17578H35.8284V8.03689H35.1121V11.7683H36.9744V10.7637H37.9771V12.6294Z" fill="black"/>
<path d="M44.7099 12.6294H42.5612V11.7683H43.1342L42.8477 10.9072H40.8422L40.5557 11.7683H40.9854V12.6294H38.8367V11.7683H39.5529L40.8422 8.03689H40.1259V7.17578H43.4207V8.03689H42.8477L44.2802 11.7683H44.8532V12.6294H44.7099ZM42.5612 10.0461L41.8449 8.03689L41.1287 10.0461H42.5612Z" fill="black"/>
<path d="M50.0101 9.18479H49.0074V8.03667H48.0046V11.7681H48.8641V12.6292H46.2856V11.7681H47.1451V8.03667H46.1424V9.18479H45.1396V7.31909H50.0101V9.18479Z" fill="black"/>
<path d="M55.4536 8.75447H54.5941V8.03689H52.5886V9.47205H54.4509V10.3332H52.5886V11.7683H53.3049V12.6294H50.8696V11.7683H51.5859V8.03689H50.8696V7.17578H55.4536V8.75447Z" fill="black"/>
<path d="M62.043 9.90258C62.043 10.7637 61.7565 11.3378 61.1835 11.9118C60.6105 12.4859 59.8942 12.6294 59.178 12.6294C58.3185 12.6294 57.6022 12.3424 57.1725 11.9118C56.5995 11.3378 56.313 10.7637 56.313 9.90258C56.313 9.04148 56.5995 8.46743 57.1725 7.89336C57.7455 7.3193 58.4617 7.17578 59.178 7.17578C60.0375 7.17578 60.7537 7.46281 61.1835 7.89336C61.7565 8.32391 62.043 9.04148 62.043 9.90258ZM61.0402 9.90258C61.0402 9.32852 60.897 8.89797 60.4672 8.46742C60.0375 8.03687 59.6077 7.89336 59.0347 7.89336C58.4617 7.89336 58.032 8.03687 57.6022 8.46742C57.1725 8.89797 57.0292 9.32852 57.0292 9.90258C57.0292 10.4766 57.1725 10.9072 57.6022 11.3377C58.032 11.7683 58.4617 11.9118 59.0347 11.9118C59.6077 11.9118 60.0375 11.7683 60.4672 11.3377C60.7537 10.9072 61.0402 10.4766 61.0402 9.90258Z" fill="black"/>
<path d="M68.2028 12.6294H66.627V11.4813C66.627 11.0507 66.627 10.7637 66.4838 10.6202C66.3405 10.3331 66.054 10.3332 65.6243 10.3332H64.335V11.7683H65.0513V12.6294H62.7593V11.7683H63.3323V8.03689H62.7593V7.17578H65.6243C67.0568 7.17578 67.6298 7.60633 67.6298 8.61094C67.6298 9.32853 67.3433 9.75907 66.627 9.90258C66.7703 9.90258 66.9135 9.90259 67.0568 10.0461C67.3433 10.1896 67.4865 10.6202 67.4865 11.0507V11.7683H68.0595V12.6294H68.2028ZM66.7703 8.75447C66.7703 8.32392 66.4838 8.03689 65.7675 8.03689H64.4783V9.47205H65.7675C66.3405 9.47205 66.7703 9.18502 66.7703 8.75447Z" fill="black"/>
<path d="M76.0815 12.6294H73.9327V11.7683H74.5057V8.03689L72.93 12.0553H72.2138L70.638 8.03689V11.7683H71.211V12.6294H69.0623V11.7683H69.6353V8.03689H69.0623V7.17578H71.3543L72.6435 10.3332L73.7895 7.17578H76.0815V8.03689H75.5085V11.7683H76.0815V12.6294Z" fill="black"/>
<path d="M29.2388 15.4998C29.2388 16.6479 28.5226 17.222 27.0901 17.222H25.8008V18.3701H26.5171V19.2312H24.2251V18.3701H24.9413V14.6387H24.2251V13.7776H27.0901C27.6631 13.7776 28.2361 13.9211 28.5226 14.0646C28.9523 14.4952 29.2388 14.9257 29.2388 15.4998ZM28.2361 15.6433C28.2361 15.3563 28.0928 15.2127 27.9496 15.0692C27.8063 14.9257 27.5198 14.9257 27.2333 14.9257H25.8008V16.5044H27.0901C27.8063 16.5044 28.2361 16.2174 28.2361 15.6433Z" fill="black"/>
<path d="M35.2553 19.3748H33.1066V18.5136H33.6796L33.3931 17.6526H31.3876L31.1011 18.5136H31.5308V19.3748H29.3821V18.5136H30.0983L31.3876 14.7823H30.8146V13.9211H34.1093V14.7823H33.5363L34.9688 18.5136H35.5418V19.3748H35.2553ZM33.1066 16.7915L32.3903 14.7823L31.6741 16.7915H33.1066Z" fill="black"/>
<path d="M41.7015 19.3748H40.1258V18.2266C40.1258 17.7961 40.1258 17.509 39.9825 17.3655C39.8393 17.0785 39.5528 17.0785 39.123 17.0785H37.8338V18.5136H38.55V19.3748H36.2581V18.5136H36.831V14.7823H36.2581V13.9211H39.123C40.5555 13.9211 41.1285 14.3517 41.1285 15.3563C41.1285 16.0739 40.842 16.5044 40.1258 16.6479C40.269 16.6479 40.4123 16.648 40.5555 16.7915C40.842 16.935 40.9853 17.3655 40.9853 17.7961V18.5136H41.5583V19.3748H41.7015ZM40.1258 15.4998C40.1258 15.0693 39.8393 14.7823 39.123 14.7823H37.8338V16.2174H39.123C39.8393 16.2174 40.1258 16.0739 40.1258 15.4998Z" fill="black"/>
<path d="M47.1449 15.9304H46.1421V14.7823H45.1394V18.5137H45.9989V19.3748H43.4204V18.5137H44.2799V14.7823H43.2772V15.9304H42.2744V14.0647H47.1449V15.9304Z" fill="black"/>
<path d="M53.5911 14.7823H53.0181V19.3748H51.8721L49.4369 15.6433V18.5136H50.0099V19.3748H48.0044V18.5136H48.7206V14.7823H48.0044V13.9211H49.7234L52.1586 17.7961V14.7823H51.4424V13.9211H53.7344V14.7823H53.5911Z" fill="black"/>
<path d="M59.1779 19.3748H54.4507V18.5136H55.1669V14.7823H54.4507V13.9211H59.0347V15.4998H58.1752V14.7823H56.0264V16.0739H57.7454V16.935H56.0264V18.5136H58.1752V17.6526H59.0347V19.3748H59.1779Z" fill="black"/>
<path d="M65.4808 19.3748H63.9051V18.2266C63.9051 17.7961 63.9051 17.509 63.7618 17.3655C63.6186 17.0785 63.3321 17.0785 62.9023 17.0785H61.6131V18.5136H62.3293V19.3748H60.0374V18.5136H60.6104V14.7823H60.0374V13.9211H62.9023C64.3348 13.9211 64.9078 14.3517 64.9078 15.3563C64.9078 16.0739 64.6213 16.5044 63.9051 16.6479C64.0483 16.6479 64.1916 16.648 64.3348 16.7915C64.6213 16.935 64.7646 17.3655 64.7646 17.7961V18.5136H65.3376V19.3748H65.4808ZM64.0483 15.4998C64.0483 15.0693 63.7618 14.7823 63.0456 14.7823H61.7563V16.2174H63.0456C63.6186 16.2174 64.0483 16.0739 64.0483 15.4998Z" fill="black"/>
</svg>
