<svg width="186" height="40" viewBox="0 0 186 40" fill="none" xmlns="http://www.w3.org/2000/svg">
<path fill-rule="evenodd" clip-rule="evenodd" d="M41.1582 25.9868L38.7849 28.8024C42.518 33.2567 49.996 30.7559 49.996 24.2528V13.0789H52.5988V9.70618H43.7194V13.0789H46.3361V24.1267C46.3668 27.3852 43.0247 28.3158 41.1582 25.9868Z" fill="#FEFEFE"/>
<path fill-rule="evenodd" clip-rule="evenodd" d="M52.3611 29.7626H55.8715V26.381H52.3611V29.7626Z" fill="#FEFEFE"/>
<path fill-rule="evenodd" clip-rule="evenodd" d="M84.5945 20.6671V26.3806H92.0418V22.9195H95.5077V29.7623H78.5278V26.3806H81.1297V13.0784H78.5278V9.70569H95.5077V15.7202H92.0418V13.0784H84.5945V17.4314H90.3109V20.6671H84.5945Z" fill="#FEFEFE"/>
<path fill-rule="evenodd" clip-rule="evenodd" d="M136.649 15.4874C135.205 13.9083 133.64 12.8009 131.369 12.8009C127.385 12.8009 124.259 15.6304 124.259 19.7023C124.259 23.7752 127.295 26.6643 131.279 26.6643C134.27 26.6643 136.537 24.961 137.455 22.3669H131.105V18.8601H141.512C141.519 19.1749 141.523 19.3388 141.523 19.5037C141.52 26.12 136.657 30.2893 131.211 30.2893C124.871 30.2893 120.749 25.4794 120.749 19.5037C120.749 13.6828 125.515 9.11536 131.211 9.11536C133.321 9.11536 135.09 9.66457 136.649 10.7977V9.70628H140.18V16.8222H136.649V15.4874Z" fill="#FEFEFE"/>
<path fill-rule="evenodd" clip-rule="evenodd" d="M114.958 9.70605V13.0788H112.719L118.053 26.381H120.218V29.7627H112.007V26.381H114.225L109.445 13.8217L104.664 26.381H106.882V29.7627H98.6709V26.381H100.835L106.17 13.0788H103.931V9.70605H114.958Z" fill="#FEFEFE"/>
<path fill-rule="evenodd" clip-rule="evenodd" d="M154.571 30.3721C150.488 30.3721 146.408 27.2477 146.408 21.7863V13.0784H143.745V9.70569H152.438V13.0784H149.783V21.6036C149.783 24.447 151.828 26.7511 154.571 26.7511C157.313 26.7511 159.359 24.447 159.359 21.6036V13.0784H156.703V9.70569H165.397V13.0784H162.735V21.7863C162.735 27.34 158.653 30.3721 154.571 30.3721Z" fill="#FEFEFE"/>
<path fill-rule="evenodd" clip-rule="evenodd" d="M174.587 20.6671V26.3806H182.034V22.9195H185.5V29.7623H168.519V26.3806H171.121V13.0784H168.519V9.70569H185.5V15.7202H182.034V13.0784H174.587V17.4314H180.303V20.6671H174.587Z" fill="#FEFEFE"/>
<path fill-rule="evenodd" clip-rule="evenodd" d="M68.0991 9.70605H59.3118V13.0788H61.9136V26.381H59.3118V29.7627H75.397V22.9189H71.9311V26.381H65.3785V13.0788H68.0991V9.70605Z" fill="#FEFEFE"/>
<path fill-rule="evenodd" clip-rule="evenodd" d="M13.8893 0C13.8893 0 13.8893 17.6274 13.9052 18.0981C13.5449 18.0882 0.5 18.0872 0.5 18.0872V22.2981C0.5 27.0265 2.33486 31.4718 5.6661 34.8158C8.99834 38.1587 13.4281 40 18.14 40C22.8518 40 27.2816 38.1587 30.6129 34.8148C33.9451 31.4718 35.7799 27.0265 35.7799 22.2981V0H13.8893Z" fill="#FEFEFE"/>
<path fill-rule="evenodd" clip-rule="evenodd" d="M14.404 0.516479V18.5381C14.3822 18.561 14.3594 18.5818 14.3377 18.6047L1.01465 18.6037V22.2982C1.01465 31.7897 8.68166 39.4836 18.14 39.4836C27.5973 39.4836 35.2653 31.7897 35.2653 22.2982V0.516479H14.404Z" fill="#231F20"/>
<path fill-rule="evenodd" clip-rule="evenodd" d="M25.5992 24.4669C22.6866 24.4669 20.3252 26.8366 20.3252 29.7594C20.3252 32.6822 22.6866 35.0519 25.5992 35.0519C28.5118 35.0519 30.8732 32.6822 30.8732 29.7594C30.8732 26.8366 28.5118 24.4669 25.5992 24.4669Z" fill="#EC1D24"/>
<path fill-rule="evenodd" clip-rule="evenodd" d="M18.1395 16.9806C15.2268 16.9806 12.8655 19.3502 12.8655 22.2731C12.8655 25.1959 15.2268 27.5656 18.1395 27.5656C21.0521 27.5656 23.4134 25.1959 23.4134 22.2731C23.4134 19.3502 21.0521 16.9806 18.1395 16.9806Z" fill="#FEFEFE"/>
<path fill-rule="evenodd" clip-rule="evenodd" d="M38.8211 38.3696L39.4456 36.5769L39.6534 35.9483C39.6534 35.9483 39.596 36.3475 39.596 36.6306V38.3696H40.5016V34.4844H39.3238C39.3238 34.4844 38.4579 37.003 38.4331 37.143C38.4094 37.003 37.5434 34.4844 37.5434 34.4844H36.3667V38.3696H37.2723V36.6306C37.2723 36.3475 37.2139 35.9483 37.2139 35.9483L37.4217 36.5769L38.0462 38.3696H38.8211Z" fill="#FEFEFE"/>
<path fill-rule="evenodd" clip-rule="evenodd" d="M35.4964 34.4843V35.2976H34.3791V38.3694H33.422V35.2976H32.3067L32.3037 34.4843H35.4964Z" fill="#FEFEFE"/>
</svg>
