<svg width="57" height="13" viewBox="0 0 57 13" fill="none" xmlns="http://www.w3.org/2000/svg">
<path d="M5.35431 5.99982H0.913574V5.13871H1.62982V1.5508H0.913574V0.689697H3.20557V1.5508H2.48932V5.28224H4.35156V4.2776H5.21105V5.99982H5.35431Z" fill="black"/>
<path d="M10.9411 5.99982H6.21387V5.13871H6.93011V1.5508H6.21387V0.689697H10.7978V2.26839H9.93835V1.5508H7.93285V2.84244H9.65185V3.70355H7.93285V5.28224H9.93835V4.42113H10.7978V5.99982H10.9411Z" fill="black"/>
<path d="M17.5305 5.99979H15.3817V5.13868H15.9547L15.6682 4.27757H13.6627L13.3762 5.13868H13.806V5.99979H11.6572V5.13868H12.3735L13.6627 1.40723H12.9465V0.546143H16.2412V1.40723H15.6682L17.1007 5.13868H17.6737V5.99979H17.5305ZM15.3817 3.55998L14.6655 1.55076L13.9492 3.55998H15.3817Z" fill="black"/>
<path d="M23.8335 3.27299C23.8335 3.99057 23.6903 4.56464 23.2605 5.1387C22.8308 5.85628 22.1145 6.14331 21.1118 6.14331C20.109 6.14331 19.3928 5.85629 18.8198 5.28223C18.39 4.70816 18.1035 4.1341 18.1035 3.41651C18.1035 2.55542 18.39 1.83783 18.963 1.40728C19.536 0.976729 20.109 0.689697 20.9685 0.689697C21.6848 0.689697 22.2578 0.833226 22.6875 1.26377V0.833222H23.547V2.69893H22.6875C22.6875 2.69893 22.6875 2.69893 22.6875 2.55541C22.6875 2.26838 22.5443 2.12487 22.2578 1.98135C21.9713 1.69432 21.5415 1.5508 20.9685 1.5508C20.5388 1.5508 20.109 1.69432 19.6793 1.98135C19.2495 2.4119 19.1063 2.84245 19.1063 3.41651C19.1063 3.99058 19.2495 4.56464 19.6793 4.85168C20.109 5.13871 20.5388 5.42573 20.9685 5.42573C21.5415 5.42573 21.828 5.28221 22.2578 4.99518C22.5443 4.70815 22.6875 4.42113 22.6875 4.1341H20.9685V3.27299H23.8335Z" fill="black"/>
<path d="M29.9932 1.5508H29.4202V3.84707C29.4202 4.56465 29.277 5.13871 28.8472 5.56926C28.4175 5.9998 27.9877 6.14331 27.2715 6.14331C26.8417 6.14331 26.5552 5.9998 26.2687 5.85628C25.9822 5.71277 25.6957 5.56926 25.5525 5.28223C25.266 4.85168 25.1227 4.42112 25.1227 3.70354V1.5508H24.4065V0.689697H26.6985V1.5508H26.1255V3.70354C26.1255 4.70815 26.5552 5.28223 27.4147 5.28223C27.8445 5.28223 28.2742 5.1387 28.4175 4.70815C28.5607 4.42112 28.5607 4.13409 28.5607 3.70354V1.5508H27.8445V0.689697H30.1365V1.5508H29.9932Z" fill="black"/>
<path d="M35.4367 5.99982H30.7095V5.13871H31.4257V1.5508H30.7095V0.689697H35.2934V2.26839H34.434V1.5508H32.4285V2.84244H34.1475V3.70355H32.4285V5.28224H34.5772V4.42113H35.4367V5.99982Z" fill="black"/>
<path d="M44.0316 4.42106C43.6019 5.56919 42.7424 6.14325 41.4531 6.14325C40.5936 6.14325 39.8774 5.85623 39.3044 5.28216C38.8746 4.7081 38.5881 4.13402 38.5881 3.27292C38.5881 2.55534 38.8746 1.83776 39.3044 1.2637C39.8774 0.68963 40.4504 0.402588 41.3099 0.402588C42.0261 0.402588 42.5991 0.546118 43.0289 0.976667V0.546113H43.8884V2.55534H43.0289C42.8856 2.12479 42.7424 1.83777 42.3126 1.69425C42.0261 1.40722 41.5964 1.4072 41.3099 1.4072C40.7369 1.4072 40.3071 1.55073 40.0206 1.98128C39.7341 2.41183 39.4476 2.84238 39.4476 3.41644C39.4476 3.99051 39.5909 4.42106 40.0206 4.85161C40.3071 5.28216 40.8801 5.42567 41.3099 5.42567C41.7396 5.42567 42.1694 5.28215 42.4559 5.13864C42.7424 4.8516 43.0289 4.56458 43.1721 4.13403L44.0316 4.42106Z" fill="black"/>
<path d="M50.4778 1.5508H49.9048V3.84707C49.9048 4.56465 49.7616 5.13871 49.3318 5.56926C48.9021 5.9998 48.4723 6.14331 47.7561 6.14331C47.3263 6.14331 47.0398 5.9998 46.7533 5.85628C46.4668 5.71277 46.1803 5.56926 46.0371 5.28223C45.7506 4.85168 45.6074 4.42112 45.6074 3.70354V1.5508H44.8911V0.689697H47.0398V1.5508H46.4669V3.70354C46.4669 4.70815 46.8966 5.28223 47.7561 5.28223C48.1858 5.28223 48.6156 5.1387 48.7588 4.70815C48.9021 4.42112 48.9021 4.13409 48.9021 3.70354V1.5508H48.1858V0.689697H50.3346V1.5508H50.4778Z" fill="black"/>
<path d="M56.2079 2.26839C56.2079 3.41652 55.4916 3.99058 54.2024 3.99058H52.9131V5.13871H53.6294V5.99982H51.3374V5.13871H52.0536V1.5508H51.3374V0.689697H54.2024C54.7754 0.689697 55.3484 0.833231 55.6349 0.976747C55.9214 1.26378 56.2079 1.69432 56.2079 2.26839ZM55.0619 2.41191C55.0619 2.12488 54.9186 1.98135 54.7754 1.83783C54.6321 1.69432 54.3456 1.69433 54.0591 1.69433H52.6266V3.27299H53.9159C54.7754 3.12948 55.0619 2.84246 55.0619 2.41191Z" fill="black"/>
<path d="M13.0897 9.15701C13.0897 10.3051 12.3735 10.8792 11.0842 10.8792H9.79498V12.0273H10.5112V12.8884H8.21924V12.0273H8.93548V8.2959H8.21924V7.43481H11.0842C11.6572 7.43481 12.2302 7.57833 12.5167 7.72184C12.8032 8.00888 13.0897 8.43943 13.0897 9.15701ZM12.087 9.15701C12.087 8.86998 11.9437 8.72645 11.8005 8.58293C11.6572 8.43941 11.3707 8.43943 11.0842 8.43943H9.65173V10.0181H10.941C11.6572 10.0181 12.087 9.73108 12.087 9.15701Z" fill="black"/>
<path d="M19.1061 12.8884H16.9574V12.0273H17.5304L17.2439 11.1662H15.2384L14.9519 12.0273H15.3817V12.8884H13.2329V12.0273H13.9492L15.2384 8.2959H14.5221V7.43481H17.8169V8.2959H17.2439L18.6764 12.0273H19.2494V12.8884H19.1061ZM16.9574 10.3051L16.2411 8.2959L15.5249 10.3051H16.9574Z" fill="black"/>
<path d="M25.2661 12.8884H23.6903V11.7403C23.6903 11.3098 23.6903 11.0227 23.5471 10.8792C23.4038 10.5922 23.1173 10.5922 22.6876 10.5922H21.3983V12.0273H22.1146V12.8884H19.9658V12.0273H20.5388V8.2959H19.9658V7.43481H22.8308C24.2633 7.43481 24.8363 7.86536 24.8363 8.86998C24.8363 9.58756 24.5498 10.0181 23.8336 10.1616C23.9768 10.1616 24.1201 10.1616 24.2633 10.3051C24.5498 10.4487 24.6931 10.8792 24.6931 11.3098V12.0273H25.2661V12.8884ZM23.8336 9.15701C23.8336 8.72646 23.5471 8.43943 22.8308 8.43943H21.5416V9.87459H22.8308C23.5471 9.87459 23.8336 9.58756 23.8336 9.15701Z" fill="black"/>
<path d="M30.8527 9.44408H29.8499V8.29595H28.8472V12.0274H29.7067V12.8885H27.1282V12.0274H27.9877V8.29595H26.9849V9.44408H25.9822V7.57837H30.8527V9.44408Z" fill="black"/>
<path d="M37.2988 8.43943H36.7258V12.8884H35.5798L33.2878 9.15701V12.0273H33.8608V12.8884H31.5688V12.0273H32.2851V8.2959H31.5688V7.43481H33.2878L35.7231 11.3098V8.2959H35.0068V7.43481H37.2988V8.43943Z" fill="black"/>
<path d="M42.599 12.8884H37.8718V12.0273H38.5881V8.2959H37.8718V7.43481H42.4558V9.01348H41.5963V8.2959H39.5908V9.58756H41.3098V10.4486H39.5908V12.0273H41.7395V11.1662H42.599V12.8884Z" fill="black"/>
<path d="M48.9022 12.8884H47.3265V11.7403C47.3265 11.3098 47.3265 11.0227 47.1832 10.8792C47.04 10.5922 46.7535 10.5922 46.3237 10.5922H45.0345V12.0273H45.7507V12.8884H43.4587V12.0273H44.0317V8.2959H43.4587V7.43481H46.3237C47.7562 7.43481 48.3292 7.86536 48.3292 8.86998C48.3292 9.58756 48.0427 10.0181 47.3265 10.1616C47.4697 10.1616 47.613 10.1616 47.7562 10.3051C48.0427 10.4487 48.186 10.8792 48.186 11.3098V12.0273H48.759V12.8884H48.9022ZM47.4697 9.15701C47.4697 8.72646 47.1832 8.43943 46.467 8.43943H45.1777V9.87459H46.467C47.1832 9.87459 47.4697 9.58756 47.4697 9.15701Z" fill="black"/>
</svg>
