<svg width="87" height="23" viewBox="0 0 87 23" fill="none" xmlns="http://www.w3.org/2000/svg">
<path d="M86.8084 0H0.428955V22.245H86.8084V0Z" fill="black"/>
<path d="M86.3785 0.430664H0.858643V21.8145H86.3785V0.430664Z" fill="white"/>
<path d="M49.7069 15.0693H54.2909C54.4341 15.0693 54.5774 14.9258 54.5774 14.7823V13.6342C54.5774 13.4907 54.4341 13.3471 54.2909 13.3471H51.1394V12.199H54.2909C54.4341 12.199 54.5774 12.0555 54.5774 11.9119V10.7638C54.5774 10.6203 54.4341 10.4768 54.2909 10.4768H51.1394V9.32866H54.2909C54.4341 9.32866 54.5774 9.18513 54.5774 9.04161V7.8935C54.5774 7.74998 54.4341 7.60645 54.2909 7.60645H49.7069C49.5637 7.60645 49.4204 7.74998 49.4204 7.8935V15.0693C49.4204 14.9258 49.5637 15.0693 49.7069 15.0693Z" fill="#06C755"/>
<path d="M37.3873 15.0692C37.5306 15.0692 37.6738 14.9257 37.6738 14.7822V13.634C37.6738 13.4905 37.5306 13.347 37.3873 13.347H34.2358V7.60634C34.2358 7.46283 34.0926 7.31934 33.9493 7.31934H32.8033C32.6601 7.31934 32.5168 7.46283 32.5168 7.60634V14.7822C32.5168 14.9257 32.6601 15.0692 32.8033 15.0692H37.3873Z" fill="#06C755"/>
<path d="M40.109 7.31934H38.963C38.8198 7.31934 38.6765 7.46283 38.6765 7.60634V14.7822C38.6765 14.9257 38.8198 15.0692 38.963 15.0692H40.109C40.2523 15.0692 40.3955 14.9257 40.3955 14.7822V7.60634C40.3955 7.46283 40.2523 7.31934 40.109 7.31934Z" fill="#06C755"/>
<path d="M47.9878 7.31934H46.8418C46.6986 7.31934 46.5553 7.46283 46.5553 7.60634V11.9118L43.2606 7.46282H42.1146C41.9714 7.46282 41.8281 7.60635 41.8281 7.74987V14.9257C41.8281 15.0692 41.9714 15.2127 42.1146 15.2127H43.2606C43.4039 15.2127 43.5471 15.0692 43.5471 14.9257V10.6202L46.8418 15.0692C46.8418 15.0692 46.8418 15.0692 46.9851 15.2127C46.9851 15.2127 46.9851 15.2127 47.1283 15.2127H48.2743C48.4176 15.2127 48.5608 15.0692 48.5608 14.9257V7.74987C48.2743 7.46283 48.1311 7.31934 47.9878 7.31934Z" fill="#06C755"/>
</svg>
