<svg width="131" height="35" viewBox="0 0 131 35" fill="none" xmlns="http://www.w3.org/2000/svg">
<path d="M130.323 0.656982H0.825684V34.0962H130.323V0.656982Z" fill="#00A08E"/>
<path d="M129.607 1.37451H1.39868V33.5221H129.607V1.37451Z" fill="#00A08E"/>
<path d="M17.4426 0.656982H0.825684V17.3048C8.9909 15.2956 15.4371 8.8374 17.4426 0.656982Z" fill="#FABF00"/>
<path d="M85.6293 16.1567L84.1968 15.7262C83.194 15.4391 82.9075 15.1521 82.9075 14.4345C82.9075 13.5734 83.6238 13.1429 84.6265 13.1429C85.486 13.1429 86.2023 13.4299 87.205 14.1475L87.6348 11.9947C86.7753 11.5642 85.6293 11.1336 84.6265 11.1336C82.1913 10.9901 80.329 12.4253 80.1858 14.578C80.1858 15.2956 80.329 15.8697 80.6155 16.4437C81.0453 17.1613 81.7615 17.7354 82.9075 18.0224L84.1968 18.453C85.1995 18.74 85.6293 19.3141 85.6293 20.0316C85.6293 21.0363 84.7698 21.6103 83.4805 21.6103C82.4778 21.6103 81.6183 21.1798 80.6155 20.7492L80.1858 22.902C81.1885 23.3325 82.1913 23.6195 83.194 23.7631C86.059 23.9066 88.0645 22.4714 88.2078 20.0316C88.4943 18.0224 87.4915 16.7308 85.6293 16.1567Z" fill="white"/>
<path d="M24.1752 11.5642L25.751 17.4484C26.0375 18.3095 26.0375 18.74 26.1807 19.3141C26.324 18.74 26.4672 18.0224 26.6105 17.4484L28.1862 11.5642H31.1945L32.1972 23.3325H29.9052L29.4755 17.0178C29.4755 16.3002 29.3322 15.7262 29.3322 15.0086C29.189 15.7262 29.0457 16.1567 28.9025 16.8743L27.0402 23.3325H25.0347L23.3157 17.1613C23.1725 16.5873 23.0292 15.7262 22.886 15.0086C22.886 15.7262 22.886 16.4438 22.7427 17.1613L22.313 23.3325H20.021L21.167 11.5642H24.1752Z" fill="white"/>
<path d="M41.5083 11.5642L41.2219 13.4299H37.2109V16.1567H40.5056V18.1659H37.2109V21.3233H41.6516V23.3325H34.7756V11.5642H41.5083Z" fill="white"/>
<path d="M46.3788 11.5642H43.9436V23.3325H46.3788V11.5642Z" fill="white"/>
<path d="M51.5359 11.5642V21.0362C51.5359 22.6149 51.5359 22.9019 51.3926 23.3325C51.1061 24.7676 49.6736 25.7723 48.6709 26.0593L47.5249 24.7676C48.0979 24.3371 48.6709 23.763 48.9574 23.3325C49.1006 22.9019 49.2439 22.4714 49.2439 21.1797V11.4207H51.5359V11.5642Z" fill="white"/>
<path d="M56.8361 11.5642H54.4009V23.3325H56.8361V11.5642Z" fill="white"/>
<path d="M63.4256 11.5642L65.0013 14.8651C65.2878 15.5827 65.4311 15.8697 65.5743 16.4438C65.7176 16.1567 66.0041 15.5827 66.1473 15.0086L67.7231 11.7077H70.5881L66.8636 18.74V23.6196H64.4283V18.74L60.7039 11.7077H63.4256V11.5642Z" fill="white"/>
<path d="M92.6484 11.5642V19.3141C92.6484 20.0317 92.6484 20.4622 92.7916 20.7492C93.0781 21.3233 93.6511 21.6103 94.3674 21.6103C95.3701 21.6103 96.0864 21.0363 96.2296 20.1752C96.2296 19.8881 96.2296 19.7446 96.2296 19.1706V11.5642H98.6649V19.6011C98.6649 20.7492 98.6649 20.8928 98.5216 21.4668C98.2351 22.4714 97.0891 23.7631 94.5106 23.7631C92.6484 23.7631 91.3591 23.189 90.7861 22.1844C90.3564 21.6103 90.2131 21.0363 90.2131 19.8881V11.7077H92.6484V11.5642Z" fill="white"/>
<path d="M103.249 13.4299H104.395C105.398 13.4299 105.827 13.7169 106.257 14.4345C106.687 15.1521 106.83 16.4438 106.83 17.7354C106.83 20.1752 106.114 21.4668 104.538 21.4668H103.249V13.4299ZM100.814 11.5642V23.3325H103.679C104.395 23.3325 104.968 23.3325 105.398 23.3325C106.544 23.189 107.546 22.6149 108.263 21.6103C109.122 20.6057 109.409 19.1706 109.409 17.4484C109.409 15.2956 108.836 13.8605 107.833 12.7123C107.117 11.9948 106.257 11.5642 105.254 11.5642C104.825 11.5642 103.822 11.5642 103.249 11.5642H100.814Z" fill="white"/>
<path d="M113.706 18.5965C113.993 17.8789 114.136 17.3048 114.279 16.4437C114.566 15.5826 114.852 14.1475 114.852 14.1475C114.852 14.1475 115.139 15.7261 115.282 16.3002C115.568 17.4483 115.998 18.74 115.998 18.74H113.706V18.5965ZM113.706 11.4207L109.838 23.3325H112.274L113.133 20.4622H116.571L117.431 23.3325H120.009L116.285 11.4207H113.706Z" fill="white"/>
<path d="M73.1666 18.5965C73.4531 17.8789 73.5963 17.3048 73.7396 16.4437C74.0261 15.5826 74.3126 14.1475 74.3126 14.1475C74.3126 14.1475 74.5991 15.7261 74.7423 16.3002C75.0288 17.4483 75.4586 18.74 75.4586 18.74H73.1666V18.5965ZM73.1666 11.4207L69.2988 23.3325H71.7341L72.5936 20.4622H76.0316L76.8911 23.3325H79.4695L75.7451 11.4207H73.1666Z" fill="white"/>
</svg>
