<svg width="87" height="23" viewBox="0 0 87 23" fill="none" xmlns="http://www.w3.org/2000/svg">
<path d="M86.5569 0.54126H0.17749V22.7862H86.5569V0.54126Z" fill="black"/>
<path d="M86.1271 0.97168H0.607178V22.3556H86.1271V0.97168Z" fill="white"/>
<path d="M30.5463 7.42993V9.00862H31.4058V11.8789L29.1138 7.42993H26.3921V9.00862H27.2516V13.8882H26.3921V15.4669H29.9733V13.8882H29.1138V11.0178L31.4058 15.4669H33.2681V9.00862H34.1276V7.42993H30.5463Z" fill="black"/>
<path d="M41.5767 10.5873V7.42993H34.7007V10.5873H36.2764V9.00862H37.1359V13.8882H35.9899V15.4669H40.2874V13.8882H39.1414V9.00862H40.0009V10.5873H41.5767Z" fill="black"/>
<path d="M49.0254 10.5873V7.42993H42.1494V10.5873H43.5819V9.00862H44.4414V13.8882H43.2954V15.4669H47.7361V13.8882H46.5901V9.00862H47.4496V10.5873H49.0254Z" fill="black"/>
<path d="M7.48315 11.305C7.48315 15.754 11.0644 19.1983 15.3619 19.1983C19.6594 19.1983 23.2406 15.754 23.2406 11.305C23.2406 7.28653 20.3756 4.27271 17.2241 4.27271C16.5079 4.27271 15.7916 4.41619 15.3619 4.55971C14.9321 4.41619 14.2159 4.27271 13.4996 4.27271C10.3482 4.27271 7.48315 7.28653 7.48315 11.305ZM16.7944 9.29576C16.7944 10.1569 16.2214 10.8744 15.3619 10.8744C14.5024 10.8744 13.9294 10.1569 13.9294 9.29576C13.9294 8.14763 14.7889 7.14299 15.3619 6.71245C15.9349 6.99948 16.7944 8.14763 16.7944 9.29576ZM9.48865 11.305C9.48865 8.29114 11.6374 6.1384 13.3564 6.28192C12.4969 7.14301 12.0671 8.29115 12.0671 9.43928C12.0671 11.4485 13.6429 12.8836 15.3619 12.8836C17.0809 12.8836 18.6566 11.4485 18.6566 9.43928C18.6566 8.29115 18.2269 7.14301 17.3674 6.28192C19.0864 6.1384 21.2351 8.29114 21.2351 11.305C21.2351 14.6058 18.5134 17.3326 15.3619 17.3326C12.2104 17.1891 9.48865 14.6058 9.48865 11.305Z" fill="#0068B2"/>
<path d="M56.761 15.0365C56.0447 15.3235 55.3285 15.467 54.3257 15.467C51.4607 15.467 50.458 13.7448 50.458 11.4486C50.458 8.72177 52.177 7.28662 54.469 7.28662C55.3285 7.28662 56.0447 7.43012 56.4745 7.71715L56.3312 9.15231C56.0447 9.0088 55.4717 8.72178 54.469 8.72178C53.1797 8.72178 52.177 9.43934 52.177 11.3051C52.177 13.3143 53.0365 14.0318 54.3257 14.0318C54.6122 14.0318 54.7555 14.0318 55.042 13.8883V12.0226H54.0392V10.731H56.761V15.0365Z" fill="black"/>
<path d="M64.0667 15.6105C62.3477 15.6105 61.345 14.4623 61.345 12.5966C61.345 10.7309 62.2045 9.58276 64.0667 9.58276C65.7857 9.58276 66.6452 10.7309 66.6452 12.5966C66.7884 14.6058 65.6424 15.6105 64.0667 15.6105ZM64.0667 14.3188C64.6397 14.3188 65.0694 13.6012 65.0694 12.5966C65.0694 11.7355 64.783 10.8744 64.0667 10.8744C63.3505 10.8744 63.064 11.7355 63.064 12.5966C63.064 13.4577 63.4937 14.3188 64.0667 14.3188Z" fill="black"/>
<path d="M73.6643 11.592C73.6643 10.8744 73.6643 10.1568 73.6643 9.72629H75.0968L75.2401 10.5874C75.6698 10.0133 76.2428 9.58276 76.959 9.58276C78.105 9.58276 79.1078 10.7309 79.1078 12.4531C79.1078 14.6058 77.9618 15.6105 76.8158 15.6105C76.2428 15.6105 75.6698 15.3234 75.5266 14.8929V17.7632H73.8076V11.592H73.6643ZM75.2401 12.8837C75.2401 13.0272 75.2401 13.1707 75.2401 13.3142C75.3833 13.7447 75.6698 14.1753 76.2428 14.1753C76.959 14.1753 77.2455 13.4577 77.2455 12.5966C77.2455 11.7355 76.959 11.0179 76.2428 11.0179C75.8131 11.0179 75.3833 11.4485 75.2401 11.879C75.2401 12.0226 75.2401 12.0226 75.2401 12.1661V12.8837Z" fill="black"/>
<path d="M72.6617 13.6013C72.6617 14.3189 72.6617 15.0364 72.6617 15.467H71.2292L71.086 14.6059C70.9427 14.8929 70.3697 15.6105 69.5102 15.6105C68.5075 15.6105 67.6479 15.18 67.6479 13.4578V9.72632H69.3669V13.1707C69.3669 14.0318 69.5102 14.1753 70.0832 14.1753C70.5129 14.1753 70.7994 13.8883 70.9427 13.6013C70.9427 13.4578 70.9427 13.3142 70.9427 13.1707V9.72632H72.6617V13.6013Z" fill="black"/>
<path d="M57.7637 11.592C57.7637 10.7309 57.7637 10.1568 57.7637 9.72629H59.1962V10.7309C59.4827 9.86982 60.0557 9.58276 60.6287 9.58276C60.7719 9.58276 61.0584 9.58276 61.2016 9.58276L61.0584 11.305C60.9152 11.305 60.7719 11.305 60.6287 11.305C60.0557 11.305 59.6259 11.592 59.4827 12.1661C59.4827 12.3096 59.4827 12.4531 59.4827 12.5966V15.4669H57.7637V11.592Z" fill="black"/>
</svg>
