<svg width="32" height="32" viewBox="0 0 32 32" fill="none" xmlns="http://www.w3.org/2000/svg">
<path d="M25.333 14.6668H17.333V6.66683C17.333 6.31321 17.1925 5.97407 16.9425 5.72402C16.6924 5.47397 16.3533 5.3335 15.9997 5.3335C15.6461 5.3335 15.3069 5.47397 15.0569 5.72402C14.8068 5.97407 14.6663 6.31321 14.6663 6.66683V14.6668H6.66634C6.31272 14.6668 5.97358 14.8073 5.72353 15.0574C5.47348 15.3074 5.33301 15.6465 5.33301 16.0002C5.33301 16.3538 5.47348 16.6929 5.72353 16.943C5.97358 17.193 6.31272 17.3335 6.66634 17.3335H14.6663V25.3335C14.6663 25.6871 14.8068 26.0263 15.0569 26.2763C15.3069 26.5264 15.6461 26.6668 15.9997 26.6668C16.3533 26.6668 16.6924 26.5264 16.9425 26.2763C17.1925 26.0263 17.333 25.6871 17.333 25.3335V17.3335H25.333C25.6866 17.3335 26.0258 17.193 26.2758 16.943C26.5259 16.6929 26.6663 16.3538 26.6663 16.0002C26.6663 15.6465 26.5259 15.3074 26.2758 15.0574C26.0258 14.8073 25.6866 14.6668 25.333 14.6668Z" fill="#6B5B52"/>
</svg>
