<svg width="91" height="24" viewBox="0 0 91 24" fill="none" xmlns="http://www.w3.org/2000/svg">
<path d="M90.3889 0H0V23.27H90.3889V0Z" fill="black"/>
<path d="M89.9402 0.441895H0.448242V22.8149H89.9402V0.441895Z" fill="white"/>
<path d="M45.3053 17.7515H15.4053L17.7843 20.1304L45.3053 17.7515Z" fill="#BF0000"/>
<path d="M18.1739 8.11837V8.47586C17.6214 8.12486 17.121 7.91687 16.4385 7.91687C14.3455 7.91687 12.7529 9.82786 12.7529 12.1744C12.7529 14.5209 14.3455 16.4319 16.4385 16.4319C17.121 16.4319 17.6214 16.2239 18.1739 15.8729V16.2304H20.0135V8.11837H18.1739V8.11837ZM16.4385 14.4753C15.405 14.4753 14.651 13.4614 14.651 12.1744C14.651 10.8874 15.405 9.87338 16.4385 9.87338C17.472 9.87338 18.1999 10.8939 18.1999 12.1744C18.1999 13.4549 17.472 14.4753 16.4385 14.4753Z" fill="#BF0000"/>
<path d="M32.9229 8.11829V12.8828C32.9229 13.7798 32.3118 14.5338 31.4148 14.5338C30.5178 14.5338 29.9069 13.7798 29.9069 12.8828V8.11829H28.0674V12.8828C28.0674 14.8393 29.4063 16.4318 31.3628 16.4318C32.2663 16.4318 32.9294 15.9313 32.9294 15.9313V16.2303H34.7688V8.11829H32.9294H32.9229Z" fill="#BF0000"/>
<path d="M50.0824 16.2305V11.466C50.0824 10.569 50.6933 9.81498 51.5903 9.81498C52.4873 9.81498 53.0983 10.569 53.0983 11.466V16.2305H54.9379V11.466C54.9379 9.50951 53.5988 7.91699 51.6423 7.91699C50.7388 7.91699 50.0759 8.4175 50.0759 8.4175V8.11849H48.2363V16.2305H50.0759H50.0824Z" fill="#BF0000"/>
<path d="M7.44253 16.2304V13.0845H8.80759L11.1671 16.2304H13.5786L10.7316 12.4345C11.6221 11.7975 12.2006 10.7575 12.2006 9.58746C12.2006 7.65696 10.6341 6.09045 8.70357 6.09045H5.51855V16.2239H7.44253V16.2304ZM7.44253 8.02093H8.69706C9.56156 8.02093 10.2701 8.72296 10.2701 9.59396C10.2701 10.465 9.56156 11.167 8.69706 11.167H7.44253V8.02744V8.02093Z" fill="#BF0000"/>
<path d="M39.7278 14.3064C39.5653 14.4169 39.3508 14.5079 39.1103 14.5079C38.8113 14.5079 38.2393 14.2804 38.2393 13.5134V10.0424H39.8123V8.11841H38.2393V6.09692H36.3998V8.11841H35.4248V10.0424H36.3998V13.5459C36.3998 15.3594 37.7648 16.4384 39.1363 16.4384C39.6498 16.4384 40.3583 16.2694 40.9368 15.9249L39.7213 14.3064H39.7278Z" fill="#BF0000"/>
<path d="M24.5959 11.9209L27.7549 8.11841H25.1679L22.9578 10.9394V5.4209H21.0664V16.2304H22.9578V12.8959L25.6749 16.2304H28.2554L24.5959 11.9209Z" fill="#BF0000"/>
<path d="M43.9857 7.9104C41.8537 7.9104 40.3262 9.7824 40.3262 12.1744C40.3262 14.6899 42.2436 16.4384 44.1676 16.4384C45.1361 16.4384 46.3841 16.1069 47.4306 14.6249L45.8056 13.6824C44.5446 15.5349 42.4516 14.5924 42.2111 12.7399H47.5151C47.9701 9.8279 46.0852 7.9104 43.9922 7.9104H43.9857ZM45.5912 11.1279H42.2762C42.6662 9.22991 45.2337 9.11941 45.5912 11.1279Z" fill="#BF0000"/>
<path d="M61.0412 6.8313V8.52128H63.1082V10.2373H61.0412V14.1503C61.0412 14.4948 61.2492 14.7158 61.5937 14.7158C61.9382 14.7158 62.1917 14.5078 62.4387 14.0333L63.9077 14.8783C63.2252 16.0158 62.5622 16.4318 61.3857 16.4318C60.3847 16.4318 59.5527 15.9053 59.3187 15.1318C59.2602 14.9108 59.2082 14.4688 59.2082 14.0528V10.2373H57.8887V8.52128H59.2082V6.8313H61.0412V6.8313Z" fill="#BF0000"/>
<path d="M71.2854 12.3758C71.2854 14.7223 69.7708 16.4253 67.6778 16.4253C65.5848 16.4253 64.0703 14.7223 64.0703 12.3758C64.0703 10.0293 65.5849 8.33936 67.6909 8.33936C69.7969 8.33936 71.2854 10.0423 71.2854 12.3758ZM65.8903 12.3888C65.8903 13.6498 66.6508 14.5924 67.6778 14.5924C68.7048 14.5924 69.4653 13.6498 69.4653 12.3758C69.4653 11.1018 68.7048 10.1593 67.6648 10.1593C66.6248 10.1593 65.8903 11.1148 65.8903 12.3888Z" fill="#BF0000"/>
<path d="M74.6261 6.8313V8.52128H76.6931V10.2373H74.6261V14.1503C74.6261 14.4948 74.8342 14.7158 75.1787 14.7158C75.5232 14.7158 75.7766 14.5078 76.0236 14.0333L77.4926 14.8783C76.8101 16.0158 76.1471 16.4318 74.9706 16.4318C73.9696 16.4318 73.1377 15.9053 72.9037 15.1318C72.8452 14.9108 72.7932 14.4688 72.7932 14.0528V10.2373H71.4736V8.52128H72.7932V6.8313H74.6261V6.8313Z" fill="#BF0000"/>
<path d="M84.8771 12.3758C84.8771 14.7223 83.3626 16.4253 81.2696 16.4253C79.1766 16.4253 77.6621 14.7223 77.6621 12.3758C77.6621 10.0293 79.1767 8.33936 81.2827 8.33936C83.3887 8.33936 84.8771 10.0423 84.8771 12.3758ZM79.4821 12.3888C79.4821 13.6498 80.2426 14.5924 81.2696 14.5924C82.2966 14.5924 83.0571 13.6498 83.0571 12.3758C83.0571 11.1018 82.2966 10.1593 81.2566 10.1593C80.2166 10.1593 79.4821 11.1148 79.4821 12.3888Z" fill="#BF0000"/>
</svg>
