<svg width="88" height="23" viewBox="0 0 88 23" fill="none" xmlns="http://www.w3.org/2000/svg">
<path d="M87.1145 0.54126H0.735107V22.7862H87.1145V0.54126Z" fill="black"/>
<path d="M86.6847 0.97168H1.16479V22.3556H86.6847V0.97168Z" fill="white"/>
<path d="M58.6078 17.4761H29.2417L31.6769 19.7723L58.6078 17.4761Z" fill="#BF0000"/>
<path d="M31.9633 8.00409V8.29109C31.3903 8.00406 30.9606 7.71704 30.2443 7.71704C28.2388 7.71704 26.6631 9.58273 26.6631 11.879C26.6631 14.1752 28.2388 16.0409 30.2443 16.0409C30.9606 16.0409 31.3903 15.8974 31.9633 15.4669V15.7539H33.8256V7.71704H31.9633V8.00409ZM30.2443 14.1752C29.2416 14.1752 28.5253 13.1706 28.5253 11.879C28.5253 10.5873 29.2416 9.58273 30.2443 9.58273C31.2471 9.58273 31.9633 10.5873 31.9633 11.879C32.1066 13.1706 31.3903 14.1752 30.2443 14.1752Z" fill="#BF0000"/>
<path d="M46.4316 8.00415V12.7401C46.4316 13.6012 45.8586 14.3188 44.9991 14.3188C44.1396 14.3188 43.5666 13.6012 43.5666 12.7401V8.00415H41.7043V12.7401C41.7043 14.6058 42.9936 16.1845 44.9991 16.1845C45.8586 16.1845 46.5748 15.754 46.5748 15.754V16.041H48.4371V8.00415H46.4316Z" fill="#BF0000"/>
<path d="M63.3351 15.8975V11.305C63.3351 10.4439 63.9081 9.72628 64.7676 9.72628C65.6271 9.72628 66.2001 10.4439 66.2001 11.305V16.041H68.0623V11.305C68.0623 9.43926 66.7731 7.8606 64.7676 7.8606C63.9081 7.8606 63.1918 8.29112 63.1918 8.29112V8.00412H61.3296V16.041H63.3351V15.8975Z" fill="#BF0000"/>
<path d="M21.5062 15.8977V12.7403H22.7954L25.0874 15.8977H27.3794L24.5144 12.1663C25.3739 11.5922 25.9469 10.5876 25.9469 9.29593C25.9469 7.43023 24.3712 5.85156 22.5089 5.85156H19.3574V15.7541H21.5062V15.8977ZM21.5062 7.86078H22.7954C23.6549 7.86078 24.3712 8.57836 24.3712 9.43946C24.3712 10.3006 23.6549 11.0181 22.7954 11.0181H21.5062V7.86078Z" fill="#BF0000"/>
<path d="M53.1642 14.0318C53.0209 14.1753 52.7344 14.1753 52.5912 14.1753C52.3047 14.1753 51.7317 13.8882 51.7317 13.1707V9.86982H53.3074V8.00413H51.7317V5.99487H49.8694V8.00413H48.8667V9.86982H49.8694V13.3142C49.8694 15.0364 51.1587 16.1845 52.5912 16.1845C53.1642 16.1845 53.7372 16.041 54.3102 15.6105L53.1642 14.0318Z" fill="#BF0000"/>
<path d="M38.2664 11.7356L41.4178 8.00418H38.8394L36.6906 10.731V5.27734H34.8284V15.8976H36.6906V12.7402L39.4123 15.8976H41.8476L38.2664 11.7356Z" fill="#BF0000"/>
<path d="M57.3185 7.71704C55.1698 7.71704 53.7373 9.58273 53.7373 11.879C53.7373 14.3187 55.5996 16.0409 57.4618 16.0409C58.4645 16.0409 59.6105 15.7539 60.6133 14.3188L59.0375 13.4577C57.7483 15.3234 55.7428 14.3187 55.4563 12.5966H60.6133C61.1863 9.72625 59.324 7.71704 57.3185 7.71704ZM58.8943 10.8744H55.5996C56.0293 9.0087 58.6078 9.0087 58.8943 10.8744Z" fill="#BF0000"/>
</svg>
