<svg width="87" height="23" viewBox="0 0 87 23" fill="none" xmlns="http://www.w3.org/2000/svg">
<path d="M86.822 0.510742H0.442627V22.7557H86.822V0.510742Z" fill="#335C42"/>
<path d="M86.3922 0.941406H0.872314V22.3253H86.3922V0.941406Z" fill="#335C42"/>
<path d="M29.8088 8.97827H24.6519V9.69585H26.8006V15.58H27.8033V9.69585H29.8088V8.97827Z" fill="white"/>
<path d="M34.5359 9.69585V8.97827H30.6682V15.58H34.5359V14.8624H31.671V12.4227H34.5359V11.7051H31.671V9.69585H34.5359Z" fill="white"/>
<path d="M45.7095 8.97827H44.85V14.1448C44.277 13.2837 42.1282 10.844 40.6957 8.97827H39.9795V15.7235H40.839V10.5569C41.412 11.418 43.704 14.0013 44.9932 15.7235H45.8527L45.7095 8.97827Z" fill="white"/>
<path d="M52.4421 8.97827H51.5826V14.1448C51.0096 13.2837 49.0041 10.844 47.4284 8.97827H46.7122V15.7235H47.5717V10.5569C48.1447 11.418 50.4366 14.0013 51.7259 15.7235H52.5854L52.4421 8.97827Z" fill="white"/>
<path d="M37.8307 15.5799H38.8335V7.68652C38.8335 7.68652 38.8335 8.11707 38.2605 8.54762C37.974 8.69113 37.6875 9.12168 37.6875 9.55223V15.5799" fill="white"/>
<path d="M39.4064 6.39492C39.4064 6.96898 38.8334 7.39953 38.4037 7.68656C37.8307 7.83008 37.5442 7.54304 37.5442 7.1125C37.5442 6.53843 38.1172 6.10789 38.5469 5.82086C38.9767 5.53382 39.4064 5.82086 39.4064 6.39492Z" fill="white"/>
<path d="M22.7895 8.97827V13.1402C22.7895 14.0013 22.0732 14.7189 21.2138 14.7189C20.3543 14.7189 19.638 14.0013 19.638 13.1402V8.97827H18.6353V13.1402C18.6353 14.5754 19.7813 15.7235 21.2138 15.7235C22.6462 15.7235 23.7922 14.5754 23.7922 13.1402V8.97827H22.7895Z" fill="white"/>
<path d="M11.4729 12.2791C11.4729 14.1448 12.9054 15.7235 14.7676 15.7235C16.6299 15.7235 18.0624 14.1448 18.0624 12.2791C18.0624 10.4134 16.6299 8.83475 14.7676 8.83475C12.9054 8.69123 11.4729 10.2699 11.4729 12.2791ZM12.4757 12.2791C12.4757 10.844 13.4784 9.83937 14.7676 9.83937C16.0569 9.83937 17.0596 10.9875 17.0596 12.2791C17.0596 13.7143 16.0569 14.7189 14.7676 14.7189C13.4784 14.7189 12.4757 13.5708 12.4757 12.2791Z" fill="white"/>
<path d="M6.74561 8.83472H6.17261V15.58H7.17535V12.8532H8.89435C10.0403 12.8532 10.8998 11.9921 10.8998 10.844C10.8998 9.69582 10.0403 8.83472 8.89435 8.83472H6.74561ZM8.89435 9.83933C9.46735 9.83933 9.89709 10.2699 9.89709 10.844C9.89709 11.418 9.46735 11.8486 8.89435 11.8486H7.17535V9.83933H8.89435Z" fill="white"/>
<path d="M9.3241 11.9919L8.4646 12.566L10.1836 15.5798H11.3296L9.3241 11.9919Z" fill="white"/>
<path d="M55.8801 10.844H56.4531V12.8532H59.0316V10.844H59.6046V15.58H59.0316V13.4273H56.4531V15.58H55.8801V10.844Z" fill="white"/>
<path d="M73.7864 10.844H74.5026V15.1495H76.7946V15.58H73.7864V10.844Z" fill="white"/>
<path d="M77.9405 14.0013C77.9405 14.2884 78.0838 14.4319 78.0838 14.7189C78.227 15.0059 78.6567 15.1495 79.2297 15.1495C79.5162 15.1495 79.6595 15.1494 79.8027 15.0059C80.2325 14.8624 80.3757 14.5754 80.3757 14.2883C80.3757 14.0013 80.2325 13.8578 80.0892 13.7143C79.946 13.5708 79.6595 13.5708 79.373 13.4272L78.8 13.2837C78.3702 13.1402 78.0837 13.1402 77.9405 12.9967C77.654 12.8532 77.5107 12.4226 77.5107 12.1356C77.5107 11.7051 77.654 11.418 77.9405 11.131C78.227 10.844 78.6567 10.7004 79.2297 10.7004C79.6595 10.7004 80.0892 10.844 80.519 11.131C80.8055 11.418 81.092 11.7051 81.092 12.2791H80.519C80.519 11.9921 80.3757 11.8486 80.3757 11.705C80.2325 11.418 79.8027 11.2745 79.373 11.2745C78.9432 11.2745 78.8 11.418 78.6567 11.5615C78.5135 11.7051 78.3702 11.8486 78.3702 12.1356C78.3702 12.4226 78.5135 12.5661 78.6567 12.7097C78.8 12.7097 79.0865 12.8532 79.5162 12.9967L80.2325 13.1402C80.519 13.2837 80.8055 13.2837 80.9487 13.4272C81.2352 13.7143 81.3785 14.0013 81.3785 14.4319C81.3785 15.0059 81.2352 15.293 80.8055 15.58C80.3757 15.867 79.946 15.867 79.5162 15.867C78.9432 15.867 78.5135 15.7235 78.227 15.4365C77.9405 15.1494 77.7972 14.7189 77.7972 14.1448H77.9405V14.0013Z" fill="white"/>
<path d="M62.6128 15.0059C62.0398 15.0059 61.6101 14.8624 61.3236 14.4318C61.0371 14.0013 60.8938 13.5707 60.8938 13.1402C60.8938 12.4226 61.0371 11.992 61.3236 11.705C61.6101 11.418 62.0398 11.131 62.4695 11.131C63.0425 11.131 63.329 11.2745 63.6155 11.705C63.902 11.992 64.0453 12.5661 64.0453 12.9967C64.0453 13.5707 63.902 14.0013 63.6155 14.4318C63.6155 14.8624 63.1858 15.0059 62.6128 15.0059ZM62.6128 10.5569C61.7533 10.5569 61.1803 10.8439 60.7506 11.418C60.4641 11.8485 60.3208 12.4226 60.3208 13.1402C60.3208 13.8577 60.4641 14.4318 60.8938 14.8623C61.3235 15.2929 61.8966 15.5799 62.6128 15.5799C63.329 15.5799 64.0453 15.2929 64.475 14.7188C64.9048 14.2883 65.048 13.7142 65.048 12.9967C65.048 12.2791 64.9048 11.8485 64.6183 11.418C64.0453 10.8439 63.329 10.5569 62.6128 10.5569Z" fill="white"/>
<path d="M69.6321 10.844H73.0701V11.418H70.2051V12.8532H72.9268V13.4273H70.2051V15.1495H73.0701V15.58H69.6321V10.844Z" fill="white"/>
<path d="M69.0591 10.844V11.418H67.4834V15.58H66.7671V11.418H65.1914V10.844H69.0591Z" fill="white"/>
</svg>
