<svg width="50" height="14" viewBox="0 0 50 14" fill="none" xmlns="http://www.w3.org/2000/svg">
<path d="M4.94839 4.56443C4.94839 5.71256 4.23216 6.28662 2.94292 6.28662C2.51317 6.28662 2.22667 6.28661 1.79692 6.1431C1.51042 5.99958 1.36718 5.85606 1.22393 5.71254V6.1431H0.364427V4.27738H1.22393C1.22393 4.70793 1.36717 4.99497 1.79692 5.13849C2.08342 5.282 2.51316 5.42552 2.79966 5.42552C3.08616 5.42552 3.37265 5.42553 3.5159 5.28201C3.8024 5.1385 3.80242 4.99497 3.80242 4.70794C3.80242 4.56442 3.65915 4.27738 3.5159 4.27738C3.37265 4.13387 3.08617 3.99036 2.65642 3.99036C1.94018 3.84684 1.36717 3.70332 1.08067 3.5598C0.507677 3.27277 0.221191 2.84223 0.221191 2.26817C0.221191 1.83762 0.364423 1.55059 0.650921 1.26356C0.93742 0.976528 1.51042 0.833008 2.08341 0.833008C2.36991 0.833008 2.65642 0.833017 2.94292 0.976533C3.22941 1.12005 3.51591 1.26355 3.65916 1.40706V0.976533H4.51866V2.5552H3.65916C3.65916 2.41168 3.51592 2.12466 3.37267 1.98114C3.08617 1.69411 2.65642 1.69411 2.22667 1.69411C1.51042 1.69411 1.22393 1.83762 1.22393 2.26817C1.22393 2.41168 1.36718 2.69872 1.65368 2.69872C1.79693 2.84224 2.22666 2.84223 2.79966 2.98575C3.5159 3.12926 3.94566 3.27277 4.37541 3.5598C4.66191 3.70332 4.94839 3.99037 4.94839 4.56443Z" fill="black"/>
<path d="M11.2513 1.5508H10.6783V3.84707C10.6783 4.56465 10.5351 5.13871 10.1053 5.56926C9.67556 5.9998 9.2458 6.14331 8.52955 6.14331C8.0998 6.14331 7.8133 5.9998 7.5268 5.85628C7.2403 5.71277 6.9538 5.56926 6.81055 5.28223C6.52405 4.85168 6.3808 4.42112 6.3808 3.70354V1.5508H5.66455V0.689697H7.95656V1.5508H7.38357V3.70354C7.38357 4.70815 7.81331 5.28223 8.67281 5.28223C9.24581 5.28223 9.5323 5.1387 9.67555 4.70815C9.8188 4.42112 9.81881 4.13409 9.81881 3.70354V1.5508H9.10256V0.689697H11.3945V1.5508H11.2513Z" fill="black"/>
<path d="M16.9812 2.26838C16.9812 3.41651 16.265 3.99057 14.8325 3.99057H13.5433V5.28223H14.2595V6.14331H11.9675V5.28223H12.6838V1.5508H11.9675V0.689697H14.8325C15.4055 0.689697 15.9785 0.833231 16.265 0.976747C16.6947 1.26378 16.9812 1.69432 16.9812 2.26838ZM15.9785 2.26838C15.9785 1.98135 15.8352 1.83784 15.692 1.69433C15.5487 1.55081 15.2622 1.5508 14.9757 1.5508H13.5433V3.12949H14.8325C15.5488 3.12949 15.9785 2.84245 15.9785 2.26838Z" fill="black"/>
<path d="M22.4248 6.14331H17.6975V5.28223H18.4138V1.5508H17.6975V0.689697H22.2815V2.26838H21.5653V1.5508H19.4165V2.84244H21.1355V3.70354H19.4165V5.28223H21.5653V4.42112H22.4248V6.14331Z" fill="black"/>
<path d="M28.871 6.14331H27.2952V4.99518C27.2952 4.56463 27.2952 4.27761 27.152 4.1341C27.0087 3.84706 26.7222 3.84707 26.2925 3.84707H25.0032V5.28223H25.7195V6.14331H23.4275V5.28223H24.0005V1.5508H23.4275V0.689697H26.2925C27.725 0.689697 28.298 1.12025 28.298 2.12486C28.298 2.84244 28.0115 3.273 27.2952 3.41651C27.4385 3.41651 27.5817 3.4165 27.725 3.56002C28.0115 3.70353 28.1547 4.1341 28.1547 4.56465V5.28223H28.7277V6.14331H28.871ZM27.2952 2.26838C27.2952 1.83783 27.0087 1.5508 26.2925 1.5508H25.0032V2.98596H26.2925C27.0087 2.98596 27.2952 2.69893 27.2952 2.26838Z" fill="black"/>
<path d="M37.4659 4.42106C37.0362 5.56919 36.1767 6.14325 34.8874 6.14325C34.028 6.14325 33.3117 5.85623 32.7387 5.28216C32.1657 4.7081 32.0225 4.13402 32.0225 3.27292C32.0225 2.55534 32.309 1.83776 32.7387 1.2637C33.3117 0.68963 33.8847 0.402588 34.7442 0.402588C35.4604 0.402588 36.0334 0.546118 36.4632 0.976667V0.402588H37.3227V2.41183H36.4632C36.3199 1.98128 36.1767 1.69424 35.7469 1.55072C35.4604 1.26369 35.0307 1.2637 34.601 1.2637C34.028 1.2637 33.5982 1.4072 33.3117 1.83775C33.0252 2.2683 32.7387 2.69885 32.7387 3.27292C32.7387 3.84698 32.8819 4.27753 33.3117 4.70808C33.5982 5.13863 34.1712 5.28216 34.601 5.28216C35.0307 5.28216 35.4604 5.13863 35.7469 4.99511C36.0334 4.70808 36.3199 4.42105 36.4632 3.9905L37.4659 4.42106Z" fill="black"/>
<path d="M43.9122 1.5508H43.3392V3.84707C43.3392 4.56465 43.1959 5.13871 42.7662 5.56926C42.3364 5.9998 41.9067 6.14331 41.1904 6.14331C40.7607 6.14331 40.4742 5.9998 40.1877 5.85628C39.9012 5.71277 39.6147 5.56926 39.4714 5.28223C39.1849 4.85168 39.0417 4.42112 39.0417 3.70354V1.5508H38.3254V0.689697H40.6174V1.5508H40.0444V3.70354C40.0444 4.70815 40.4742 5.28223 41.3337 5.28223C41.9067 5.28223 42.1932 5.1387 42.3364 4.70815C42.4797 4.42112 42.4797 4.13409 42.4797 3.70354V1.5508H41.6202V0.689697H43.9122V1.5508Z" fill="black"/>
<path d="M49.6422 2.26838C49.6422 3.41651 48.9259 3.99057 47.4934 3.99057H46.2041V5.28223H46.9204V6.14331H44.6284V5.28223H45.3447V1.5508H44.6284V0.689697H47.4934C48.0664 0.689697 48.6394 0.833231 48.9259 0.976747C49.3557 1.26378 49.6422 1.69432 49.6422 2.26838ZM48.6394 2.26838C48.6394 1.98135 48.4961 1.83784 48.3529 1.69433C48.2096 1.55081 47.9231 1.5508 47.6366 1.5508H46.2041V3.12949H47.4934C48.2097 3.12949 48.6394 2.84245 48.6394 2.26838Z" fill="black"/>
<path d="M9.38921 9.15705C9.38921 10.3052 8.67296 10.8792 7.24047 10.8792H5.95124V12.1709H6.66748V13.032H4.37549V12.1709H5.09173V8.43947H4.37549V7.57837H7.24047C7.81347 7.57837 8.38646 7.72188 8.67296 7.8654C9.10271 8.15243 9.38921 8.58299 9.38921 9.15705ZM8.38647 9.15705C8.38647 8.87002 8.24322 8.72649 8.09997 8.58298C7.95672 8.43946 7.67023 8.43947 7.38373 8.43947H5.95124V10.0181H7.24047C7.95672 10.0181 8.38647 9.73112 8.38647 9.15705Z" fill="black"/>
<path d="M15.4055 12.8884H13.2568V12.0273H13.8298L13.5433 11.1662H11.5378L11.2513 12.0273H11.8243V12.8884H9.67554V12.0273H10.3918L11.681 8.2959H10.9648V7.43481H14.2595V8.2959H13.6865L15.119 12.0273H15.692V12.8884H15.4055ZM13.2568 10.4486L12.5405 8.43943L11.8243 10.4486H13.2568Z" fill="black"/>
<path d="M21.7086 12.8884H20.1329V11.7403C20.1329 11.3098 20.1329 11.0227 19.9896 10.8792C19.8464 10.5922 19.5599 10.5922 19.1301 10.5922H17.8409V12.0273H18.5571V12.8884H16.2651V12.0273H16.8381V8.2959H16.2651V7.43481H19.1301C20.5626 7.43481 21.1356 7.86536 21.1356 8.86998C21.1356 9.58756 20.8491 10.0181 20.1329 10.1616C20.2761 10.1616 20.4194 10.1616 20.5626 10.3051C20.8491 10.4487 20.9924 10.8792 20.9924 11.3098V12.0273H21.5654V12.8884H21.7086ZM20.2761 9.15701C20.2761 8.72646 19.9896 8.43943 19.2734 8.43943H17.9841V9.87459H19.2734C19.8464 9.87459 20.2761 9.58756 20.2761 9.15701Z" fill="black"/>
<path d="M27.2952 9.44408H26.2925V8.29595H25.2897V12.0274H26.1492V12.8885H23.4275V12.0274H24.287V8.29595H23.2842V9.44408H22.2815V7.57837H27.2952V9.44408Z" fill="black"/>
<path d="M33.7415 8.43947H33.0253V13.032H31.8793L29.4441 9.30056V12.1709H30.0171V13.032H27.7251V12.1709H28.4413V8.43947H27.7251V7.57837H29.4441L31.8793 11.4533V8.43947H31.1631V7.57837H33.4551V8.43947H33.7415Z" fill="black"/>
<path d="M39.185 12.8884H34.4578V12.0273H35.174V8.2959H34.4578V7.43481H39.0417V9.01348H38.1823V8.2959H36.0335V9.58756H37.7525V10.4486H36.0335V12.0273H38.1823V11.1662H39.0417V12.8884H39.185Z" fill="black"/>
<path d="M45.4879 12.8884H43.9122V11.7403C43.9122 11.3098 43.9122 11.0227 43.7689 10.8792C43.6257 10.5922 43.3392 10.5922 42.9094 10.5922H41.6202V12.0273H42.3364V12.8884H40.0444V12.0273H40.6174V8.2959H40.0444V7.43481H42.9094C44.3419 7.43481 44.915 7.86536 44.915 8.86998C44.915 9.58756 44.6285 10.0181 43.9122 10.1616C44.0555 10.1616 44.1987 10.1616 44.3419 10.3051C44.6284 10.4487 44.7717 10.8792 44.7717 11.3098V12.0273H45.3447V12.8884H45.4879ZM44.0554 9.15701C44.0554 8.72646 43.7689 8.43943 43.0527 8.43943H41.7635V9.87459H43.0527C43.6257 9.87459 44.0554 9.58756 44.0554 9.15701Z" fill="black"/>
</svg>
