<svg width="87" height="23" viewBox="0 0 87 23" fill="none" xmlns="http://www.w3.org/2000/svg">
<path d="M86.3794 0.194092H0V22.4391H86.3794V0.194092Z" fill="black"/>
<path d="M85.9496 0.624756H0.429688V22.0086H85.9496V0.624756Z" fill="white"/>
<path d="M50.567 13.3976C50.4237 13.3976 49.994 13.5411 49.8507 13.6846C49.8507 14.1152 49.7075 16.1244 49.7075 16.1244C49.7075 16.9854 49.2777 17.7031 48.275 17.9901L47.8452 17.8466C48.4182 17.5595 48.5615 17.2725 48.7047 16.9855C48.848 16.6984 48.848 15.9808 48.848 14.8327C48.848 14.8327 48.848 13.8281 48.848 13.5411C48.7047 13.5411 47.9885 13.3976 47.8452 13.254V12.967C48.275 12.967 49.1345 12.967 49.5642 12.967C49.8507 12.967 50.4237 12.967 50.7102 12.967L50.567 13.3976Z" fill="#C63837"/>
<path d="M67.3272 13.9716C67.184 13.9716 67.0407 13.9716 66.8975 14.1151C66.8975 14.4021 66.8975 16.8419 66.8975 17.2725C66.8975 17.416 66.7542 17.416 66.7542 17.2725C66.1812 16.8419 64.6055 14.9762 64.0325 14.2586C64.0325 14.6892 64.0325 16.2678 64.0325 16.6984C64.1757 16.6984 64.7487 16.8419 64.7487 16.8419V17.129C64.319 17.129 63.0297 17.129 63.0297 17.129V16.8419C63.173 16.6984 63.3162 16.6984 63.4595 16.6984C63.4595 16.5549 63.4595 14.2586 63.4595 14.1151C63.3162 14.1151 63.0297 14.1151 62.8865 14.1151V13.6846C63.173 13.6846 63.746 13.6846 64.1757 13.6846C64.6055 14.2586 65.7515 15.4067 66.3245 16.1243C66.3245 15.5503 66.3245 14.4021 66.3245 14.1151C66.1812 14.1151 66.038 14.1151 65.7515 13.9716V13.6846C65.8947 13.6846 66.4677 13.6846 66.611 13.6846C66.7542 13.6846 67.184 13.6846 67.3272 13.6846V13.9716Z" fill="#C63837"/>
<path d="M57.8726 14.8326C57.8726 15.2632 57.4429 15.4067 57.0131 15.5502V15.8373C58.0159 15.6938 58.5889 15.4067 58.5889 14.8326C58.5889 14.1151 58.1591 13.6845 57.1564 13.541C57.1564 13.541 56.7266 13.541 56.5834 13.541H55.1509V13.828C55.2941 13.828 55.5806 13.828 55.7239 13.828C55.7239 14.2586 55.7239 16.1243 55.7239 16.5549C55.5806 16.5549 55.2941 16.6983 55.1509 16.6983V16.9854C55.2941 16.9854 57.2996 16.9854 57.4429 16.9854V16.6983C57.2996 16.6983 56.8699 16.5549 56.7266 16.5549C56.7266 16.4113 56.7266 13.8281 56.7266 13.6845C56.8699 13.6845 57.2996 13.6845 57.4429 13.6845C57.7294 14.1151 57.8726 14.5456 57.8726 14.8326Z" fill="#C63837"/>
<path d="M31.5148 6.65231C31.2283 6.65231 30.2256 6.93936 29.7958 6.93936C29.3661 7.08288 25.7848 9.95321 25.4983 10.6708C25.4983 10.9578 25.4983 13.3976 25.4983 13.3976L27.6471 13.5411V14.2587C27.3606 14.2587 25.3551 14.2587 24.2091 14.2587C23.6361 14.2587 21.7739 14.2587 21.0576 14.2587L21.2009 13.5411C21.6306 13.5411 22.2036 13.5411 22.6334 13.3976C23.0631 13.2541 23.2064 13.1106 23.2064 12.8235V10.6708C23.0631 10.2402 20.0549 6.36532 19.1954 5.79125C18.9089 5.64774 17.4764 5.5042 17.0466 5.5042L17.1899 4.78662H24.2091L24.0659 5.36068C23.7794 5.50419 22.2036 5.5042 21.9171 5.5042C22.9199 6.93936 24.4956 8.94858 25.0686 9.66616C25.3551 9.23561 28.0768 7.3699 28.0768 6.79584C27.6471 6.65232 26.3578 6.50883 26.2146 6.50883L26.0713 5.79125H32.0878L31.5148 6.65231Z" fill="#C63837"/>
<path d="M46.4127 12.2495C45.2667 12.2495 43.4044 12.2495 42.2584 12.2495V11.6754C42.4017 11.6754 43.4044 11.5319 43.5477 11.5319V9.52263C42.9747 9.52263 39.9664 9.52264 39.3934 9.66615V11.5319C39.3934 11.5319 40.6827 11.6754 40.9692 11.6754V12.2495C39.8232 12.2495 37.3879 12.2495 36.2419 12.2495L36.3852 11.5319C36.8149 11.5319 37.6744 11.3884 37.9609 11.3884C37.9609 10.9578 37.9609 10.2402 37.9609 9.52263V8.66156C37.9609 8.37453 37.9609 7.51342 37.9609 7.08287C37.6744 7.08287 36.6717 6.93935 36.2419 6.93935L36.3852 6.36529C37.3879 6.36529 40.3962 6.36529 41.2557 6.36529L41.1124 6.93935C40.8259 6.93935 39.8232 7.08287 39.3934 7.08287V8.66156H43.5477V6.36529C43.2612 6.36529 42.5449 6.22176 42.1152 6.22176V5.64771C42.8314 5.64771 45.5532 5.64771 46.2694 5.64771V6.22176C45.9829 6.22176 45.2667 6.36529 44.9802 6.36529V11.5319C44.9802 11.5319 46.1262 11.6754 46.4127 11.6754V12.2495Z" fill="#C63837"/>
<path d="M67.0407 12.8235H66.3245L66.4677 11.5319H67.184H67.9002L67.757 12.8235H67.0407ZM67.9002 10.5273H66.7542V4.78662H69.1895L68.903 5.64773L67.9002 10.5273Z" fill="#C63837"/>
<path d="M51.14 11.5318C50.9968 11.5318 50.9968 11.5318 50.8535 11.5318C50.7103 11.5318 50.7103 11.5318 50.567 11.5318C49.7075 11.5318 47.8453 10.9578 47.8453 9.37908V9.23556C47.8453 9.23556 47.8453 9.23555 47.8453 9.09203C47.8453 7.51335 49.5643 6.93929 50.567 6.93929C50.7103 6.93929 50.7103 6.93929 50.8535 6.93929C50.9968 6.93929 50.9968 6.93929 51.14 6.93929C51.9995 6.93929 53.8617 7.51335 53.8617 9.09203V9.23556C53.8617 9.23556 53.8617 9.23556 53.8617 9.37908C53.8617 11.1013 52.1428 11.5318 51.14 11.5318ZM55.4375 9.37908C55.4375 7.51337 53.7185 6.36523 50.9968 6.36523H50.8535H50.7103C47.8453 6.36523 46.2695 7.51337 46.2695 9.37908C46.2695 11.1013 47.9885 12.3929 50.7103 12.3929H50.8535H50.9968C53.7185 12.3929 55.4375 11.2448 55.4375 9.37908Z" fill="#C63837"/>
<path d="M61.3107 10.9579C61.1674 10.9579 61.0242 10.9579 60.8809 10.9579C60.7377 10.9579 60.5944 10.9579 60.4512 10.9579C59.4484 10.9579 57.5862 10.2404 57.5862 8.51818C57.5862 6.79599 59.4484 6.22191 60.4512 6.07839C60.5944 6.07839 60.7377 6.07839 60.8809 6.07839C61.0242 6.07839 61.1674 6.07839 61.3107 6.07839C62.3134 6.07839 64.1756 6.79599 64.1756 8.51818C64.1756 10.2404 62.3134 10.9579 61.3107 10.9579ZM65.8946 8.51818C65.8946 6.50896 64.0324 5.3608 61.0242 5.21729H60.8809H60.7377C57.7294 5.21729 55.8672 6.50896 55.8672 8.51818C55.8672 10.5274 57.7294 11.6755 60.7377 11.819H60.8809H61.0242C64.0324 11.819 65.8946 10.6709 65.8946 8.51818C65.8946 8.6617 65.8946 8.6617 65.8946 8.51818Z" fill="#C63837"/>
<path d="M31.3715 10.6708C31.5148 10.3838 32.3743 8.51811 32.3743 8.51811L33.2338 10.6708H31.3715ZM35.9555 13.1106C35.669 12.5365 34.523 9.66623 33.95 8.37459L34.9528 8.23107L35.096 7.80054H33.6635C33.0905 7.80054 30.7985 7.80054 30.6553 7.80054V8.37459L31.8013 8.66164C31.8013 8.66164 30.0823 12.106 29.7958 12.5365C29.5093 12.5365 28.793 12.8236 28.5065 12.8236L28.3633 13.3976C28.6498 13.3976 31.5148 13.3976 31.8013 13.3976V12.8236L30.7985 12.5365C30.7985 12.5365 31.2283 11.5319 31.3715 11.3884C31.658 11.3884 33.6635 11.2449 33.6635 11.2449L34.3798 13.1106C34.3798 13.1106 33.5203 13.2541 33.2338 13.2541L33.0905 13.8282C33.377 13.8282 37.2447 13.8282 37.388 13.8282V13.2541C36.9582 13.2541 36.242 13.1106 35.9555 13.1106Z" fill="#C63837"/>
<path d="M62.3135 16.8419C61.8838 15.9808 61.3108 14.4021 61.1675 13.9716H61.5973V13.6846H59.735V13.9716L60.1648 14.1151C59.8783 14.8327 59.0188 16.6984 58.8755 16.8419C58.7323 16.8419 58.5891 16.9854 58.4458 16.9854V17.2725C58.8755 17.2725 59.8783 17.2725 60.0215 17.2725V16.9854L59.5918 16.8419C59.5918 16.8419 59.8783 16.1244 60.0215 15.8373C60.4513 15.8373 61.3108 15.8373 61.3108 15.8373L61.7405 16.8419C61.7405 16.8419 61.454 16.9854 61.1675 16.9854V17.2725C61.3108 17.2725 63.0298 17.2725 63.0298 17.2725V16.9854C62.7433 16.9854 62.3135 16.8419 62.3135 16.8419ZM59.8783 15.5503C60.0215 15.4068 60.4513 14.1151 60.4513 14.1151L61.0243 15.5503H59.8783Z" fill="#C63837"/>
<path d="M54.2916 16.8419C54.0051 16.2678 53.4321 14.6891 53.1456 13.9715L53.7186 13.828V13.541H51.7131V13.828L52.1428 13.9715C51.8563 14.6891 50.9968 16.5548 50.8536 16.6983C50.7103 16.6983 50.5671 16.8419 50.4238 16.8419V17.1289C50.8536 17.1289 51.8563 17.1289 51.9996 17.1289V16.8419L51.5698 16.6983C51.5698 16.6983 51.8563 15.9808 51.9996 15.6937C52.4293 15.6937 53.2888 15.6937 53.2888 15.6937L53.7186 16.6983C53.7186 16.6983 53.4321 16.8419 53.1456 16.8419V17.1289C53.2888 17.1289 55.0078 17.1289 55.0078 17.1289V16.8419C54.5781 16.9854 54.2916 16.8419 54.2916 16.8419ZM51.8563 15.5502C51.9996 15.4067 52.4293 14.1151 52.4293 14.1151L53.0023 15.5502H51.8563Z" fill="#C63837"/>
</svg>
