<svg width="24" height="24" viewBox="0 0 24 24" fill="none" xmlns="http://www.w3.org/2000/svg">
<path d="M21.8386 5.15941C22.1792 5.51057 22.4212 5.94541 22.5399 6.42C22.8572 8.1787 23.0112 9.96295 22.9999 11.75C23.0063 13.5103 22.8523 15.2676 22.5399 17C22.4212 17.4746 22.1792 17.9094 21.8386 18.2606C21.498 18.6118 21.0707 18.8668 20.5999 19C18.8799 19.46 11.9999 19.46 11.9999 19.46C11.9999 19.46 5.11994 19.46 3.39994 19C2.93876 18.8738 2.51792 18.6308 2.17808 18.2945C1.83825 17.9581 1.5909 17.5398 1.45994 17.08C1.14271 15.3213 0.988718 13.537 0.999938 11.75C0.991174 9.97631 1.14515 8.20556 1.45994 6.46C1.57873 5.98541 1.82065 5.55057 2.16129 5.19941C2.50192 4.84824 2.92919 4.59318 3.39994 4.46C5.11994 4 11.9999 4 11.9999 4C11.9999 4 18.8799 4 20.5999 4.42C21.0707 4.55318 21.498 4.80824 21.8386 5.15941Z" fill="#D8232A"/>
<path d="M15.4999 11.75L9.74994 15.02V8.47998L15.4999 11.75Z" fill="white"/>
</svg>
