<svg width="128" height="115" viewBox="0 0 128 115" fill="none" xmlns="http://www.w3.org/2000/svg">
<g clip-path="url(#clip0_2131_6889)">
<path d="M32.6599 94.5999C33.4499 94.2099 34.0599 93.6499 34.4899 92.9299C34.9099 92.2099 35.1199 91.3699 35.1199 90.4099V80.1499H31.4599V90.3699C31.4599 90.7199 31.3899 91.0299 31.2599 91.2699C31.1299 91.5199 30.9399 91.7099 30.6899 91.8399C30.4499 91.9699 30.1599 92.0399 29.8199 92.0399C29.4799 92.0399 29.1899 91.9699 28.9399 91.8399C28.6899 91.7099 28.4999 91.5199 28.3699 91.2699C28.2399 91.0199 28.1699 90.7199 28.1699 90.3699V89.1499H24.6099V90.4099C24.6099 91.3699 24.8199 92.2099 25.2499 92.9299C25.6799 93.6499 26.2799 94.1999 27.0699 94.5899C27.8599 94.9799 28.7899 95.1799 29.8599 95.1799C30.9299 95.1799 31.8699 94.9799 32.6599 94.5899V94.5999Z" fill="#231F20"/>
<path d="M40.5798 91.4302H36.7798V94.8602H40.5798V91.4302Z" fill="#231F20"/>
<path d="M53.1395 91.6802H46.4595V80.1602H42.7896V94.8602H53.1395V91.6802Z" fill="#231F20"/>
<path d="M66.1996 91.6802H58.4796V88.9702H65.5796V85.8801H58.4796V83.3401H66.2296V80.1602H54.8096V94.8602H66.1996V91.6802Z" fill="#231F20"/>
<path d="M71.58 92.1499H77.43L78.36 94.8699H82.17L76.67 80.1699H72.26L66.98 94.8699H70.67L71.58 92.1499ZM73.92 85.0799C74.09 84.5399 74.24 84.0499 74.38 83.5999C74.41 83.4899 74.45 83.3699 74.48 83.2599C74.52 83.3899 74.56 83.5199 74.6 83.6399C74.75 84.0999 74.9 84.5999 75.07 85.1299C75.24 85.6599 75.42 86.2199 75.61 86.7999L76.44 89.2399H72.56L73.39 86.7599C73.57 86.1799 73.75 85.6099 73.92 85.0799Z" fill="#231F20"/>
<path d="M93.4795 93.3301C93.5395 93.2601 93.5995 93.1801 93.6595 93.1001L93.9895 94.8601H96.4695V86.6401H89.6495V89.3201H92.9895C92.9095 89.8201 92.7395 90.2501 92.4895 90.6301C92.1695 91.1101 91.7495 91.4701 91.2395 91.7201C90.7295 91.9601 90.1495 92.0901 89.5195 92.0901C88.7495 92.0901 88.0895 91.9101 87.5295 91.5601C86.9795 91.2101 86.5495 90.6901 86.2595 90.0101C85.9595 89.3301 85.8195 88.5101 85.8195 87.5401C85.8195 86.5201 85.9795 85.6801 86.2895 85.0001C86.5995 84.3201 87.0395 83.8101 87.5895 83.4901C88.1395 83.1601 88.7795 83.0001 89.4995 83.0001C90.0195 83.0001 90.4895 83.0801 90.9195 83.2501C91.3495 83.4201 91.7195 83.6601 92.0195 83.9901C92.3195 84.3201 92.5295 84.7101 92.6595 85.1701H96.4095C96.2495 84.1001 95.8595 83.1701 95.2495 82.3701C94.6395 81.5701 93.8295 80.9501 92.8395 80.5101C91.8495 80.0701 90.7195 79.8501 89.4595 79.8501C87.9395 79.8501 86.6195 80.1701 85.4995 80.8201C84.3795 81.4701 83.5195 82.3701 82.9195 83.5201C82.3195 84.6801 82.0195 86.0001 82.0195 87.5001C82.0195 89.0001 82.2995 90.3201 82.8595 91.4901C83.4195 92.6601 84.2295 93.5701 85.2895 94.2301C86.3495 94.8901 87.5995 95.2201 89.0395 95.2201C89.9195 95.2201 90.7395 95.0801 91.4995 94.7901C92.2595 94.5001 92.9195 94.0201 93.4895 93.3501L93.4795 93.3301Z" fill="#231F20"/>
<path d="M111.2 80.1602H107.53V89.2202C107.53 89.8102 107.43 90.3202 107.24 90.7402C107.04 91.1602 106.74 91.4802 106.33 91.7102C105.92 91.9302 105.41 92.0502 104.79 92.0502C104.17 92.0502 103.66 91.9402 103.25 91.7102C102.84 91.4902 102.54 91.1602 102.34 90.7402C102.14 90.3202 102.04 89.8102 102.04 89.2202V80.1602H98.3696V89.3002C98.3696 90.5302 98.6196 91.5802 99.1196 92.4602C99.6196 93.3402 100.35 94.0202 101.31 94.4902C102.27 94.9602 103.43 95.1902 104.78 95.1902C106.13 95.1902 107.29 94.9602 108.25 94.4902C109.21 94.0202 109.94 93.3402 110.44 92.4602C110.94 91.5802 111.19 90.5202 111.19 89.3002V80.1602H111.2Z" fill="#231F20"/>
<path d="M124.71 91.6802H116.99V88.9702H124.09V85.8801H116.99V83.3401H124.74V80.1602H113.32V94.8602H124.71V91.6802Z" fill="#231F20"/>
<path d="M10.4998 107.02C10.2598 106.89 9.98976 106.78 9.70976 106.69C9.89976 106.61 10.0898 106.53 10.2598 106.43C10.8198 106.12 11.2598 105.72 11.5698 105.22C11.8798 104.73 12.0398 104.16 12.0398 103.53C12.0398 102.7 11.8198 101.99 11.3698 101.39C10.9298 100.79 10.2898 100.32 9.44977 100C8.61977 99.6803 7.62977 99.5103 6.48977 99.5103C5.26976 99.5103 4.23976 99.7003 3.38976 100.07C2.53976 100.44 1.88977 100.99 1.42977 101.71C0.969766 102.43 0.719766 103.32 0.679766 104.36H4.26977C4.29977 103.92 4.39977 103.56 4.56977 103.28C4.73977 103 4.97976 102.79 5.29976 102.65C5.61976 102.51 5.99977 102.44 6.44977 102.44C6.86977 102.44 7.23976 102.5 7.54976 102.62C7.85976 102.74 8.08977 102.92 8.25977 103.16C8.42977 103.4 8.50977 103.69 8.50977 104.04C8.50977 104.39 8.42977 104.7 8.25977 104.94C8.08977 105.18 7.83977 105.37 7.50977 105.49C7.17977 105.61 6.77976 105.67 6.29976 105.67H5.26977V108.2H6.31977C6.80976 108.2 7.21977 108.27 7.56977 108.42C7.90977 108.57 8.17977 108.78 8.35977 109.06C8.53977 109.34 8.62976 109.67 8.62976 110.07C8.62976 110.47 8.53977 110.78 8.35977 111.06C8.17977 111.34 7.91977 111.55 7.57977 111.69C7.23977 111.83 6.82977 111.91 6.33977 111.91C5.80977 111.91 5.36977 111.82 5.00977 111.64C4.65977 111.46 4.37977 111.19 4.18977 110.83C3.99977 110.47 3.88977 110.01 3.85977 109.45H0.259766C0.299766 110.59 0.559766 111.57 1.02977 112.38C1.50977 113.19 2.19977 113.81 3.10977 114.24C4.00977 114.67 5.11977 114.88 6.40977 114.88C7.62977 114.88 8.69976 114.68 9.59976 114.29C10.5098 113.89 11.1998 113.35 11.6898 112.65C12.1798 111.95 12.4198 111.16 12.4198 110.27C12.4198 109.54 12.2498 108.89 11.9098 108.34C11.5698 107.79 11.0898 107.35 10.4698 107.02H10.4998Z" fill="#231F20"/>
<path d="M23.3996 100.4C22.4596 99.8 21.2795 99.5 19.8895 99.5C18.4995 99.5 17.3096 99.8 16.3596 100.4C15.4196 101 14.7096 101.87 14.2396 103.02C13.7696 104.17 13.5396 105.56 13.5396 107.2C13.5396 108.84 13.7696 110.25 14.2396 111.39C14.7096 112.54 15.4196 113.41 16.3596 114.01C17.2996 114.61 18.4795 114.91 19.8895 114.91C21.2995 114.91 22.4595 114.61 23.4095 114.01C24.3495 113.41 25.0595 112.53 25.5295 111.39C25.9995 110.25 26.2295 108.85 26.2295 107.2C26.2295 105.55 25.9896 104.16 25.5196 103.02C25.0496 101.87 24.3396 101 23.3996 100.4ZM22.1296 109.93C21.9396 110.63 21.6495 111.14 21.2795 111.46C20.9095 111.78 20.4395 111.94 19.8895 111.94C19.3395 111.94 18.8696 111.78 18.4896 111.46C18.1196 111.14 17.8296 110.63 17.6296 109.94C17.4296 109.24 17.3296 108.34 17.3296 107.21C17.3296 106.08 17.4296 105.18 17.6296 104.49C17.8296 103.79 18.1095 103.29 18.4795 102.97C18.8495 102.65 19.3195 102.49 19.8695 102.49C20.4195 102.49 20.8895 102.65 21.2595 102.97C21.6295 103.29 21.9196 103.8 22.1096 104.49C22.3096 105.19 22.3996 106.09 22.3996 107.21C22.3996 108.33 22.2996 109.24 22.1096 109.94L22.1296 109.93Z" fill="#231F20"/>
<path d="M27.5898 103.04H31.9798V114.55H35.6598V103.04H40.0498V99.8501H27.5898V103.04Z" fill="#231F20"/>
<path d="M50.9697 105.46H45.3897V99.8501H41.7197V114.55H45.3897V108.63H50.9697V114.55H54.6397V99.8501H50.9697V105.46Z" fill="#231F20"/>
<path d="M63.8796 99.8501L58.5996 114.55H62.2896L63.1996 111.83H69.0496L69.9796 114.55H73.7896L68.2896 99.8501H63.8796ZM64.1796 108.92L65.0096 106.44C65.1896 105.86 65.3696 105.29 65.5396 104.76C65.7096 104.22 65.8596 103.73 65.9996 103.28C66.0296 103.17 66.0696 103.05 66.0996 102.94C66.1396 103.07 66.1796 103.2 66.2196 103.32C66.3696 103.78 66.5196 104.28 66.6896 104.81C66.8596 105.34 67.0396 105.9 67.2296 106.48L68.0596 108.92H64.1796Z" fill="#231F20"/>
<path d="M84.3399 106.7C84.3399 107.41 84.3499 108.12 84.3699 108.84C84.3699 109.02 84.3699 109.21 84.3899 109.4C84.2099 109.04 84.0399 108.7 83.8699 108.36C83.5499 107.74 83.2399 107.19 82.9499 106.7L78.7699 99.8501H74.8599V114.55H78.4399V108.1C78.4399 107.54 78.4399 106.99 78.4199 106.46C78.4199 106.07 78.3999 105.65 78.3799 105.2C78.5999 105.62 78.8299 106.04 79.0699 106.46C79.3699 106.98 79.6999 107.53 80.0399 108.1L84.0099 114.55H87.9199V99.8501H84.3399V106.69V106.7Z" fill="#231F20"/>
<path d="M99.7197 106.7C99.7197 107.41 99.7297 108.12 99.7497 108.84C99.7497 109.02 99.7497 109.21 99.7697 109.4C99.5897 109.04 99.4197 108.7 99.2497 108.36C98.9297 107.74 98.6198 107.19 98.3298 106.7L94.1497 99.8501H90.2397V114.55H93.8197V108.1C93.8197 107.54 93.8198 106.99 93.7998 106.46C93.7998 106.07 93.7798 105.65 93.7598 105.2C93.9798 105.62 94.2097 106.04 94.4497 106.46C94.7497 106.98 95.0797 107.53 95.4197 108.1L99.3897 114.55H103.3V99.8501H99.7197V106.69V106.7Z" fill="#231F20"/>
<path d="M109.29 99.8501H105.62V114.55H109.29V99.8501Z" fill="#231F20"/>
<path d="M121.44 99.8501L119.29 106.58C119.06 107.33 118.84 108.1 118.61 108.87C118.39 109.63 118.17 110.42 117.96 111.22C117.74 110.43 117.53 109.68 117.32 108.96C117.1 108.23 116.86 107.43 116.59 106.58L114.38 99.8601H110.57L115.74 114.56H120.15L125.14 99.8601H121.44V99.8501Z" fill="#231F20"/>
<path d="M127.55 111.12H123.75V114.55H127.55V111.12Z" fill="#231F20"/>
<path d="M107.42 31.99C109.11 32.83 111.1 33.25 113.39 33.25C115.68 33.25 117.7 32.83 119.4 31.98C121.1 31.13 122.4 29.93 123.31 28.39C124.21 26.84 124.67 25.04 124.67 22.98V0.75H117.02V22.89C117.02 23.7 116.87 24.39 116.57 24.95C116.27 25.52 115.84 25.95 115.29 26.24C114.74 26.53 114.08 26.68 113.32 26.68C112.56 26.68 111.89 26.53 111.34 26.24C110.79 25.95 110.36 25.52 110.05 24.95C109.74 24.38 109.59 23.7 109.59 22.89V20.29H102.17V22.96C102.17 25.04 102.62 26.85 103.53 28.4C104.44 29.95 105.74 31.15 107.43 31.99H107.42Z" fill="#231F20"/>
<path d="M93.2599 52.03C92.7399 51.75 92.1799 51.51 91.5899 51.3C91.9899 51.13 92.3799 50.95 92.7499 50.75C93.9599 50.08 94.8899 49.21 95.5599 48.14C96.2299 47.08 96.5599 45.86 96.5599 44.49C96.5599 42.7 96.0899 41.16 95.1399 39.85C94.1899 38.54 92.8199 37.54 91.0399 36.84C89.2499 36.14 87.1399 35.79 84.7099 35.79C82.1199 35.79 79.9099 36.19 78.0899 37C76.2699 37.8 74.8699 38.98 73.8899 40.54C72.9099 42.1 72.3799 43.99 72.2999 46.22H79.7799C79.8399 45.24 80.0699 44.43 80.4599 43.8C80.8499 43.17 81.3999 42.7 82.0899 42.39C82.7799 42.08 83.6199 41.93 84.6099 41.93C85.5999 41.93 86.3799 42.07 87.0699 42.34C87.7599 42.61 88.2799 43.02 88.6499 43.55C89.0099 44.09 89.1999 44.74 89.1999 45.51C89.1999 46.28 89.0099 46.98 88.6399 47.52C88.2599 48.07 87.7099 48.48 86.9899 48.75C86.2599 49.02 85.3699 49.16 84.2899 49.16H82.0799V54.48H84.3699C85.4499 54.48 86.3799 54.65 87.1499 54.98C87.9199 55.31 88.5099 55.79 88.9099 56.41C89.3099 57.03 89.5099 57.79 89.5099 58.66C89.5099 59.53 89.3099 60.25 88.9099 60.88C88.5099 61.5 87.9299 61.97 87.1699 62.3C86.4099 62.62 85.4999 62.79 84.4199 62.79C83.2399 62.79 82.2599 62.59 81.4699 62.2C80.6799 61.81 80.0799 61.21 79.6599 60.41C79.2399 59.61 78.9999 58.59 78.9299 57.35H71.4399C71.5099 59.8 72.0499 61.89 73.0799 63.63C74.1099 65.37 75.5899 66.7 77.5299 67.63C79.4699 68.55 81.8299 69.01 84.5999 69.01C87.2099 69.01 89.4899 68.58 91.4299 67.73C93.3699 66.88 94.8599 65.7 95.8899 64.2C96.9299 62.7 97.4499 60.99 97.4499 59.07C97.4499 57.49 97.0799 56.1 96.3499 54.9C95.6099 53.71 94.5799 52.75 93.2599 52.03Z" fill="#231F20"/>
<path d="M125.59 43.36C124.59 40.88 123.07 38.99 121.05 37.7C119.03 36.4 116.52 35.75 113.52 35.75C110.52 35.75 108 36.4 105.98 37.69C103.96 38.98 102.45 40.87 101.45 43.35C100.45 45.83 99.9497 48.85 99.9497 52.4C99.9497 55.95 100.45 58.99 101.46 61.46C102.46 63.94 103.98 65.83 106 67.12C108.02 68.42 110.53 69.07 113.54 69.07C116.55 69.07 119.05 68.42 121.07 67.12C123.09 65.82 124.6 63.93 125.6 61.46C126.6 58.98 127.1 55.96 127.1 52.4C127.1 48.84 126.6 45.84 125.59 43.36ZM118.51 58.39C118.08 59.93 117.45 61.06 116.62 61.77C115.79 62.48 114.76 62.84 113.52 62.84C112.28 62.84 111.26 62.48 110.43 61.77C109.6 61.06 108.97 59.93 108.53 58.39C108.09 56.85 107.88 54.86 107.88 52.4C107.88 49.94 108.1 47.95 108.53 46.41C108.97 44.87 109.6 43.75 110.42 43.04C111.25 42.33 112.28 41.98 113.51 41.98C114.74 41.98 115.77 42.34 116.6 43.05C117.43 43.76 118.07 44.88 118.5 46.42C118.93 47.96 119.15 49.95 119.15 52.4C119.15 54.85 118.93 56.85 118.5 58.39H118.51Z" fill="#231F20"/>
<path d="M0.289551 33.97V32.41H23.7896V0.75H60.5995V33.97C60.5995 35.7 60.5995 37.44 60.5595 39.17C60.5095 40.91 60.3795 42.63 60.0895 44.34C59.4995 47.78 58.3095 51.05 56.5595 54.07C51.1695 63.39 41.2095 69.1 30.4496 69.07C19.6896 69.1 9.73955 63.38 4.33955 54.07C2.58955 51.05 1.39955 47.79 0.809549 44.34C0.519549 42.62 0.38955 40.9 0.33955 39.17C0.28955 37.44 0.299549 35.7 0.299549 33.97H0.289551Z" fill="#231F20"/>
<path d="M30.4397 48.1601C35.5649 48.1601 39.7197 44.0053 39.7197 38.8801C39.7197 33.7549 35.5649 29.6001 30.4397 29.6001C25.3145 29.6001 21.1597 33.7549 21.1597 38.8801C21.1597 44.0053 25.3145 48.1601 30.4397 48.1601Z" fill="white"/>
<path d="M43.5598 61.2802C48.685 61.2802 52.8398 57.1254 52.8398 52.0002C52.8398 46.875 48.685 42.7202 43.5598 42.7202C38.4346 42.7202 34.2798 46.875 34.2798 52.0002C34.2798 57.1254 38.4346 61.2802 43.5598 61.2802Z" fill="#ED1C24"/>
</g>
<defs>
<clipPath id="clip0_2131_6889">
<rect width="128" height="115" fill="white"/>
</clipPath>
</defs>
</svg>
