<svg width="88" height="23" viewBox="0 0 88 23" fill="none" xmlns="http://www.w3.org/2000/svg">
<path d="M87.2647 0.510742H0.885254V22.7557H87.2647V0.510742Z" fill="#961C74"/>
<path d="M86.6918 0.941406H1.17188V22.3253H86.6918V0.941406Z" fill="#961C74"/>
<path d="M33.976 6.68219H39.9925V5.10352H30.538L20.6538 18.1635H22.516L32.257 5.39055V18.1635H40.1357V16.5848H33.976V6.68219Z" fill="white"/>
<path d="M64.3449 5.10352V15.0061L57.3256 5.10352H56.0364V18.1635H57.6121V8.26088L64.7746 18.1635H66.0638V5.10352H64.3449Z" fill="white"/>
<path d="M47.728 4.81641C43.8602 4.81641 40.7087 7.83025 40.7087 11.5617C40.7087 15.4366 43.717 18.3069 47.728 18.3069C51.5957 18.3069 54.7472 15.2931 54.7472 11.5617C54.7472 7.83025 51.5957 4.81641 47.728 4.81641ZM47.728 17.0153C44.863 17.0153 42.4277 14.5755 42.4277 11.7052C42.4277 8.83485 44.863 6.39508 47.728 6.39508C50.5929 6.39508 53.0282 8.83485 53.0282 11.7052C53.0282 14.5755 50.5929 17.0153 47.728 17.0153Z" fill="white"/>
<path d="M43.2871 9.983C45.7223 10.27 46.2953 10.8441 46.2953 11.1311C46.1521 11.8487 42.8574 12.5663 38.8464 12.5663C34.6921 12.5663 31.3974 11.8487 31.3974 11.1311C31.3974 10.4136 35.2651 9.69597 39.7059 9.69597C39.7059 9.69597 39.9924 9.69597 39.9924 9.55245C39.9924 9.40893 39.7059 9.40894 39.7059 9.40894C33.4029 9.40894 30.1082 10.4136 30.1082 11.5617C30.1082 12.7098 34.1191 13.7144 38.9896 13.7144C43.8601 13.7144 47.8711 12.7098 47.8711 11.5617C47.8711 10.8441 46.8683 9.98301 43.5736 9.69597C43.5736 9.69597 43.2871 9.69597 43.2871 9.83949C43.0006 9.983 43.2871 9.983 43.2871 9.983Z" fill="url(#paint0_linear_1132_107514)"/>
<defs>
<linearGradient id="paint0_linear_1132_107514" x1="38.692" y1="10.0201" x2="38.692" y2="18.1015" gradientUnits="userSpaceOnUse">
<stop stop-color="white"/>
<stop offset="0.0554784" stop-color="#F4E7F0"/>
<stop offset="0.1923" stop-color="#DBB2D0"/>
<stop offset="0.3308" stop-color="#C684B4"/>
<stop offset="0.4684" stop-color="#B55E9D"/>
<stop offset="0.6047" stop-color="#A7418B"/>
<stop offset="0.7395" stop-color="#9E2D7E"/>
<stop offset="0.8721" stop-color="#982077"/>
<stop offset="1" stop-color="#961C74"/>
</linearGradient>
</defs>
</svg>
