<svg width="87" height="23" viewBox="0 0 87 23" fill="none" xmlns="http://www.w3.org/2000/svg">
<path d="M86.3794 0.510742H0V22.7557H86.3794V0.510742Z" fill="black"/>
<path d="M85.9496 0.941406H0.429688V22.3253H85.9496V0.941406Z" fill="white"/>
<path d="M26.3579 7.25586H30.5121V21.751H26.3579V7.25586Z" fill="#FB0019"/>
<path d="M28.5066 6.25128C29.6526 6.25128 30.6554 5.24667 30.6554 4.09854C30.6554 2.95041 29.6526 1.9458 28.5066 1.9458C27.3606 1.9458 26.3579 2.95041 26.3579 4.09854C26.2146 5.24667 27.2174 6.25128 28.5066 6.25128Z" fill="#FB0019"/>
<path d="M61.5972 7.25586H66.1812L69.4759 14.5752L72.6274 7.25586H76.4951V21.751H72.4841V13.14L68.7596 21.8945H68.3299L64.3189 13.14V21.751H61.5972V7.25586Z" fill="#0F218A"/>
<path d="M59.1618 7.25586V9.12157H54.1481V13.427H58.8753V15.2927H54.1481V19.7417H59.3051V21.751H49.8506V7.25586H59.1618Z" fill="#0F218A"/>
<path d="M19.6251 7.25586H15.3276L10.0273 21.8945H12.6058L14.1816 17.876H19.0521L20.6278 21.8945H24.9253L19.6251 7.25586ZM14.7546 15.5798L16.3303 10.9873H16.4736L18.1926 15.5798H14.7546Z" fill="#0F218A"/>
<path d="M37.6744 19.8852V8.97802H38.9637C41.8287 8.97802 43.2612 11.2743 43.2612 14.1446C43.2612 17.0149 42.1152 19.8852 39.1069 19.8852H37.6744ZM33.5202 21.7509H40.5394C44.4072 21.7509 47.7019 19.3112 47.7019 14.7187C47.7019 10.1261 44.4072 7.1123 39.8232 7.1123H33.377V21.7509H33.5202Z" fill="#0F218A"/>
</svg>
