<svg width="10" height="6" viewBox="0 0 10 6" fill="none" xmlns="http://www.w3.org/2000/svg">
<path d="M9.74169 4.35674L5.66276 0.284121C5.57437 0.194093 5.46922 0.122636 5.35335 0.0738712C5.23749 0.0251066 5.11321 0 4.9877 0C4.86218 0 4.73791 0.0251066 4.62204 0.0738712C4.50618 0.122636 4.40102 0.194093 4.31263 0.284121L0.281245 4.35674C0.192128 4.44604 0.121394 4.55227 0.0731228 4.66932C0.024852 4.78637 0 4.91191 0 5.03871C0 5.16552 0.024852 5.29106 0.0731228 5.40811C0.121394 5.52516 0.192128 5.63139 0.281245 5.72069C0.459388 5.89959 0.70037 6 0.951557 6C1.20274 6 1.44373 5.89959 1.62187 5.72069L4.9877 2.32043L8.35352 5.72069C8.53062 5.89814 8.76965 5.99818 9.01908 5.99924C9.14421 5.99997 9.26826 5.97574 9.3841 5.92794C9.49994 5.88014 9.60531 5.80971 9.69415 5.72069C9.78645 5.63461 9.86095 5.5309 9.91334 5.41557C9.96574 5.30023 9.99499 5.17555 9.99941 5.04873C10.0038 4.92191 9.98333 4.79545 9.9391 4.67668C9.89486 4.55791 9.82777 4.44917 9.74169 4.35674Z" fill="#233360"/>
</svg>
