<svg width="91" height="24" viewBox="0 0 91 24" fill="none" xmlns="http://www.w3.org/2000/svg">
<path d="M90.3889 0H0V23.27H90.3889V0Z" fill="#01916D"/>
<path d="M89.9402 0.448486H0.448242V22.8215H89.9402V0.448486Z" fill="#01916D"/>
<path d="M67.0729 4.67994V15.5674C67.0729 16.2759 67.4239 16.64 68.1389 16.6725C68.1454 16.6725 71.7269 16.6725 71.7269 16.6725V17.8944C71.7269 18.0309 71.6554 18.1284 71.4994 18.1284H65.6884C63.8944 18.1284 63.6279 17.1404 63.6279 16.2434V5.42091C63.6279 4.90741 63.8229 4.66694 64.4274 4.67994H67.0729V4.67994Z" fill="white"/>
<path d="M60.3845 4.67993V17.4199C60.3845 17.9854 60.144 18.1284 59.663 18.1284H56.9395V5.3819C56.9395 4.9594 57.102 4.67993 57.713 4.67993H60.391H60.3845Z" fill="white"/>
<path d="M3.39875 6.53242C3.39875 5.50542 3.39873 4.67993 5.08223 4.67993H12.4857V5.97343C12.4857 6.06443 12.4402 6.14894 12.3102 6.14894H7.87076C7.27276 6.14894 6.97375 6.43493 6.97375 7.03293V10.4454H12.1933V11.8039C12.1933 11.9209 12.1152 11.9859 11.9982 11.9859H6.96725V17.4069C6.95425 17.9334 6.69429 18.1414 6.1223 18.1284H3.38574V6.53242H3.39875Z" fill="white"/>
<path d="M17.8346 4.67997V14.9304C17.8346 15.8079 17.9581 16.4255 18.5756 16.783C19.4011 17.264 20.8051 17.2704 21.6501 16.7959C22.2286 16.4709 22.4497 15.9574 22.4497 14.9304V5.35595C22.4497 4.92695 22.6121 4.67346 23.2166 4.67346H25.8946V14.625C25.8946 16.939 24.4386 17.8815 23.1516 18.2325C21.4421 18.7005 18.8356 18.7069 17.2236 18.2194C15.2931 17.6409 14.3896 16.497 14.3896 14.6185V5.36246C14.3896 4.91396 14.5457 4.67346 15.0592 4.67346H17.8282L17.8346 4.67997Z" fill="white"/>
<path d="M83.0109 4.67993C82.3284 4.67993 81.9449 4.99842 81.7889 5.60292L79.5919 14.8784H79.5334L77.2649 4.67993H74.1644C73.5664 4.67993 73.3779 4.98544 73.3779 5.45994V18.1284H74.6844C74.8924 18.1284 74.9834 18.0244 74.9834 17.8099V7.18892H75.1915L77.9929 18.1284H79.8259C80.5149 18.1284 80.7749 17.8424 80.9439 17.1599L83.4594 7.18892H83.6609V18.1284H86.1049C86.7029 18.1284 86.9824 17.8944 86.9824 17.3029V4.67993H82.9979H83.0109Z" fill="white"/>
<path d="M42.2683 11.9924H38.8232V18.1349H41.5468C42.0278 18.1349 42.2683 17.9919 42.2683 17.4264C42.2683 17.4264 42.2683 14.8004 42.2683 11.9924Z" fill="white"/>
<path d="M42.0674 9.36641C42.1909 9.26891 42.2559 9.19743 42.2689 8.98293V4.67993H39.5909C38.9864 4.67993 38.8174 4.97242 38.8174 5.39492V11.9079L42.0609 9.36641H42.0674Z" fill="#FB0020"/>
<path d="M30.2564 17.069C31.7514 16.8545 32.2518 15.9705 32.2518 14.6575V5.41452C32.2518 4.86202 32.5509 4.68652 32.9344 4.68652H35.6969V13.429C35.6969 15.5805 35.2418 16.666 33.9678 17.5825C33.3048 18.057 32.1478 18.603 29.6323 18.603C28.1958 18.603 27.5588 18.5185 27.4678 18.499C27.3443 18.473 27.2988 18.395 27.2988 18.291V17.16C27.8903 17.173 29.2424 17.2185 30.2499 17.0755L30.2564 17.069Z" fill="white"/>
<path d="M47.4947 4.67993C45.8112 4.67993 45.8112 5.51192 45.8112 6.53242V9.99693C45.8112 10.0684 45.7787 10.0944 45.7462 10.1269L43.3867 11.9859H45.8047V18.1284H48.5413C49.1133 18.1414 49.3732 17.9334 49.3862 17.4069V11.9924H54.4172C54.5342 11.9924 54.6122 11.9274 54.6122 11.8104V10.4519H49.3927V7.03943C49.3927 6.43493 49.6917 6.14894 50.2897 6.14894H54.7292C54.8592 6.14894 54.9047 6.07093 54.9047 5.97343V4.67993H47.5012H47.4947Z" fill="white"/>
</svg>
