<svg width="88" height="23" viewBox="0 0 88 23" fill="none" xmlns="http://www.w3.org/2000/svg">
<path d="M87.3657 0H0.986328V22.245H87.3657V0Z" fill="black"/>
<path d="M86.9359 0.430664H1.41602V21.8145H86.9359V0.430664Z" fill="white"/>
<path d="M54.2751 8.46753H58.4294C59.1456 8.46753 59.8619 9.04159 59.8619 9.90269V10.3332C59.8619 11.0508 59.2889 11.7684 58.4294 11.7684L59.8619 14.0646H58.7159L57.2834 11.7684H55.1346V14.0646H54.2751V8.46753ZM58.4294 10.7638C58.7159 10.7638 58.8591 10.4767 58.8591 10.3332V9.90269C58.8591 9.61566 58.5726 9.47216 58.4294 9.47216H55.1346V10.9073H58.4294V10.7638Z" fill="#575757"/>
<path d="M52.5562 9.32858H48.402C48.1155 9.32858 47.9722 9.61559 47.9722 9.75911V12.4859C47.9722 12.7729 48.2587 12.9165 48.402 12.9165H51.6967V11.4813H49.2615V10.6202H52.5562V13.7776H48.402C47.6857 13.7776 46.9695 13.2035 46.9695 12.3424V9.61558C46.9695 8.898 47.5425 8.18042 48.402 8.18042H52.5562V9.32858V9.32858Z" fill="#575757"/>
<path d="M61.4377 9.75913C61.4377 9.04155 62.0107 8.32397 62.8702 8.32397H65.592C66.3082 8.32397 67.0245 8.89804 67.0245 9.75913V12.4859C67.0245 13.2035 66.4515 13.9211 65.592 13.9211H62.8702C62.154 13.9211 61.4377 13.347 61.4377 12.4859V9.75913ZM65.592 13.06C65.8785 13.06 66.0217 12.773 66.0217 12.6294V9.90266C66.0217 9.61563 65.7352 9.47213 65.592 9.47213H62.8702C62.5837 9.47213 62.4405 9.75914 62.4405 9.90266V12.6294C62.4405 12.9165 62.727 13.06 62.8702 13.06H65.592Z" fill="#575757"/>
<path d="M69.4597 8.46753V12.6295C69.4597 12.9165 69.7462 13.0601 69.8895 13.0601H72.6112C72.8977 13.0601 73.041 12.773 73.041 12.6295V8.46753H73.9005V12.6295C73.9005 13.3471 73.3275 14.0646 72.468 14.0646H69.7462C69.03 14.0646 68.3137 13.4906 68.3137 12.6295V8.46753H69.4597Z" fill="#575757"/>
<path d="M75.7627 8.46753H79.9169C80.6332 8.46753 81.3494 9.04159 81.3494 9.90269V10.3332C81.3494 11.0508 80.7764 11.7684 79.9169 11.7684H76.6222V14.0646H75.7627V8.46753ZM79.9169 10.7638C80.2034 10.7638 80.3467 10.4767 80.3467 10.3332V9.90269C80.3467 9.61566 80.0602 9.47216 79.9169 9.47216H76.6222V10.9073H79.9169V10.7638Z" fill="#575757"/>
<path d="M7.71912 8.46753H6.85962V13.9211H7.71912V8.46753Z" fill="#004096"/>
<path d="M22.7603 9.75916V12.4859C22.7603 13.2035 23.3333 13.9211 24.1927 13.9211H28.347V10.7638H25.0522V11.6249H27.4875V13.06H24.1927C23.9062 13.06 23.763 12.773 23.763 12.6295V9.90268C23.763 9.61565 24.0495 9.47215 24.1927 9.47215H28.347V8.46753H24.1927C23.3333 8.46753 22.7603 9.04158 22.7603 9.75916Z" fill="#004096"/>
<path d="M30.7823 8.46753H29.9229V13.9211H30.7823V8.46753Z" fill="#004096"/>
<path d="M32.5012 9.75916V12.4859C32.5012 13.2035 33.0742 13.9211 33.9337 13.9211H38.0879V13.06H33.9337C33.6472 13.06 33.504 12.773 33.504 12.6295V9.90268C33.504 9.61565 33.7905 9.47215 33.9337 9.47215H38.0879V8.46753H33.9337C33.0742 8.46753 32.5012 9.04158 32.5012 9.75916Z" fill="#004096"/>
<path d="M43.5316 13.9211H44.5343L42.0991 8.46753H40.9531L38.5178 13.9211H39.5206L40.0936 12.4859H42.6721L43.5316 13.9211ZM40.6666 11.6249L41.6693 9.47215L42.6721 11.6249H40.6666Z" fill="#004096"/>
<path d="M12.4462 10.7638L10.2975 8.46753H9.43799V13.9211H10.2975V9.75916L12.4462 12.1989L14.4517 9.75916V13.9211H15.3112V8.46753H14.4517L12.4462 10.7638Z" fill="#004096"/>
<path d="M19.6088 8.46753H18.4628L16.0276 13.9211H17.0303L17.6033 12.4859H20.3251L20.8981 13.9211H21.9008L19.6088 8.46753ZM18.0331 11.6249L19.0358 9.47215L20.0386 11.6249H18.0331Z" fill="#004096"/>
</svg>
