<?xml version="1.0" encoding="UTF-8"?><svg id="Layer_2" xmlns="http://www.w3.org/2000/svg" viewBox="0 0 148.9 62.4"><defs><style>.cls-1{fill:#fff;}.cls-2{fill:#e60013;}.cls-3{fill:#231916;}.cls-4{fill:none;}.cls-5{fill:#0062b1;}</style></defs><g id="_ーク等"><g><g><path class="cls-4" d="M148.9,0H0V34.07c0,15.62,12.71,28.33,28.32,28.33,6.68,0,13.14-2.37,18.25-6.68h102.33V0h0Z"/><path class="cls-5" d="M1.38,1.38V34.07c0,14.86,12.09,26.95,26.95,26.95,6.79,0,12.99-2.52,17.74-6.68h101.47V1.38H1.38Z"/><path class="cls-1" d="M52.52,34.07c0,13.36-10.84,24.2-24.2,24.2S4.13,47.44,4.13,34.07V4.13H52.52v29.95Z"/><g><path class="cls-3" d="M6.62,30.55v-1.12H23.59V6.57h26.57V30.55c0,1.25,0,2.5-.03,3.75-.04,1.25-.13,2.49-.34,3.73-.42,2.49-1.28,4.84-2.55,7.02-3.89,6.73-11.08,10.85-18.84,10.83-7.77,.02-14.95-4.1-18.84-10.83-1.26-2.18-2.12-4.54-2.55-7.02-.21-1.24-.3-2.48-.34-3.73-.04-1.25-.03-2.5-.03-3.75Z"/><circle class="cls-1" cx="28.39" cy="34.09" r="6.7"/><circle class="cls-2" cx="37.86" cy="43.56" r="6.7"/></g></g><g><path class="cls-1" d="M63.93,16.04l1.2,4.6c.17,.66,.24,.98,.32,1.45,.08-.48,.18-.95,.33-1.49l1.24-4.56h2.35l.82,9.19h-1.81l-.35-4.9c-.04-.58-.07-1.04-.07-1.53-.1,.53-.18,.86-.34,1.41l-1.45,5.02h-1.57l-1.31-4.83c-.12-.45-.28-1.1-.37-1.63,0,.54-.03,1.08-.07,1.65l-.32,4.8h-1.84l.86-9.19h2.37Z"/><path class="cls-1" d="M77.39,16.04l-.24,1.51h-3.15v2.13h2.63v1.5h-2.6v2.46h3.48v1.59h-5.36v-9.19h5.24Z"/><path class="cls-1" d="M81.17,16.04v9.19h-1.93v-9.19h1.93Z"/><path class="cls-1" d="M85.23,16.04v7.4c0,1.19-.04,1.43-.13,1.8-.26,1.12-1.31,1.84-2.14,2.16l-.86-.95c.47-.29,.91-.74,1.07-1.11,.15-.33,.19-.7,.19-1.69v-7.6h1.88Z"/><path class="cls-1" d="M89.36,16.04v9.19h-1.93v-9.19h1.93Z"/><path class="cls-1" d="M94.33,16.04l1.18,2.51c.24,.5,.36,.83,.46,1.17,.11-.26,.29-.71,.49-1.15l1.19-2.54h2.18l-2.94,5.41v3.78h-1.93v-3.78l-2.86-5.41h2.22Z"/><path class="cls-1" d="M101.87,21.51c.2-.61,.32-1.04,.49-1.7,.17-.69,.44-1.77,.44-1.77,0,0,.28,1.2,.37,1.63,.2,.89,.5,1.85,.5,1.85h-1.8Zm0-5.5l-3.02,9.22h1.93l.65-2.18h2.69l.65,2.18h1.98l-2.89-9.22h-1.99Z"/><path class="cls-1" d="M113.06,18.01c-.84-.5-1.46-.7-2.14-.7-.75,0-1.28,.44-1.28,1.06,0,.48,.25,.71,1.02,.93l1.11,.31c1.51,.41,2.33,1.37,2.33,2.74,0,1.86-1.51,3.09-3.8,3.09-1.04,0-2.21-.3-3.13-.83l.69-1.44c.86,.45,1.6,.74,2.53,.74,1.06,0,1.61-.43,1.61-1.25,0-.6-.38-.96-1.2-1.19l-1.02-.28c-.91-.25-1.48-.61-1.81-1.16-.25-.41-.38-.89-.38-1.4,0-1.68,1.35-2.84,3.29-2.84,1.12,0,2.26,.34,3.07,.93l-.87,1.32Z"/><path class="cls-1" d="M117.59,16.04v6.04c0,.57,.05,.9,.16,1.1,.21,.41,.65,.64,1.26,.64,.81,0,1.32-.4,1.4-1.07,.03-.2,.03-.33,.03-.82v-5.88h1.88v6.19c0,.87-.02,1.04-.15,1.44-.24,.73-1.14,1.73-3.12,1.73-1.4,0-2.43-.42-2.95-1.23-.3-.48-.4-.85-.4-1.73v-6.4h1.89Z"/><path class="cls-1" d="M126.35,17.49h.85c.73,0,1.15,.26,1.45,.77,.37,.61,.46,1.5,.46,2.57,0,1.95-.56,2.88-1.77,2.88h-.99v-6.22Zm-1.87-1.46v9.19h2.23c.54,0,.98-.03,1.33-.05,.86-.07,1.68-.57,2.23-1.32,.62-.83,.93-1.93,.93-3.19,0-1.65-.41-2.83-1.26-3.66-.55-.55-1.23-.84-2.01-.91-.37-.03-1.08-.05-1.6-.05h-1.85Z"/><path class="cls-1" d="M134.5,21.51c.2-.61,.32-1.04,.49-1.7,.17-.69,.44-1.77,.44-1.77,0,0,.28,1.2,.37,1.63,.2,.89,.5,1.85,.5,1.85h-1.8Zm-.01-5.5l-3.02,9.22h1.93l.65-2.18h2.7l.65,2.18h1.98l-2.9-9.22h-2Z"/></g><g><path class="cls-1" d="M75.9,35.11c.57-.29,.87-.81,.87-1.58s-.28-1.42-.83-1.88c-.49-.4-1.06-.6-1.7-.6h-.2c-.81,0-1.43,.16-1.85,.47-.62,.47-1,1.2-1.11,2.15v.08l1.4,.37v-.12c0-.57,.2-.97,.6-1.22,.27-.17,.62-.26,1.02-.26,.44,0,.77,.1,.98,.31,.18,.19,.28,.47,.28,.83s-.16,.64-.49,.85c-.23,.15-.47,.23-.71,.23h-.83v1.37l.11-.02c.17-.02,.36-.04,.56-.04,.64,0,1.09,.13,1.33,.38,.17,.17,.25,.39,.25,.67,0,.57-.17,.95-.52,1.15-.23,.14-.6,.21-1.12,.21-1.11,0-1.68-.57-1.74-1.74v-.14l-1.32,.63v.07c.13,.76,.36,1.35,.71,1.75,.52,.61,1.34,.92,2.42,.92s1.89-.37,2.43-1.11c.38-.51,.57-1.07,.57-1.65,0-1.07-.37-1.76-1.11-2.08Z"/><g><polygon class="cls-1" points="92.41 35.87 92.41 38.26 95.55 38.26 95.55 36.81 97.02 36.81 97.02 39.69 89.85 39.69 89.85 38.26 90.95 38.26 90.95 32.67 89.85 32.67 89.85 31.25 97.02 31.25 97.02 33.78 95.55 33.78 95.55 32.67 92.41 32.67 92.41 34.5 94.83 34.5 94.83 35.87 92.41 35.87"/><path class="cls-1" d="M114.38,33.69c-.61-.66-1.27-1.13-2.23-1.13-1.68,0-3,1.19-3,2.9s1.28,2.93,2.96,2.93c1.26,0,2.22-.72,2.61-1.81h-2.68v-1.48h4.39c0,.13,0,.2,0,.27,0,2.78-2.06,4.54-4.35,4.54-2.67,0-4.41-2.03-4.41-4.54s2.01-4.37,4.41-4.37c.89,0,1.64,.23,2.3,.71v-.46h1.49v3h-1.49v-.56Z"/><polygon class="cls-1" points="105.22 31.25 105.22 32.67 104.28 32.67 106.53 38.26 107.44 38.26 107.44 39.69 103.98 39.69 103.98 38.26 104.91 38.26 102.9 32.99 100.88 38.26 101.81 38.26 101.81 39.69 98.35 39.69 98.35 38.26 99.26 38.26 101.52 32.67 100.57 32.67 100.57 31.25 105.22 31.25"/><path class="cls-1" d="M121.94,39.95c-1.72,0-3.45-1.32-3.45-3.61v-3.66h-1.12v-1.42h3.67v1.42h-1.12v3.58c0,1.2,.86,2.17,2.02,2.17s2.02-.97,2.02-2.17v-3.58h-1.12v-1.42h3.67v1.42h-1.12v3.66c0,2.34-1.72,3.61-3.45,3.61Z"/><polygon class="cls-1" points="130.39 35.87 130.39 38.26 133.53 38.26 133.53 36.81 134.99 36.81 134.99 39.69 127.82 39.69 127.82 38.26 128.92 38.26 128.92 32.67 127.82 32.67 127.82 31.25 134.99 31.25 134.99 33.78 133.53 33.78 133.53 32.67 130.39 32.67 130.39 34.5 132.8 34.5 132.8 35.87 130.39 35.87"/><polygon class="cls-1" points="85.45 31.25 81.74 31.25 81.74 32.67 82.84 32.67 82.84 38.26 81.74 38.26 81.74 39.69 88.53 39.69 88.53 36.81 87.07 36.81 87.07 38.26 84.3 38.26 84.3 32.67 85.45 32.67 85.45 31.25"/></g><path class="cls-1" d="M64.9,38.1l-1,1.19c1.58,1.87,4.73,.82,4.73-1.91v-4.7h1.1v-1.42h-3.75v1.42h1.1v4.65c.01,1.37-1.4,1.76-2.18,.78Z"/></g></g></g></svg>