<svg width="165" height="9" viewBox="0 0 165 9" fill="none" xmlns="http://www.w3.org/2000/svg">
<path d="M5.07648 3.5356H2.92774V1.6699H5.07648C5.93597 1.6699 6.36572 1.95693 6.36572 2.53099C6.36572 3.24857 5.93597 3.5356 5.07648 3.5356ZM7.65496 4.82725C7.36846 4.54022 7.08196 4.25318 6.65222 4.25318C7.36846 3.96615 7.79821 3.39209 7.79821 2.67451C7.79821 1.81341 7.51171 1.23935 6.79546 0.952316C6.36572 0.8088 5.79272 0.665283 4.93322 0.665283H0.635742V1.81342H1.49524V6.97999H0.635742V8.12811H4.93322C5.79272 8.12811 6.50896 7.9846 6.79546 7.84108C7.65496 7.55405 8.08471 6.83647 8.08471 5.83186C8.08471 5.54483 7.94146 5.11428 7.65496 4.82725ZM5.07648 6.97999H2.92774V4.82725H4.64672C5.21972 4.82725 5.79272 4.82725 5.93597 4.97076C6.36572 5.11428 6.50897 5.40131 6.50897 5.83186C6.65222 6.69296 6.07922 6.97999 5.07648 6.97999Z" fill="black"/>
<path d="M13.5282 3.82263H11.666V1.81342H13.385C14.3877 1.81342 14.9607 2.10044 14.9607 2.81802C14.9607 3.39209 14.5309 3.82263 13.5282 3.82263ZM16.3932 6.97999V5.97537C16.3932 5.25779 16.1067 4.82725 15.6769 4.54021C15.3904 4.3967 15.2472 4.3967 14.9607 4.3967C15.9634 4.25318 16.3932 3.5356 16.3932 2.67451C16.3932 1.23935 15.3904 0.665283 13.385 0.665283H9.23071V1.81342H10.0902V6.97999H9.23071V8.12811H12.5255V6.97999H11.5227V4.97076H13.385C13.9579 4.97076 14.3877 5.11428 14.5309 5.40131C14.6742 5.54483 14.6742 5.97538 14.6742 6.54944V8.12811H16.8229V6.97999H16.3932Z" fill="black"/>
<path d="M23.9854 6.40584C23.4124 6.97991 22.8394 7.26694 21.9799 7.26694C21.2637 7.26694 20.5474 6.97991 19.9744 6.40584C19.4014 5.83178 19.1149 5.25772 19.1149 4.39662C19.1149 3.67904 19.4014 2.96146 19.9744 2.3874C20.5474 1.81333 21.1204 1.5263 21.9799 1.5263C22.6962 1.5263 23.4124 1.81333 23.9854 2.3874C24.5584 2.96146 24.8449 3.53553 24.8449 4.39662C24.8449 5.1142 24.5584 5.83178 23.9854 6.40584ZM24.9882 1.5263C24.2719 0.808721 23.2692 0.378174 21.9799 0.378174C20.8339 0.378174 19.8312 0.808721 18.9717 1.5263C18.1122 2.24388 17.8257 3.24849 17.8257 4.39662C17.8257 5.54475 18.2554 6.54936 18.9717 7.26694C19.8312 7.98452 20.6907 8.41507 21.9799 8.41507C23.1259 8.41507 24.1287 7.98452 24.9882 7.26694C25.8476 6.54936 26.1341 5.54475 26.1341 4.39662C26.1341 3.24849 25.8476 2.24388 24.9882 1.5263Z" fill="black"/>
<path d="M31.1478 1.81338L32.1506 4.6837H30.1451L31.1478 1.81338ZM34.5858 6.97995L32.5803 1.66986H33.4398V0.521729H28.7126V1.66986H29.7153L27.8531 6.97995H26.8503V8.12808H30.0018V6.97995H29.2856L29.7153 5.68831H32.5803L33.0101 6.97995H32.1506V8.12808H35.3021V6.97995H34.5858Z" fill="black"/>
<path d="M41.7484 6.69292C41.3186 6.97995 40.7456 6.97995 40.0294 6.97995H39.0266V1.66986H40.0294C40.6024 1.66986 41.1754 1.81337 41.4619 1.95689C42.3214 2.38744 42.7511 3.10502 42.7511 4.39667C42.8943 5.54479 42.4646 6.26237 41.7484 6.69292ZM42.7511 1.23931C42.1781 0.808761 41.3186 0.521729 40.3159 0.521729H36.7346V1.66986H37.5941V6.97995H36.7346V8.12808H40.0294C41.1754 8.12808 42.0348 7.98457 42.6078 7.69754C43.7538 7.12347 44.4701 5.97534 44.4701 4.25315C44.3268 2.9615 43.7538 1.81337 42.7511 1.23931Z" fill="black"/>
<path d="M52.2055 5.25776L53.3514 5.83183C52.7784 7.55402 51.4892 8.41512 49.627 8.41512C48.3377 8.41512 47.335 7.98457 46.6187 7.26699C45.9025 6.54941 45.616 5.54479 45.616 4.54018C45.616 3.39205 46.0457 2.53095 46.6187 1.66986C47.335 0.952276 48.3377 0.521729 49.627 0.521729C50.6297 0.521729 51.4892 0.808759 52.2055 1.38282V0.665242H53.3514V3.53556H52.2055C52.0622 2.9615 51.7757 2.53096 51.3459 2.24392C50.9162 1.95689 50.3432 1.81338 49.7702 1.81338C48.9107 1.81338 48.3377 2.10041 47.7647 2.67447C47.335 3.24853 47.0485 3.8226 47.0485 4.6837C47.0485 5.40128 47.335 6.11886 47.7647 6.69292C48.3377 7.26699 48.9107 7.55402 49.627 7.55402C50.2 7.55402 50.773 7.4105 51.2027 6.97995C51.6324 6.26237 52.0622 5.83182 52.2055 5.25776Z" fill="black"/>
<path d="M58.3654 1.81338L59.3681 4.6837H57.3626L58.3654 1.81338ZM61.8033 6.97995L59.7979 1.66986H60.6573V0.521729H55.9301V1.66986H56.9329L55.0706 6.97995H54.0679V8.12808H57.2194V6.97995H56.5031L56.9329 5.68831H59.7979L60.2276 6.97995H59.5114V8.12808H62.5196V6.97995H61.8033Z" fill="black"/>
<path d="M70.3983 5.97534C70.3983 7.55402 69.3956 8.41512 67.5333 8.41512C66.9603 8.41512 66.3873 8.2716 65.9576 8.12808C65.6711 7.98457 65.3846 7.84105 65.0981 7.55402V8.2716H63.8088V5.54479H65.0981C65.0981 6.11886 65.3846 6.54941 65.8143 6.83644C66.2441 7.12347 66.8171 7.26699 67.3901 7.26699C67.8198 7.26699 68.1063 7.12347 68.3928 6.97995C68.6793 6.83644 68.9658 6.54941 68.9658 6.11886C68.9658 5.83183 68.8226 5.5448 68.5361 5.40128C68.2496 5.25776 67.8198 5.11424 67.2468 4.97073C66.1008 4.68369 65.3846 4.54018 64.9548 4.39666C64.0953 3.96612 63.8088 3.39205 63.8088 2.53096C63.8088 1.95689 63.9521 1.52634 64.3818 1.23931C64.8116 0.808761 65.5278 0.521729 66.5306 0.521729C66.9603 0.521729 67.3901 0.521726 67.6766 0.665242C68.1063 0.808759 68.5361 0.952277 68.6793 1.23931V0.521729H69.9685V2.81798H68.6793C68.6793 2.53095 68.5361 2.24392 68.2496 2.1004C67.8198 1.81337 67.3901 1.66986 66.6738 1.66986C65.6711 1.66986 65.2413 1.95689 65.2413 2.53096C65.2413 2.81799 65.3846 3.10502 65.8143 3.24854C66.1008 3.39205 66.6738 3.53557 67.3901 3.67908C68.3928 3.8226 69.1091 4.10963 69.5388 4.39666C70.1118 4.6837 70.3983 5.25776 70.3983 5.97534Z" fill="black"/>
<path d="M78.7067 0.521729V3.24854H77.2742V1.66986H75.8417V6.97995H76.9877V8.12808H73.1199V6.97995H74.2659V1.66986H72.8334V3.24854H71.5442V0.521729H78.7067Z" fill="black"/>
<path d="M83.2906 6.97995V8.12808H79.9958V6.97995H80.9986V1.66986H79.9958V0.521729H83.2906V1.66986H82.2878V6.97995H83.2906Z" fill="black"/>
<path d="M92.745 0.521729V1.66986H91.8855V8.12808H90.3098L86.8718 2.81798V6.97995H87.7313V8.12808H84.5798V6.97995H85.5826V1.66986H84.5798V0.521729H87.0151L90.5963 5.97534V1.66986H89.5936V0.521729H92.745Z" fill="black"/>
<path d="M101.197 4.25318C101.197 5.25779 100.91 6.11889 100.481 6.83647C99.7643 7.84108 98.7615 8.41515 97.329 8.41515C95.8965 8.41515 94.8938 7.9846 94.1775 7.1235C93.4613 6.40592 93.1748 5.54483 93.1748 4.54021C93.1748 3.39209 93.6045 2.38748 94.3208 1.6699C95.037 0.952316 96.0398 0.665283 97.1858 0.665283C98.3318 0.665283 99.048 0.952318 99.621 1.52638V0.808802H100.767V3.39209H99.621C99.621 3.39209 99.621 3.39209 99.621 3.24857C99.621 2.96154 99.3345 2.67451 98.9048 2.38748C98.475 1.95693 97.902 1.81342 97.1858 1.81342H97.0425C96.3263 1.81342 95.7533 2.10045 95.3235 2.53099C94.7505 3.10506 94.4641 3.67912 94.4641 4.54021C94.4641 5.40131 94.7505 6.11889 95.3235 6.69295C95.8965 7.26702 96.4695 7.41053 97.1858 7.41053C97.902 7.41053 98.475 7.1235 99.048 6.69295C99.4778 6.26241 99.7643 5.83186 99.7643 5.40131H97.329V4.10967L101.197 4.25318C101.197 4.10967 101.197 4.25318 101.197 4.25318Z" fill="black"/>
<path d="M110.508 4.10963H108.646V1.81338H110.651C111.081 1.81338 111.367 1.95689 111.654 2.1004C111.94 2.24392 112.084 2.53096 112.084 2.9615C112.084 3.67908 111.654 4.10963 110.508 4.10963ZM112.513 0.952276C112.084 0.665244 111.367 0.521729 110.508 0.521729H106.354V1.66986H107.213V6.97995H106.354V8.12808H109.648V6.97995H108.646V5.25776H110.508C112.513 5.25776 113.516 4.39666 113.516 2.81798C113.516 1.95689 113.23 1.23931 112.513 0.952276Z" fill="black"/>
<path d="M117.814 1.81338L118.816 4.6837H116.811L117.814 1.81338ZM121.252 6.97995L119.246 1.66986H120.106V0.521729H115.378V1.66986H116.381L114.519 6.97995H113.516V8.12808H116.668V6.97995H115.951L116.381 5.68831H119.246L119.676 6.97995H118.816V8.12808H121.825V6.97995H121.252Z" fill="black"/>
<path d="M127.411 3.82263H125.549V1.81342H127.268C128.271 1.81342 128.844 2.10044 128.844 2.81802C128.844 3.39209 128.414 3.82263 127.411 3.82263ZM130.276 6.97999V5.97537C130.276 5.25779 129.99 4.82725 129.56 4.54021C129.274 4.3967 129.13 4.3967 128.844 4.3967C129.847 4.25318 130.276 3.67912 130.276 2.67451C130.276 1.23935 129.274 0.665283 127.268 0.665283H123.114V1.81342H123.973V6.97999H123.114V8.12811H126.409V6.97999H125.549V4.97076H127.411C127.984 4.97076 128.414 5.11428 128.557 5.40131C128.701 5.54483 128.701 5.97538 128.701 6.54944V8.12811H130.849V6.97999H130.276Z" fill="black"/>
<path d="M138.728 0.521729V3.24854H137.439V1.66986H136.006V6.97995H137.152V8.12808H133.285V6.97995H134.431V1.66986H132.998V3.24854H131.566V0.521729H138.728Z" fill="black"/>
<path d="M147.753 0.521729V1.66986H146.893V8.12808H145.318L141.88 2.81798V6.97995H142.739V8.12808H139.588V6.97995H140.59V1.66986H139.588V0.521729H142.023L145.604 5.97534V1.66986H144.601V0.521729H147.753Z" fill="black"/>
<path d="M155.488 5.83182V8.2716H148.756V6.97995H149.758V1.66986H148.756V0.521729H155.345V2.67447H154.056V1.66986H151.048V3.53556H153.483V4.6837H151.048V6.97995H154.056V5.83182H155.488Z" fill="black"/>
<path d="M160.932 3.82263H159.07V1.81342H160.789C161.791 1.81342 162.364 2.10044 162.364 2.81802C162.364 3.39209 161.934 3.82263 160.932 3.82263ZM163.797 6.97999V5.97537C163.797 5.25779 163.51 4.82725 163.08 4.54021C162.794 4.3967 162.651 4.3967 162.364 4.3967C163.367 4.25318 163.797 3.67912 163.797 2.67451C163.797 1.23935 162.794 0.665283 160.789 0.665283H156.634V1.81342H157.494V6.97999H156.634V8.12811H159.929V6.97999H158.926V4.97076H160.789C161.362 4.97076 161.791 5.11428 161.934 5.40131C162.078 5.54483 162.078 5.97538 162.078 6.54944V8.12811H164.226V6.97999H163.797Z" fill="black"/>
</svg>
