<svg width="162" height="6" viewBox="0 0 162 6" fill="none" xmlns="http://www.w3.org/2000/svg">
<path d="M0.641115 4.59258L0.0681152 5.31016C1.07086 6.45828 3.07636 5.88419 3.07636 4.162V1.14817H3.7926V0.287109H1.35736V1.14817H2.07361V4.162C1.93036 5.0231 1.07086 5.31016 0.641115 4.59258Z" fill="black"/>
<path d="M4.50885 4.73608H3.5061V5.59717H4.50885V4.73608Z" fill="black"/>
<path d="M12.2444 3.15741V4.73604H14.1066V3.87498H15.1094V5.59714H10.5254V4.73604H11.2416V1.14816H10.5254V0.287109H15.1094V1.86574H14.1066V1.14816H12.2444V2.29631H13.6769V3.15741H12.2444Z" fill="black"/>
<path d="M25.9963 1.86571C25.5665 1.43516 25.1368 1.14813 24.5638 1.14813C23.561 1.14813 22.7015 1.86573 22.7015 3.01385C22.7015 4.16197 23.561 4.87953 24.5638 4.87953C25.4233 4.87953 25.9963 4.449 26.2828 3.73143H24.5638V2.72681H27.2855C27.2855 2.87032 27.2855 2.87033 27.2855 2.87033C27.2855 4.59251 25.9963 5.74063 24.5638 5.74063C22.8448 5.74063 21.842 4.449 21.842 2.87033C21.842 1.29167 23.1313 0.143555 24.5638 0.143555C25.1368 0.143555 25.5665 0.287052 25.9963 0.574082V0.287078H26.999V2.15276H25.9963V1.86571Z" fill="black"/>
<path d="M20.2662 0.287109V1.14816H19.6932L21.1257 4.73604H21.6987V5.59714H19.55V4.73604H20.123L18.8337 1.43521L17.5445 4.73604H18.1175V5.59714H15.9688V4.73604H16.5418L17.9742 1.14816H17.4012V0.287109H20.2662Z" fill="black"/>
<path d="M30.8667 5.74066C29.7207 5.74066 28.718 4.87956 28.718 3.44441V1.14816H28.0017V0.287109H30.2937V1.14816H29.5775V3.44441C29.5775 4.16199 30.1505 4.87956 30.8667 4.87956C31.5829 4.87956 32.1559 4.3055 32.1559 3.44441V1.14816H31.4397V0.287109H33.7317V1.14816H33.0154V3.44441C33.0154 5.02308 31.8694 5.74066 30.8667 5.74066Z" fill="black"/>
<path d="M36.167 3.15741V4.73604H38.1725V3.87498H39.032V5.59714H34.5913V4.73604H35.3076V1.14816H34.5913V0.287109H39.032V1.86574H38.1725V1.14816H36.167V2.29631H37.7428V3.15741H36.167Z" fill="black"/>
<path d="M7.80365 0.287109H5.36841V1.14816H6.08465V4.73604H5.36841V5.59714H9.66589V3.87498H8.80639V4.73604H7.0874V1.14816H7.80365V0.287109Z" fill="black"/>
<path d="M43.4726 2.2963L43.7592 1.29168L43.9024 1.00468C43.9024 1.00468 43.9024 1.14818 43.9024 1.4352V2.2963H44.3321V0.287109H43.7592C43.7592 0.287109 43.3294 1.57873 43.3294 1.72225L42.8996 0.287109H42.3267V2.2963H42.7564V1.4352C42.7564 1.29169 42.7564 1.00468 42.7564 1.00468L42.8996 1.29168L43.1862 2.2963H43.4726Z" fill="black"/>
<path d="M41.6104 0.287109V0.717634H41.0374V2.2963H40.6077V0.717634H40.0347V0.287109H41.6104Z" fill="black"/>
<path d="M52.7839 4.1621C52.7839 5.31023 52.0676 5.88431 50.7784 5.88431C50.3486 5.88431 50.0621 5.8843 49.7756 5.74078C49.4891 5.59727 49.3459 5.45377 49.2026 5.31025V5.74078H48.3431V3.87509H49.0594C49.0594 4.30564 49.2026 4.59264 49.6324 4.73615C49.9189 4.87967 50.3486 5.0232 50.6351 5.0232C50.9216 5.0232 51.2081 5.02319 51.3514 4.87968C51.6379 4.73616 51.6379 4.59265 51.6379 4.30562C51.6379 4.1621 51.4946 3.87509 51.3514 3.87509C51.2081 3.73157 50.9216 3.58804 50.4919 3.58804C49.7756 3.44452 49.2026 3.30102 48.9161 3.15751C48.3431 2.87048 48.0566 2.43989 48.0566 1.86583C48.0566 1.43528 48.1999 1.14827 48.4864 0.861239C48.7729 0.574207 49.3459 0.430664 49.9189 0.430664C50.2054 0.430664 50.4919 0.430673 50.7784 0.574189C51.0649 0.717705 51.3514 0.861248 51.4946 1.00476V0.574189H52.3541V2.15288H51.4946C51.4946 2.00936 51.3514 1.86585 51.2081 1.57882C50.9216 1.29179 50.4919 1.29177 50.0621 1.29177C49.3459 1.29177 49.0594 1.43528 49.0594 1.86583C49.0594 2.00934 49.2026 2.2964 49.4891 2.2964C49.6324 2.43992 50.0621 2.43989 50.6351 2.58341C51.3514 2.72692 51.7811 2.87048 52.2109 3.15751C52.4974 3.30102 52.7839 3.58803 52.7839 4.1621Z" fill="black"/>
<path d="M59.0869 1.14813H58.5139V3.44438C58.5139 4.16196 58.3706 4.73603 57.9409 5.16658C57.5112 5.59712 57.0814 5.74063 56.3652 5.74063C55.9354 5.74063 55.6489 5.5971 55.3624 5.45358C55.0759 5.31007 54.7894 5.16656 54.6462 4.87953C54.3597 4.44899 54.2164 4.01843 54.2164 3.30086V1.14813H53.3569V0.287078H55.6489V1.14813H55.0759V3.30086C55.0759 4.30546 55.5057 4.87953 56.3652 4.87953C56.9382 4.87953 57.2247 4.73603 57.3679 4.30548C57.5112 4.01845 57.5112 3.7314 57.5112 3.30086V1.00465H56.7949V0.143555H59.0869V1.14813Z" fill="black"/>
<path d="M64.8167 1.86571C64.8167 3.01383 64.1005 3.58791 62.668 3.58791H61.3787V4.73601H62.095V5.59711H59.803V4.73601H60.5192V1.00465H59.803V0.143555H62.668C63.241 0.143555 63.814 0.287043 64.1005 0.430558C64.5302 0.861103 64.8167 1.29165 64.8167 1.86571ZM63.814 2.00923C63.814 1.7222 63.6707 1.5787 63.5275 1.43518C63.3842 1.29167 63.0977 1.29166 62.8112 1.29166H61.3787V2.87033H62.668C63.3842 2.72682 63.814 2.43978 63.814 2.00923Z" fill="black"/>
<path d="M70.5467 1.86571C70.5467 3.01383 69.8304 3.58791 68.3979 3.58791H67.1087V4.73601H67.8249V5.59711H65.533V4.73601H66.2492V1.00465H65.533V0.143555H68.3979C68.9709 0.143555 69.5439 0.287043 69.8304 0.430558C70.4034 0.861103 70.5467 1.29165 70.5467 1.86571ZM69.5439 2.00923C69.5439 1.7222 69.4007 1.5787 69.2574 1.43518C69.1142 1.29167 68.8277 1.29166 68.5412 1.29166H67.1087V2.87033H68.3979C69.2574 2.72682 69.5439 2.43978 69.5439 2.00923Z" fill="black"/>
<path d="M77.1362 3.01389C77.1362 3.87498 76.8497 4.44903 76.2767 5.02309C75.7037 5.59715 74.9874 5.74066 74.1279 5.74066C73.2684 5.74066 72.5522 5.45363 72.1224 5.02309C71.5494 4.44903 71.2629 3.87498 71.2629 3.01389C71.2629 2.1528 71.5494 1.57874 72.1224 1.00468C72.6954 0.430624 73.4117 0.287109 74.1279 0.287109C74.9874 0.287109 75.7037 0.574139 76.2767 1.00468C76.9929 1.43523 77.1362 2.1528 77.1362 3.01389ZM76.2767 3.01389C76.2767 2.43983 76.1334 2.00928 75.7037 1.57874C75.2739 1.14819 74.8442 1.00468 74.2712 1.00468C73.6982 1.00468 73.2684 1.14819 72.8387 1.57874C72.4089 2.00928 72.2657 2.43983 72.2657 3.01389C72.2657 3.58795 72.4089 4.01849 72.8387 4.44904C73.2684 4.87958 73.6982 5.02309 74.2712 5.02309C74.8442 5.02309 75.2739 4.87958 75.7037 4.44904C75.9902 4.01849 76.2767 3.58795 76.2767 3.01389Z" fill="black"/>
<path d="M83.4393 5.74066H81.8636V4.59256C81.8636 4.16201 81.8636 3.87498 81.7203 3.73146C81.5771 3.44443 81.2906 3.44441 80.8608 3.44441H79.5716V4.87956H80.2878V5.74066H77.9958V4.87956H78.5688V1.14816H77.9958V0.287109H80.8608C82.2933 0.287109 82.8663 0.717654 82.8663 1.72226C82.8663 2.43983 82.5798 2.87037 81.8636 3.01389C82.0068 3.01389 82.1501 3.01389 82.2933 3.15741C82.5798 3.30092 82.7231 3.73144 82.7231 4.16199V4.87956H83.2961V5.74066H83.4393ZM81.8636 1.86574C81.8636 1.43519 81.5771 1.14816 80.8608 1.14816H79.5716V2.58331H80.8608C81.5771 2.58331 81.8636 2.29628 81.8636 1.86574Z" fill="black"/>
<path d="M88.8826 2.29639H87.8799V1.14824H86.8771V4.87965H87.7366V5.74075H85.0149V4.87965H85.8744V1.14824H84.8716V2.29639H83.8689V0.430664H88.8826V2.29639Z" fill="black"/>
<path d="M92.0342 5.74066H89.7422V4.87956H90.4584V1.14816H89.7422V0.287109H92.0342V1.14816H91.3179V4.87956H92.0342V5.74066Z" fill="black"/>
<path d="M98.4804 1.14816H97.9074V5.74066H96.7614L94.3262 2.00926V4.87956H94.8992V5.74066H92.6072V4.87956H93.3234V1.14816H92.6072V0.287109H94.3262L96.7614 4.16199V1.14816H96.3317V0.287109H98.6236V1.14816H98.4804Z" fill="black"/>
<path d="M104.783 2.87033C104.783 3.58791 104.64 4.16195 104.21 4.73601C103.781 5.45358 103.064 5.74063 101.918 5.74063C100.916 5.74063 100.199 5.45358 99.6264 4.73601C99.1967 4.16195 98.9102 3.58791 98.9102 2.87033C98.9102 2.00924 99.1967 1.29167 99.7697 0.86113C100.343 0.430585 100.916 0.143555 101.775 0.143555C102.491 0.143555 103.064 0.287061 103.494 0.717606V0.287078H104.354V2.15276H103.494C103.494 2.15276 103.494 2.15275 103.494 2.00923C103.494 1.7222 103.351 1.5787 103.064 1.43518C102.778 1.14815 102.348 1.00465 101.775 1.00465C101.345 1.00465 100.916 1.14815 100.486 1.43518C100.056 1.86573 99.9129 2.29627 99.9129 2.87033C99.9129 3.44439 100.056 4.01845 100.486 4.30548C100.916 4.73603 101.345 4.87953 101.775 4.87953C102.348 4.87953 102.778 4.73603 103.064 4.449C103.351 4.16197 103.494 3.87494 103.494 3.58791H101.775V2.72681L104.783 2.87033Z" fill="black"/>
<path d="M113.665 4.01842C113.235 5.16655 112.376 5.74063 111.086 5.74063C110.227 5.74063 109.511 5.45359 108.938 4.87953C108.508 4.30546 108.221 3.73141 108.221 2.87032C108.221 2.15274 108.508 1.43517 108.938 0.861103C109.511 0.28704 110.084 0 110.943 0C111.659 0 112.232 0.143507 112.662 0.574054V0H113.522V2.00921H112.662C112.519 1.57866 112.376 1.29162 111.946 1.14811C111.659 0.861077 111.23 0.861103 110.943 0.861103C110.37 0.861103 109.94 1.00461 109.654 1.43516C109.367 1.86571 109.081 2.29625 109.081 2.87032C109.081 3.44438 109.224 3.87493 109.654 4.30547C109.94 4.73602 110.513 4.87953 110.943 4.87953C111.373 4.87953 111.803 4.73604 112.089 4.59252C112.376 4.30549 112.662 4.01844 112.805 3.58789L113.665 4.01842Z" fill="black"/>
<path d="M120.254 3.01389C120.254 3.87498 119.968 4.44903 119.395 5.02309C118.822 5.59715 118.106 5.74066 117.246 5.74066C116.387 5.74066 115.67 5.45363 115.241 5.02309C114.668 4.44903 114.381 3.87498 114.381 3.01389C114.381 2.1528 114.668 1.57874 115.241 1.00468C115.814 0.430624 116.53 0.287109 117.246 0.287109C118.106 0.287109 118.822 0.574139 119.395 1.00468C120.111 1.43523 120.254 2.1528 120.254 3.01389ZM119.395 3.01389C119.395 2.43983 119.252 2.00928 118.822 1.57874C118.392 1.14819 117.962 1.00468 117.389 1.00468C116.816 1.00468 116.387 1.14819 115.957 1.57874C115.527 2.00928 115.384 2.43983 115.384 3.01389C115.384 3.58795 115.527 4.01849 115.957 4.44904C116.387 4.87958 116.816 5.02309 117.389 5.02309C117.962 5.02309 118.392 4.87958 118.822 4.44904C119.108 4.01849 119.395 3.58795 119.395 3.01389Z" fill="black"/>
<path d="M128.133 5.74066H125.984V4.87956H126.557V1.14816L124.981 5.16661H124.265L122.689 1.14816V4.87956H123.263V5.74066H121.114V4.87956H121.687V1.14816H121.114V0.287109H123.406L124.695 3.44441L125.841 0.287109H128.133V1.14816H127.56V4.87956H128.133V5.74066Z" fill="black"/>
<path d="M134.149 1.86574C134.149 3.01386 133.433 3.58794 132.001 3.58794H130.711V4.87956H131.428V5.74066H129.136V4.87956H129.852V1.14816H129.136V0.287109H132.001C132.574 0.287109 133.147 0.430598 133.433 0.574113C133.863 0.861143 134.149 1.29168 134.149 1.86574ZM133.147 2.00926C133.147 1.72223 133.003 1.57873 132.86 1.43521C132.717 1.2917 132.43 1.29169 132.144 1.29169H130.711V2.87036H132.001C132.717 2.72685 133.147 2.43981 133.147 2.00926Z" fill="black"/>
<path d="M140.309 5.74066H138.161V4.87956H138.734L138.447 4.01846H136.442L136.155 4.87956H136.585V5.74066H134.436V4.87956H135.152L136.442 1.14816H135.725V0.287109H139.02V1.14816H138.447L139.88 4.87956H140.453V5.74066H140.309ZM138.017 3.15741L137.301 1.14816L136.585 3.15741H138.017Z" fill="black"/>
<path d="M146.756 1.14816H146.183V5.74066H145.037L142.601 2.00926V4.87956H143.174V5.74066H140.882V4.87956H141.599V1.14816H140.882V0.287109H142.601L145.037 4.16199V1.14816H144.32V0.287109H146.612V1.14816H146.756Z" fill="black"/>
<path d="M149.907 5.74066H147.615V4.87956H148.331V1.14816H147.615V0.287109H149.907V1.14816H149.191V4.87956H149.907V5.74066Z" fill="black"/>
<path d="M155.494 5.74066H150.767V4.87956H151.483V1.14816H150.767V0.287109H155.351V1.86574H154.491V1.14816H152.342V2.43983H154.061V3.30089H152.342V4.87956H154.491V4.01846H155.351V5.74066H155.494Z" fill="black"/>
<path d="M161.224 4.1621C161.224 5.31023 160.507 5.88431 159.218 5.88431C158.788 5.88431 158.502 5.8843 158.215 5.74078C157.929 5.59727 157.786 5.45377 157.642 5.31025V5.74078H156.783V3.87509H157.642C157.642 4.30564 157.786 4.59264 158.215 4.73615C158.502 4.87967 158.932 5.0232 159.218 5.0232C159.505 5.0232 159.791 5.02319 159.934 4.87968C160.221 4.73616 160.221 4.59265 160.221 4.30562C160.221 4.1621 160.078 3.87509 159.934 3.87509C159.791 3.73157 159.505 3.58804 159.075 3.58804C158.359 3.44452 157.786 3.30102 157.499 3.15751C156.926 2.87048 156.64 2.43989 156.64 1.86583C156.64 1.43528 156.783 1.14827 157.069 0.861239C157.356 0.574207 157.929 0.430664 158.502 0.430664C158.788 0.430664 159.075 0.430673 159.361 0.574189C159.648 0.717705 159.934 0.861248 160.078 1.00476V0.574189H160.937V2.15288H160.078C160.078 2.00936 159.934 1.86585 159.791 1.57882C159.505 1.29179 159.075 1.29177 158.645 1.29177C157.929 1.29177 157.642 1.43528 157.642 1.86583C157.642 2.00934 157.786 2.2964 158.072 2.2964C158.215 2.43992 158.645 2.43989 159.218 2.58341C159.934 2.72692 160.364 2.87048 160.794 3.15751C160.937 3.30102 161.224 3.58803 161.224 4.1621Z" fill="black"/>
</svg>
