<svg width="165" height="10" viewBox="0 0 165 10" fill="none" xmlns="http://www.w3.org/2000/svg">
<path d="M1.49524 7.16851L0.635742 8.17311C2.06824 9.8953 4.93323 8.8907 4.93323 6.45093V2.14545H5.93597V0.997314H2.49798V2.28896H3.50073V6.45093C3.50073 7.74257 2.21149 8.0296 1.49524 7.16851Z" fill="black"/>
<path d="M7.08196 7.31201H5.79272V8.60365H7.08196V7.31201Z" fill="black"/>
<path d="M18.1123 5.15928V7.31202H20.9773V6.02038H22.2665V8.60367H15.8203V7.31202H16.8231V2.28896H15.8203V0.997314H22.2665V3.29357H20.9773V2.28896H18.1123V4.01115H20.261V5.15928H18.1123Z" fill="black"/>
<path d="M37.8805 3.14997C37.3075 2.5759 36.7345 2.14536 35.875 2.14536C34.2993 2.14536 33.1533 3.29348 33.1533 4.72864C33.1533 6.30731 34.2993 7.31192 35.875 7.31192C37.021 7.31192 37.8805 6.59435 38.167 5.73325H35.7318V4.44161H39.7427C39.7427 4.58513 39.7427 4.58512 39.7427 4.72864C39.7427 7.31192 37.8805 8.89059 35.875 8.89059C33.4398 8.89059 31.864 7.02489 31.864 4.72864C31.864 2.5759 33.7263 0.710205 35.875 0.710205C36.7345 0.710205 37.3075 0.853712 37.8805 1.28426V0.997232H39.1697V3.72403H37.8805V3.14997Z" fill="black"/>
<path d="M29.7153 0.997314V2.28896H28.8558L30.8613 7.31202H31.7208V8.60367H28.5693V7.31202H29.4288L27.5666 2.57599L25.7044 7.31202H26.5638V8.60367H23.4124V7.31202H24.2719L26.2773 2.28896H25.4178V0.997314H29.7153Z" fill="black"/>
<path d="M44.7565 8.89069C43.1808 8.89069 41.605 7.74256 41.605 5.58982V2.28896H40.6023V0.997314H43.897V2.28896H42.8943V5.58982C42.8943 6.73794 43.6105 7.59904 44.7565 7.59904C45.7593 7.59904 46.6188 6.73794 46.6188 5.58982V2.28896H45.616V0.997314H48.9108V2.28896H47.908V5.58982C47.908 7.74256 46.3323 8.89069 44.7565 8.89069Z" fill="black"/>
<path d="M52.3489 5.15928V7.31202H55.2139V6.02038H56.5031V8.60367H50.0569V7.31202H51.0596V2.28896H50.0569V0.997314H56.5031V3.29357H55.2139V2.28896H52.3489V4.01115H54.4976V5.15928H52.3489Z" fill="black"/>
<path d="M11.8091 0.997314H8.37109V2.28896H9.37384V7.31202H8.37109V8.60367H14.5308V6.02038H13.2416V7.31202H10.8063V2.28896H11.8091V0.997314Z" fill="black"/>
<path d="M62.6628 3.86767L63.0925 2.57603L63.2358 2.14549C63.2358 2.14549 63.2358 2.43251 63.2358 2.71954V4.01118H63.952V1.14087H63.0925C63.0925 1.14087 62.3763 3.00658 62.3763 3.15009C62.3763 3.00658 61.66 1.14087 61.66 1.14087H60.8005V4.01118H61.5168V2.71954C61.5168 2.57602 61.5168 2.14549 61.5168 2.14549L61.66 2.57603L62.0898 3.86767H62.6628Z" fill="black"/>
<path d="M60.2275 0.997314V1.57138H59.368V3.86765H58.6517V1.57138H57.7922V0.997314H60.2275Z" fill="black"/>
<path d="M164.513 6.45089C164.513 8.02956 163.51 8.89066 161.648 8.89066C161.075 8.89066 160.502 8.74714 160.072 8.60363C159.786 8.46011 159.499 8.31659 159.213 8.02956V8.74714H157.924V6.02034H159.213C159.213 6.5944 159.499 7.02495 160.072 7.31198C160.502 7.59901 161.075 7.74252 161.648 7.74252C162.078 7.74252 162.364 7.59901 162.651 7.4555C162.937 7.31198 163.224 7.02495 163.224 6.5944C163.224 6.30737 163.081 6.02034 162.794 5.87682C162.508 5.7333 162.078 5.58978 161.505 5.44627C160.359 5.15924 159.643 5.01572 159.213 4.8722C158.353 4.44165 158.067 3.8676 158.067 3.0065C158.067 2.43244 158.21 2.00189 158.64 1.57134C159.07 1.14079 159.786 0.85376 160.789 0.85376C161.218 0.85376 161.648 0.853758 161.935 0.997274C162.364 1.14079 162.794 1.28431 162.937 1.57134V0.997274H164.227V3.29353H162.937C162.937 3.0065 162.794 2.71946 162.508 2.57595C162.078 2.28892 161.505 2.14541 160.932 2.14541C159.929 2.14541 159.499 2.43244 159.499 3.0065C159.499 3.29353 159.643 3.58056 160.072 3.72408C160.359 3.8676 160.932 4.01111 161.648 4.15462C162.651 4.29814 163.367 4.58517 163.797 4.8722C164.227 5.15923 164.513 5.73331 164.513 6.45089Z" fill="black"/>
<path d="M102.773 4.58522H100.91V2.28896H102.916C103.346 2.28896 103.632 2.43247 103.919 2.57599C104.205 2.7195 104.348 3.00653 104.348 3.43708C104.205 4.15466 103.775 4.58522 102.773 4.58522ZM104.635 1.42787C104.205 1.14083 103.489 0.997314 102.629 0.997314H98.4751V2.14545H99.3346V7.45554H98.4751V8.60367H101.77V7.45554H100.767V5.73335H102.629C104.635 5.73335 105.638 4.87225 105.638 3.29357C105.638 2.43247 105.351 1.7149 104.635 1.42787Z" fill="black"/>
<path d="M109.935 2.28896L110.938 5.15928H108.932L109.935 2.28896ZM113.373 7.45554L111.367 2.14545H112.227V0.997314H107.5V2.14545H108.502L106.64 7.45554H105.637V8.60367H108.789V7.45554H108.073L108.502 6.16389H111.367L111.797 7.45554H110.938V8.60367H113.946V7.45554H113.373Z" fill="black"/>
<path d="M119.533 4.29822H117.671V2.289H119.39C120.392 2.289 120.965 2.57603 120.965 3.29361C120.965 3.86767 120.536 4.29822 119.533 4.29822ZM122.398 7.45556V6.45096C122.398 5.73338 122.111 5.30283 121.682 5.0158C121.395 4.87228 121.252 4.87228 120.965 4.87228C121.968 4.72876 122.398 4.1547 122.398 3.15009C122.398 1.71493 121.395 1.14087 119.39 1.14087H115.235V2.289H116.095V7.59908H115.235V8.74721H118.53V7.59908H117.527V5.58985H119.39C119.963 5.58985 120.392 5.73338 120.536 6.02041C120.679 6.16392 120.679 6.59447 120.679 7.16854V8.74721H122.828V7.59908H122.398V7.45556Z" fill="black"/>
<path d="M130.849 0.997314V3.72412H129.56V2.14545H128.128V7.45554H129.274V8.60367H125.406V7.45554H126.552V2.14545H125.12V3.72412H123.687V0.997314H130.849Z" fill="black"/>
<path d="M139.874 0.997314V2.14545H139.015V8.60367H137.439L134.001 3.29357V7.45554H134.86V8.60367H131.709V7.45554H132.712V2.14545H131.709V0.997314H134.144L137.725 6.45093V2.14545H136.723V0.997314H139.874Z" fill="black"/>
<path d="M147.61 6.3074V8.74718H140.877V7.59905H141.88V2.28896H140.877V0.997314H147.466V3.15005H146.177V2.14545H143.169V4.01115H145.604V5.15928H143.169V7.31202H146.177V6.16389H147.61V6.3074Z" fill="black"/>
<path d="M153.053 4.29822H151.334V2.289H153.053C154.056 2.289 154.629 2.57603 154.629 3.29361C154.629 3.86767 154.056 4.29822 153.053 4.29822ZM155.918 7.45556V6.45096C155.918 5.73338 155.632 5.30283 155.202 5.0158C154.915 4.87228 154.772 4.87228 154.486 4.87228C155.488 4.72876 155.918 4.1547 155.918 3.15009C155.918 1.71493 154.915 1.14087 152.91 1.14087H148.756V2.289H149.615V7.59908H148.756V8.74721H152.05V7.59908H151.334V5.58985H153.196C153.769 5.58985 154.199 5.73338 154.342 6.02041C154.486 6.16392 154.486 6.59447 154.486 7.16854V8.74721H156.634V7.59908H155.918V7.45556Z" fill="black"/>
<path d="M90.0234 4.58522H88.1611V2.28896H90.1666C90.5964 2.28896 90.8829 2.43247 91.1694 2.57599C91.4559 2.7195 91.5991 3.00653 91.5991 3.43708C91.5991 4.15466 91.0261 4.58522 90.0234 4.58522ZM92.0289 1.42787C91.5991 1.14083 90.8829 0.997314 90.0234 0.997314H85.8691V2.14545H86.7286V7.45554H85.8691V8.60367H89.1639V7.45554H88.1611V5.73335H90.0234C92.0289 5.73335 93.0316 4.87225 93.0316 3.29357C93.0316 2.43247 92.7451 1.7149 92.0289 1.42787Z" fill="black"/>
<path d="M82.8609 6.88143C82.2879 7.45549 81.7149 7.74252 80.8554 7.74252C80.1392 7.74252 79.4229 7.45549 78.8499 6.88143C78.2769 6.30736 77.9904 5.7333 77.9904 4.8722C77.9904 4.15462 78.2769 3.43705 78.8499 2.86299C79.4229 2.28892 79.9959 2.00188 80.8554 2.00188C81.5717 2.00188 82.2879 2.28892 82.8609 2.86299C83.4339 3.43705 83.7204 4.01111 83.7204 4.8722C83.7204 5.58978 83.4339 6.30736 82.8609 6.88143ZM83.8637 2.00188C83.1474 1.2843 82.1447 0.85376 80.8554 0.85376C79.7094 0.85376 78.7067 1.2843 77.8472 2.00188C76.9877 2.71946 76.7012 3.72407 76.7012 4.8722C76.7012 6.02033 77.1309 7.02494 77.8472 7.74252C78.7067 8.4601 79.5662 8.89066 80.8554 8.89066C82.0014 8.89066 83.0042 8.4601 83.8637 7.74252C84.7232 7.02494 85.0096 6.02033 85.0096 4.8722C85.0096 3.72407 84.7232 2.71946 83.8637 2.00188Z" fill="black"/>
<path d="M75.6984 0.997314V3.72412H74.4092V2.14545H72.9767V7.45554H74.1227V8.60367H70.2549V7.45554H71.4009V2.14545H69.9684V3.72412H68.6792V0.997314H75.6984Z" fill="black"/>
</svg>
