<svg width="167" height="9" viewBox="0 0 167 9" fill="none" xmlns="http://www.w3.org/2000/svg">
<path d="M1.34924 6.4583L0.489746 7.46291C1.92224 9.1851 4.78723 8.18049 4.78723 5.74072V1.43524H5.78998V0.287109H2.35199V1.57875H3.35474V5.74072C3.35474 6.88884 2.06549 7.31939 1.34924 6.4583Z" fill="black"/>
<path d="M6.93597 6.60181H5.64673V7.89345H6.93597V6.60181Z" fill="black"/>
<path d="M17.9661 4.44907V6.60181H20.8311V5.31017H22.1203V7.89346H15.6741V6.60181H16.5336V1.57875H15.6741V0.287109H22.1203V2.58337H20.8311V1.57875H17.9661V3.15743H20.1148V4.44907H17.9661Z" fill="black"/>
<path d="M37.7345 2.43977C37.1615 1.86571 36.5885 1.43516 35.729 1.43516C34.1533 1.43516 33.0073 2.58329 33.0073 4.01845C33.0073 5.59712 34.1533 6.60174 35.729 6.60174C36.875 6.60174 37.7345 5.88416 38.021 5.02306H35.5858V3.73142H39.5967C39.5967 3.87493 39.5967 3.87493 39.5967 4.01845C39.5967 6.60174 37.7345 8.18041 35.729 8.18041C33.2938 8.18041 31.718 6.3147 31.718 4.01845C31.718 1.86571 33.5803 0 35.729 0C36.5885 0 37.1615 0.143516 37.7345 0.574064V0.287032H39.167V2.87032H37.7345V2.43977Z" fill="black"/>
<path d="M29.5693 0.287109V1.57875H28.7098L30.7153 6.60181H31.5748V7.89346H28.4233V6.60181H29.2828L27.4206 1.72227L25.5583 6.60181H26.4178V7.89346H23.2664V6.60181H24.1259L26.1313 1.57875H25.2719V0.287109H29.5693Z" fill="black"/>
<path d="M44.6105 8.03697C43.0348 8.03697 41.459 6.88884 41.459 4.7361V1.57875H40.4563V0.287109H43.751V1.57875H42.7483V4.87962C42.7483 6.02775 43.4645 6.88885 44.6105 6.88885C45.6133 6.88885 46.4728 6.02775 46.4728 4.87962V1.57875H45.47V0.287109H48.7648V1.57875H47.762V4.87962C47.762 6.88884 46.1863 8.03697 44.6105 8.03697Z" fill="black"/>
<path d="M52.2029 4.44907V6.60181H55.0679V5.31017H56.3571V7.89346H49.9109V6.60181H50.9136V1.57875H49.9109V0.287109H56.3571V2.58337H55.0679V1.57875H52.2029V3.15743H54.3516V4.44907H52.2029Z" fill="black"/>
<path d="M11.6631 0.287109H8.2251V1.57875H9.22784V6.60181H8.2251V7.89346H14.3848V5.31017H13.0956V6.60181H10.6603V1.57875H11.6631V0.287109Z" fill="black"/>
<path d="M62.5168 3.15747L62.9465 1.86582L63.0898 1.43528C63.0898 1.43528 63.0898 1.72231 63.0898 2.00934V3.30098H63.806V0.430664H62.9465C62.9465 0.430664 62.2303 2.29637 62.2303 2.43989C62.2303 2.29637 61.514 0.430664 61.514 0.430664H60.6545V3.30098H61.3708V1.86582C61.3708 1.72231 61.3708 1.29176 61.3708 1.29176L61.514 1.72231L61.9438 3.01395H62.5168V3.15747Z" fill="black"/>
<path d="M60.0815 0.287109V0.861174H59.222V3.15743H58.5057V0.861174H57.6462V0.287109H60.0815Z" fill="black"/>
<path d="M112.654 3.73145H110.792V1.4352H112.797C113.227 1.4352 113.514 1.57871 113.8 1.72223C114.087 1.86575 114.23 2.15278 114.23 2.58333C114.23 3.30091 113.657 3.73145 112.654 3.73145ZM114.66 0.574103C114.23 0.287071 113.514 0.143555 112.654 0.143555H108.5V1.4352H109.359V6.74529H108.5V7.89342H111.795V6.74529H110.792V4.87958H112.654C114.66 4.87958 115.662 4.01849 115.662 2.43981C115.662 1.57871 115.376 1.00465 114.66 0.574103Z" fill="black"/>
<path d="M119.96 1.4352L120.963 4.30552H118.957L119.96 1.4352ZM123.255 6.74529L121.392 1.4352H122.252V0.143555H117.525V1.4352H118.527L116.665 6.74529H115.662V7.89342H118.814V6.74529H118.098L118.527 5.45365H121.392L121.822 6.74529H120.963V7.89342H123.971V6.74529H123.255Z" fill="black"/>
<path d="M129.558 3.4445H127.695V1.43528H129.414C130.417 1.43528 130.99 1.72231 130.99 2.43989C130.99 3.15747 130.56 3.4445 129.558 3.4445ZM132.279 6.74537V5.74076C132.279 5.02318 131.993 4.59263 131.563 4.3056C131.277 4.16208 131.133 4.16208 130.847 4.16208C131.85 4.01856 132.279 3.4445 132.279 2.43989C132.279 1.00473 131.277 0.430664 129.271 0.430664H125.117V1.43528H125.976V6.74537H125.117V7.8935H128.412V6.74537H127.409V4.59263H129.271C129.844 4.59263 130.274 4.73614 130.417 5.02318C130.56 5.16669 130.56 5.59724 130.56 6.1713V7.74998H132.709V6.74537H132.279Z" fill="black"/>
<path d="M140.874 0.143555V2.87036H139.442V1.4352H138.009V6.74529H139.155V7.89342H135.288V6.74529H136.434V1.4352H135.001V3.01387H133.712V0.143555H140.874Z" fill="black"/>
<path d="M149.899 0.143555V1.4352H149.04V7.89342H147.464L144.026 2.58333V6.60177H144.885V7.7499H141.734V6.74529H142.737V1.4352H141.734V0.143555H144.169L147.75 5.59716V1.4352H146.748V0.143555H149.899Z" fill="black"/>
<path d="M157.635 5.45365V7.89342H150.902V6.74529H151.905V1.4352H150.902V0.143555H157.491V2.29629H156.202V1.4352H153.194V3.30091H155.629V4.44903H153.194V6.60177H156.345V5.45365H157.635Z" fill="black"/>
<path d="M163.078 3.4445H161.216V1.43528H162.935C163.937 1.43528 164.51 1.72231 164.51 2.43989C164.51 3.15747 164.081 3.4445 163.078 3.4445ZM165.943 6.74537V5.74076C165.943 5.02318 165.656 4.59263 165.227 4.3056C164.94 4.16208 164.797 4.16208 164.51 4.16208C165.513 4.01856 165.943 3.4445 165.943 2.43989C165.943 1.00473 164.94 0.430664 162.935 0.430664H158.781V1.43528H159.64V6.74537H158.781V7.8935H162.075V6.74537H161.073V4.59263H162.935C163.508 4.59263 163.937 4.73614 164.081 5.02318C164.224 5.16669 164.224 5.59724 164.224 6.1713V7.74998H166.373V6.74537H165.943Z" fill="black"/>
<path d="M75.4093 0.143555V2.87036H73.9768V1.4352H72.5443V6.74529H73.6903V7.89342H69.8226V6.74529H70.9686V1.4352H69.5361V3.01387H68.2468V0.143555H75.4093Z" fill="black"/>
<path d="M79.9932 6.74529V7.89342H76.6985V6.74529H77.7012V1.4352H76.6985V0.143555H79.9932V1.4352H78.9905V6.74529H79.9932Z" fill="black"/>
<path d="M88.0152 0.143555V2.87036H86.5827V1.4352H85.1502V6.74529H86.2962V7.89342H82.4285V6.74529H83.5745V1.4352H82.142V3.01387H80.7095V0.143555H88.0152Z" fill="black"/>
<path d="M95.6074 5.31013V7.89342H89.3044V6.74529H90.3072V1.4352H89.3044V0.143555H92.5992V1.4352H91.5964V6.74529H94.3182V5.31013H95.6074Z" fill="black"/>
<path d="M103.343 5.45365V7.89342H96.467V6.74529H97.4698V1.4352H96.467V0.143555H103.057V2.29629H101.767V1.4352H98.759V3.30091H101.194V4.44903H98.759V6.60177H101.911V5.45365H103.343Z" fill="black"/>
</svg>
