<svg width="90" height="20" viewBox="0 0 90 20" fill="none" xmlns="http://www.w3.org/2000/svg">
<path d="M1.46142 4.59258L0.888428 5.31016C1.89117 6.45828 3.89666 5.88419 3.89666 4.162V1.14821H4.6129V0.287109H2.17767V1.14821H2.89391V4.162C2.89391 5.0231 2.03442 5.16664 1.46142 4.59258Z" fill="black"/>
<path d="M5.47246 4.73608H4.46973V5.59711H5.47246V4.73608Z" fill="black"/>
<path d="M13.0645 3.15741V4.73608H15.07V3.73146H16.0728V5.59714H11.4888V4.73608H12.205V1.14821H11.4888V0.287109H16.0728V1.86578H15.07V1.14821H13.0645V2.29631H14.6403V3.15741H13.0645Z" fill="black"/>
<path d="M26.9599 1.86576C26.5301 1.43521 26.1004 1.14818 25.5274 1.14818C24.5246 1.14818 23.6652 1.86574 23.6652 3.01387C23.6652 4.162 24.5246 4.87956 25.5274 4.87956C26.3869 4.87956 26.9599 4.44903 27.2464 3.73145H25.5274V2.72682H28.2491C28.2491 2.87034 28.2491 2.87035 28.2491 2.87035C28.2491 4.59254 26.9599 5.74066 25.5274 5.74066C23.8084 5.74066 22.8057 4.44902 22.8057 2.87035C22.8057 1.29167 24.0949 0.143555 25.5274 0.143555C26.1004 0.143555 26.5301 0.287053 26.9599 0.574085V0.287079H27.9627V2.15277H26.9599V1.86576Z" fill="black"/>
<path d="M21.2299 0.287109V1.14821H20.6569L22.0894 4.73608H22.6624V5.59714H20.3704V4.73608H21.0866L19.7974 1.43521L18.5081 4.73608H19.0811V5.59714H16.9324V4.73608H17.5054L18.7946 1.14821H18.2216V0.287109H21.2299Z" fill="black"/>
<path d="M31.8303 5.74069C30.6843 5.74069 29.6816 4.87959 29.6816 3.44443V1.14821H28.9653V0.287109H31.2573V1.14821H30.5411V3.44443C30.5411 4.16201 31.1141 4.87959 31.8303 4.87959C32.5466 4.87959 33.1196 4.30553 33.1196 3.44443V1.14821H32.4033V0.287109H34.6953V1.14821H33.9791V3.44443C33.9791 5.0231 32.8331 5.74069 31.8303 5.74069Z" fill="black"/>
<path d="M37.1304 3.15741V4.73608H39.1359V3.73146H39.9954V5.59714H35.5547V4.73608H36.2709V1.14821H35.5547V0.287109H39.9954V1.86578H39.1359V1.14821H37.1304V2.29631H38.7062V3.15741H37.1304Z" fill="black"/>
<path d="M8.76702 0.287109H6.33179V1.14821H7.04803V4.73608H6.33179V5.59714H10.6293V3.73146H9.76978V4.73608H7.90753V1.14821H8.76702V0.287109Z" fill="black"/>
<path d="M44.293 2.2963L44.5795 1.29167L44.7227 1.00466C44.7227 1.00466 44.7227 1.14815 44.7227 1.29167V2.15277H45.1525V0.143555H44.5795C44.5795 0.143555 44.1497 1.4352 44.1497 1.57871C44.1497 1.4352 43.72 0.143555 43.72 0.143555H43.147V2.15277H43.5767V1.29167C43.5767 1.14815 43.5767 1.00466 43.5767 1.00466L43.72 1.29167L44.0065 2.2963H44.293Z" fill="black"/>
<path d="M42.574 0.287109V0.71764H42.001V2.29633H41.5712V0.71764H40.855V0.287109H42.574Z" fill="black"/>
<path d="M52.8879 4.30553C52.4582 4.73608 52.0284 4.87959 51.4554 4.87959C50.8824 4.87959 50.4527 4.73608 50.0229 4.30553C49.5932 3.87499 49.45 3.44444 49.45 2.87038C49.45 2.29631 49.5932 1.86577 50.0229 1.43522C50.4527 1.00467 50.8824 0.861164 51.4554 0.861164C52.0284 0.861164 52.4582 1.00467 52.8879 1.43522C53.3177 1.86577 53.4609 2.29631 53.4609 2.87038C53.3177 3.44444 53.1744 4.0185 52.8879 4.30553ZM53.4609 1.00469C52.8879 0.430625 52.1717 0.287109 51.3122 0.287109C50.4527 0.287109 49.7364 0.574141 49.1634 1.00469C48.5904 1.57875 48.304 2.15281 48.304 3.0139C48.304 3.875 48.5904 4.59257 49.1634 5.02311C49.7364 5.59718 50.4527 5.74069 51.3122 5.74069C52.1717 5.74069 52.8879 5.45366 53.4609 5.02311C54.0339 4.44905 54.3204 3.875 54.3204 3.0139C54.3204 2.15281 54.0339 1.43524 53.4609 1.00469Z" fill="black"/>
<path d="M59.4773 0.287109V1.86579H58.6178V1.14821H56.6123V2.72685H58.4745V3.58795H56.6123V5.02311H57.3286V5.88422H54.8933V5.02311H55.6096V1.29169H54.8933V0.430634H59.4773V0.287109Z" fill="black"/>
<path d="M64.9209 0.287109V1.86579H64.0614V1.14821H62.0559V2.72685H63.9182V3.58795H62.0559V5.02311H62.7722V5.88422H60.3369V5.02311H61.0532V1.29169H60.3369V0.430634H64.9209V0.287109Z" fill="black"/>
<path d="M68.0723 4.73605V5.59711H65.7803V4.73605H66.4965V1.00465H65.7803V0.143555H68.0723V1.00465H67.356V4.73605H68.0723Z" fill="black"/>
<path d="M73.6591 3.58789L74.3754 4.01847C73.9456 5.16659 73.0861 5.74063 71.7969 5.74063C70.9374 5.74063 70.2211 5.45359 69.6481 4.87953C69.0751 4.30546 68.9319 3.73141 68.9319 2.87032C68.9319 2.15274 69.2184 1.43517 69.6481 0.861103C70.2211 0.28704 70.7941 0 71.6536 0C72.3699 0 72.9429 0.143507 73.3726 0.574054V0H74.2321V2.00921H73.3726C73.2294 1.57866 73.0861 1.29167 72.6564 1.14815C72.3699 0.861121 71.9401 0.861103 71.6536 0.861103C71.0806 0.861103 70.6509 1.00461 70.2211 1.43516C69.9346 1.86571 69.6481 2.29625 69.6481 2.87032C69.6481 3.44438 69.7914 3.87493 70.2211 4.30547C70.5076 4.73602 71.0806 4.87953 71.5104 4.87953C71.9401 4.87953 72.3699 4.73604 72.6564 4.59252C73.2294 4.30549 73.5159 4.01844 73.6591 3.58789Z" fill="black"/>
<path d="M77.5268 4.73605V5.59711H75.2349V4.73605H75.9511V1.00465H75.2349V0.143555H77.5268V1.00465H76.8106V4.73605H77.5268Z" fill="black"/>
<path d="M81.3945 1.14821L82.1107 3.15743H80.6782L81.3945 1.14821ZM83.8297 4.87959L82.3972 1.14821H82.9702V0.287109H79.6755V1.14821H80.3917L79.1025 4.87959H78.3862V5.74069H80.535V4.87959H80.1052L80.3917 4.01853H82.3972L82.6837 4.87959H82.1107V5.74069H84.2594V4.87959H83.8297Z" fill="black"/>
<path d="M89.7029 3.875V5.74069H85.2622V4.87959H85.9785V1.14821H85.2622V0.287109H87.5542V1.14821H86.8379V4.87959H88.7002V3.875H89.7029Z" fill="black"/>
<path d="M19.5108 9.18479H18.5081V8.03667H17.5054V11.7681H18.3648V12.6292H15.7864V11.7681H16.6459V8.03667H15.6431V9.18479H14.6404V7.31909H19.5108V9.18479Z" fill="black"/>
<path d="M25.0976 12.6294H20.3704V11.7683H21.0866V8.03689H20.3704V7.17578H24.9543V8.75447H24.0948V8.03689H22.0893V9.32853H23.8083V10.1896H22.0893V11.7683H24.2381V10.9072H25.0976V12.6294Z" fill="black"/>
<path d="M31.4005 10.9071C30.9708 12.0552 30.1113 12.6293 28.822 12.6293C27.9625 12.6293 27.2463 12.3423 26.6733 11.7682C26.2435 11.1941 25.957 10.6201 25.957 9.75899C25.957 9.04141 26.2435 8.32379 26.6733 7.74973C27.2463 7.17567 27.8193 6.88867 28.6788 6.88867C29.395 6.88867 29.968 7.03218 30.3978 7.46273V6.88867H31.2573V8.89788H30.3978C30.2545 8.46734 30.1113 8.1803 29.6815 8.03678C29.395 7.74975 28.9653 7.74973 28.6788 7.74973C28.1058 7.74973 27.676 7.89328 27.3895 8.32383C27.103 8.75438 26.8165 9.18492 26.8165 9.75899C26.8165 10.3331 26.9598 10.7636 27.3895 11.1941C27.676 11.6247 28.249 11.7682 28.6788 11.7682C29.1085 11.7682 29.5383 11.6247 29.8248 11.4812C30.1113 11.1941 30.3978 10.9071 30.541 10.4766L31.4005 10.9071Z" fill="black"/>
<path d="M37.8467 12.6294H35.5547V11.7683H36.1277V10.3332H33.8357V11.7683H34.4087V12.6294H32.1167V11.7683H32.8329V8.03689H32.1167V7.17578H34.4087V8.03689H33.8357V9.47205H36.1277V8.03689H35.5547V7.17578H37.8467V8.03689H37.1304V11.7683H37.8467V12.6294Z" fill="black"/>
<path d="M44.2929 8.03689H43.7199V12.6294H42.5739L40.1387 8.89799V11.7683H40.7117V12.6294H38.4197V11.7683H39.1359V8.03689H38.4197V7.17578H40.1387L42.5739 11.0507V8.03689H42.1442V7.17578H44.4362V8.03689H44.2929Z" fill="black"/>
<path d="M50.7393 9.90258C50.7393 10.7637 50.4528 11.3378 49.8798 11.9118C49.3068 12.4859 48.5905 12.6294 47.8743 12.6294C47.0148 12.6294 46.2985 12.3424 45.8688 11.9118C45.2958 11.3378 45.0093 10.7637 45.0093 9.90258C45.0093 9.04148 45.2958 8.46743 45.8688 7.89336C46.4418 7.3193 47.158 7.17578 47.8743 7.17578C48.7338 7.17578 49.45 7.46281 49.8798 7.89336C50.4528 8.32391 50.7393 9.04148 50.7393 9.90258ZM49.7365 9.90258C49.7365 9.32852 49.5933 8.89797 49.1635 8.46742C48.7338 8.03687 48.304 7.89336 47.731 7.89336C47.158 7.89336 46.7283 8.03687 46.2985 8.46742C45.8688 8.89797 45.7255 9.32852 45.7255 9.90258C45.7255 10.4766 45.8688 10.9072 46.2985 11.3377C46.7283 11.7683 47.158 11.9118 47.731 11.9118C48.304 11.9118 48.7338 11.7683 49.1635 11.3377C49.5933 10.9072 49.7365 10.4766 49.7365 9.90258Z" fill="black"/>
<path d="M56.0394 12.6294H51.5986V11.7683H52.3149V8.03689H51.5986V7.17578H53.8906V8.03689H53.1744V11.7683H55.0366V10.7637H55.8961V12.6294H56.0394Z" fill="black"/>
<path d="M62.6289 9.90258C62.6289 10.7637 62.3424 11.3378 61.7694 11.9118C61.1964 12.4859 60.4802 12.6294 59.7639 12.6294C58.9044 12.6294 58.1882 12.3424 57.7584 11.9118C57.1854 11.3378 56.8989 10.7637 56.8989 9.90258C56.8989 9.04148 57.1854 8.46743 57.7584 7.89336C58.3314 7.3193 59.0477 7.17578 59.7639 7.17578C60.6234 7.17578 61.3397 7.46281 61.7694 7.89336C62.3424 8.32391 62.6289 9.04148 62.6289 9.90258ZM61.6262 9.90258C61.6262 9.32852 61.4829 8.89797 61.0532 8.46742C60.6234 8.03687 60.1937 7.89336 59.6207 7.89336C59.0477 7.89336 58.6179 8.03687 58.1882 8.46742C57.7584 8.89797 57.6152 9.32852 57.6152 9.90258C57.6152 10.4766 57.7584 10.9072 58.1882 11.3377C58.6179 11.7683 59.0477 11.9118 59.6207 11.9118C60.1937 11.9118 60.6234 11.7683 61.0532 11.3377C61.4829 10.9072 61.6262 10.4766 61.6262 9.90258Z" fill="black"/>
<path d="M69.2183 9.75907C69.2183 10.4767 69.075 11.0507 68.6453 11.6248C68.2155 12.3423 67.4993 12.6294 66.4965 12.6294C65.4938 12.6294 64.7775 12.3423 64.2045 11.6248C63.7748 11.0507 63.4883 10.4767 63.4883 9.75907C63.4883 8.89797 63.7748 8.18036 64.3478 7.74981C64.9208 7.31926 65.4938 7.03223 66.3533 7.03223C67.0695 7.03223 67.6425 7.17578 68.0723 7.60633V7.17575H68.9318V9.04149H68.0723C68.0723 9.04149 68.0723 9.04148 68.0723 8.89796C68.0723 8.61093 67.929 8.46742 67.6425 8.32391C67.356 8.03688 66.9263 7.89333 66.3533 7.89333C65.9235 7.89333 65.4938 8.03688 65.064 8.32391C64.6343 8.75446 64.491 9.185 64.491 9.75907C64.491 10.3331 64.6343 10.9072 65.064 11.1942C65.4938 11.4813 65.9235 11.7683 66.3533 11.7683C66.9263 11.7683 67.356 11.6247 67.6425 11.3377C67.929 11.0507 68.0723 10.7637 68.0723 10.4767H66.3533V9.61555L69.2183 9.75907Z" fill="black"/>
<path d="M75.9511 8.03689H75.3781L73.5159 10.6202V11.7683H74.5186V12.6294H71.6536V11.7683H72.6564V10.6202L70.6509 8.03689H70.0779V7.17578H72.6564V8.03689H72.0834L73.2294 9.7591L74.3754 8.03689H73.6591V7.17578H76.0944V8.03689H75.9511Z" fill="black"/>
<path d="M29.6815 15.4998C29.6815 16.6479 28.9652 17.222 27.5327 17.222H26.2435V18.3701H26.9597V19.2312H24.6677V18.3701H25.384V14.6387H24.6677V13.7776H27.5327C28.1057 13.7776 28.6787 13.9211 28.9652 14.0646C29.395 14.4952 29.6815 14.9257 29.6815 15.4998ZM28.6787 15.6433C28.6787 15.3563 28.5354 15.2127 28.3922 15.0692C28.2489 14.9257 27.9625 14.9257 27.676 14.9257H26.2435V16.5044H27.5327C28.249 16.5044 28.6787 16.2174 28.6787 15.6433Z" fill="black"/>
<path d="M35.6979 19.3748H33.5492V18.5136H34.1222L33.8357 17.6526H31.8302L31.5437 18.5136H31.9734V19.3748H29.8247V18.5136H30.541L31.8302 14.7823H31.114V13.9211H34.4087V14.7823H33.8357L35.2682 18.5136H35.8412V19.3748H35.6979ZM33.5492 16.7915L32.833 14.7823L32.1167 16.7915H33.5492Z" fill="black"/>
<path d="M42.0008 19.3748H40.4251V18.2266C40.4251 17.7961 40.4251 17.509 40.2818 17.3655C40.1386 17.0785 39.8521 17.0785 39.4224 17.0785H38.1331V18.5136H38.8493V19.3748H36.5574V18.5136H37.1304V14.7823H36.5574V13.9211H39.4224C40.8548 13.9211 41.4278 14.3517 41.4278 15.3563C41.4278 16.0739 41.1413 16.5044 40.4251 16.6479C40.5683 16.6479 40.7116 16.648 40.8548 16.7915C41.1413 16.935 41.2846 17.3655 41.2846 17.7961V18.5136H41.8576V19.3748H42.0008ZM40.5683 15.4998C40.5683 15.0693 40.2818 14.7823 39.5656 14.7823H38.2764V16.2174H39.5656C40.2818 16.2174 40.5683 16.0739 40.5683 15.4998Z" fill="black"/>
<path d="M47.5875 15.9304H46.5848V14.7823H45.582V18.5137H46.4415V19.3748H43.863V18.5137H44.7225V14.7823H43.7198V15.9304H42.717V14.0647H47.5875V15.9304Z" fill="black"/>
<path d="M54.0339 14.7823H53.4609V19.3748H52.3149L49.8796 15.6433V18.5136H50.4526V19.3748H48.1606V18.5136H48.8769V14.7823H48.1606V13.9211H49.8796L52.3149 17.7961V14.7823H51.5986V13.9211H53.8906V14.7823H54.0339Z" fill="black"/>
<path d="M59.6205 19.3748H54.8933V18.5136H55.6096V14.7823H54.8933V13.9211H59.4773V15.4998H58.6178V14.7823H56.4691V16.0739H58.1881V16.935H56.4691V18.5136H58.6178V17.6526H59.4773V19.3748H59.6205Z" fill="black"/>
<path d="M65.9235 19.3748H64.3478V18.2266C64.3478 17.7961 64.3478 17.509 64.2045 17.3655C64.0613 17.0785 63.7748 17.0785 63.345 17.0785H62.199V18.5136H62.9153V19.3748H60.6233V18.5136H61.1963V14.7823H60.6233V13.9211H63.4883C64.9208 13.9211 65.4938 14.3517 65.4938 15.3563C65.4938 16.0739 65.2073 16.5044 64.491 16.6479C64.6343 16.6479 64.7775 16.648 64.9208 16.7915C65.2073 16.935 65.3505 17.3655 65.3505 17.7961V18.5136H65.9235V19.3748ZM64.491 15.4998C64.491 15.0693 64.2045 14.7823 63.4883 14.7823H62.199V16.2174H63.4883C64.0613 16.2174 64.491 16.0739 64.491 15.4998Z" fill="black"/>
</svg>
