<svg width="87" height="23" viewBox="0 0 87 23" fill="none" xmlns="http://www.w3.org/2000/svg">
<path d="M86.3794 0H0V22.245H86.3794V0Z" fill="#B60014"/>
<path d="M85.9496 0.430664H0.429688V21.8145H85.9496V0.430664Z" fill="#B60014"/>
<path d="M18.4791 17.0786C17.4763 16.7916 16.6168 16.361 15.7573 15.4999C14.7546 14.4953 11.3166 10.4768 11.3166 10.4768L16.7601 5.31025H13.8951L8.88136 10.1898C8.59486 10.3333 8.59486 10.4768 8.45161 10.6204C8.45161 10.4768 8.45161 10.3333 8.45161 10.0463V6.17136C8.45161 5.59729 8.02186 5.16675 7.44887 5.16675H4.87038C4.72713 5.16675 4.72713 5.31025 4.87038 5.31025C5.30012 5.45377 5.58662 5.7408 5.58662 6.45838V17.0786H8.45161V11.625C8.45161 11.4815 8.45161 11.3379 8.45161 11.1944C8.59486 11.3379 8.73811 11.4814 8.88136 11.7685C8.88136 11.7685 11.8896 15.3564 12.3193 15.6434C13.6086 16.9351 15.4708 17.5091 18.4791 17.2221C18.6223 17.2221 18.6223 17.0786 18.4791 17.0786Z" fill="white"/>
<path d="M24.0659 4.73608C20.0549 4.73608 17.0466 7.6064 17.0466 11.1943C17.0466 14.7822 19.7684 17.6525 24.0659 17.6525C28.0768 17.6525 31.0851 14.7822 31.0851 11.1943C31.0851 7.6064 28.3633 4.73608 24.0659 4.73608ZM24.0659 16.3609C21.6306 16.3609 20.3414 14.0646 20.3414 11.3378C20.3414 8.18048 21.7739 6.02772 24.0659 6.02772C26.5011 6.02772 27.7903 8.32398 27.7903 11.0508C27.7903 14.2081 26.5011 16.3609 24.0659 16.3609Z" fill="white"/>
<path d="M75.3491 17.0786L73.6301 6.17136C73.4868 5.59729 73.0571 5.16675 72.4841 5.16675H70.7651L67.9001 11.912C67.7568 12.199 67.6136 12.4861 67.6136 12.6296C67.6136 12.4861 67.4703 12.199 67.3271 11.912L64.7486 5.88433C64.6053 5.45378 64.1756 5.16675 63.6026 5.16675H61.0241C60.8809 5.16675 60.8809 5.31025 61.0241 5.31025C61.3106 5.45377 61.5971 5.7408 61.4539 6.45838L59.7349 17.2221H61.5971L62.7431 9.61573C62.7431 9.18519 62.8863 8.75465 62.8863 8.46762C63.0296 8.75465 63.1729 9.1852 63.3161 9.47223L66.4676 17.0786H67.4703L70.7651 9.32871C70.9083 8.89816 71.0516 8.61113 71.1948 8.3241C71.1948 8.61113 71.3381 9.04168 71.3381 9.47223L72.4841 16.9351H75.3491" fill="white"/>
<path d="M79.7899 5.16675H77.0681C76.9249 5.16675 76.9249 5.31025 77.0681 5.31025C77.4979 5.45377 77.7844 5.7408 77.7844 6.45838V17.0786H80.7926V6.02783C80.7926 5.59728 80.3629 5.16675 79.7899 5.16675Z" fill="white"/>
<path d="M42.545 5.16675V12.0555C42.545 12.3426 42.545 12.6296 42.545 12.9166C42.2585 12.6296 42.1153 12.199 41.6855 11.7685L36.5286 5.88433C36.0988 5.45378 35.8123 5.31025 35.0961 5.31025H32.5176C32.3743 5.31025 32.3743 5.45378 32.5176 5.45378C32.9473 5.59729 33.2338 5.88433 33.2338 6.60191V17.2221H35.2393V9.47223C35.2393 9.04168 35.2393 8.75465 35.2393 8.46762C35.6691 8.89817 36.0988 9.61574 36.5286 10.0463L42.6883 17.2221H43.691C44.264 17.2221 44.6938 16.7915 44.6938 16.2175V5.16675H42.545Z" fill="white"/>
<path d="M55.5807 17.0786H58.8754L53.7185 5.88433C53.5752 5.45378 53.1454 5.16675 52.5724 5.16675H50.2804C50.1372 5.16675 50.1372 5.31025 50.2804 5.31025C50.5669 5.45377 50.7102 5.88433 50.567 6.31488L45.5532 17.0786H47.702L48.9912 14.3518H54.4347L55.5807 17.0786ZM49.5642 12.9166L51.4264 8.75465C51.5697 8.61113 51.5697 8.3241 51.5697 8.3241C51.5697 8.46761 51.7129 8.61112 51.7129 8.89815L53.5752 13.0601H49.5642V12.9166Z" fill="white"/>
</svg>
