<svg id="Layer_1" data-name="Layer 1" width="240" height="240" xmlns="http://www.w3.org/2000/svg" viewBox="0 0 240 240"><defs><style>.cls-1{fill:#fff;}.cls-2{fill:#004070;}.cls-3{fill:#ec6608;}</style></defs><path class="cls-1" d="M120,200.58,57.57,153.16V80.25l.9-.68,1.61-1.28c1.72-1.43,6.82-6.92-1-16.47l-1-1.18L57.57,60V39.42H182.43V60l-.5.62-1,1.18c-7.8,9.55-2.69,15-1,16.47l1.61,1.28.84.68v72.91L120,200.58Z"/><path class="cls-2" d="M59.85,41.69V59.21l1,1.19c9.34,11.44,2.15,18.39.61,19.67l-1.56,1.28s0,70.69,0,70.69L120,197.75,180.18,152V81.33L178.58,80c-1.51-1.25-8.7-8.2.64-19.64l1-1.19V41.69Z"/><path class="cls-1" d="M62,43.83V58.45l.48.59c3.82,4.68,5.53,9.23,5.09,13.55a14.71,14.71,0,0,1-4.77,9.13l-.8.64S62,151,62,151l58,44.08L178,151V82.36l-.8-.65a14.63,14.63,0,0,1-4.77-9.12c-.44-4.32,1.27-8.87,5.09-13.55l.48-.59V43.83Z"/><path class="cls-2" d="M63.4,45.24V58l.17.2c4.07,5,5.89,9.91,5.4,14.62C68.31,79,63.41,83,63.41,83v67.24l56.62,43,56.6-43V83l-.28-.22a16.25,16.25,0,0,1-5.29-10c-.49-4.71,1.33-9.63,5.4-14.62l.17-.2V45.24Z"/><polygon class="cls-1" points="175.18 127.92 120.03 169.83 64.86 127.96 64.86 149.56 120.03 191.47 175.18 149.56 175.18 127.92"/><path class="cls-3" d="M120,46.7h55.16V57.44c-4.22,5.24-6.09,10.45-5.56,15.5a17.37,17.37,0,0,0,5.56,10.78V126.1L120,168Z"/><path class="cls-2" d="M78.92,140.54c3.23,2.46,4.07,6.28,1.29,9.94a6.94,6.94,0,0,1-10.14,1.34,6.8,6.8,0,0,1-1.26-10A7,7,0,0,1,78.92,140.54Zm-8.4,6.75a2.89,2.89,0,0,0,3.93,3.4,5.09,5.09,0,0,0,2.33-1.89c1.44-1.9,2.8-5.13.7-6.73-1.82-1.38-4-.11-5.35,1.6A9.42,9.42,0,0,0,70.52,147.29Z"/><path class="cls-2" d="M92.84,151.72l0-.05,3.61,2.73,0,0c-.63.09-1,.08-1.37.71l-4.65,7.6a4.57,4.57,0,0,0-1,3.09l0,0-4-3,0-.05a2,2,0,0,0,1.36-.79l3.8-6.13,0,0-7.36,5.62a5.65,5.65,0,0,1-.86-1.84,4.43,4.43,0,0,1,.35-2.91l1.82-5.46,0,0-4.78,5.23a1.61,1.61,0,0,0-.29,1.76l0,.05-3-2.26,0-.05c1.11-.08,1.76-.87,2.51-1.68l5.92-6.3a2.2,2.2,0,0,0,.57-1.93l0-.05,3.47,2.63,0,.05-2.5,7.94Z"/><path class="cls-2" d="M95.65,167c-.64.84-1.44,1.68-1.08,2.74l0,0-4.06-3.08,0-.05c1.12.06,1.71-.94,2.35-1.78l4.62-6.08c.64-.85,1.45-1.7,1.09-2.76l0,0,4.06,3.08,0,.05c-1.12-.06-1.72.95-2.36,1.8Z"/><path class="cls-2" d="M103.26,172.7a3.62,3.62,0,0,0-1.1,2.83l0,.05L98,172.48l0,0c1.12,0,1.73-1,2.37-1.82l1.91-2.51,1.21-6.27a3.6,3.6,0,0,0,0-2l0,0,3.5,2.65,0,0-1.17,5.18,2.25-1.22a4.07,4.07,0,0,0,1.2-.86,1.1,1.1,0,0,0,.19-1.22l0,0,2.71,2.06,0,0-7.12,3.77Z"/><path class="cls-2" d="M108.87,175.6l-1.2.83a5.39,5.39,0,0,0-1.16,1,1.43,1.43,0,0,0-.15,1.32l0,.05-3.09-2.35,0,0a5,5,0,0,0,2.47-1.08l7-4.92a9,9,0,0,0,1.32-1.05,1.46,1.46,0,0,0,.14-1.38l0-.05,3.69,2.8-3.51,10.56a5.69,5.69,0,0,0-.44,3.27l0,0h0l-4.56-3.45,0-.05a1.41,1.41,0,0,0,1.37-.53,1.82,1.82,0,0,0,.35-.71l.7-2Zm5-3.63h0l-3.43,2.45,2.05,1.56Z"/><path class="cls-2" d="M126.63,179l.51,1.36a6.09,6.09,0,0,0,.63,1.37,1.5,1.5,0,0,0,1.2.53l0,.05-2.89,2.19,0-.05a5,5,0,0,0-.45-2.61l-3-8a8.44,8.44,0,0,0-.67-1.54,1.49,1.49,0,0,0-1.26-.54l0-.05,3.46-2.62,9,6.37a5.76,5.76,0,0,0,2.94,1.36l0,0v0l-4.26,3.23,0-.05a1.42,1.42,0,0,0-.17-1.43,1.76,1.76,0,0,0-.59-.53l-1.66-1.23Zm-2.23-5.76v0l1.5,3.91,1.92-1.45Z"/><path class="cls-2" d="M138,171.81c.64.85,1.25,1.85,2.32,1.83l0,.05-3.79,2.88,0,0c.31-1-.5-1.88-1.14-2.73l-4.6-6.06c-.65-.85-1.25-1.85-2.33-1.83l0-.05,4.17-3.17a4,4,0,0,1,2.18-1.06,3.45,3.45,0,0,1,3.13,1.52,3.59,3.59,0,0,1,.28,3.85l4.14,2a9.19,9.19,0,0,0,2.84.93l-1.84,1.62a2,2,0,0,1-2.72.34l-4.33-2.31ZM132.87,165l2.79,3.68a2.57,2.57,0,0,0,0-3.23,2.27,2.27,0,0,0-1.62-.95,1.53,1.53,0,0,0-1,.39Z"/><path class="cls-2" d="M140.76,161.86c-.42-.56-1.55-2-2-2.46a1.57,1.57,0,0,0-1.15-.43l0-.05,3-2.27c1.52-1.16,2.88-2.32,4.93-2.26a7.09,7.09,0,0,1,5.29,3,7.28,7.28,0,0,1,1.53,5.47c-.38,2.16-1.85,3.15-3.43,4.35l-3.18,2.41,0,0c.3-1-.5-1.88-1.14-2.73Zm6.85,3.61a2.71,2.71,0,0,0,.86-.45,2.42,2.42,0,0,0,1-2.66,7,7,0,0,0-1.4-2.87c-1.28-1.68-3.31-3.3-5-2a6,6,0,0,0-.85.82Z"/><path class="cls-2" d="M157,157.44c.65.84,1.24,1.83,2.32,1.81l0,.05-3.79,2.88,0-.05c.31-1-.48-1.87-1.13-2.71l-4.61-6.08c-.64-.85-1.25-1.85-2.32-1.83l0,0,3.79-2.88,0,0c-.31,1,.5,1.88,1.14,2.73Z"/><path class="cls-2" d="M164.11,150.52l.5,1.37a6,6,0,0,0,.64,1.36,1.47,1.47,0,0,0,1.2.53l0,.05L163.6,156l0-.05a5.11,5.11,0,0,0-.45-2.61l-3-8a8.48,8.48,0,0,0-.68-1.54,1.46,1.46,0,0,0-1.25-.54l0-.05,3.46-2.62,9,6.37a5.71,5.71,0,0,0,3,1.36l0,0,0,0-4.26,3.23,0,0a1.4,1.4,0,0,0-.18-1.43,1.83,1.83,0,0,0-.58-.53l-1.67-1.23Zm-2.23-5.75h0l1.51,3.91,1.92-1.45Z"/><path class="cls-2" d="M154.5,149.82c-.64-.85-1.25-1.85-2.32-1.84l0,0,3.8-2.88,0,0c-.31,1,.5,1.89,1.14,2.74l4.07,5.36c1,1.33,1.39,2.15.92,3.72a6.45,6.45,0,0,1-1.72,3,9,9,0,0,0-.44-2.21,10.82,10.82,0,0,0-2-3.33Z"/><path class="cls-2" d="M168.26,92.8s-10-15.81-10.34-20.68a18.07,18.07,0,0,1,1.91-11.62s3.48-5.6,7.08-8.08c0,0-15.25-.51-26,3.09,0,0-9.26,2.57-14.21,10.32,0,0-3.91,5.36-2.35,11.75a13.36,13.36,0,0,0,8.66,8.93l0-2.79s3.86.58,5.46,1.89a4.53,4.53,0,0,1,2.2,4.63A51.26,51.26,0,0,1,145,93.83a57.43,57.43,0,0,1,9.2,11.72,24.26,24.26,0,0,1,3.07,8.7,10,10,0,0,1-.48,4s-.63-6.48-3.82-11.32a52.25,52.25,0,0,0-9.21-11.77A44.44,44.44,0,0,0,138.69,91a3.48,3.48,0,0,0,.13-2.38c-.85-2-4-2.69-4-2.69l.1,4.44s-11.06-.34-11.7,9.52c1.23,2.51,8.26,7.78,14.58,1.87a5.54,5.54,0,0,1-3.08,4.06,8.91,8.91,0,0,1-9.43-1.44,3.65,3.65,0,0,0,.28,2.9,25.11,25.11,0,0,0,11.2,3.27,31.82,31.82,0,0,1,4.82.63A15.88,15.88,0,0,1,146.2,113a5.64,5.64,0,0,1,2,2.23c-3.65-2-9.47-4.32-15.34-2.33-7.61,2.72-10.17,9.89-7.5,16.65a21.54,21.54,0,0,0,9,9.33,37.82,37.82,0,0,0-5.65,6.5,30.27,30.27,0,0,0-1.7,3.31,72.77,72.77,0,0,0,17.19-7.63s5.59-3.54,9.24-6.46c0,0,2.84-5.72,3-8.33,0,0,1.71,2.18.42,6.44,0,0,9.61-4,13.35-12.58A30,30,0,0,0,168.26,92.8Zm-36.68,4.45c-2.54.5-3.43-.39-3.43-.39.42-2.55,3.45-3.17,3.45-3.17C133.47,95.93,131.58,97.25,131.58,97.25Zm.5-26.46c.15-6.56,4.39-9.2,4.39-9.2-1.1,3.88-1.55,6-1.2,9.52.58,5.8,5,11,5,11C131.77,78.11,132.08,70.79,132.08,70.79Zm17.71,18.45a50.21,50.21,0,0,1-7.08-7.92,21.74,21.74,0,0,1-3.6-9.83,15.12,15.12,0,0,1,5.28-12.71,32.12,32.12,0,0,0-1.71,8.55,22.57,22.57,0,0,0,1.15,9,34.93,34.93,0,0,0,4.64,8.95c1.79,2.74,5.69,7.56,5.69,7.56A33.17,33.17,0,0,1,149.79,89.24Zm17.78,22a45.09,45.09,0,0,0-2.47-7.12,58,58,0,0,0-4.88-8.64c-2-2.91-4.56-6.31-4.56-6.31a74.75,74.75,0,0,1-5-7.92,26.14,26.14,0,0,1-3.42-11.19A16.23,16.23,0,0,1,153,56.62c-.56,1.92-1.2,5.35-1.2,5.35a26.15,26.15,0,0,0-.4,7.84,45.89,45.89,0,0,0,2.66,9.83A78.81,78.81,0,0,0,159.71,90a73,73,0,0,1,6.22,12A23.08,23.08,0,0,1,167.57,111.23Z"/><path class="cls-1" d="M109.13,69.54c-.13-5.71-4.75-6-4.75-6s3.59-2.88.33-7.58a7,7,0,0,0,4.38,1.41,18,18,0,0,0-10.67-7.76,7,7,0,0,0,2.69,3.74C95.64,51.68,94,55.84,94,55.84s-1.69-4.16-7.17-2.51a7,7,0,0,0,2.7-3.74,18,18,0,0,0-10.67,7.76,7,7,0,0,0,4.38-1.41c-3.26,4.7.28,7.58.28,7.58s-4.58.31-4.7,6a7,7,0,0,0-2.72-3.71c0,.37,0,.74,0,1.12a17.84,17.84,0,0,0,4.12,11.42,6.92,6.92,0,0,0,0-4.6c3.46,4.55,7.26,2.17,7.26,2.17s-1.09,4.35,4.31,6.24a6.94,6.94,0,0,0-4.37,1.43,17.89,17.89,0,0,0,13.19,0,6.94,6.94,0,0,0-4.37-1.43c5.39-1.89,4.39-6.24,4.39-6.24s3.71,2.38,7.17-2.17a7,7,0,0,0,0,4.61A17.88,17.88,0,0,0,111.88,67c0-.38,0-.75,0-1.12A6.91,6.91,0,0,0,109.13,69.54ZM99.09,74a8.52,8.52,0,0,0-10.23,0,8.47,8.47,0,0,0-3.14-9.75,8.52,8.52,0,0,0,8.26-6,8.45,8.45,0,0,0,7.69,6c.2,0,.41,0,.61,0A8.75,8.75,0,0,0,99.09,74Z"/><polygon class="cls-3" points="114.46 163.75 114.46 89.75 108.94 89.75 108.94 159.54 114.46 163.75"/><polygon class="cls-3" points="103.43 155.37 103.43 89.75 97.91 89.75 97.91 151.23 103.43 155.37"/><polygon class="cls-3" points="92.4 147.03 92.4 89.75 86.88 89.75 86.88 142.82 92.4 147.03"/><polygon class="cls-3" points="81.37 138.65 81.37 89.75 75.85 89.75 75.85 134.45 81.37 138.65"/><polygon class="cls-3" points="70.34 130.24 70.34 89.75 64.82 89.75 64.82 126.1 70.34 130.24"/></svg>
