<svg width="91" height="24" viewBox="0 0 91 24" fill="none" xmlns="http://www.w3.org/2000/svg">
<path d="M90.3889 0.280029H0V23.5435H90.3889V0.280029Z" fill="black"/>
<path d="M89.9412 0.721924H0.449219V23.0949H89.9412V0.721924Z" fill="white"/>
<path d="M31.7659 19.5201C31.7659 20.5471 30.9338 21.3791 29.9068 21.3791C28.8798 21.3791 28.0479 20.5471 28.0479 19.5201V16.0361C28.0479 13.8976 29.7769 12.1686 31.9154 12.1686H35.3214C36.1598 12.1686 36.7708 11.5641 36.7708 10.8166C36.7708 10.0691 36.1533 9.46464 35.3083 9.46464H32.4549C31.5579 9.46464 30.8299 8.73663 30.8299 7.83313C30.8299 6.92963 31.5579 6.20813 32.4549 6.20813H35.8674C38.4154 6.20813 40.4758 8.26861 40.4758 10.8166C40.4758 13.3646 38.4089 15.4251 35.8674 15.4251H32.9618C32.2078 15.4251 31.7594 15.8671 31.7594 16.6276V19.5201H31.7659Z" fill="#3264C8"/>
<path d="M28.0483 9.77665C29.1143 9.77665 29.9788 8.91217 29.9788 7.84617C29.9788 6.78017 29.1143 5.91565 28.0483 5.91565C26.9823 5.91565 26.1113 6.78017 26.1113 7.84617C26.1113 8.91217 26.9758 9.77665 28.0483 9.77665Z" fill="#3264C8"/>
<path d="M45.0389 6.30558C46.1049 6.30558 46.9694 5.4411 46.9694 4.3751C46.9694 3.3091 46.1049 2.44458 45.0389 2.44458C43.9729 2.44458 43.1084 3.3091 43.1084 4.3751C43.1084 5.4411 43.9729 6.30558 45.0389 6.30558Z" fill="#FF460F"/>
<path d="M45.5658 16.3481C45.0848 17.1996 44.0123 17.4986 43.1608 17.0176C42.3093 16.5366 42.0104 15.4641 42.4914 14.6126L46.8919 6.80609C47.3729 5.95459 48.4453 5.65561 49.2968 6.13661C50.1483 6.61761 50.4473 7.69008 49.9663 8.54158L45.5658 16.3481Z" fill="#FF460F"/>
<path d="M50.3817 21.3792C51.4477 21.3792 52.3122 20.5147 52.3122 19.4487C52.3122 18.3827 51.4477 17.5182 50.3817 17.5182C49.3157 17.5182 48.4512 18.3827 48.4512 19.4487C48.4512 20.5147 49.3157 21.3792 50.3817 21.3792Z" fill="#FFB900"/>
<path d="M62.1919 17.0502C63.3359 17.0502 64.2589 16.1272 64.2589 14.9832C64.2589 14.6387 64.1614 14.3137 63.9989 14.0277L60.2029 7.28718C59.7219 6.46168 58.8184 5.90918 57.7914 5.90918C56.7644 5.90918 55.8219 6.4942 55.3474 7.3522L51.1289 14.8142C50.6869 15.5942 50.9664 16.5822 51.7464 17.0242C52.5264 17.4662 53.5209 17.1867 53.9564 16.4067L57.8304 9.5492L60.2549 13.8652H57.5184C56.6409 13.8652 55.9324 14.5737 55.9324 15.4577C55.9324 16.3417 56.6474 17.0437 57.5184 17.0437H62.1919V17.0502Z" fill="#FFB900"/>
</svg>
