<svg width="58" height="21" viewBox="0 0 58 21" fill="none" xmlns="http://www.w3.org/2000/svg">
<path d="M16.1371 4.20544V4.28995C16.1241 5.44045 15.3831 6.01246 13.9141 6.01246C13.4851 6.01246 13.0951 5.94095 12.7506 5.79795C12.4841 5.68745 12.2761 5.55095 12.1396 5.38845V5.91495H11.1776V3.84145H12.1396C12.1396 4.25095 12.3411 4.56944 12.7376 4.80994C13.0756 5.01794 13.4591 5.11546 13.8881 5.11546C14.2001 5.11546 14.4536 5.05695 14.6551 4.94645C14.9086 4.80995 15.0386 4.59547 15.0386 4.30947C15.0386 4.09497 14.9411 3.91947 14.7461 3.78947C14.5511 3.65947 14.2326 3.55547 13.7906 3.46447C12.9391 3.28897 12.3671 3.13295 12.0876 2.99645C11.4831 2.69745 11.1776 2.22944 11.1711 1.59894V1.55347C11.1646 1.14397 11.3076 0.799455 11.6066 0.519955C11.9641 0.175455 12.5036 0.00646973 13.2186 0.00646973C13.5306 0.00646973 13.8296 0.051938 14.1221 0.136438C14.4861 0.240438 14.7526 0.396452 14.9021 0.597952V0.0909729H15.8641V1.86546H14.9021C14.8826 1.67046 14.7591 1.48195 14.5251 1.28695C14.2196 1.03995 13.8166 0.922952 13.3291 0.922952C12.6076 0.922952 12.2501 1.15044 12.2501 1.60544C12.2501 1.83294 12.3866 2.00197 12.6531 2.11897C12.8676 2.21647 13.2771 2.32697 13.8816 2.44397C14.6356 2.58697 15.1816 2.77547 15.5196 3.00947C15.9226 3.28247 16.1241 3.68544 16.1176 4.20544H16.1371Z" fill="black"/>
<path d="M22.2598 1.78747C22.2598 3.04197 21.5058 3.67245 20.0043 3.67245H18.5613V4.99196H19.3218V5.90845H16.7998V4.99196H17.5018V1.00746H16.7998V0.0844727H19.9653C20.6348 0.0844727 21.1418 0.181981 21.4928 0.376981C22.0063 0.662981 22.2598 1.13096 22.2598 1.78096V1.78747ZM21.1548 1.87197C21.1548 1.60547 21.0638 1.39095 20.8753 1.24145C20.6868 1.08545 20.4333 1.01397 20.1083 1.01397H18.5613V2.78195H20.0043C20.7713 2.78195 21.1548 2.47647 21.1548 1.87197V1.87197Z" fill="black"/>
<path d="M29.2018 2.99649C29.2018 3.89349 28.9028 4.62151 28.3048 5.16751C27.7068 5.71351 26.9593 5.99298 26.0493 5.99298C25.1393 5.99298 24.3983 5.72001 23.8003 5.16751C23.2023 4.61501 22.9033 3.89349 22.9033 2.99649C22.9033 2.09949 23.2023 1.37147 23.8003 0.825473C24.3983 0.279473 25.1523 0 26.0493 0C26.9463 0 27.7068 0.272973 28.3048 0.825473C28.9028 1.37797 29.2018 2.09949 29.2018 2.99649ZM28.1423 2.99649C28.1423 2.39849 27.9408 1.89799 27.5378 1.49499C27.1348 1.09199 26.6408 0.890497 26.0493 0.890497C25.4578 0.890497 24.9768 1.09199 24.5738 1.49499C24.1708 1.89799 23.9693 2.39849 23.9693 2.99649C23.9693 3.59449 24.1708 4.09499 24.5738 4.49799C24.9768 4.90099 25.4708 5.10248 26.0493 5.10248C26.6278 5.10248 27.1348 4.90099 27.5378 4.49799C27.9408 4.09499 28.1423 3.59449 28.1423 2.99649Z" fill="black"/>
<path d="M35.6684 5.90845H34.0109V4.66046C34.0109 4.23146 33.9654 3.94545 33.8809 3.80245C33.7379 3.56845 33.4324 3.44496 32.9644 3.44496H31.5669V4.99196H32.3273V5.90845H29.8184V4.99196H30.5139V1.00746H29.8184V0.0844727H32.9384C34.4268 0.0844727 35.1678 0.604455 35.1678 1.65096C35.1678 2.39196 34.7909 2.84045 34.0434 2.98995C34.2254 2.98995 34.4009 3.04198 34.5764 3.13948C34.9079 3.33448 35.0704 3.70495 35.0704 4.24445V4.98546H35.6684V5.90198V5.90845ZM34.0759 1.76795C34.0759 1.26095 33.6924 1.00746 32.9189 1.00746H31.5669V2.55446H32.9579C33.7054 2.55446 34.0759 2.29445 34.0759 1.76795Z" fill="black"/>
<path d="M41.4602 2.18405H40.4267V1.01405H39.3022V4.99856H40.2122V5.91504H37.3392V4.99856H38.2492V1.01405H37.1312V2.18405H36.0977V0.0910645H41.4602V2.18405V2.18405Z" fill="black"/>
<path d="M47.0959 4.20544V4.28995C47.0829 5.44045 46.3419 6.01246 44.8729 6.01246C44.4439 6.01246 44.0539 5.94095 43.7094 5.79795C43.4429 5.68745 43.2349 5.55095 43.0984 5.38845V5.91495H42.1364V3.84145H43.0984C43.0984 4.25095 43.2999 4.56944 43.6964 4.80994C44.0344 5.01794 44.4179 5.11546 44.8469 5.11546C45.1589 5.11546 45.4124 5.05695 45.6139 4.94645C45.8674 4.80995 45.9974 4.59547 45.9974 4.30947C45.9974 4.09497 45.8999 3.91947 45.7049 3.78947C45.5099 3.65947 45.1914 3.55547 44.7494 3.46447C43.8979 3.28897 43.3324 3.13295 43.0464 2.99645C42.4419 2.69745 42.1364 2.22944 42.1299 1.59894V1.55347C42.1299 1.14397 42.2664 0.799455 42.5654 0.519955C42.9229 0.175455 43.4624 0.00646973 44.1774 0.00646973C44.4894 0.00646973 44.7884 0.051938 45.0809 0.136438C45.4449 0.240438 45.7114 0.396452 45.8609 0.597952V0.0909729H46.8229V1.86546H45.8609C45.8414 1.67046 45.7179 1.48195 45.4839 1.28695C45.1784 1.03995 44.7754 0.922952 44.2879 0.922952C43.5664 0.922952 43.2089 1.15044 43.2089 1.60544C43.2089 1.83294 43.3454 2.00197 43.6119 2.11897C43.8264 2.21647 44.2359 2.32697 44.8404 2.44397C45.5944 2.58697 46.1404 2.77547 46.4784 3.00947C46.8814 3.28247 47.0829 3.68544 47.0764 4.20544H47.0959Z" fill="black"/>
<path d="M6.28908 8.96996C6.28908 10.2245 5.5351 10.855 4.0336 10.855H2.59058V12.1745H3.3511V13.091H0.829102V12.1745H1.53107V8.18996H0.829102V7.26697H3.9946C4.6641 7.26697 5.17108 7.36448 5.52208 7.55948C6.03558 7.84548 6.28908 8.31346 6.28908 8.96346V8.96996ZM5.18407 9.05447C5.18407 8.78797 5.09307 8.57345 4.90457 8.42395C4.71607 8.26795 4.46258 8.19646 4.13758 8.19646H2.59058V9.96448H4.0336C4.8006 9.96448 5.18407 9.65897 5.18407 9.05447V9.05447Z" fill="black"/>
<path d="M12.7758 13.091H11.1182V11.843C11.1182 11.414 11.0728 11.1279 10.9883 10.9849C10.8453 10.7509 10.5398 10.6275 10.0718 10.6275H8.67428V12.1745H9.43477V13.091H6.92578V12.1745H7.62125V8.18996H6.92578V7.26697H10.0458C11.5343 7.26697 12.2753 7.78695 12.2753 8.83345C12.2753 9.57445 11.8983 10.0229 11.1508 10.1724C11.3328 10.1724 11.5082 10.2245 11.6837 10.322C12.0152 10.517 12.1778 10.8875 12.1778 11.427V12.168H12.7758V13.0845V13.091ZM11.1833 8.95045C11.1833 8.44345 10.7998 8.18996 10.0263 8.18996H8.67428V9.73696H10.0653C10.8128 9.73696 11.1833 9.47695 11.1833 8.95045Z" fill="black"/>
<path d="M19.6208 10.179C19.6208 11.076 19.3218 11.804 18.7238 12.35C18.1258 12.896 17.3783 13.1755 16.4683 13.1755C15.5583 13.1755 14.8173 12.9025 14.2193 12.35C13.6213 11.7975 13.3223 11.076 13.3223 10.179C13.3223 9.28199 13.6213 8.55401 14.2193 8.00801C14.8173 7.46201 15.5713 7.1825 16.4683 7.1825C17.3653 7.1825 18.1258 7.45551 18.7238 8.00801C19.3218 8.56051 19.6208 9.28199 19.6208 10.179ZM18.5613 10.179C18.5613 9.58099 18.3598 9.08049 17.9568 8.67749C17.5538 8.27449 17.0598 8.07299 16.4683 8.07299C15.8768 8.07299 15.3958 8.27449 14.9928 8.67749C14.5898 9.08049 14.3883 9.58099 14.3883 10.179C14.3883 10.777 14.5898 11.2775 14.9928 11.6805C15.3958 12.0835 15.8898 12.285 16.4683 12.285C17.0468 12.285 17.5538 12.0835 17.9568 11.6805C18.3598 11.2775 18.5613 10.777 18.5613 10.179Z" fill="black"/>
<path d="M27.8758 13.0911H25.4968V12.1746H26.1403V8.19008L24.4243 12.5451H23.6638L21.9413 8.19008V12.1746H22.5588V13.0911H20.2383V12.1746H20.9338V8.19008H20.2383V7.26709H22.7473L24.0928 10.7186L25.3928 7.26709H27.8693V8.19008H27.1933V12.1746H27.8693V13.0911H27.8758Z" fill="black"/>
<path d="M34.779 10.179C34.779 11.076 34.48 11.804 33.882 12.35C33.284 12.896 32.5365 13.1755 31.6265 13.1755C30.7165 13.1755 29.9755 12.9025 29.3775 12.35C28.7795 11.7975 28.4805 11.076 28.4805 10.179C28.4805 9.28199 28.7795 8.55401 29.3775 8.00801C29.9755 7.46201 30.7295 7.1825 31.6265 7.1825C32.5235 7.1825 33.284 7.45551 33.882 8.00801C34.48 8.56051 34.779 9.28199 34.779 10.179ZM33.7195 10.179C33.7195 9.58099 33.518 9.08049 33.115 8.67749C32.712 8.27449 32.218 8.07299 31.6265 8.07299C31.035 8.07299 30.554 8.27449 30.151 8.67749C29.748 9.08049 29.5465 9.58099 29.5465 10.179C29.5465 10.777 29.748 11.2775 30.151 11.6805C30.554 12.0835 31.048 12.285 31.6265 12.285C32.205 12.285 32.712 12.0835 33.115 11.6805C33.518 11.2775 33.7195 10.777 33.7195 10.179Z" fill="black"/>
<path d="M40.7915 9.36654H39.7645V8.19655H38.64V12.1811H39.5501V13.0975H36.677V12.1811H37.587V8.19655H36.469V9.36654H35.4355V7.27356H40.7915V9.36654V9.36654Z" fill="black"/>
<path d="M43.9631 13.0911H41.4541V12.1745H42.1821V8.18354H41.4541V7.27356H43.9631V8.18354H43.2416V12.1745H43.9631V13.0911Z" fill="black"/>
<path d="M50.8786 10.179C50.8786 11.076 50.5796 11.804 49.9816 12.35C49.3836 12.896 48.6361 13.1755 47.7261 13.1755C46.8161 13.1755 46.0751 12.9025 45.4771 12.35C44.8791 11.7975 44.5801 11.076 44.5801 10.179C44.5801 9.28199 44.8791 8.55401 45.4771 8.00801C46.0751 7.46201 46.8291 7.1825 47.7261 7.1825C48.6231 7.1825 49.3836 7.45551 49.9816 8.00801C50.5796 8.55401 50.8786 9.28199 50.8786 10.179ZM49.8191 10.179C49.8191 9.58099 49.6176 9.08049 49.2146 8.67749C48.8116 8.27449 48.3111 8.07299 47.7261 8.07299C47.1411 8.07299 46.6471 8.27449 46.2441 8.67749C45.8411 9.08049 45.6396 9.58099 45.6396 10.179C45.6396 10.777 45.8411 11.2775 46.2441 11.6805C46.6471 12.0835 47.1411 12.285 47.7261 12.285C48.3111 12.285 48.8116 12.0835 49.2146 11.6805C49.6176 11.2775 49.8191 10.777 49.8191 10.179Z" fill="black"/>
<path d="M57.5604 8.19659H56.8649V13.0976H55.6689L53.1014 9.08708V12.1811H53.7969V13.0976H51.3789V12.1811H52.0939V8.19659H51.3789V7.2736H53.1924L55.8574 11.4206V8.19008H55.1424V7.26709H57.5604V8.19008V8.19659Z" fill="black"/>
<path d="M12.9317 16.1525C12.9317 17.407 12.1777 18.0375 10.6762 18.0375H9.23319V19.357H9.99368V20.2735H7.47168V19.357H8.17369V15.3725H7.47168V14.4495H10.6372C11.3067 14.4495 11.8137 14.547 12.1647 14.742C12.6782 15.028 12.9317 15.496 12.9317 16.146V16.1525ZM11.8267 16.237C11.8267 15.9705 11.7357 15.756 11.5472 15.6065C11.3587 15.4505 11.1052 15.379 10.7802 15.379H9.23319V17.147H10.6762C11.4432 17.147 11.8267 16.8415 11.8267 16.237V16.237Z" fill="black"/>
<path d="M19.2958 20.2735H16.9688V19.3635H17.5603L17.2223 18.382H15.0903L14.7523 19.3635H15.2983V20.2735H12.9453V19.3635H13.6603L15.1033 15.3725H14.3428V14.4495H17.8918V15.3725H17.2353L18.7238 19.3635H19.2893V20.2735H19.2958ZM16.9103 17.511L16.1498 15.3595L15.4153 17.511H16.9168H16.9103Z" fill="black"/>
<path d="M25.8734 20.2735H24.2159V19.0254C24.2159 18.5964 24.1704 18.3105 24.0859 18.1675C23.9429 17.9335 23.6375 17.81 23.1695 17.81H21.7719V19.357H22.5324V20.2735H20.0234V19.357H20.7189V15.3725H20.0234V14.4495H23.1434C24.6319 14.4495 25.3729 14.9695 25.3729 16.016C25.3729 16.757 24.9959 17.2055 24.2484 17.355C24.4304 17.355 24.6059 17.407 24.7814 17.5045C25.1129 17.6995 25.2754 18.07 25.2754 18.6095V19.3504H25.8734V20.267V20.2735ZM24.2809 16.133C24.2809 15.626 23.8974 15.3725 23.1239 15.3725H21.7719V16.9195H23.1629C23.9104 16.9195 24.2809 16.6595 24.2809 16.133Z" fill="black"/>
<path d="M31.6656 16.549H30.6386V15.379H29.5141V19.3635H30.4241V20.2801H27.5511V19.3635H28.4611V15.379H27.3431V16.549H26.3096V14.4561H31.6656V16.549V16.549Z" fill="black"/>
<path d="M38.3924 15.379H37.6969V20.28H36.501L33.9335 16.2695V19.3635H34.629V20.28H32.2109V19.3635H32.926V15.379H32.2109V14.456H34.0245L36.6894 18.603V15.3725H35.9745V14.4495H38.3924V15.3725V15.379Z" fill="black"/>
<path d="M44.0865 20.2735H38.9775V19.357H39.7055V15.3725H38.9775V14.4495H44.0085V16.1265H43.027V15.366H40.7715V16.796H42.5785V17.667H40.7715V19.344H43.105V18.434H44.093V20.2605L44.0865 20.2735Z" fill="black"/>
<path d="M50.7103 20.2735H49.0529V19.0254C49.0529 18.5964 49.0074 18.3105 48.9229 18.1675C48.7799 17.9335 48.4743 17.81 48.0063 17.81H46.6089V19.357H47.3693V20.2735H44.8604V19.357H45.5559V15.3725H44.8604V14.4495H47.9803C49.4688 14.4495 50.2098 14.9695 50.2098 16.016C50.2098 16.757 49.8328 17.2055 49.0854 17.355C49.2674 17.355 49.4429 17.407 49.6184 17.5045C49.9499 17.6995 50.1124 18.07 50.1124 18.6095V19.3504H50.7103V20.267V20.2735ZM49.1178 16.133C49.1178 15.626 48.7343 15.3725 47.9608 15.3725H46.6089V16.9195H47.9999C48.7474 16.9195 49.1178 16.6595 49.1178 16.133Z" fill="black"/>
</svg>
