<svg width="88" height="23" viewBox="0 0 88 23" fill="none" xmlns="http://www.w3.org/2000/svg">
<path d="M87.2508 0H0.871338V22.245H87.2508V0Z" fill="black"/>
<path d="M86.6779 0.430664H1.15796V21.8145H86.6779V0.430664Z" fill="white"/>
<path d="M12.188 9.18514C12.0448 9.04162 11.7583 8.89809 10.8988 8.89809C10.1826 8.89809 9.75281 9.18514 9.75281 9.90272C9.75281 11.3379 12.6178 10.9073 12.6178 13.0601C12.6178 14.2082 11.7583 14.9258 10.6123 14.9258C9.60957 14.9258 9.03656 14.6388 8.89331 14.4953L9.32306 13.9212C9.46631 14.0647 9.89607 14.3517 10.6123 14.3517C11.1853 14.3517 11.9015 14.0647 11.9015 13.3471C11.9015 11.7684 9.17983 12.3425 9.17983 10.1898C9.17983 9.18516 10.1826 8.61108 11.1853 8.61108C12.188 8.61108 12.6178 8.8981 12.9043 9.04161L12.188 9.18514Z" fill="#EE7800"/>
<path d="M17.4882 14.6387H16.7719C16.7719 14.3517 16.7719 13.9211 16.7719 13.9211C16.4854 14.3517 15.9124 14.7822 15.1962 14.7822C14.3367 14.7822 13.7637 14.3517 13.7637 13.4906V10.1897H14.4799V13.4906C14.4799 14.0646 14.9097 14.2082 15.3394 14.2082C15.9124 14.2082 16.3422 13.7776 16.6287 13.3471V10.1897H17.3449L17.4882 14.6387Z" fill="#EE7800"/>
<path d="M22.6452 14.6388H21.9289V11.338C21.9289 10.7639 21.4992 10.6204 21.0694 10.6204C20.4964 10.6204 20.0667 11.051 19.7802 11.4815V14.6388H19.064V10.0464H19.7802C19.7802 10.3334 19.7802 10.7639 19.7802 10.7639C20.0667 10.3334 20.6397 9.90283 21.356 9.90283C22.2155 9.90283 22.7885 10.3334 22.7885 11.1945L22.6452 14.6388Z" fill="#EE7800"/>
<path d="M25.6535 14.7823C24.9373 14.7823 24.5075 14.3518 24.5075 13.6342V10.7639H23.7913V10.1898H24.6507V8.75464H25.367V10.1898H26.6563V10.7639H25.367V13.6342C25.367 13.9212 25.5103 14.2082 25.94 14.2082C26.2265 14.2082 26.513 14.0647 26.6563 13.9212L26.9427 14.3518C26.513 14.4953 26.0833 14.7823 25.6535 14.7823Z" fill="#EE7800"/>
<path d="M30.8105 12.3426C30.8105 13.2037 30.3808 14.2083 29.378 14.2083C28.3753 14.2083 28.0888 13.2037 28.0888 12.3426C28.0888 11.4815 28.5186 10.4769 29.5213 10.4769C30.524 10.4769 30.8105 11.4815 30.8105 12.3426ZM31.67 12.3426C31.67 11.051 30.9538 9.90283 29.5213 9.90283C28.2321 9.90283 27.3726 11.051 27.3726 12.3426C27.3726 13.6343 28.0888 14.7823 29.5213 14.7823C30.8105 14.7823 31.67 13.6343 31.67 12.3426Z" fill="#EE7800"/>
<path d="M35.2513 10.764C35.108 10.764 35.108 10.764 34.9648 10.764C34.3918 10.764 33.962 11.338 33.8188 11.7686V14.7824H33.1025V10.1899H33.8188V11.051C34.1053 10.6204 34.535 10.0464 35.108 10.0464C35.2513 10.0464 35.3945 10.0464 35.5378 10.0464L35.2513 10.764Z" fill="#EE7800"/>
<path d="M38.6891 13.06C38.5459 13.6341 38.2594 14.0646 38.1162 14.6387C37.8297 15.3563 37.5431 16.2174 37.2566 16.648C36.8269 17.0785 36.3972 17.0785 35.6809 17.0785V16.5044C36.1107 16.5044 36.3971 16.5044 36.5404 16.3609C36.8269 16.0739 37.1134 15.0692 37.2566 14.7822L35.6809 10.3332L36.3972 10.1897L37.3999 13.2035C37.5432 13.4906 37.6864 14.0646 37.6864 14.0646C37.6864 14.0646 37.8296 13.4906 37.9729 13.2035L39.1189 10.1897L39.8351 10.3332L38.6891 13.06Z" fill="#EE7800"/>
<path d="M50.0059 14.6387H49.1464L47.8571 10.3332C47.7139 9.75913 47.5706 9.04155 47.5706 9.04155C47.5706 9.04155 47.4274 9.75913 47.2841 10.3332L45.8516 14.6387H44.9921L43.1299 8.4675L43.8461 8.32397L45.1354 12.6295C45.2786 13.2035 45.4219 13.9211 45.4219 13.9211C45.4219 13.9211 45.5651 13.2035 45.7084 12.6295L47.1409 8.32397H48.0004L49.2896 12.6295C49.4329 13.2035 49.5761 13.9211 49.5761 13.9211C49.5761 13.9211 49.7194 13.2035 49.8626 12.6295L51.2951 8.32397L52.0114 8.4675L50.0059 14.6387Z" fill="#EE7800"/>
<path d="M55.5926 11.7685H53.3006C53.4439 11.1945 53.8736 10.4769 54.5899 10.4769C55.3061 10.4769 55.5926 11.051 55.5926 11.7685ZM56.3089 12.3426V12.0556C56.3089 11.051 55.8791 10.0464 54.5899 10.0464C53.3007 10.0464 52.4412 11.1945 52.4412 12.4861C52.4412 13.7778 52.8709 14.9259 54.4466 14.9259C55.1629 14.9259 55.5926 14.6389 56.1656 14.2083L55.7359 13.7778C55.3061 14.2083 55.0196 14.3519 54.5899 14.3519C53.5872 14.3519 53.3006 13.4907 53.3006 12.4861H56.3089V12.3426Z" fill="#EE7800"/>
<path d="M58.4577 14.6387H57.7415V7.75H58.4577V14.6387Z" fill="#EE7800"/>
<path d="M60.8928 14.6387H60.1765V7.75H60.8928V14.6387Z" fill="#EE7800"/>
<path d="M66.3363 14.6388H65.6201V11.338C65.6201 10.7639 65.1903 10.6204 64.7606 10.6204C64.1876 10.6204 63.7579 11.051 63.4714 11.4815V14.6388H62.7551V10.0464H63.4714C63.4714 10.3334 63.4714 10.7639 63.4714 10.7639C63.7579 10.3334 64.3309 9.90283 65.0471 9.90283C65.9066 9.90283 66.4796 10.3334 66.4796 11.1945L66.3363 14.6388Z" fill="#EE7800"/>
<path d="M70.777 11.7685H68.485C68.6282 11.1945 69.058 10.4769 69.7742 10.4769C70.6337 10.4769 70.9203 11.051 70.777 11.7685ZM71.4933 12.3426V12.0556C71.4933 11.051 71.0635 10.0464 69.7742 10.0464C68.485 10.0464 67.6255 11.1945 67.6255 12.4861C67.6255 13.7778 68.0553 14.9259 69.631 14.9259C70.3473 14.9259 70.777 14.6389 71.35 14.2083L70.9202 13.7778C70.6337 14.2083 70.204 14.3519 69.7742 14.3519C68.7715 14.3519 68.485 13.4907 68.485 12.4861H71.4933V12.3426Z" fill="#EE7800"/>
<path d="M75.0746 10.7639C74.7881 10.6204 74.5015 10.4769 74.215 10.4769C73.7853 10.4769 73.3555 10.6204 73.3555 11.1945C73.3555 12.0555 75.3611 11.7685 75.3611 13.3472C75.3611 14.2083 74.5015 14.6388 73.7853 14.6388C73.2123 14.6388 72.7825 14.4953 72.3528 14.2083L72.6393 13.7777C72.9258 13.9213 73.2123 14.0647 73.6421 14.0647C74.0718 14.0647 74.5015 13.9212 74.5015 13.3472C74.5015 12.1991 72.496 12.7731 72.496 11.1945C72.496 10.1899 73.3555 9.90283 74.0718 9.90283C74.5015 9.90283 74.9313 10.0464 75.3611 10.1899L75.0746 10.7639Z" fill="#EE7800"/>
<path d="M78.9422 10.7639C78.6557 10.6204 78.3692 10.4769 78.0827 10.4769C77.653 10.4769 77.2232 10.6204 77.2232 11.1945C77.2232 12.0555 79.2287 11.7685 79.2287 13.3472C79.2287 14.2083 78.3692 14.6388 77.6529 14.6388C77.08 14.6388 76.6502 14.4953 76.2205 14.2083L76.507 13.7777C76.7935 13.9213 77.08 14.0647 77.5097 14.0647C77.9395 14.0647 78.3692 13.9212 78.3692 13.3472C78.3692 12.1991 76.3637 12.7731 76.3637 11.1945C76.3637 10.1899 77.2232 9.90283 77.9395 9.90283C78.3692 9.90283 78.799 10.0464 79.2287 10.1899L78.9422 10.7639Z" fill="#EE7800"/>
</svg>
