<svg width="158" height="41" viewBox="0 0 158 41" fill="none" xmlns="http://www.w3.org/2000/svg">
<path d="M157.41 0.23999H0.290039V40.69H157.41V0.23999Z" fill="#231F20"/>
<path d="M156.63 1.02002H1.06006V39.91H156.63V1.02002Z" fill="white"/>
<path d="M32.57 17.6V16.54C32.2057 16.488 31.8381 16.4613 31.47 16.46C29.7307 16.4606 28.0369 17.0155 26.6345 18.0443C25.232 19.0731 24.194 20.5221 23.6712 22.181C23.1483 23.8398 23.1679 25.6222 23.7269 27.2692C24.286 28.9162 25.3554 30.3421 26.78 31.34C25.7053 30.1875 24.9867 28.7488 24.711 27.1972C24.4354 25.6456 24.6143 24.0474 25.2262 22.5952C25.8382 21.143 26.857 19.8988 28.16 19.0125C29.4631 18.1262 30.9946 17.6356 32.57 17.6Z" fill="#3BBFC0"/>
<path d="M32.76 29.51C33.7264 29.5081 34.6545 29.1322 35.3499 28.461C36.0452 27.7899 36.4538 26.8757 36.49 25.91V8.09997H39.74C39.6707 7.72735 39.6372 7.34897 39.64 6.96997H35.2V24.78C35.1865 25.4159 35.0107 26.0378 34.6892 26.5866C34.3677 27.1354 33.9112 27.5929 33.363 27.9155C32.8149 28.2382 32.1934 28.4153 31.5575 28.4301C30.9216 28.4449 30.2925 28.2968 29.73 28C30.0813 28.4716 30.5385 28.854 31.0649 29.1163C31.5912 29.3787 32.1719 29.5135 32.76 29.51V29.51Z" fill="#3BBFC0"/>
<path d="M45.8301 14.1499V13.1499C44.6336 13.1498 43.4629 12.8024 42.4601 12.1499C43.3386 13.1623 44.5206 13.8638 45.8301 14.1499V14.1499Z" fill="#3BBFC0"/>
<path d="M42.46 12.1601C41.4821 11.0333 40.9425 9.59208 40.94 8.1001H39.75C39.9029 8.92519 40.222 9.71056 40.6879 10.4085C41.1538 11.1065 41.7567 11.7024 42.46 12.1601V12.1601Z" fill="#ED145A"/>
<path d="M31.4701 20.91C30.6467 20.9219 29.8503 21.2059 29.2053 21.7178C28.5602 22.2297 28.1026 22.9407 27.904 23.7399C27.7053 24.5391 27.7767 25.3815 28.1071 26.1359C28.4374 26.8902 29.0081 27.514 29.7301 27.91C29.331 27.3538 29.0923 26.6988 29.0399 26.0162C28.9875 25.3337 29.1234 24.6499 29.4328 24.0393C29.7422 23.4286 30.2133 22.9147 30.7947 22.5533C31.3762 22.192 32.0456 21.9971 32.7301 21.99C33.1039 21.9921 33.4751 22.0528 33.8301 22.17V17.63C33.4657 17.5778 33.0982 17.5511 32.7301 17.55H32.5401V21.03C32.1913 20.9377 31.8307 20.8972 31.4701 20.91V20.91Z" fill="#ED145A"/>
<path d="M45.83 14.1499V17.5999C43.611 17.5998 41.4484 16.8999 39.65 15.5999V24.5999C39.6497 26.096 39.239 27.5633 38.4627 28.8423C37.6865 30.1212 36.5743 31.1628 35.2473 31.8536C33.9202 32.5445 32.4291 32.8581 30.9362 32.7605C29.4433 32.6629 28.0058 32.1577 26.78 31.2999C27.8975 32.5047 29.3523 33.3445 30.9544 33.7096C32.5566 34.0748 34.2316 33.9484 35.7607 33.3469C37.2899 32.7454 38.6022 31.6967 39.5261 30.3379C40.4501 28.979 40.9429 27.3731 40.94 25.7299V16.7299C42.739 18.0287 44.9012 18.7284 47.12 18.7299V14.2799C46.6867 14.2822 46.2542 14.2386 45.83 14.1499V14.1499Z" fill="#ED145A"/>
<path d="M39.6501 24.6399V15.6399C41.4485 16.9399 43.611 17.6398 45.8301 17.6399V14.1899C44.5206 13.9037 43.3386 13.2023 42.4601 12.1899C41.7568 11.7322 41.1539 11.1362 40.688 10.4383C40.2221 9.74036 39.903 8.95497 39.7501 8.12988H36.5001V25.9399C36.4648 26.7146 36.1888 27.4591 35.7106 28.0697C35.2325 28.6803 34.5759 29.1267 33.8322 29.3467C33.0885 29.5667 32.2947 29.5495 31.5613 29.2973C30.8279 29.0452 30.1913 28.5707 29.7401 27.9399C29.0181 27.5439 28.4474 26.92 28.1171 26.1657C27.7867 25.4113 27.7153 24.5689 27.914 23.7697C28.1126 22.9705 28.5702 22.2595 29.2153 21.7477C29.8603 21.2358 30.6567 20.9518 31.4801 20.9399C31.8533 20.9403 32.2242 20.9976 32.5801 21.1099V17.5999C31.0046 17.6356 29.4731 18.1261 28.1701 19.0124C26.8671 19.8987 25.8482 21.143 25.2363 22.5952C24.6243 24.0474 24.4454 25.6455 24.7211 27.1971C24.9968 28.7487 25.7153 30.1874 26.7901 31.3399C28.0159 32.1977 29.4534 32.7029 30.9463 32.8005C32.4392 32.8981 33.9303 32.5844 35.2573 31.8936C36.5844 31.2028 37.6965 30.1612 38.4728 28.8823C39.2491 27.6033 39.6597 26.136 39.6601 24.6399H39.6501Z" fill="black"/>
<path d="M51.52 14.1599H65.4L64.13 18.1599H60.53V32.8499H56V18.1299H51.52V14.1599Z" fill="black"/>
<path d="M88.15 14.1599H102.35L101.08 18.1599H97.16V32.8499H92.67V18.1299H88.15V14.1599Z" fill="black"/>
<path d="M66.25 20.0901H70.7V32.8201H66.28L66.25 20.0901Z" fill="black"/>
<path d="M72.4701 14.1101H76.9101V22.8001L81.3201 18.4701H86.6301L81.0601 23.8801L87.3001 32.8201H82.4001L78.2301 26.6201L76.9101 27.9001V32.8201H72.4701V14.1101Z" fill="black"/>
<path d="M119.58 14.1101H124V22.8001L128.41 18.4701H133.71L128.14 23.8801L134.38 32.8201H129.48L125.32 26.6201L124 27.9001V32.8201H119.55L119.58 14.1101Z" fill="black"/>
<path d="M68.48 18.6399C69.7171 18.6399 70.72 17.637 70.72 16.3999C70.72 15.1628 69.7171 14.1599 68.48 14.1599C67.2429 14.1599 66.24 15.1628 66.24 16.3999C66.24 17.637 67.2429 18.6399 68.48 18.6399Z" fill="black"/>
<path d="M101.79 25.2C101.791 23.2872 102.512 21.4448 103.809 20.0387C105.105 18.6326 106.884 17.7656 108.79 17.61H108.13C107.107 17.5729 106.087 17.7424 105.13 18.1084C104.174 18.4744 103.301 19.0293 102.564 19.7401C101.827 20.4509 101.241 21.3029 100.841 22.2453C100.44 23.1877 100.234 24.2011 100.234 25.225C100.234 26.2489 100.44 27.2623 100.841 28.2047C101.241 29.147 101.827 29.9991 102.564 30.7098C103.301 31.4206 104.174 31.9756 105.13 32.3416C106.087 32.7076 107.107 32.8771 108.13 32.84C108.33 32.84 108.6 32.84 108.79 32.84C106.874 32.686 105.087 31.8126 103.789 30.3954C102.49 28.9782 101.776 27.1221 101.79 25.2Z" fill="#3BBFC0"/>
<path d="M110.53 17.5899H109.86C111.778 17.7292 113.572 18.5894 114.881 19.9974C116.191 21.4055 116.919 23.2571 116.919 25.1799C116.919 27.1028 116.191 28.9543 114.881 30.3624C113.572 31.7704 111.778 32.6306 109.86 32.7699C110.06 32.7699 110.33 32.7699 110.53 32.7699C111.553 32.807 112.573 32.6375 113.53 32.2715C114.486 31.9055 115.359 31.3506 116.096 30.6398C116.833 29.929 117.419 29.077 117.819 28.1346C118.22 27.1922 118.426 26.1788 118.426 25.1549C118.426 24.131 118.22 23.1176 117.819 22.1752C117.419 21.2328 116.833 20.3808 116.096 19.67C115.359 18.9593 114.486 18.4043 113.53 18.0383C112.573 17.6723 111.553 17.5028 110.53 17.5399V17.5899Z" fill="#ED145A"/>
<path d="M109.33 28.9C108.598 28.9 107.883 28.683 107.274 28.2764C106.666 27.8699 106.192 27.292 105.912 26.6159C105.632 25.9399 105.558 25.1959 105.701 24.4782C105.844 23.7604 106.196 23.1012 106.714 22.5837C107.231 22.0663 107.89 21.7139 108.608 21.5711C109.326 21.4283 110.07 21.5016 110.746 21.7817C111.422 22.0617 112 22.5359 112.406 23.1444C112.813 23.7529 113.03 24.4682 113.03 25.2C113.03 25.6859 112.934 26.167 112.748 26.6159C112.562 27.0648 112.29 27.4727 111.946 27.8163C111.603 28.1599 111.195 28.4324 110.746 28.6184C110.297 28.8043 109.816 28.9 109.33 28.9V28.9ZM109.33 17.59C107.825 17.5999 106.356 18.0554 105.109 18.8992C103.863 19.7429 102.894 20.937 102.325 22.3308C101.756 23.7246 101.613 25.2556 101.913 26.7307C102.214 28.2058 102.944 29.5588 104.013 30.6191C105.082 31.6794 106.44 32.3994 107.918 32.6883C109.395 32.9771 110.925 32.8219 112.314 32.2422C113.704 31.6625 114.89 30.6842 115.724 29.4309C116.558 28.1776 117.002 26.7054 117 25.2C116.999 24.196 116.799 23.2021 116.412 22.2754C116.026 21.3488 115.46 20.5078 114.747 19.8006C114.034 19.0934 113.189 18.5341 112.259 18.1547C111.329 17.7753 110.334 17.5834 109.33 17.59V17.59Z" fill="black"/>
</svg>
