<svg width="96" height="96" viewBox="0 0 96 96" fill="none" xmlns="http://www.w3.org/2000/svg">
<circle cx="48" cy="48" r="48" fill="#646A78"/>
<path d="M58.1451 24H50.0556V56.6956C50.0556 60.5913 46.9444 63.7913 43.0725 63.7913C39.2007 63.7913 36.0894 60.5913 36.0894 56.6956C36.0894 52.8696 39.1315 49.7391 42.8651 49.6V41.3913C34.6374 41.5304 28 48.2783 28 56.6956C28 65.1827 34.7757 72 43.1417 72C51.5075 72 58.2833 65.1131 58.2833 56.6956V39.9304C61.3255 42.1565 65.059 43.4783 69 43.5479V35.3391C62.9157 35.1304 58.1451 30.1217 58.1451 24Z" fill="white"/>
</svg>
