<svg id="Layer_1" data-name="Layer 1" width="240" height="240" xmlns="http://www.w3.org/2000/svg" viewBox="0 0 240 240"><defs><style>.cls-1{fill:#fff;}.cls-2{fill:#27348b;}.cls-3{fill:#6eab27;}.cls-4{fill:#e30613;}</style></defs><path d="M211.41,84.84c-8-.6-16.77-5-29.26-11.71l-2.49-1.33C162.44,62.56,141,51.07,120,51.07S77.56,62.56,60.34,71.8l-2.49,1.33c-12.5,6.68-21.29,11.11-29.26,11.71l-1.36.1V86.3c0,16.35,8,38.41,20.36,56.21S82.35,182.75,119,188.76l1,.17,1-.17c36.63-6,59-28.47,71.39-46.25s20.36-39.86,20.36-56.21V84.94Z"/><path class="cls-1" d="M211.3,86.3c-8.19-.62-17.05-5-29.84-11.88C163.61,64.87,141.64,52.53,120,52.53S76.39,64.87,58.54,74.42C45.75,81.26,36.89,85.68,28.69,86.3c0,14.5,6.61,35.24,18.89,53.61l1.21,1.77c11.62,16.72,32.25,37.64,65.44,44.7,1.63.35,3.29.66,5,.94l.79.13.79-.13c1.69-.28,3.35-.59,5-.94a103.12,103.12,0,0,0,54.06-30.67h0l0,0a120.52,120.52,0,0,0,11.36-14C204.26,122.89,211.3,101.27,211.3,86.3Z"/><path class="cls-2" d="M163.21,157.19l-.08.42H150.57L153,145h-2.93l-2.39,12.6h-38l.44-2.26a15.76,15.76,0,0,1-9.22,2.56c-4.23,0-7.34-1.16-9.24-3.46a9.09,9.09,0,0,1-2-5.82,55.66,55.66,0,0,1-16,12.27l-.59.31A97.17,97.17,0,0,0,120,182.53a97.48,97.48,0,0,0,50.84-24.76,48.15,48.15,0,0,1-7.62-.58Z"/><path class="cls-2" d="M69.58,142.27a2.79,2.79,0,0,0-.6-1.78c-.9-.76-3.23-.76-6.39,1l-5.24,2.86,1.58-8.15.85-.65c5.64-4.32,11.21-6,15.41-4.94a34.65,34.65,0,0,1,9.37-7,.23.23,0,0,1-.07-.07c-1.1-.92-3.19-.91-5.74,0l-4.67,1.72,1.35-6.93.88-.64c.54-.4,1.07-.77,1.6-1.13h-.75C73,114.44,68.89,112.2,65,110h46.73a16.87,16.87,0,0,1-1.65-.67.22.22,0,0,1-.09-.1,9,9,0,0,1-4.91-5.58,1.74,1.74,0,0,0,0-.22H52.94c-5.78-3-10.95-5.29-15.32-6.17,0-.13,0-.27-.07-.4h68.62l.18-.31a.31.31,0,0,1,.15-.12,17,17,0,0,1,7.24-6,.41.41,0,0,1,.18-.16H33.55c0,10.87,9,40.84,32,64C68.48,149.91,69.83,145.06,69.58,142.27Z"/><path class="cls-2" d="M129.28,117.05a2.83,2.83,0,0,1-.9,2.13,16.75,16.75,0,0,1-6.44,3.67l-1,.32h11.67a49,49,0,0,0,6.13-3.35,37,37,0,0,0,4.35-3.22H129.18A2.42,2.42,0,0,1,129.28,117.05Z"/><path class="cls-2" d="M114.62,122.91c-.32-1,.58-1.39,3-2.08,1.31-.37,1.59-1.34,1.43-1.83s-1-.62-2-.6a23.75,23.75,0,0,0-12.19,4.07,8.2,8.2,0,0,0-.88.7h10.71A2,2,0,0,1,114.62,122.91Z"/><path class="cls-2" d="M134.41,103.84l-1.5,0a15.53,15.53,0,0,1-1.74,1.91,23.2,23.2,0,0,1-2.95,2.22.47.47,0,0,1-.27.07,21.51,21.51,0,0,1-4.87,2h24.17C147.34,106.56,143,104.19,134.41,103.84Z"/><path class="cls-2" d="M132.64,91.78a11.13,11.13,0,0,1,1.91,2.6.21.21,0,0,1,0,.21h0a7.79,7.79,0,0,1,.38,1.09,7.22,7.22,0,0,1,.22,1.2h67.34c0,.21-.07.42-.11.63-4.15,1-9,3.18-14.3,5.94H172.93c2.56,1.21,4.21,2.8,4.75,4.79,2,7.6-12.86,18.43-34.86,26.27h24.8l-.34,1.72c2-1.13,4.84-1.88,8.88-1.88a57,57,0,0,1,6.23.34l3,.35-1.75,8.7c16.2-21,22.78-44.16,22.78-53.43H130.51A14.31,14.31,0,0,1,132.64,91.78Z"/><path class="cls-3" d="M33.55,90.32H114a30.3,30.3,0,0,1,3.23-1.15,30.56,30.56,0,0,1,3.4-.62.37.37,0,0,1,.24,0,17,17,0,0,1,9.25,1.54.52.52,0,0,1,.18,0l.26.15h75.94C189,90.32,154.07,57.38,120,57.38S51,90.32,33.55,90.32Z"/><path class="cls-3" d="M114.73,123.17H104c-2.47,2.29-1.78,4.85,3.9,4.85,9.19,0,17.22-1.43,24.65-4.85H120.9C117.48,124.2,115.36,124.32,114.73,123.17Z"/><path class="cls-3" d="M133.44,103a.21.21,0,0,1,0,.13h0c17.37-3.29,32.19-3.11,39.53.34H188c5.33-2.76,10.15-4.93,14.3-5.94,0-.21.07-.42.11-.63H135.11A9.36,9.36,0,0,1,133.44,103Z"/><path class="cls-3" d="M104.86,102.54a.19.19,0,0,1-.13-.17,10.83,10.83,0,0,1,.36-3.21,13,13,0,0,1,1.08-2.27H37.55c0,.13,0,.27.07.4,4.37.88,9.54,3.18,15.32,6.17H105a9.3,9.3,0,0,1-.16-.92Z"/><path class="cls-3" d="M129.18,116.6h13.87c2.77-2.42,4.16-4.66,4.2-6.57H123.08l-.29.09a21.74,21.74,0,0,1-5.55.74.56.56,0,0,1-.26.07,24.23,24.23,0,0,1-3.67-.45,12.85,12.85,0,0,1-1.58-.45H65c3.89,2.17,8,4.41,12.16,6.57h.75c8-5.32,15.62-6.28,20.18-2.45a9.44,9.44,0,0,1,2.25,2.75c1.75-.59,3.56-1.16,5.41-1.69C116.59,112.08,128,112.85,129.18,116.6Z"/><path class="cls-1" d="M124.56,141.09h-2.44l-.87,3.88h2.34c1.41,0,3.23-.16,3.57-1.93C127.47,141.46,126.68,141.09,124.56,141.09Z"/><path class="cls-1" d="M101.5,150.87c2.71.09,3.6-2.84,4.06-4.71s1.42-4.77-1.84-4.89c-2.52-.09-3.6,3.09-4,4.7C99.23,148.22,98.77,150.77,101.5,150.87Z"/><polygon class="cls-1" points="84.81 75.53 75.66 75.53 75.24 77.51 78.36 77.51 76.61 85.75 79.44 85.75 81.19 77.51 84.39 77.51 84.81 75.53"/><path class="cls-1" d="M90.62,75.32a6.2,6.2,0,0,0-6.42,5.32C83.48,84,85,86,88.36,86a6.2,6.2,0,0,0,6.42-5.32C95.49,77.27,94,75.32,90.62,75.32Zm1.18,5.36c-.32,1.52-1.1,3.3-3,3.3s-1.94-1.78-1.62-3.3,1.11-3.38,3-3.38S92.14,79.08,91.8,80.68Z"/><polygon class="cls-1" points="106.74 75.53 103.39 75.53 99.2 80.02 99.17 80.02 100.12 75.53 97.29 75.53 95.12 85.75 97.95 85.75 99.11 80.31 99.13 80.31 101.35 85.75 104.85 85.75 102.26 80.03 106.74 75.53"/><path class="cls-1" d="M114.85,75.53l-1.34,6.33A2.5,2.5,0,0,1,111,84c-1.33,0-1.83-.82-1.6-2.12l1.35-6.33h-2.83L106.54,82c-.57,2.84,1.47,4,4,4s5.09-1.12,5.73-4l1.37-6.47Z"/><path class="cls-1" d="M118.57,78.4a2.06,2.06,0,0,0,1,2.49c2,1,4.17.68,3.88,2.07-.15.68-1.06,1-1.7,1-1,0-1.62-.53-1.4-1.49h-2.83c-.55,2.78,1.4,3.47,3.78,3.47s4.7-1,5.15-3.17c.59-2.76-1.86-2.93-3.48-3.37-.71-.2-1.56-.44-1.4-1.19A1.44,1.44,0,0,1,123,77.3a1.31,1.31,0,0,1,1,.33.88.88,0,0,1,.18.9H127c.69-2.46-1.32-3.21-3.42-3.21S119.2,76,118.57,78.4Z"/><polygon class="cls-1" points="131.38 81.56 134.86 81.56 133.97 85.75 136.8 85.75 138.97 75.53 136.14 75.53 135.28 79.58 131.82 79.58 132.68 75.53 129.84 75.53 127.66 85.75 130.49 85.75 131.38 81.56"/><polygon class="cls-1" points="144.25 75.53 141.42 75.53 139.25 85.75 142.08 85.75 144.25 75.53"/><polygon class="cls-1" points="148.79 77.13 148.82 77.1 149.24 85.75 151.78 85.75 156 77.17 156.02 77.2 154.2 85.75 156.68 85.75 158.85 75.53 154.45 75.53 151.37 82.45 151.34 82.45 151.14 75.53 146.66 75.53 144.48 85.75 146.96 85.75 148.79 77.13"/><path class="cls-1" d="M160.7,85.75l1.09-2h4.14l.26,2h3.2l-1.86-10.22h-3.46l-6.2,10.22Zm4.52-8.22h0l.4,4.24h-2.73Z"/><path class="cls-4" d="M104.41,137c-6.22,0-10.49,3-11.63,8.91-1.09,5.59,1.08,9.18,8.12,9.18,6.59,0,10.55-3,11.71-8.91C113.67,140.71,111.45,137,104.41,137Zm1.15,9.14c-.46,1.87-1.35,4.8-4.06,4.71s-2.27-2.65-1.75-4.9c.37-1.61,1.45-4.79,4-4.7C107,141.39,106,144.16,105.56,146.16Z"/><path class="cls-4" d="M133.52,142c.65-3.35-1.82-4.65-5.71-4.65H116.48l-3.4,17.48h6.71l1.15-6.08h2.22c.84,0,1.93.49,2,1.32a38,38,0,0,1,.38,4.76h6.71a48.88,48.88,0,0,0-.75-5.43,3.87,3.87,0,0,0-3.2-2.71v0C130.64,146.1,133,144.58,133.52,142ZM127.16,143c-.34,1.77-2.16,1.93-3.57,1.93h-2.34l.87-3.88h2.44C126.68,141.09,127.47,141.46,127.16,143Z"/><polygon class="cls-4" points="135.92 137.33 134.97 142.21 140.94 142.21 138.54 154.81 145.38 154.81 147.77 142.21 153.85 142.21 154.8 137.33 135.92 137.33"/><polygon class="cls-4" points="157.37 137.33 153.97 154.81 160.81 154.81 164.21 137.33 157.37 137.33"/><path class="cls-4" d="M172.79,142.38c.22-1.12,2.09-1.15,3.16-1.15a26.43,26.43,0,0,1,5.25.6l.87-4.34a54.43,54.43,0,0,0-5.91-.33c-4.73,0-9.54,1.09-10.4,5.53-1.27,6.52,8.58,4.2,8.14,7-.14.88-1.69,1.2-3.3,1.2a26.77,26.77,0,0,1-6-.74l-.88,4.26a45.74,45.74,0,0,0,7.6.55c5.29,0,8.91-1.64,9.68-5.58C182.22,142.91,172.3,144.93,172.79,142.38Z"/><path class="cls-4" d="M96.29,116.3C92.36,113,85.14,114.72,78,120l-.18,1c3.44-1.27,6.5-1.21,8.5.47,4.39,3.68,1.63,14.19-5.39,23.25-1.63,2.1-3.38,4.14-5.23,6.13a.21.21,0,0,1-.29,0c-.08-.08-.07-.17,0-.3,3.54-6.76,4.42-13.45,1.28-16.08s-9.28-1.18-15.18,3.34L61.24,139c3.82-2.09,7.43-2.44,9.55-.66,3.51,2.94,1.1,13-4.79,20.06h6.41a52.94,52.94,0,0,0,17.14-13.9C98.57,133.37,101.78,120.91,96.29,116.3Z"/><path class="cls-1" d="M122,89.58a.24.24,0,0,1,.06.09.17.17,0,0,1,0,.1.39.39,0,0,1-.19.19l-2,.94-1.61,1.53a.44.44,0,0,1-.39.11L115.71,92l-2.22.19a.33.33,0,0,1-.25-.07.1.1,0,0,1,0-.08.17.17,0,0,1,0-.12l.54-1.43a0,0,0,0,0,0,0,17,17,0,0,0-7.24,6l.07,0,2-.6a.44.44,0,0,1,.28,0,.19.19,0,0,1,.12.13v0s0,1.73,0,1.8l.69,1.52s0,0,0,0a.24.24,0,0,1-.06.19l-1.59,1.8-.9,1.68a.34.34,0,0,1-.21.17.45.45,0,0,1-.28,0l-1.71-.65a9.3,9.3,0,0,0,.16.92,1.74,1.74,0,0,1,0,.22,9,9,0,0,0,4.91,5.58.08.08,0,0,1,0-.05l-.14-1.84a.25.25,0,0,1,.12-.22.44.44,0,0,1,.3-.08l2.19.17,2.58-.1a.33.33,0,0,1,.2,0l1.78,1.17,2.08.87a.2.2,0,0,1,.12.13v0a.29.29,0,0,1-.13.21l-1.82,1.24h0a21.74,21.74,0,0,0,5.55-.74l.29-.09a21.51,21.51,0,0,0,4.87-2h0l-2.2-.17a.29.29,0,0,1-.22-.11l0,0a.21.21,0,0,1,0-.18l1.35-1.79s1-1.91,1-1.91a.51.51,0,0,1,.15-.14l2.29-1.2,1.81-1.24a.47.47,0,0,1,.3-.08.25.25,0,0,1,.21.13l.8,1.67a.07.07,0,0,1,0,0,9.36,9.36,0,0,0,1.67-6.09,7.22,7.22,0,0,0-.22-1.2,7.79,7.79,0,0,0-.38-1.09L133.36,96a.44.44,0,0,1-.25.14.44.44,0,0,1-.26,0l-1.62-1L129,94.34a.17.17,0,0,1-.14-.13,0,0,0,0,1,0,0s-.16-1.59-.17-1.66L127.72,91s0,0,0,0a.18.18,0,0,1,0-.18.36.36,0,0,1,.23-.14l2-.46h.09a17,17,0,0,0-9.25-1.54,0,0,0,0,1,0,0Zm2.26,12.11a.35.35,0,0,1-.24.25l-3.16,1h0l-3.23.72a.31.31,0,0,1-.34-.09l-2.86-4c-.06-.08,0-.19.07-.28l4.25-3.6a.45.45,0,0,1,.36-.1l5.48,1a.21.21,0,0,1,.2.21Z"/><path d="M124.58,96.61l-5.48-1a.45.45,0,0,0-.36.1l-4.25,3.6c-.1.09-.13.2-.07.28l2.86,4a.31.31,0,0,0,.34.09l3.23-.72h0l3.16-1a.35.35,0,0,0,.24-.25l.5-4.87A.21.21,0,0,0,124.58,96.61Z"/><path d="M113.74,90.49a0,0,0,0,1,0,0l-.54,1.43a.17.17,0,0,0,0,.12.1.1,0,0,0,0,.08.33.33,0,0,0,.25.07l2.22-.19,2.16.52a.44.44,0,0,0,.39-.11l1.61-1.53,2-.94a.39.39,0,0,0,.19-.19.17.17,0,0,0,0-.1.24.24,0,0,0-.06-.09l-1.19-1a0,0,0,0,0,0,0,.37.37,0,0,0-.24,0,30.56,30.56,0,0,0-3.4.62A30.3,30.3,0,0,0,114,90.32h0A.41.41,0,0,0,113.74,90.49Z"/><path d="M104.73,102.37a.19.19,0,0,0,.13.17h0l1.71.65a.45.45,0,0,0,.28,0,.34.34,0,0,0,.21-.17l.9-1.68,1.59-1.8a.24.24,0,0,0,.06-.19s0,0,0,0l-.69-1.52c0-.07,0-1.8,0-1.8v0a.19.19,0,0,0-.12-.13.44.44,0,0,0-.28,0l-2,.6-.07,0a.31.31,0,0,0-.15.12l-.18.31a13,13,0,0,0-1.08,2.27A10.83,10.83,0,0,0,104.73,102.37Z"/><path d="M128,90.61a.36.36,0,0,0-.23.14.18.18,0,0,0,0,.18s0,0,0,0l.91,1.55c0,.07.17,1.66.17,1.66a0,0,0,0,0,0,0,.17.17,0,0,0,.14.13l2.28.77,1.62,1a.44.44,0,0,0,.26,0,.44.44,0,0,0,.25-.14l1.15-1.42h0a.21.21,0,0,0,0-.21,11.13,11.13,0,0,0-1.91-2.6,14.31,14.31,0,0,0-2.13-1.46l-.26-.15a.52.52,0,0,0-.18,0H130Z"/><path d="M117,110.93a.56.56,0,0,0,.26-.07h0l1.82-1.24a.29.29,0,0,0,.13-.21v0a.2.2,0,0,0-.12-.13l-2.08-.87-1.78-1.17a.33.33,0,0,0-.2,0l-2.58.1-2.19-.17a.44.44,0,0,0-.3.08.25.25,0,0,0-.12.22l.14,1.84a.08.08,0,0,0,0,.05.22.22,0,0,0,.09.1,16.87,16.87,0,0,0,1.65.67,12.85,12.85,0,0,0,1.58.45A24.23,24.23,0,0,0,117,110.93Z"/><path d="M131.17,105.7a15.53,15.53,0,0,0,1.74-1.91c.29-.37.47-.63.49-.67h0a.21.21,0,0,0,0-.13.07.07,0,0,0,0,0l-.8-1.67a.25.25,0,0,0-.21-.13.47.47,0,0,0-.3.08l-1.81,1.24-2.29,1.2a.51.51,0,0,0-.15.14s-.93,1.87-1,1.91l-1.35,1.79a.21.21,0,0,0,0,.18l0,0a.29.29,0,0,0,.22.11l2.2.17h0a.47.47,0,0,0,.27-.07A23.2,23.2,0,0,0,131.17,105.7Z"/></svg>
