<svg width="96" height="96" viewBox="0 0 96 96" fill="none" xmlns="http://www.w3.org/2000/svg">
<circle cx="48" cy="48" r="48" fill="white"/>
<path fill-rule="evenodd" clip-rule="evenodd" d="M66.0825 35.9376C67.9811 34.7395 69.4378 32.8397 70.1215 30.5767C68.3439 31.6888 66.3797 32.4931 64.2839 32.9285C62.6115 31.0426 60.2212 29.8667 57.5758 29.8667C52.5008 29.8667 48.3881 34.207 48.3881 39.5596C48.3881 40.3195 48.4644 41.06 48.6222 41.7672C40.9859 41.3623 34.2147 37.5073 29.6787 31.6389C28.8872 33.0755 28.4349 34.7395 28.4349 36.5145C28.4349 39.8758 30.0574 42.8433 32.5239 44.5849C31.0172 44.535 29.5998 44.0941 28.3587 43.373V43.4922C28.3587 48.1903 31.5247 52.1091 35.7346 52.9966C34.9615 53.224 34.1516 53.3377 33.3102 53.3377C32.7185 53.3377 32.14 53.2794 31.5825 53.1657C32.7501 57.0152 36.1448 59.8218 40.1681 59.8967C37.0205 62.4981 33.0577 64.0456 28.7531 64.0456C28.0116 64.0456 27.2779 64.004 26.5601 63.9125C30.628 66.6609 35.4585 68.2667 40.6493 68.2667C57.5574 68.2667 66.7978 53.4958 66.7978 40.6856C66.7978 40.264 66.7925 39.8453 66.7741 39.432C68.5701 38.0648 70.1321 36.3564 71.3601 34.4122C69.7113 35.1832 67.939 35.7046 66.0825 35.9376Z" fill="#646A78"/>
</svg>
