<svg width="91" height="24" viewBox="0 0 91 24" fill="none" xmlns="http://www.w3.org/2000/svg">
<path d="M90.389 0H0V23.27H90.389V0Z" fill="#E60012"/>
<path d="M89.9412 0.448486H0.449219V22.8215H89.9412V0.448486Z" fill="#E60012"/>
<path d="M12.975 8.59956C13.131 8.41756 14.041 8.40455 14.457 8.34605C16.6345 8.07305 18.292 7.81958 20.06 7.52708C20.3655 7.47508 21.6005 7.03308 22.14 7.76758C22.6145 8.41108 22.7575 8.70358 22.7575 9.06758C22.7575 9.34058 22.621 9.56155 22.2765 9.69155C22.0425 9.78255 21.7565 9.96459 21.464 10.3351C20.58 11.4531 19.813 12.2916 18.7795 13.4291C19.423 14.2156 19.6375 14.7031 19.644 15.3271C19.657 16.0226 19.2735 16.5101 18.7925 16.5101C18.448 16.5101 18.201 16.2371 18.045 15.6846C17.6095 14.1701 17.096 13.4811 15.7375 12.6166C15.0745 12.1941 15.9975 12.1161 16.55 12.1811C16.979 12.2331 17.59 12.3631 18.305 12.9156C18.305 12.9156 19.904 10.2051 20.5735 8.74258L20.5215 8.69057C18.331 9.05457 16.979 9.33407 14.964 9.82807C14.6455 9.89957 13.742 10.4131 13.2285 9.49005C12.9945 9.06105 12.806 8.81406 12.975 8.60606" fill="white"/>
<path d="M30.1347 13.611C30.2972 12.7985 30.4077 11.778 30.4207 10.6925C30.9537 10.6925 31.4932 10.738 32.0327 10.7965L32.1952 10.816C32.4227 10.8485 32.7282 10.8875 32.9232 10.8875C33.3067 10.8875 33.5017 10.7055 33.5017 10.3545C33.5017 10.0685 33.3327 9.78901 33.0727 9.63301C32.8842 9.51601 32.5202 9.4575 31.9872 9.4575C31.6882 9.4575 31.4282 9.47699 31.3762 9.48349C31.0057 9.53549 30.8302 9.54849 30.4662 9.56799C30.4727 9.01549 30.4662 8.931 30.4662 8.5605C30.4662 8.411 30.4987 8.00802 30.5117 7.77402C30.5312 7.49452 30.6417 7.11102 30.6417 7.03952C30.6417 6.77302 30.5767 6.77302 30.2777 6.63652C29.8552 6.44152 29.2117 6.31152 29.1402 6.43502C29.0102 6.65602 29.1077 7.059 29.1142 7.709C29.1142 7.774 29.1207 7.826 29.1207 7.8715C29.1402 8.4825 29.1597 8.92452 29.1597 9.67852C28.5162 9.72402 27.5087 9.802 26.9627 9.8605C26.9627 8.788 26.9627 8.72949 26.9822 8.51499V8.38502C26.9952 8.28752 27.0017 8.19649 27.0147 8.10549C27.0342 7.94299 27.2032 7.5855 27.0017 7.4295C26.8652 7.319 26.5272 7.22151 26.3387 7.18901C26.0982 7.15001 25.7082 7.0135 25.6172 7.137C25.4937 7.293 25.6302 7.93 25.6172 8.4045C25.6172 8.4955 25.6432 8.58001 25.6497 8.65151C25.6822 9.09351 25.7017 9.52902 25.7017 10.01C25.3962 10.049 25.5132 10.049 25.2402 10.0815C25.0582 10.101 24.8827 10.1205 24.7007 10.14C24.4797 10.166 24.2197 10.166 24.0052 10.166C23.7517 10.166 23.3877 10.0685 23.2447 10.296C23.1602 10.426 23.2902 10.8225 23.3357 10.9395C23.4527 11.245 23.5502 11.6025 24.2652 11.518C24.3627 11.505 24.7137 11.3945 24.9477 11.3295C25.2272 11.2515 25.2662 11.1995 25.6757 11.1215C25.6757 11.6935 25.6432 12.5125 25.6302 12.8375C25.6237 13.052 25.6172 13.2275 25.6172 13.3705C25.6172 13.897 25.9227 14.248 26.3842 14.248C26.6572 14.248 26.9497 14.0075 26.9497 13.468L26.9627 10.9135C27.5672 10.842 28.6007 10.764 29.1337 10.7315C29.1142 11.6025 29.0687 12.428 28.9777 13.1235C28.8997 13.8385 28.6267 15.1645 27.0277 15.899C26.4817 16.146 26.3517 16.25 26.3712 16.419C26.3907 16.679 26.8002 16.6205 26.9692 16.601C28.1652 16.419 29.7902 15.7495 30.1477 13.624" fill="white"/>
<path d="M42.3419 11.3815C42.0299 11.401 41.6854 11.4335 41.3214 11.5375C40.9639 11.635 40.5414 11.7 40.0994 11.765H40.0864C39.9304 11.791 39.7679 11.817 39.6119 11.843C39.5274 11.3035 39.3909 10.3025 39.3324 9.85396C39.9954 9.73696 40.7429 9.65249 41.2369 9.60049C41.3344 9.58749 41.4254 9.58096 41.4969 9.56796C41.6659 9.54846 41.8024 9.52899 41.8999 9.52249C42.5369 9.48349 42.7384 9.37296 42.6019 8.91796C42.5304 8.69046 42.4719 8.50847 42.1989 8.35897C42.1144 8.31347 41.9909 8.28748 41.8219 8.28748C41.2499 8.28748 39.9953 8.54749 39.4818 8.66449L39.1699 8.72947V8.67746C39.1504 8.54746 39.1308 8.43049 39.1178 8.33949C39.0983 8.17049 39.0659 7.97548 39.0529 7.88448C38.9814 7.25398 39.0983 6.83798 38.9553 6.62348C38.9098 6.55848 38.7084 6.47398 38.4419 6.42198C38.0909 6.35698 37.7528 6.30497 37.4928 6.36347C37.2198 6.42847 37.5124 7.38399 37.5839 7.72849C37.5904 7.76749 37.5969 7.79997 37.6034 7.83247C37.6489 8.08597 37.6879 8.26796 37.7204 8.43046C37.7594 8.63846 37.7919 8.80099 37.8309 9.02849C37.2914 9.13899 36.3034 9.32748 35.9199 9.38598C35.6404 9.42498 35.4194 9.47046 35.0294 9.52896C34.7564 9.56796 34.3664 9.52897 34.4249 9.82147C34.4509 9.96447 34.7759 10.816 35.2829 10.816C35.3609 10.816 35.4324 10.7965 35.5169 10.764C35.6144 10.725 35.8614 10.634 35.8614 10.634C35.9329 10.6015 36.0889 10.543 36.1604 10.5235C36.5374 10.413 37.1679 10.283 37.6814 10.179C37.7984 10.153 37.9089 10.1335 37.9999 10.114C38.0909 10.608 38.2274 11.6285 38.2924 12.09C37.5254 12.259 36.7129 12.415 35.9394 12.5515C35.9134 12.5515 35.8809 12.558 35.8419 12.5645H35.8159C35.1659 12.6685 34.3924 12.584 34.2689 12.818C34.1714 13.0065 34.3599 13.273 34.3989 13.351C34.6914 13.8905 35.0749 14.04 35.3024 14.04C35.3154 14.04 35.3284 14.04 35.3414 14.04C35.5299 14.027 35.9524 13.8385 36.2969 13.7345L36.5049 13.6695C36.9209 13.5395 37.7463 13.338 38.4223 13.169C38.5393 14.027 38.5719 14.3975 38.5979 14.781C38.6044 14.8785 38.6109 14.976 38.6239 15.08C38.6369 15.2295 38.6499 15.3855 38.6629 15.5285V15.561C38.6889 15.8015 38.7018 15.977 38.7083 16.029L38.7214 16.0875C38.8059 16.562 38.8969 17.056 39.5794 17.056C40.0864 17.056 40.3659 16.991 40.3659 16.6335C40.3659 16.3215 40.2748 15.7885 40.2098 15.4115L40.1514 15.0865C40.0474 14.482 39.9759 14.079 39.7874 12.8635C40.6519 12.74 41.5944 12.6555 41.8154 12.6555C41.9779 12.6555 42.1469 12.6555 42.3094 12.662C42.4719 12.662 42.6408 12.662 42.8098 12.662C43.3038 12.662 43.6938 12.4865 43.5443 12.0445C43.3688 11.5245 43.1804 11.31 42.3549 11.3685" fill="white"/>
<path d="M74.0619 8.4956C73.8019 8.3786 73.5614 8.38508 73.3339 8.39158C73.2884 8.39158 73.2429 8.39158 73.1974 8.39158C73.0609 8.39158 72.0859 8.49561 71.6244 8.58011C70.9029 8.71011 70.1685 8.7426 69.0895 8.8596C68.7775 8.8986 68.4265 8.91811 68.0235 8.91161C68.16 8.71011 68.2315 8.5996 68.3485 8.4111C68.4005 8.3266 68.4525 8.24208 68.511 8.14458C68.5565 8.06008 69.161 7.58559 69.0895 7.29959C68.966 6.81209 67.913 6.17511 67.7375 6.22711C67.614 6.25961 67.6529 6.42209 67.4839 6.81209C67.4839 6.81209 67.432 7.03311 67.172 7.52711C66.405 8.97011 65.5405 10.3676 64.611 11.3686C64.3445 11.6611 64.1624 11.8301 64.2209 11.9666C64.2599 12.0641 64.4029 12.0966 64.5589 12.0641C64.8319 12.0056 65.1049 11.8821 65.3324 11.7326C66.2814 11.1216 66.7559 10.7901 67.4449 9.7891C67.7244 10.0426 67.9974 10.1856 68.2054 10.1856C68.2834 10.1856 68.3614 10.1726 68.4654 10.1401C68.5629 10.1076 68.7385 10.0686 68.849 10.0556C69.2065 9.99708 69.4469 9.95159 69.6809 9.93859C69.8174 10.0556 69.941 10.1986 69.941 10.4131C69.941 10.5171 69.9215 10.8096 69.733 11.3166C68.979 13.4291 68.1925 14.6836 66.6065 15.7756C65.8525 16.2956 65.5664 16.4906 65.6054 16.6271C65.6574 16.8286 65.9239 16.7896 66.0214 16.7896C66.4049 16.7896 67.016 16.6531 67.38 16.4841C69.3755 15.5546 70.1294 14.2416 71.2669 11.6611L71.2929 11.6026C71.3969 11.3686 71.4815 11.1801 71.5205 10.9656L71.5399 10.9006C71.5919 10.6861 71.7089 10.1791 71.4099 9.81508C71.8259 9.78908 72.3914 9.75661 72.8529 9.75661C72.9439 9.75661 73.0285 9.75661 73.113 9.76311C73.308 9.76961 73.5029 9.76959 73.7044 9.78259C73.8149 9.78259 73.9255 9.7956 74.036 9.7956C74.3545 9.7956 74.6535 9.7306 74.6535 9.2626C74.6535 9.0221 74.5885 8.7231 74.0815 8.4956" fill="white"/>
<path d="M76.3047 12.129C76.3502 12.7075 76.6557 12.792 76.7857 12.805C77.2537 12.8505 77.5461 12.5515 77.5916 11.986C77.6501 11.349 77.1757 10.7445 76.3242 10.3675C76.2332 10.3285 76.1031 10.348 76.0446 10.4195C76.0186 10.452 75.9796 10.5235 76.0056 10.634C76.0966 10.9785 76.2527 11.635 76.2982 12.129" fill="white"/>
<path d="M74.7515 13.1495C75.213 13.1885 75.512 12.8895 75.5575 12.3305C75.616 11.6935 75.1415 11.089 74.29 10.712C74.199 10.673 74.069 10.6925 74.0105 10.764C73.9845 10.7965 73.9455 10.868 73.9715 10.9785C74.0625 11.323 74.2185 11.973 74.264 12.4735C74.3095 13.052 74.615 13.143 74.745 13.1495" fill="white"/>
<path d="M80.4705 11.0566C80.282 10.8486 80.1195 10.6666 79.8725 10.5301C79.775 10.4781 79.684 10.4456 79.5995 10.4456C79.229 10.4456 79.164 10.933 79.138 11.115C79.138 11.141 79.138 11.1606 79.1315 11.1736C79.1185 11.2256 79.1055 11.2776 79.0925 11.3426C79.073 11.4466 79.0535 11.5636 78.995 11.7001C78.54 12.8961 78.0525 13.8125 77.3765 14.651C76.7525 15.4245 76.1025 15.8146 75.472 16.1006C75.0365 16.2956 74.809 16.458 74.835 16.6075C74.861 16.7375 75.082 16.783 75.42 16.757C75.8165 16.731 76.369 16.6075 76.629 16.4905L76.6615 16.4775C77.4025 16.1525 77.734 16.042 78.592 15.0605C79.268 14.287 79.541 13.7476 80.243 12.2786L80.2625 12.2396C80.2625 12.2396 80.3015 12.1746 80.334 12.1226C80.477 11.8951 80.6005 11.674 80.6005 11.518C80.6005 11.3425 80.6005 11.2191 80.4575 11.0631" fill="white"/>
<path d="M87.5494 11.1865C86.4509 10.7705 84.7674 10.4325 83.9679 10.3675C83.9679 9.51603 83.9484 8.93102 83.9549 8.45002C83.9549 8.11852 83.9419 7.7805 83.9874 7.4945C84.0394 7.1695 84.0654 6.83802 83.9679 6.74052C83.7859 6.57152 83.4284 6.4935 83.1684 6.4025C83.0449 6.357 82.5899 6.22051 82.4794 6.36351C82.3754 6.49351 82.4859 7.09153 82.5054 7.72853C82.5314 8.46953 82.5314 9.17803 82.5314 9.91903C82.5314 10.66 82.5314 11.4205 82.5184 12.272C82.5119 14.079 82.4599 15.0085 82.4339 15.457C82.4274 15.6195 82.4209 15.7235 82.4209 15.7885C82.4209 16.107 82.4209 16.38 82.6159 16.679C82.8109 16.991 83.1229 17.056 83.4219 17.0625C84.0459 17.069 84.0329 16.7765 84.0329 16.2435C84.0329 15.522 84.0199 14.6575 84.0069 13.7345C83.9939 12.857 83.9809 11.947 83.9809 11.1605C84.7804 11.388 86.5874 12.3045 87.1399 13.0195C87.2569 13.169 87.5819 13.52 87.9914 13.52C88.3749 13.52 88.8234 13.286 88.8234 12.6165C88.8234 11.947 88.3944 11.4985 87.5624 11.18" fill="white"/>
<path d="M11.5644 8.18353C11.4214 8.09253 11.2004 7.95607 10.8949 7.97557C10.4724 8.00807 10.0824 8.19656 9.7899 8.28756C9.7184 8.31356 9.65342 8.33303 9.60792 8.34603C8.78243 8.58003 7.5604 8.93105 6.6569 9.17155V9.10656C6.5724 8.72956 6.50091 8.41756 6.46191 8.13156C6.44891 8.06656 6.36442 7.65055 6.35142 7.58555C6.32542 7.44255 6.30592 7.37104 6.30592 7.33204C6.26042 6.46104 6.24092 6.41554 5.74692 6.36354C5.68842 6.35704 5.5584 6.33104 5.3179 6.31804C5.0449 6.29854 4.77191 6.27905 4.67441 6.40905C4.56391 6.55205 4.74592 7.13707 4.84342 7.52707C4.84992 7.56607 4.86941 7.60506 4.87591 7.63756C5.07091 8.39806 5.21393 8.95707 5.34393 9.56157C4.75243 9.73057 3.55641 10.0101 2.93241 10.1661C2.73741 10.2116 2.51642 10.257 2.45142 10.27C2.10042 10.335 1.76891 10.361 1.66491 10.5495C1.57391 10.7185 1.72341 10.9331 1.82741 11.0891C2.15891 11.6091 2.40593 11.6935 2.66593 11.687C2.99093 11.674 3.49791 11.4141 3.69941 11.3296C4.08291 11.1736 4.6549 11.0045 5.6039 10.7055C6.0004 12.467 6.39042 14.5405 6.67642 15.9575C6.80642 16.6335 7.08592 16.952 7.57342 16.9325C8.37292 16.9065 8.43141 16.6986 8.37291 16.2956C8.33391 15.9966 8.27543 15.7951 8.10643 15.1906C7.67743 13.6826 7.28091 11.8496 6.91041 10.2441C7.79441 9.96456 8.99043 9.57455 9.85493 9.34055C9.60143 10.3156 9.16593 11.076 8.67843 11.726C8.67843 11.726 8.52891 11.973 8.61341 12.09C8.66541 12.168 8.7889 12.181 9.0164 12.09C9.8484 11.7455 10.2774 11.0826 10.8039 10.4846C10.9599 10.3026 11.0769 10.1856 11.2394 10.0296C11.4864 9.79555 11.6944 9.71105 11.8504 9.66555C12.1169 9.57455 12.3704 9.43806 12.3704 9.10656C12.3704 8.82706 12.1104 8.52805 11.5839 8.19655" fill="white"/>
<path d="M63.0308 14.0336C62.2963 13.2471 61.3928 12.6556 60.0538 12.0706C60.2618 11.7326 60.4243 11.4206 60.5868 11.1086L60.6648 10.9591C60.7948 10.6991 60.9313 10.4326 61.0678 10.1726C61.2888 9.73709 61.5033 9.32108 61.6658 9.02208C61.8608 8.72958 62.0428 8.62558 62.2508 8.50208C62.4718 8.38508 62.5498 8.24208 62.5498 8.00808C62.5498 7.77408 62.4783 7.03955 61.8608 6.96805C61.3733 6.91605 60.3463 7.16956 59.9693 7.21506C58.7083 7.39706 56.5178 7.57908 55.5168 7.64408C55.0683 7.67658 54.6068 7.64407 54.4963 7.79357C54.4183 7.90407 54.4573 8.10558 54.7173 8.49558C55.0163 8.93108 55.2243 9.14558 55.4453 9.10658C55.9523 9.02208 56.5698 8.84658 56.8883 8.78158C57.6618 8.61908 59.0788 8.36558 60.0928 8.21608C60.1188 8.21608 60.1578 8.20307 60.1838 8.20307C60.2228 8.20307 60.2618 8.21608 60.2618 8.25508C60.2618 8.30708 60.2163 8.38506 60.1968 8.43706C59.7743 9.55506 59.4623 10.2246 58.8643 11.2646C58.2403 12.3501 57.5448 13.2211 56.7713 13.9946C56.2318 14.5406 55.8288 14.8071 55.0618 15.3921C54.4118 15.8926 54.3403 16.0421 54.4508 16.1721C54.6198 16.3281 54.9708 16.2761 55.2373 16.1721C55.4843 16.0811 55.6793 15.9901 55.9653 15.8666C56.5828 15.5481 57.4018 15.0021 58.0713 14.3976C58.8383 13.7086 59.3128 13.1171 59.6703 12.6296C60.6973 13.5201 61.4643 14.6251 62.1468 15.8796C62.4393 16.4061 62.7123 16.5491 62.9463 16.5491C63.4598 16.5491 63.7068 15.9901 63.7068 15.5676C63.7068 14.9761 63.4338 14.4366 63.0373 14.0271" fill="white"/>
<path d="M51.7345 14.4236C51.455 14.4236 50.8895 14.5016 50.636 14.5601C49.869 14.7356 49.1605 14.8461 47.8345 14.8721C47.1195 14.8851 46.931 14.7421 46.7945 14.5861C46.697 14.4691 46.6645 14.2156 46.6515 13.6046C46.645 13.2406 46.6515 12.6166 46.6515 12.0186C48.0685 11.7326 50.0185 11.1866 50.7205 10.9721C50.909 10.9136 51.065 10.8681 51.2145 10.8226C51.5265 10.7251 51.7735 10.6406 52.0855 10.5431C52.5405 10.4001 52.6445 10.2506 52.612 9.95809C52.5665 9.60709 52.391 9.11959 51.9035 8.94409C51.8255 8.91159 51.728 8.89859 51.6305 8.90509C51.078 8.91159 50.376 9.43806 50.376 9.44456C49.4205 10.1076 48.075 10.6861 46.6515 11.1606C46.6515 10.2831 46.6515 9.8671 46.6515 9.3991C46.6515 9.3666 46.6645 8.91157 46.6645 8.84657C46.684 8.08607 46.905 7.58559 46.5735 7.39709C46.3915 7.29959 46.19 7.24108 45.9625 7.18258C45.618 7.09158 45.371 6.98758 45.2215 7.15008C45.0525 7.32558 45.1565 8.39808 45.1695 8.85308C45.189 9.74358 45.189 10.6601 45.1955 11.4661C45.1955 12.1681 45.1955 12.8246 45.2085 13.3771C45.228 14.2416 45.28 14.7941 45.371 15.0216C45.488 15.3206 45.7545 15.6586 46.0145 15.8406C46.7555 16.3476 48.309 16.3151 49.0565 16.3021C50.246 16.2826 51.793 16.1461 52.313 16.0226C52.833 15.8926 53.015 15.6716 53.002 15.1581C52.9955 14.6836 52.521 14.4171 51.7475 14.4301" fill="white"/>
<path d="M32.3511 8.61253C32.7476 8.52803 32.9166 8.20303 32.8191 7.72203C32.7086 7.17603 32.1561 6.79251 31.3501 6.68851C31.2656 6.67551 31.1616 6.72751 31.1291 6.80551C31.1161 6.83801 31.0966 6.90954 31.1551 6.99404C31.3176 7.26054 31.6166 7.76103 31.7791 8.17053C31.9611 8.63853 32.2406 8.63853 32.3576 8.61253" fill="white"/>
<path d="M34.1255 8.55402C34.522 8.46952 34.6975 8.14452 34.5935 7.66352C34.483 7.11752 33.9305 6.73404 33.1245 6.63004C33.04 6.61704 32.936 6.66904 32.9035 6.74704C32.8905 6.77954 32.871 6.85102 32.9295 6.93552C33.092 7.20202 33.391 7.70252 33.5535 8.11202C33.7355 8.58002 34.015 8.58002 34.1255 8.55402" fill="white"/>
<path d="M51.188 8.49559C51.5845 8.41109 51.76 8.09259 51.656 7.60509C51.5455 7.05909 50.993 6.67557 50.187 6.57157C50.096 6.55857 49.9985 6.61057 49.966 6.68857C49.953 6.72107 49.9335 6.79259 49.992 6.87709C50.1545 7.14359 50.4535 7.64409 50.616 8.05359C50.798 8.52159 51.0775 8.52159 51.188 8.49559" fill="white"/>
<path d="M52.9631 8.43707C53.3596 8.35257 53.5286 8.02758 53.4311 7.54658C53.3206 7.00058 52.7681 6.6171 51.9556 6.5131C51.8711 6.5001 51.7671 6.55209 51.7346 6.63009C51.7216 6.66259 51.7021 6.73408 51.7606 6.81858C51.9231 7.08508 52.2221 7.58558 52.3846 7.99508C52.5666 8.46308 52.8461 8.46307 52.9631 8.43707" fill="white"/>
</svg>
