<svg width="96" height="96" viewBox="0 0 96 96" fill="none" xmlns="http://www.w3.org/2000/svg">
<circle cx="48" cy="48" r="48" fill="white"/>
<path fill-rule="evenodd" clip-rule="evenodd" d="M47.999 31.6797C47.999 31.6797 63.0095 31.6797 66.7531 32.6833C68.8185 33.2349 70.4449 34.8616 70.9968 36.9269C72.0002 40.6703 72.0002 48.4796 72.0002 48.4796C72.0002 48.4796 72.0002 56.2898 70.9968 60.0332C70.4449 62.0985 68.8185 63.7252 66.7531 64.2768C63.0095 65.2804 47.999 65.2804 47.999 65.2804C47.999 65.2804 32.9885 65.2804 29.2456 64.2768C27.1803 63.7252 25.5539 62.0985 25.0011 60.0332C23.9985 56.2898 23.9985 48.4796 23.9985 48.4796C23.9985 48.4796 23.9985 40.6703 25.0011 36.9269C25.5539 34.8616 27.1803 33.2349 29.2456 32.6833C32.9885 31.6797 47.999 31.6797 47.999 31.6797ZM55.636 48.4805L43.0897 41.389V55.5712L55.636 48.4805Z" fill="#646A78"/>
</svg>
